<svg xmlns="http://www.w3.org/2000/svg" width="66.425" height="64.551" viewBox="0 0 66.425 64.551">
  <g id="project" transform="translate(0 -7.222)">
    <path id="Path_2719" data-name="Path 2719" d="M164.385,62.936h-3.6a.973.973,0,0,0,0,1.946h3.6a.973.973,0,1,0,0-1.946Z" transform="translate(-139.079 -48.486)" fill="#fff"/>
    <path id="Path_2720" data-name="Path 2720" d="M230.422,64.882H244.4a.973.973,0,0,0,0-1.946H230.422a.973.973,0,0,0,0,1.946Z" transform="translate(-199.681 -48.486)" fill="#fff"/>
    <path id="Path_2721" data-name="Path 2721" d="M164.385,105.989h-3.6a.973.973,0,0,0,0,1.946h3.6a.973.973,0,1,0,0-1.946Z" transform="translate(-139.079 -85.953)" fill="#fff"/>
    <path id="Path_2722" data-name="Path 2722" d="M230.422,107.935H244.4a.973.973,0,0,0,0-1.946H230.422a.973.973,0,0,0,0,1.946Z" transform="translate(-199.681 -85.953)" fill="#fff"/>
    <path id="Path_2723" data-name="Path 2723" d="M164.385,149.043h-3.6a.973.973,0,0,0,0,1.946h3.6a.973.973,0,1,0,0-1.946Z" transform="translate(-139.079 -123.422)" fill="#fff"/>
    <path id="Path_2724" data-name="Path 2724" d="M230.422,150.989H244.4a.973.973,0,0,0,0-1.946H230.422a.973.973,0,0,0,0,1.946Z" transform="translate(-199.681 -123.422)" fill="#fff"/>
    <path id="Path_2725" data-name="Path 2725" d="M183.048,371.487v-4.756a1.684,1.684,0,0,0-1.682-1.682h-22.2a1.684,1.684,0,0,0-1.682,1.682v4.756a1.684,1.684,0,0,0,1.682,1.682h22.2A1.684,1.684,0,0,0,183.048,371.487Zm-1.946-.264H159.433V367H181.1Z" transform="translate(-137.055 -311.404)" fill="#fff"/>
    <path id="Path_2726" data-name="Path 2726" d="M164.385,192.1h-3.6a.973.973,0,0,0,0,1.946h3.6a.973.973,0,1,0,0-1.946Z" transform="translate(-139.079 -160.889)" fill="#fff"/>
    <path id="Path_2727" data-name="Path 2727" d="M230.422,194.042H244.4a.973.973,0,0,0,0-1.946H230.422a.973.973,0,1,0,0,1.946Z" transform="translate(-199.681 -160.889)" fill="#fff"/>
    <path id="Path_2728" data-name="Path 2728" d="M164.385,235.149h-3.6a.973.973,0,0,0,0,1.946h3.6a.973.973,0,1,0,0-1.946Z" transform="translate(-139.079 -198.357)" fill="#fff"/>
    <path id="Path_2729" data-name="Path 2729" d="M230.422,237.1H244.4a.973.973,0,0,0,0-1.946H230.422a.973.973,0,0,0,0,1.946Z" transform="translate(-199.681 -198.357)" fill="#fff"/>
    <path id="Path_2730" data-name="Path 2730" d="M192.6,451.807a.973.973,0,1,0,0,1.946h14.756a.973.973,0,1,0,0-1.946Z" transform="translate(-166.768 -386.906)" fill="#fff"/>
    <path id="Path_2731" data-name="Path 2731" d="M65.452,43.691H61.3l2.5-16.915a.973.973,0,0,0-1.925-.284l-2.54,17.2H51.138V13.382l12.128,1.953a.25.25,0,0,1,.166.1.261.261,0,0,1,.043.2l-1.023,6.929a.973.973,0,1,0,1.925.284L65.4,15.937a2.2,2.2,0,0,0-1.824-2.523l-12.437-2V9.424a2.2,2.2,0,0,0-2.2-2.2H31.953a.973.973,0,0,0,0,1.946H48.937a.256.256,0,0,1,.255.255V43.691H44.033a2.973,2.973,0,0,0-2.772,1.924L40.3,48.2a1.018,1.018,0,0,1-.949.659H27.079a1.018,1.018,0,0,1-.949-.659l-.965-2.584a2.973,2.973,0,0,0-2.772-1.924H17.233V9.424a.256.256,0,0,1,.255-.255H28.062a.973.973,0,1,0,0-1.946H17.488a2.2,2.2,0,0,0-2.2,2.2v1.987l-12.437,2a2.2,2.2,0,0,0-1.826,2.511l4.1,27.766H.973A.973.973,0,0,0,0,44.664V62.636a9.148,9.148,0,0,0,9.138,9.138h4.216a.973.973,0,0,0,0-1.946H9.138a7.2,7.2,0,0,1-7.192-7.191v-17H22.392a1.018,1.018,0,0,1,.949.659l.965,2.584A2.973,2.973,0,0,0,27.079,50.8H39.346a2.973,2.973,0,0,0,2.772-1.924l.965-2.584a1.018,1.018,0,0,1,.949-.659H64.479v17a7.2,7.2,0,0,1-7.192,7.192H17.244a.973.973,0,0,0,0,1.946H57.288a9.148,9.148,0,0,0,9.138-9.138V44.664A.973.973,0,0,0,65.452,43.691ZM2.948,15.628a.255.255,0,0,1,.212-.293l12.128-1.953V43.691H7.092Z" fill="#fff"/>
  </g>
</svg>
