<svg xmlns="http://www.w3.org/2000/svg" width="65.544" height="64.551" viewBox="0 0 65.544 64.551">
  <g id="target" transform="translate(-0.002 -0.5)">
    <path id="Path_2732" data-name="Path 2732" d="M64,225.565a5.937,5.937,0,0,0-3.662-1.534,5.242,5.242,0,0,0-4.027,1.533l-7.288,7.211a4.837,4.837,0,0,0-.493-.7,4.725,4.725,0,0,0-3.691-1.651h-10.2a20.926,20.926,0,0,1-5.578-.741,13.724,13.724,0,0,0-12.8,2.709,18.62,18.62,0,0,0-3.334,3.578l-1.829-1.775a1.3,1.3,0,0,0-.9-.366h-.009a1.3,1.3,0,0,0-.925.4L.362,243.455a1.29,1.29,0,0,0,.04,1.828L15.442,259.6a1.289,1.289,0,0,0,1.813-.034l8.81-9.038a1.3,1.3,0,0,0-.026-1.835l-.767-.744,1.756-.2a27.906,27.906,0,0,1,3.211-.186H45.761a11.653,11.653,0,0,0,6.368-1.64l.042-.028a8.593,8.593,0,0,0,1.645-1.493L64.276,232.1A4.5,4.5,0,0,0,64,225.565ZM16.3,256.858,3.119,244.31l7.1-7.37,13.1,12.714Zm46.014-26.425L51.851,242.74a6.027,6.027,0,0,1-1.132,1.032,9.169,9.169,0,0,1-4.958,1.221H30.238a30.44,30.44,0,0,0-3.5.2l-3.859.433-8.081-7.842a16.081,16.081,0,0,1,3.09-3.4,11.1,11.1,0,0,1,10.484-2.221,23.5,23.5,0,0,0,6.265.835h10.2a2.329,2.329,0,0,1,2.321,2.525,2.792,2.792,0,0,1-.6,1.789,2.191,2.191,0,0,1-1.758.738H35.913a1.289,1.289,0,0,0,0,2.579h8.881a4.781,4.781,0,0,0,3.723-1.647,5.3,5.3,0,0,0,1.215-3.285l8.394-8.305a3.018,3.018,0,0,1,4.122.069A1.942,1.942,0,0,1,62.311,230.433Zm0,0" transform="translate(0 -194.909)" fill="#fff"/>
    <path id="Path_2733" data-name="Path 2733" d="M231.783,334.217a1.289,1.289,0,1,0-2.51.589l.012.052a1.29,1.29,0,0,0,1.254,1,1.3,1.3,0,0,0,.3-.034,1.289,1.289,0,0,0,.961-1.55Zm0,0" transform="translate(-199.891 -290.128)" fill="#fff"/>
    <path id="Path_2734" data-name="Path 2734" d="M46.813,27.7H59.377a3.1,3.1,0,0,0,1.832-.6,3.1,3.1,0,0,0,1.832.6H75.605a3.1,3.1,0,0,0,1.832-.6,3.1,3.1,0,0,0,1.832.6H91.833a3.125,3.125,0,0,0,3.121-3.122V18.723a6.76,6.76,0,0,0-3.677-6.045,7.437,7.437,0,1,0-11.452,0,6.754,6.754,0,0,0-2.388,2.047,6.741,6.741,0,0,0-2.388-2.047,7.437,7.437,0,1,0-11.452,0,6.741,6.741,0,0,0-2.388,2.047,6.748,6.748,0,0,0-2.388-2.048,7.437,7.437,0,1,0-11.452,0,6.761,6.761,0,0,0-3.677,6.045v5.858A3.126,3.126,0,0,0,46.813,27.7ZM85.552,3.079a4.859,4.859,0,1,1-4.859,4.859A4.864,4.864,0,0,1,85.552,3.079Zm-3.35,11.5a7.411,7.411,0,0,0,6.7,0,4.189,4.189,0,0,1,3.475,4.148v5.859a.544.544,0,0,1-.543.543H79.27a.543.543,0,0,1-.543-.543V18.723A4.189,4.189,0,0,1,82.2,14.575ZM69.323,3.079a4.859,4.859,0,1,1-4.859,4.859A4.864,4.864,0,0,1,69.323,3.079Zm-3.349,11.5a7.411,7.411,0,0,0,6.7,0,4.19,4.19,0,0,1,3.475,4.148v5.859a.544.544,0,0,1-.543.543H63.042a.544.544,0,0,1-.543-.543V18.723A4.19,4.19,0,0,1,65.974,14.575ZM53.1,3.079a4.859,4.859,0,1,1-4.859,4.859A4.864,4.864,0,0,1,53.1,3.079ZM46.27,18.723a4.19,4.19,0,0,1,3.475-4.148,7.411,7.411,0,0,0,6.7,0,4.189,4.189,0,0,1,3.475,4.148v5.859a.544.544,0,0,1-.543.543H46.813a.544.544,0,0,1-.543-.543Zm0,0" transform="translate(-38.097)" fill="#fff"/>
  </g>
</svg>
