<svg xmlns="http://www.w3.org/2000/svg" width="64.551" height="64.55" viewBox="0 0 64.551 64.55">
  <g id="team" transform="translate(0 6)">
    <path id="Path_2718" data-name="Path 2718" d="M63.605,50.583a.946.946,0,0,0,.946-.946V48.189A6.031,6.031,0,0,0,60.4,42.45l-5.91-1.945V38.46A7.061,7.061,0,0,0,57.928,32.4V28.327a7.056,7.056,0,0,0-12.682-4.261A6.006,6.006,0,0,0,41.8,21.183L35.9,19.237V17.191a7.061,7.061,0,0,0,3.439-6.057V7.059a7.059,7.059,0,1,0-14.117,0v4.075a7.061,7.061,0,0,0,3.439,6.057v2.046l-5.909,1.945A6.007,6.007,0,0,0,19.3,24.066,7.056,7.056,0,0,0,6.623,28.327V32.4a7.061,7.061,0,0,0,3.439,6.057v2.046L4.151,42.45A6.03,6.03,0,0,0,0,48.189v1.449a.946.946,0,1,0,1.891,0V48.189a4.143,4.143,0,0,1,2.851-3.942l5.536-1.822a3.62,3.62,0,0,0,6.806,0l5.535,1.821a4.137,4.137,0,0,1,2.588,2.488l-2.462.81a6.028,6.028,0,0,0-4.152,5.737v1.1H7.24V52.015a.946.946,0,1,0-1.891,0v2.366H1.891v-.327a.946.946,0,1,0-1.891,0v1.272a.946.946,0,0,0,.946.946H18.594V63.6a.946.946,0,0,0,.946.946H45.011a.946.946,0,0,0,.946-.946V62.342a.946.946,0,0,0-1.891,0v.318H40.608V57.11a.946.946,0,0,0-1.891,0v5.55H25.834V57.11a.946.946,0,0,0-1.891,0v5.55H20.485V53.282a4.141,4.141,0,0,1,2.852-3.941l5.535-1.822a3.62,3.62,0,0,0,6.806,0l5.535,1.822a4.141,4.141,0,0,1,2.852,3.941v4.645a.946.946,0,0,0,1.891,0V56.273H63.605a.946.946,0,0,0,.946-.946V54.055a.946.946,0,0,0-1.891,0v.327H59.2V52.016a.946.946,0,0,0-1.891,0v2.366H45.957v-1.1A6.028,6.028,0,0,0,41.8,47.545l-2.462-.81a4.137,4.137,0,0,1,2.588-2.488l5.536-1.822a3.62,3.62,0,0,0,6.806,0l5.536,1.822a4.142,4.142,0,0,1,2.852,3.942v1.449A.946.946,0,0,0,63.605,50.583ZM50.869,23.16a5.173,5.173,0,0,1,5.168,5.168V32.4a5.168,5.168,0,1,1-10.335,0V28.327a5.173,5.173,0,0,1,5.167-5.168ZM27.108,11.134V7.059a5.168,5.168,0,0,1,10.335,0v4.075a5.168,5.168,0,0,1-10.335,0Zm5.168,7.059A7.046,7.046,0,0,0,34,17.978V19.9c0,.009,0,.018,0,.027a1.729,1.729,0,0,1-3.458,0c0-.009,0-.018,0-.027V17.978a7.048,7.048,0,0,0,1.729.215Zm-8.938,4.786,5.535-1.822a3.62,3.62,0,0,0,6.806,0l5.536,1.823a4.118,4.118,0,0,1,2.83,3.549,7.041,7.041,0,0,0-.233,1.8V32.4a7.1,7.1,0,0,0,.036.71h-4.52a7.058,7.058,0,0,0-14.1,0H20.7a7.1,7.1,0,0,0,.036-.71V28.327a7.042,7.042,0,0,0-.233-1.8A4.119,4.119,0,0,1,23.337,22.979Zm8.938,19.685A5.173,5.173,0,0,1,27.108,37.5V33.421a5.168,5.168,0,1,1,10.335,0V37.5A5.173,5.173,0,0,1,32.275,42.664ZM8.514,32.4V28.327a5.168,5.168,0,1,1,10.335,0V32.4a5.168,5.168,0,1,1-10.335,0Zm6.9,8.788a1.729,1.729,0,0,1-3.458,0V39.246a7.061,7.061,0,0,0,3.458,0Zm7.8,1.26L17.3,40.506V38.459A7.1,7.1,0,0,0,20.241,35h4.975V37.5a7.061,7.061,0,0,0,3.439,6.057V45.6L27,46.144a6.022,6.022,0,0,0-3.793-3.693Zm9.064,5.563a1.731,1.731,0,0,1-1.729-1.729V44.341a7.061,7.061,0,0,0,3.458,0v1.944a1.731,1.731,0,0,1-1.729,1.729Zm9.064-5.563a6.021,6.021,0,0,0-3.792,3.693L35.9,45.6V43.554A7.061,7.061,0,0,0,39.334,37.5V35h4.975a7.1,7.1,0,0,0,2.94,3.456v2.046Zm9.53.469A1.731,1.731,0,0,1,49.14,41.19V39.247a7.061,7.061,0,0,0,3.458,0V41.19A1.731,1.731,0,0,1,50.869,42.919Z" transform="translate(0 -6)" fill="#fff"/>
  </g>
</svg>
