<svg xmlns="http://www.w3.org/2000/svg" width="38" height="38" viewBox="0 0 38 38">
  <g id="vuesax_linear_map" data-name="vuesax/linear/map" transform="translate(-492 -252)">
    <g id="map" transform="translate(492 252)">
      <path id="Vector" d="M12.667,4.322v9.5c0,3.958-.792,6.729-2.565,8.518L0,12.239,12.239,0A19.479,19.479,0,0,1,12.667,4.322Z" transform="translate(22.167 9.928)" fill="none" stroke="#292d32" stroke-linecap="round" stroke-linejoin="round" stroke-width="2"/>
      <path id="Vector-2" data-name="Vector" d="M31.239,6.761,6.761,31.239C1.995,30.147,0,26.853,0,20.583v-9.5C0,3.167,3.167,0,11.083,0h9.5C26.853,0,30.147,2,31.239,6.761Z" transform="translate(3.167 3.167)" fill="none" stroke="#292d32" stroke-linecap="round" stroke-linejoin="round" stroke-width="2"/>
      <path id="Vector-3" data-name="Vector" d="M22.341,10.1c-1.789,1.773-4.56,2.565-8.518,2.565h-9.5A19.479,19.479,0,0,1,0,12.239L12.239,0Z" transform="translate(9.927 22.167)" fill="none" stroke="#292d32" stroke-linecap="round" stroke-linejoin="round" stroke-width="2"/>
      <path id="Vector-4" data-name="Vector" d="M.135,3.479c1.077-4.639,8.043-4.639,9.12,0,.618,2.723-1.093,5.035-2.6,6.46a2.851,2.851,0,0,1-3.927,0C1.227,8.514-.5,6.2.135,3.479Z" transform="translate(9.745 9.156)" fill="#ddb669" stroke="#ddb669" stroke-width="2"/>
      <path id="Vector-5" data-name="Vector" d="M0,0H38V38H0Z" fill="none" opacity="0"/>
      <path id="Vector-6" data-name="Vector" d="M.495.5H.509" transform="translate(13.905 13.275)" fill="none" stroke="#fff" stroke-linecap="round" stroke-linejoin="round" stroke-width="3"/>
    </g>
  </g>
</svg>
