<svg xmlns="http://www.w3.org/2000/svg" width="22.623" height="17.852" viewBox="0 0 22.623 17.852">
  <path id="mail-inbox-app" d="M17.321,71.851H5.3a5.308,5.308,0,0,1-5.3-5.3V59.3A5.308,5.308,0,0,1,5.3,54H17.321a5.308,5.308,0,0,1,5.3,5.3v7.247A5.308,5.308,0,0,1,17.321,71.851ZM5.3,55.767A3.539,3.539,0,0,0,1.767,59.3v7.247A3.539,3.539,0,0,0,5.3,70.084H17.321a3.539,3.539,0,0,0,3.535-3.535V59.3a3.539,3.539,0,0,0-3.535-3.535ZM14.55,64.49l4.368-3.337a.884.884,0,0,0-1.073-1.4l-4.368,3.336a3.544,3.544,0,0,1-4.284,0L4.961,59.8a.884.884,0,0,0-1.085,1.4l4.235,3.292.006,0a5.315,5.315,0,0,0,6.432,0Z" transform="translate(0 -54)" fill="#cc9a28"/>
</svg>
