<svg xmlns="http://www.w3.org/2000/svg" xmlns:xlink="http://www.w3.org/1999/xlink" width="66" height="66" viewBox="0 0 66 66">
  <defs>
    <radialGradient id="radial-gradient" cx="0.5" cy="0.5" r="0.496" gradientUnits="objectBoundingBox">
      <stop offset="0" stop-color="#f6ebd3" stop-opacity="0"/>
      <stop offset="1" stop-color="#edd8a7"/>
    </radialGradient>
    <clipPath id="clip-path">
      <rect id="Rectangle_2194" data-name="Rectangle 2194" width="66" height="66" transform="translate(0.015 0.015)" fill="url(#radial-gradient)"/>
    </clipPath>
  </defs>
  <g id="Group_14209" data-name="Group 14209" transform="translate(-43.153 -124.072)">
    <rect id="Rectangle_2199" data-name="Rectangle 2199" width="66" height="66" transform="translate(43.153 124.072)" opacity="0" fill="url(#radial-gradient)"/>
    <g id="Group_9177" data-name="Group 9177" transform="translate(43.138 124.057)">
      <g id="Group_9176" data-name="Group 9176" transform="translate(0 0)" clip-path="url(#clip-path)">
        <path id="Path_3733" data-name="Path 3733" d="M65.632,32.819l-1.173-.47a82.744,82.744,0,0,1-12.756-6.1c3.84-5.086,4.775-9.4,4.112-12.181a5.509,5.509,0,0,0-4.25-4.245c-2.776-.668-7.091.267-12.177,4.112A82.946,82.946,0,0,1,33.281,1.178L32.816,0l-.465,1.178a83.354,83.354,0,0,1-6.1,12.75c-5.087-3.835-9.4-4.77-12.182-4.107a5.509,5.509,0,0,0-4.25,4.245c-.663,2.781.272,7.1,4.112,12.181a82.744,82.744,0,0,1-12.756,6.1L0,32.819l1.173.465a83.669,83.669,0,0,1,12.756,6.1c-3.84,5.086-4.775,9.4-4.112,12.181a5.5,5.5,0,0,0,4.25,4.245c2.776.668,7.1-.267,12.177-4.107A83.169,83.169,0,0,1,32.351,64.46l.465,1.173.465-1.173a83.117,83.117,0,0,1,6.1-12.75c5,3.775,8.714,4.3,10.4,4.3a7.6,7.6,0,0,0,1.786-.2,5.5,5.5,0,0,0,4.25-4.245c.663-2.781-.272-7.1-4.112-12.181a83.668,83.668,0,0,1,12.756-6.1ZM51.332,10.8a4.549,4.549,0,0,1,3.5,3.508c.619,2.573-.3,6.6-3.973,11.415A34.811,34.811,0,0,1,39.917,14.774c4.815-3.671,8.842-4.592,11.415-3.978M32.816,2.711a79.32,79.32,0,0,0,5.774,11.84,44.607,44.607,0,0,0-5.774,5.626,44.608,44.608,0,0,0-5.774-5.626,79.32,79.32,0,0,0,5.774-11.84M10.8,14.3A4.549,4.549,0,0,1,14.3,10.8a6.927,6.927,0,0,1,1.593-.173c2.514,0,5.9,1.163,9.822,4.151A34.811,34.811,0,0,1,14.77,25.719C11.1,20.9,10.178,16.877,10.8,14.3M2.707,32.819a79.331,79.331,0,0,0,11.841-5.774,45.325,45.325,0,0,0,5.631,5.774,45.313,45.313,0,0,0-5.631,5.769A78.868,78.868,0,0,0,2.707,32.819M14.3,54.836a4.543,4.543,0,0,1-3.5-3.5c-.619-2.573.3-6.605,3.973-11.419A34.863,34.863,0,0,1,25.716,50.858C20.9,54.534,16.868,55.45,14.3,54.836m18.516,8.09a79.32,79.32,0,0,0-5.774-11.84,45.325,45.325,0,0,0,5.774-5.631,45.772,45.772,0,0,0,5.77,5.636,79.99,79.99,0,0,0-5.77,11.835m6.309-12.691A45.7,45.7,0,0,1,33.2,44.357l-.381-.445-.381.445a46.081,46.081,0,0,1-5.928,5.883A35.84,35.84,0,0,0,15.394,39.122,45.69,45.69,0,0,1,21.272,33.2l.45-.381-.45-.386a45.69,45.69,0,0,1-5.878-5.922A35.876,35.876,0,0,0,26.507,15.4a45.694,45.694,0,0,1,5.928,5.878l.381.45.381-.45A45.694,45.694,0,0,1,39.125,15.4,35.876,35.876,0,0,0,50.239,26.51a45.69,45.69,0,0,1-5.878,5.922l-.45.386.45.381a45.69,45.69,0,0,1,5.878,5.922A35.876,35.876,0,0,0,39.125,50.235m15.71,1.1a4.543,4.543,0,0,1-3.5,3.5c-2.573.618-6.6-.3-11.415-3.978A34.863,34.863,0,0,1,50.862,39.914c3.672,4.814,4.592,8.847,3.973,11.419M51.085,38.588a45.311,45.311,0,0,0-5.631-5.769,45.324,45.324,0,0,0,5.631-5.774,79.332,79.332,0,0,0,11.841,5.774,78.869,78.869,0,0,0-11.841,5.769" transform="translate(-0.17 -0.146)" fill="url(#radial-gradient)"/>
      </g>
    </g>
  </g>
</svg>
