<svg xmlns="http://www.w3.org/2000/svg" width="48.001" height="48.002" viewBox="0 0 48.001 48.002">
  <g id="Group_127" data-name="Group 127" transform="translate(0)">
    <rect id="Rectangle_5" data-name="Rectangle 5" width="48.001" height="48.001" transform="translate(0 0)" fill="#07242e" opacity="0"/>
    <g id="logo" transform="translate(0.716 4.005)">
      <path id="Vector" d="M5.052,16.665h.007a17.427,17.427,0,0,0,2.707.452,21.718,21.718,0,0,0,4.285-.051c.622-.066,1.245-.154,1.867-.26a35.032,35.032,0,0,0,5.514-1.384c.011,0,1.064-.362,2.33-.937a20.572,20.572,0,0,0,2.285-1.207,5.283,5.283,0,0,0,.922-.69,3.232,3.232,0,0,0,.724-1.229c.034-.092.065-.185.093-.279a2.7,2.7,0,0,0-.178-2.108c-.408-.912-3.081-.88-3.081-.88-3.033-.062-2.735-1.761-2.735-1.761a10.458,10.458,0,0,1,3.757-3.867,1.862,1.862,0,0,1,1.306-.395,1.042,1.042,0,0,1,.553.458l.642-.99a.847.847,0,0,0-.042-.989s0,0,0,0a1.419,1.419,0,0,0-.916-.539.888.888,0,0,0-.416.045,12.418,12.418,0,0,0-3.039,2.242C17.776,6.4,19.264,8.855,19.264,8.855c.839,1.593,3.647,1.3,3.647,1.3,1.56.056,2.065.389,2.228.606l0,0a.758.758,0,0,1,.072.156v0c0,.011,0,.018,0,.023v0c-.011.01-.023.02-.034.031l-.012.009a26.516,26.516,0,0,1-4.816,2.29,34.3,34.3,0,0,1-7.442,1.783c-.123.016-.248.031-.372.044-.754.084-1.505.136-2.257.148-.692.012-1.385-.009-2.085-.065A26.929,26.929,0,0,1,.333,13.353c-.171-.068-.267-.076-.312-.021s0,.153.015.17l.006.01,5.007,3.152Z" transform="translate(0 4.608)" fill="#07242e"/>
      <path id="Vector-2" data-name="Vector" d="M24.129,3.729s-.247.089-.671.926a4.914,4.914,0,0,1-1.511,1.869,2.171,2.171,0,0,1-2.468-.182,1.392,1.392,0,0,1-.24-1.358s.142-.447-.291-.238c0,0-.584.307-1.19.609a19.141,19.141,0,0,1-2.054.83,4.865,4.865,0,0,0-.9-1.563c-2.226-2.382-3.7.888-3.7.888a2.187,2.187,0,0,0,.6,2.8,4.479,4.479,0,0,0,3.083.042c.134-.035.281-.084.433-.136a4.108,4.108,0,0,1,.221.8l-.188.216a15.668,15.668,0,0,1-3.972,3.407c-4,2.538-5.876.686-5.876.686-1.105-.956-1-3.093-.795-4.46a7.141,7.141,0,0,0,.676-.559S8.5,5.246,9.522,4.281c0,0,2.52-2.383,4.509-2.481A3.37,3.37,0,0,1,17.26,3.317s.512-1.417.256-1.812C15.87-1.027,12.593.4,12.593.4c-1.831.63-4.686,3.5-4.686,3.5-.926.984-3.242,3-3.242,3s-1.8,1.528-2.92,1.154c0,0-2.107-.2-1.1-3.426a7.6,7.6,0,0,1,.61-1.4c.212-.331.125-.357,0-.314a.6.6,0,0,0-.308.258A6.621,6.621,0,0,0,.006,6.768,3.371,3.371,0,0,0,1.853,9.634a2.641,2.641,0,0,0,2.314-.476c-.932,3.367.29,5.218.29,5.218,1.482,2.292,4.321,1.317,4.321,1.317A14.705,14.705,0,0,0,14.2,12.088a6.79,6.79,0,0,0,1.25-1.417,3.241,3.241,0,0,0,.6-1.624,5.5,5.5,0,0,0,.067-1.155,21.058,21.058,0,0,0,2.319-1.066s.089-.06.06.142A1.871,1.871,0,0,0,20.044,8.9,2.385,2.385,0,0,0,22.4,7.849s.48-.737.7-1.149a2.282,2.282,0,0,0,1.79,1.493c2.211.373,2.434-2.255,2.434-2.255a3.649,3.649,0,0,0-.747-2.9l-.447,2.045a7.644,7.644,0,0,1,.635.851s-.478.38-1.814.075a1.982,1.982,0,0,1-.817-.52s-.363-.353,0-1.084C24.122,4.408,24.48,3.5,24.129,3.729ZM12.071,5.893s.954-.845,2.176.666c-.145.023-.291.043-.434.054C13.815,6.613,11.434,6.832,12.071,5.893Z" transform="translate(13.186 18.863)" fill="#07242e"/>
      <path id="Vector-3" data-name="Vector" d="M1.215,0,0,1.215,1.08,2.294,0,3.373l1.08,1.08L0,5.532,1.215,6.748,2.431,5.532l-1.08-1.08,1.08-1.08-1.08-1.08,1.08-1.078Z" transform="translate(33.634 15.488)" fill="#07242e"/>
      <path id="Vector-4" data-name="Vector" d="M5.1,5.642C4.471,6.2,1.592,8.234.215,9.2c-.45.315-.053.155-.053.155L2.516,8.114A15.168,15.168,0,0,0,7.762,3.669a4.639,4.639,0,0,0,.318-.441,2.084,2.084,0,0,1,.679.73c.43-.789.269-.948.269-.948a2.987,2.987,0,0,0-.556-.531,5.008,5.008,0,0,0,.368-1.311C8.731-.462,7.709.09,7.709.09A2.012,2.012,0,0,0,6.553,1.616C6.66,2.274,7.6,2.9,7.6,2.9l.137.086A19.539,19.539,0,0,1,5.1,5.642ZM7.978,2.09c-1.076-.815-.861-1-.861-1,1.264-1,1.076,1.131,1.076,1.131l-.011.027C8.063,2.154,7.978,2.09,7.978,2.09Z" transform="translate(26.927 8.611)" fill="#07242e"/>
      <path id="Vector-5" data-name="Vector" d="M1.406.072S.348,2,.1,2.62c0,0-.57,1.708.949,1.844a1.793,1.793,0,0,0,1.762-1.9S2.892,1.713,1.431.941h0S1.947-.308,1.406.072ZM2.462,2.863a1.41,1.41,0,0,1-1.789.461S.294,3.108.945,1.833l.122-.225-.042.116S2.272,2.457,2.462,2.863Z" transform="translate(20.574 26.103)" fill="#07242e"/>
      <path id="Vector-6" data-name="Vector" d="M1.406.072S.348,2,.1,2.62c0,0-.57,1.708.949,1.844a1.793,1.793,0,0,0,1.762-1.9S2.892,1.712,1.431.941h0S1.947-.307,1.406.072ZM2.463,2.864a1.41,1.41,0,0,1-1.789.461S.3,3.109.946,1.834l.122-.225-.042.116S2.272,2.458,2.463,2.864Z" transform="translate(10.372 13.208)" fill="#07242e"/>
      <path id="Vector-7" data-name="Vector" d="M3,8.008A6.3,6.3,0,0,0,.059,0L0,1.456c4.135,2.8,2.767,6.32,2.767,6.32C2.621,8.417,3,8.008,3,8.008Z" transform="translate(13.513 9.14)" fill="#07242e"/>
      <path id="Vector-8" data-name="Vector" d="M5.195.237C3.92-.854,3.351,2.172,3.351,2.172c-.108.83-.307,2.289-.307,2.289C2.183.636.533.6.533.6-.136.707.014,2.066.014,2.066c.1.127,1.187.922,1.187.922.161.092.161-.289.161-.289A10.332,10.332,0,0,1,2.829,6.136c.507-.384.737-2.812.737-2.812C3.889-.1,5.41,2.018,5.41,2.018c.215-.23.23-1.275.23-1.275A2.27,2.27,0,0,0,5.195.237Z" transform="translate(25.134 7.799)" fill="#07242e"/>
      <path id="Vector-9" data-name="Vector" d="M0,0V15.441H.488V.488h38.4v38.4H.488V24.764H0V39.372H39.372V0Z" transform="translate(3.704 0)" fill="#07242e"/>
    </g>
  </g>
</svg>
