<svg id="Component_25_35" data-name="Component 25 – 35" xmlns="http://www.w3.org/2000/svg" width="58" height="55.013" viewBox="0 0 58 55.013">
  <rect id="Rectangle_27801" data-name="Rectangle 27801" width="48" height="48" fill="#ddb669" opacity="0"/>
  <g id="logo" transform="translate(0 2)">
    <path id="Vector" d="M6.8,22.438l.01,0a23.466,23.466,0,0,0,3.645.609,29.242,29.242,0,0,0,5.77-.069c.838-.089,1.676-.207,2.514-.351a47.168,47.168,0,0,0,7.424-1.864c.015,0,1.432-.487,3.138-1.261A27.7,27.7,0,0,0,32.38,17.88a7.113,7.113,0,0,0,1.241-.928A4.351,4.351,0,0,0,34.6,15.3c.046-.123.087-.249.125-.375a3.639,3.639,0,0,0-.24-2.838c-.55-1.228-4.148-1.185-4.148-1.185-4.084-.084-3.683-2.371-3.683-2.371a14.081,14.081,0,0,1,5.059-5.207,2.507,2.507,0,0,1,1.758-.532,1.4,1.4,0,0,1,.744.617l.864-1.333A1.14,1.14,0,0,0,35.019.741s0,0-.007-.007A1.91,1.91,0,0,0,33.779.009a1.2,1.2,0,0,0-.56.061c-1.411.423-4.093,3.019-4.093,3.019-5.192,5.531-3.189,8.834-3.189,8.834,1.129,2.145,4.911,1.75,4.911,1.75,2.1.076,2.78.524,3,.817l0,0a1.021,1.021,0,0,1,.1.211v0c0,.015,0,.025,0,.031v.007c-.015.013-.031.026-.046.041l-.016.012A35.7,35.7,0,0,1,27.4,17.883a46.188,46.188,0,0,1-10.021,2.4c-.166.021-.334.041-.5.059-1.016.114-2.026.183-3.039.2-.932.016-1.865-.012-2.807-.087A36.259,36.259,0,0,1,.448,17.979c-.23-.092-.359-.1-.42-.028s0,.206.02.229l.008.013L6.8,22.437Z" transform="translate(0 6.204)" fill="#ddb669"/>
    <path id="Vector-2" data-name="Vector" d="M32.489,5.021s-.333.12-.9,1.246A6.617,6.617,0,0,1,29.55,8.784s-1.957,1.111-3.324-.245A1.874,1.874,0,0,1,25.9,6.71s.191-.6-.392-.321c0,0-.787.413-1.6.82a25.773,25.773,0,0,1-2.766,1.118,6.55,6.55,0,0,0-1.213-2.1c-3-3.207-4.988,1.2-4.988,1.2-.859,2.341.326,3.437.807,3.768a6.031,6.031,0,0,0,4.152.056c.181-.048.379-.114.583-.183a5.531,5.531,0,0,1,.3,1.082c-.086.1-.17.2-.254.291A21.1,21.1,0,0,1,15.18,17.02c-5.386,3.418-7.912.924-7.912.924C5.78,16.656,5.922,13.778,6.2,11.938a9.615,9.615,0,0,0,.91-.752s4.334-4.122,5.712-5.421c0,0,3.393-3.208,6.071-3.34A4.537,4.537,0,0,1,23.24,4.466s.69-1.908.344-2.44C21.368-1.383,16.957.541,16.957.541c-2.466.848-6.31,4.718-6.31,4.718C9.4,6.584,6.281,9.3,6.281,9.3s-2.42,2.058-3.931,1.554c0,0-2.836-.265-1.485-4.613a10.236,10.236,0,0,1,.821-1.882c.285-.446.168-.481,0-.423a.811.811,0,0,0-.415.347A8.915,8.915,0,0,0,.009,9.113a4.539,4.539,0,0,0,2.486,3.859,3.556,3.556,0,0,0,3.116-.64C4.356,16.865,6,19.357,6,19.357c2,3.087,5.818,1.773,5.818,1.773a19.8,19.8,0,0,0,7.3-4.855A9.143,9.143,0,0,0,20.8,14.368a4.364,4.364,0,0,0,.812-2.186,7.411,7.411,0,0,0,.091-1.556A28.354,28.354,0,0,0,24.827,9.19s.12-.081.081.191a2.519,2.519,0,0,0,2.081,2.6,3.212,3.212,0,0,0,3.166-1.417s.647-.993.937-1.547a3.073,3.073,0,0,0,2.41,2.01C36.477,11.533,36.779,8,36.779,8a4.913,4.913,0,0,0-1.006-3.9l-.6,2.754A10.294,10.294,0,0,1,36.025,8s-.644.512-2.443.1a2.668,2.668,0,0,1-1.1-.7s-.489-.476,0-1.46C32.479,5.936,32.961,4.719,32.489,5.021ZM16.254,7.934s1.284-1.138,2.93.9c-.2.031-.392.058-.584.072C18.6,8.9,15.4,9.2,16.254,7.934Z" transform="translate(17.754 25.398)" fill="#ddb669"/>
    <path id="Vector-3" data-name="Vector" d="M1.636,0,0,1.636,1.454,3.088,0,4.542,1.454,6,0,7.449,1.636,9.085,3.273,7.449,1.819,6,3.273,4.542,1.819,3.088,3.273,1.636Z" transform="translate(45.286 20.854)" fill="#ddb669"/>
    <path id="Vector-4" data-name="Vector" d="M6.866,7.6c-.846.747-4.721,3.49-6.577,4.792-.606.425-.071.209-.071.209l3.169-1.673A20.423,20.423,0,0,0,10.451,4.94a6.246,6.246,0,0,0,.428-.594,2.805,2.805,0,0,1,.914.983c.579-1.062.362-1.276.362-1.276a4.022,4.022,0,0,0-.749-.714,6.743,6.743,0,0,0,.5-1.765C11.756-.623,10.38.121,10.38.121A2.709,2.709,0,0,0,8.823,2.176c.145.886,1.412,1.735,1.412,1.735l.184.115A26.308,26.308,0,0,1,6.866,7.6Zm3.877-4.782c-1.449-1.1-1.159-1.347-1.159-1.347,1.7-1.347,1.449,1.523,1.449,1.523l-.015.036C10.856,2.9,10.742,2.815,10.742,2.815Z" transform="translate(36.256 11.595)" fill="#ddb669"/>
    <path id="Vector-5" data-name="Vector" d="M1.893.1S.469,2.688.141,3.528c0,0-.767,2.3,1.277,2.483A2.414,2.414,0,0,0,3.791,3.455s.1-1.149-1.864-2.188l0,0S2.622-.415,1.893.1ZM3.315,3.855a1.9,1.9,0,0,1-2.408.621s-.51-.291.365-2.008l.165-.3-.056.156S3.06,3.309,3.315,3.855Z" transform="translate(27.702 35.147)" fill="#ddb669"/>
    <path id="Vector-6" data-name="Vector" d="M1.893.1S.469,2.688.141,3.527c0,0-.767,2.3,1.277,2.482A2.414,2.414,0,0,0,3.791,3.455s.1-1.149-1.864-2.188l0,0S2.622-.414,1.893.1Zm1.424,3.76a1.9,1.9,0,0,1-2.408.621s-.51-.291.365-2.008l.165-.3-.056.156S3.06,3.31,3.317,3.857Z" transform="translate(13.966 17.785)" fill="#ddb669"/>
    <path id="Vector-7" data-name="Vector" d="M4.04,10.783C6.784,3.332.079,0,.079,0L0,1.961C5.568,5.726,3.725,10.47,3.725,10.47,3.529,11.333,4.04,10.783,4.04,10.783Z" transform="translate(18.194 12.307)" fill="#ddb669"/>
    <path id="Vector-8" data-name="Vector" d="M6.995.319C5.278-1.149,4.512,2.925,4.512,2.925,4.367,4.043,4.1,6.007,4.1,6.007,2.94.856.717.811.717.811c-.9.14-.7,1.971-.7,1.971.14.171,1.6,1.241,1.6,1.241.217.123.217-.389.217-.389C2.963,4.8,3.809,8.262,3.809,8.262c.683-.517.993-3.786.993-3.786C5.236-.137,7.284,2.718,7.284,2.718,7.574,2.408,7.594,1,7.594,1A3.056,3.056,0,0,0,6.995.319Z" transform="translate(33.842 10.501)" fill="#ddb669"/>
    <path id="Vector-9" data-name="Vector" d="M0,0V20.79H.657V.657h51.7v51.7H.657V33.344H0V53.013H53.013V0Z" transform="translate(4.987)" fill="#ddb669"/>
  </g>
</svg>
