<svg width="32" height="32" viewBox="0 0 32 32" fill="none" xmlns="http://www.w3.org/2000/svg">
<g clip-path="url(#clip0_4306_133776)">
<rect width="32" height="32" rx="16" fill="url(#paint0_linear_4306_133776)"/>
<path d="M7.3605 16.7219H7.36392C7.78836 16.822 8.22047 16.8904 8.65623 16.9262C9.33731 16.9824 10.0227 16.9746 10.7021 16.9031C10.9992 16.8733 11.2964 16.8334 11.5935 16.7855C12.4873 16.645 13.3677 16.436 14.2257 16.1607C14.231 16.159 14.7335 15.9971 15.3382 15.7376C15.7136 15.5775 16.078 15.3953 16.4292 15.1919C16.5874 15.1036 16.735 14.9991 16.8693 14.8805C17.0267 14.722 17.1448 14.5324 17.2148 14.3253C17.2311 14.2838 17.2458 14.2418 17.2592 14.1992C17.4156 13.5679 17.1739 13.2474 17.1739 13.2474C16.9785 12.8354 15.7032 12.8499 15.7032 12.8499C14.2551 12.8217 14.3975 12.0545 14.3975 12.0545C14.8237 11.3338 15.4422 10.7315 16.1912 10.3075C16.3599 10.2103 16.6055 10.0749 16.8145 10.129C16.9256 10.1663 17.0192 10.2398 17.0784 10.3362L17.3848 9.88847C17.4804 9.75099 17.4724 9.57103 17.3649 9.4416C17.3649 9.4416 17.3638 9.43995 17.3625 9.43936C17.2557 9.3077 17.099 9.22033 16.9255 9.19575C16.8586 9.18749 16.7905 9.19447 16.727 9.21617C16.2268 9.35818 15.2759 10.2293 15.2759 10.2293C13.4349 12.0852 14.1453 13.1934 14.1453 13.1934C14.5457 13.9131 15.8864 13.7805 15.8864 13.7805C16.6312 13.8055 16.8722 13.9558 16.9499 14.0545C16.9499 14.0545 16.9499 14.0556 16.9511 14.0562C16.9654 14.0785 16.9769 14.1022 16.9855 14.1269V14.1286C16.9855 14.1336 16.9867 14.1368 16.9867 14.1391V14.1413C16.9813 14.1457 16.9756 14.1502 16.9704 14.1551L16.9645 14.1589C16.2368 14.5761 15.4665 14.9227 14.6653 15.1936C13.5165 15.5865 12.3247 15.8567 11.1124 15.9989C11.0535 16.006 10.9933 16.0126 10.9349 16.0188C10.5748 16.0564 10.2164 16.0802 9.85738 16.0857C9.5265 16.0912 9.19568 16.0818 8.86217 16.0564C7.57351 15.9597 6.30759 15.6796 5.10722 15.2256C5.02553 15.1946 4.98004 15.1914 4.95831 15.2162C4.93433 15.2438 4.96004 15.2852 4.96531 15.2929L4.96822 15.2973L7.35849 16.7213L7.3605 16.7219Z" fill="#173039"/>
<path d="M22.7633 17.3184C22.7633 17.3184 22.6454 17.3588 22.4429 17.7366C22.4429 17.7366 22.1499 18.3393 21.7215 18.5812C21.7215 18.5812 21.0275 18.9541 20.5437 18.4989C20.3936 18.3279 20.3501 18.0946 20.4293 17.8853C20.4293 17.8853 20.497 17.6831 20.2904 17.7775C20.2904 17.7775 20.0114 17.9162 19.7225 18.0531C19.4036 18.1959 19.0761 18.3212 18.7419 18.4282C18.6461 18.1693 18.5 17.9296 18.3111 17.7216C17.2483 16.6455 16.5425 18.1223 16.5425 18.1223C16.2381 18.9079 16.658 19.2757 16.8285 19.3873C16.8285 19.3873 17.3421 19.6474 18.3005 19.4061C18.3647 19.39 18.4347 19.3685 18.5071 19.3447C18.5554 19.462 18.5908 19.5837 18.613 19.7079C18.5827 19.7404 18.553 19.7737 18.5232 19.8057C17.4519 20.944 16.6264 21.3448 16.6264 21.3448C14.7165 22.4915 13.8207 21.6546 13.8207 21.6546C13.2931 21.2227 13.3432 20.2572 13.4413 19.6396C13.5542 19.5618 13.662 19.4775 13.7641 19.3871C13.7641 19.3871 15.301 18.004 15.789 17.5681C15.789 17.5681 16.992 16.491 17.9416 16.4473C17.9416 16.4473 18.9853 16.3137 19.4832 17.1323C19.4832 17.1323 19.7277 16.4921 19.6052 16.3137C18.8205 15.1696 17.2562 15.8153 17.2562 15.8153C16.3819 16.0998 15.019 17.3984 15.019 17.3984C14.577 17.843 13.4706 18.7534 13.4706 18.7534C13.4706 18.7534 12.613 19.4439 12.0778 19.2748C12.0778 19.2748 11.072 19.1858 11.5514 17.727C11.6258 17.5079 11.7234 17.2963 11.8425 17.0956C11.9435 16.9454 11.9021 16.9343 11.8443 16.9537C11.7826 16.9756 11.7307 17.0167 11.6972 17.0703C11.387 17.5591 11.2309 18.1216 11.2473 18.6916C11.3399 19.6797 12.1287 19.9864 12.1287 19.9864C12.4789 20.1311 12.9045 19.9653 13.2336 19.7714C12.7888 21.2926 13.372 22.1289 13.372 22.1289C14.0793 23.1647 15.4348 22.7238 15.4348 22.7238C16.8571 22.294 18.0233 21.0942 18.0233 21.0942C18.2527 20.9081 18.4535 20.6927 18.6198 20.454C18.9128 20.0221 18.9075 19.7205 18.9075 19.7205C18.9376 19.548 18.9484 19.3731 18.9397 19.1984C19.3187 19.0592 19.6885 18.8984 20.047 18.7168C20.047 18.7168 20.0896 18.6897 20.0756 18.7809C20.0756 18.7809 20.047 19.5465 20.8134 19.6547C21.2537 19.7175 21.6923 19.5315 21.9358 19.1788C21.9358 19.1788 22.1652 18.8456 22.268 18.6595C22.4009 19.0154 22.7287 19.2741 23.1225 19.3339C24.1778 19.5024 24.2846 18.3154 24.2846 18.3154C24.3984 17.4725 23.928 17.0068 23.928 17.0068L23.7143 17.931C23.8246 18.0524 23.9258 18.1809 24.0173 18.3155C24.0173 18.3155 23.7891 18.4873 23.1511 18.3492C23.0026 18.3027 22.8687 18.222 22.7612 18.1145C22.7612 18.1145 22.5878 17.9548 22.7595 17.6246C22.7597 17.6251 22.9309 17.2173 22.7633 17.3184ZM17.0064 18.2962C17.0064 18.2962 17.4617 17.9145 18.0454 18.5968C17.976 18.6073 17.9065 18.6161 17.8382 18.6211C17.8393 18.6215 16.7028 18.7203 17.007 18.2961L17.0064 18.2962Z" fill="#173039"/>
<path d="M20.238 13.5509C19.938 13.8014 18.5641 14.7219 17.9062 15.1589C17.6914 15.3015 17.881 15.2291 17.881 15.2291L19.0046 14.6679C19.991 14.1887 20.8479 13.5016 21.5093 12.6595C21.564 12.5959 21.6147 12.5293 21.6612 12.4601C21.7957 12.5436 21.9069 12.6568 21.9852 12.7899C22.1905 12.4336 22.1135 12.3618 22.1135 12.3618C22.0363 12.2714 21.9469 12.1909 21.8479 12.1221C21.9347 11.9332 21.9938 11.734 22.0236 11.53C21.9726 10.7931 21.4842 11.0427 21.4842 11.0427C21.1892 11.1694 20.9815 11.4284 20.9321 11.7315C20.9834 12.0287 21.4329 12.3137 21.4329 12.3137C21.4556 12.327 21.4772 12.3397 21.4983 12.3524C21.0674 12.9019 20.238 13.5509 20.238 13.5509ZM21.6125 11.9463C21.0989 11.5779 21.2023 11.4944 21.2023 11.4944C21.8058 11.0425 21.7159 12.0054 21.7159 12.0054C21.7142 12.0093 21.7125 12.0137 21.7106 12.0179C21.6529 11.975 21.6125 11.9463 21.6125 11.9463Z" fill="#173039"/>
<path d="M15.4419 18.9368C15.4419 18.9368 14.937 19.806 14.821 20.088C14.821 20.088 14.549 20.8596 15.274 20.921C15.7466 20.9139 16.1238 20.5456 16.1163 20.0982C16.1162 20.0867 16.1157 20.0752 16.115 20.0637C16.115 20.0637 16.1518 19.6781 15.4542 19.33C15.4542 19.33 15.7005 18.765 15.4419 18.9368ZM15.9463 20.1978C15.9463 20.1978 15.571 20.6756 15.0922 20.4061C15.0922 20.4061 14.9113 20.3083 15.2218 19.7322L15.2803 19.6306L15.2605 19.6831C15.2605 19.6831 15.8562 20.0145 15.9463 20.1978Z" fill="#173039"/>
<path d="M10.5716 13.1115C10.5716 13.1115 10.0667 13.9808 9.9506 14.2626C9.9506 14.2626 9.67866 15.0342 10.4036 15.0956C10.8763 15.0885 11.2534 14.7202 11.246 14.2728C11.2458 14.2613 11.2453 14.2498 11.2446 14.2383C11.2446 14.2383 11.2815 13.8527 10.5838 13.5043C10.5838 13.5043 10.8302 12.9402 10.5716 13.1115ZM11.0766 14.373C11.0766 14.373 10.7013 14.8508 10.2226 14.5813C10.2226 14.5813 10.0417 14.4835 10.3522 13.9074L10.4106 13.8055L10.3907 13.8579C10.3907 13.8579 10.9858 14.1897 11.0766 14.373Z" fill="#173039"/>
<path d="M12.8323 14.8593C13.8052 12.3593 11.428 11.2412 11.428 11.2412L11.3999 11.8991C13.3739 13.1624 12.7208 14.7546 12.7208 14.7546C12.6514 15.0438 12.8323 14.8593 12.8323 14.8593Z" fill="#173039"/>
<path d="M19.4275 10.7419C18.8187 10.2492 18.5473 11.6163 18.5473 11.6163C18.4959 11.9914 18.4008 12.6503 18.4008 12.6503C17.9899 10.9219 17.2019 10.9071 17.2019 10.9071C16.8826 10.954 16.9544 11.5682 16.9544 11.5682C17.0041 11.6257 17.5213 11.9847 17.5213 11.9847C17.5983 12.0261 17.5983 11.8543 17.5983 11.8543C17.9981 12.2448 18.2982 13.4072 18.2982 13.4072C18.5403 13.2338 18.6502 12.1368 18.6502 12.1368C18.8043 10.589 19.5304 11.5469 19.5304 11.5469C19.6331 11.4431 19.6401 10.9708 19.6401 10.9708C19.5816 10.8849 19.5099 10.8078 19.4275 10.7419Z" fill="#173039"/>
<path d="M6.71704 7.11133V14.0873H6.94999V7.33175H25.2809V24.6789H6.94999V18.2996H6.71704V24.8999H25.5138V7.11133H6.71704Z" fill="#173039"/>
<path d="M21.6502 15.145L22.1626 14.6575L21.5856 14.1084L21.0085 14.6575L21.521 15.145L21.0085 15.6327L21.521 16.1203L21.0085 16.6079L21.5856 17.1569L22.1626 16.6079L21.6502 16.1203L22.1626 15.6327L21.6502 15.145Z" fill="#173039"/>
</g>
<defs>
<linearGradient id="paint0_linear_4306_133776" x1="-1.45455" y1="19.3333" x2="32.8418" y2="19.2093" gradientUnits="userSpaceOnUse">
<stop stop-color="#F5E9CF"/>
<stop offset="1" stop-color="#EDD9A7"/>
</linearGradient>
<clipPath id="clip0_4306_133776">
<rect width="32" height="32" rx="16" fill="white"/>
</clipPath>
</defs>
</svg>
