<svg width="18" height="18" viewBox="0 0 18 18" fill="none" xmlns="http://www.w3.org/2000/svg">
<rect width="1.71233" height="4.66955" rx="0.382789" transform="matrix(0.717247 -0.696819 0.696372 0.717681 8.078 2.7041)" stroke="#DDB669"/>
<rect width="1.71233" height="4.66955" rx="0.382789" transform="matrix(0.717247 -0.696819 0.696371 0.717681 3.69604 6.93164)" stroke="#DDB669"/>
<path d="M9.40575 8.69936C9.25609 8.84868 9.0138 8.84833 8.86457 8.69858L8.20839 8.04007L9.87407 6.3782L10.5302 7.0367C10.6795 7.18645 10.6791 7.4289 10.5295 7.57822L9.40575 8.69936Z" stroke="#DDB669"/>
<path d="M9.15493 11.2256C9.36634 11.2256 9.53772 11.397 9.53772 11.6084L9.53772 12.6252L4.37329 12.6252L4.37329 11.6084C4.37329 11.397 4.54467 11.2256 4.75608 11.2256L9.15493 11.2256Z" stroke="#DDB669"/>
<path d="M9.83633 12.6602C10.0477 12.6602 10.2191 12.8315 10.2191 13.0429L10.2191 14.0597L3.4408 14.0597L3.4408 13.0429C3.4408 12.8315 3.61218 12.6602 3.82359 12.6602L9.83633 12.6602Z" stroke="#DDB669"/>
<path d="M15.0978 13.2829C14.649 13.7307 13.9137 13.6996 13.5042 13.2156L9.57355 8.56945L10.4164 7.74407L15.0361 11.6889C15.5178 12.1002 15.5463 12.8354 15.0978 13.2829V13.2829Z" stroke="#DDB669"/>
<rect width="4.35316" height="3.10672" transform="matrix(0.717247 -0.696819 0.696372 0.717681 5.46692 6.27051)" stroke="#DDB669"/>
</svg>
