<svg width="18" height="18" viewBox="0 0 18 18" fill="none" xmlns="http://www.w3.org/2000/svg">
<path d="M12.75 16.3125H5.25C1.9425 16.3125 0.9375 15.3075 0.9375 12V6C0.9375 2.6925 1.9425 1.6875 5.25 1.6875H12.75C16.0575 1.6875 17.0625 2.6925 17.0625 6V12C17.0625 15.3075 16.0575 16.3125 12.75 16.3125ZM5.25 2.8125C2.565 2.8125 2.0625 3.3225 2.0625 6V12C2.0625 14.6775 2.565 15.1875 5.25 15.1875H12.75C15.435 15.1875 15.9375 14.6775 15.9375 12V6C15.9375 3.3225 15.435 2.8125 12.75 2.8125H5.25Z" fill="#DDB669"/>
<path d="M14.25 6.5625H10.5C10.1925 6.5625 9.9375 6.3075 9.9375 6C9.9375 5.6925 10.1925 5.4375 10.5 5.4375H14.25C14.5575 5.4375 14.8125 5.6925 14.8125 6C14.8125 6.3075 14.5575 6.5625 14.25 6.5625Z" fill="#DDB669"/>
<path d="M14.25 9.5625H11.25C10.9425 9.5625 10.6875 9.3075 10.6875 9C10.6875 8.6925 10.9425 8.4375 11.25 8.4375H14.25C14.5575 8.4375 14.8125 8.6925 14.8125 9C14.8125 9.3075 14.5575 9.5625 14.25 9.5625Z" fill="#DDB669"/>
<path d="M14.25 12.5625H12.75C12.4425 12.5625 12.1875 12.3075 12.1875 12C12.1875 11.6925 12.4425 11.4375 12.75 11.4375H14.25C14.5575 11.4375 14.8125 11.6925 14.8125 12C14.8125 12.3075 14.5575 12.5625 14.25 12.5625Z" fill="#DDB669"/>
<path d="M6.37496 9.03043C5.31746 9.03043 4.45496 8.16793 4.45496 7.11043C4.45496 6.05293 5.31746 5.19043 6.37496 5.19043C7.43246 5.19043 8.29496 6.05293 8.29496 7.11043C8.29496 8.16793 7.43246 9.03043 6.37496 9.03043ZM6.37496 6.31543C5.93996 6.31543 5.57996 6.67543 5.57996 7.11043C5.57996 7.54543 5.93996 7.90543 6.37496 7.90543C6.80996 7.90543 7.16996 7.54543 7.16996 7.11043C7.16996 6.67543 6.80996 6.31543 6.37496 6.31543Z" fill="#DDB669"/>
<path d="M9.00005 12.8103C8.71505 12.8103 8.46755 12.5928 8.43755 12.3003C8.35505 11.4903 7.70255 10.8378 6.88505 10.7628C6.54005 10.7328 6.19505 10.7328 5.85005 10.7628C5.03255 10.8378 4.38005 11.4828 4.29755 12.3003C4.26755 12.6078 3.99005 12.8403 3.68255 12.8028C3.37505 12.7728 3.15005 12.4953 3.18005 12.1878C3.31505 10.8378 4.38755 9.76531 5.74505 9.64531C6.15755 9.60781 6.57755 9.60781 6.99005 9.64531C8.34005 9.77281 9.42005 10.8453 9.55505 12.1878C9.58505 12.4953 9.36005 12.7728 9.05255 12.8028C9.03755 12.8103 9.01505 12.8103 9.00005 12.8103Z" fill="#DDB669"/>
</svg>
