<svg width="34" height="34" viewBox="0 0 34 34" fill="none" xmlns="http://www.w3.org/2000/svg">
<path d="M26.3238 15.5499L23.4806 18.057C23.0902 18.4007 22.804 19.11 22.8589 19.6291L23.1463 22.7278C23.3345 24.7109 22.0745 25.5116 20.3491 24.515L17.4234 22.8141C16.9335 22.5305 16.1134 22.5083 15.6131 22.7763L12.9244 24.1931C10.8011 25.3094 9.60525 24.3433 10.2595 22.0366L11.1738 18.8141C11.3413 18.227 11.116 17.4031 10.6888 16.9807L8.30848 14.6315C6.60642 12.9494 7.16538 11.5161 9.56119 11.4382L12.5946 11.3461C13.1617 11.3287 13.8666 10.9141 14.1502 10.4241L15.8511 7.4984C16.8545 5.78042 18.3447 5.85352 19.1633 7.66636L20.4393 10.4975C20.6588 10.9744 21.2463 11.4534 21.7585 11.5539L25.4756 12.3273C27.4816 12.7417 27.8631 14.1955 26.3238 15.5499Z" fill="url(#paint0_linear_4555_12488)"/>
<defs>
<linearGradient id="paint0_linear_4555_12488" x1="8.24488" y1="10.3118" x2="22.3226" y2="25.5855" gradientUnits="userSpaceOnUse">
<stop stop-color="#F5E9CF"/>
<stop offset="1" stop-color="#EDD9A7"/>
</linearGradient>
</defs>
</svg>
