<svg id="Group_23417" data-name="Group 23417" xmlns="http://www.w3.org/2000/svg" xmlns:xlink="http://www.w3.org/1999/xlink" width="58" height="58" viewBox="0 0 58 58">
  <defs>
    <linearGradient id="linear-gradient" x1="0.5" x2="0.5" y2="1" gradientUnits="objectBoundingBox">
      <stop offset="0" stop-color="#f4e9d2"/>
      <stop offset="1" stop-color="#fbfbfb" stop-opacity="0"/>
    </linearGradient>
  </defs>
  <rect id="icons8-consultation-100" width="58" height="58" fill="#fff" opacity="0"/>
  <circle id="Ellipse_1464" data-name="Ellipse 1464" cx="19" cy="19" r="19" fill="url(#linear-gradient)"/>
  <g id="money" transform="translate(9 9)">
    <g id="Group_23291" data-name="Group 23291" transform="translate(7.375 0)">
      <g id="Group_23286" data-name="Group 23286" transform="translate(0 11.01)">
        <g id="Group_23285" data-name="Group 23285">
          <path id="Path_7080" data-name="Path 7080" d="M94.55,137.023a.436.436,0,0,1-.43-.367,3.629,3.629,0,1,1,7.163,0,.436.436,0,0,1-.861-.139,2.757,2.757,0,1,0-5.44,0A.437.437,0,0,1,94.55,137.023Z" transform="translate(-94.074 -132.433)" fill="#07242e" stroke="#07242e" stroke-width="0.4"/>
        </g>
      </g>
      <g id="Group_23287" data-name="Group 23287" transform="translate(18.377 7.341)">
        <path id="Path_7081" data-name="Path 7081" d="M313.536,98.271a.438.438,0,0,1-.41-.585,4.8,4.8,0,0,0-2.808-6.156,4.689,4.689,0,0,0-4.851,1.017.436.436,0,0,1-.6-.635,5.557,5.557,0,0,1,5.75-1.2,5.675,5.675,0,0,1,3.329,7.272.437.437,0,0,1-.41.288Z" transform="translate(-304.73 -90.372)" fill="#07242e" stroke="#07242e" stroke-width="0.4"/>
      </g>
      <g id="Group_23288" data-name="Group 23288" transform="translate(10.433)">
        <path id="Path_7082" data-name="Path 7082" d="M214.749,14.9a.436.436,0,0,1-.383-.227,5.758,5.758,0,0,1,.069-5.6,5.591,5.591,0,0,1,10.471,2.892.436.436,0,0,1-.436.426h-.01a.436.436,0,0,1-.426-.446,4.718,4.718,0,0,0-8.842-2.437,4.88,4.88,0,0,0-.06,4.744.436.436,0,0,1-.382.645Z" transform="translate(-213.674 -6.219)" fill="#07242e" stroke="#07242e" stroke-width="0.4"/>
      </g>
      <g id="Group_23289" data-name="Group 23289" transform="translate(13.718 2.597)">
        <path id="Path_7083" data-name="Path 7083" d="M255.788,37.352l-.521-.3.27-.47a.393.393,0,0,0-.681-.391l-.278.483a1.474,1.474,0,0,0-1.27,2.649l.3.173a.689.689,0,0,1-.684,1.2l-1.009-.585a.393.393,0,1,0-.394.679l.521.3-.27.47a.393.393,0,1,0,.681.391l.277-.482a1.444,1.444,0,0,0,.908.05,1.477,1.477,0,0,0,.363-2.7l-.3-.173a.689.689,0,0,1,.684-1.2l1.008.585a.393.393,0,0,0,.394-.679Z" transform="translate(-251.324 -35.992)" fill="#07242e" stroke="#07242e" stroke-width="0.4"/>
      </g>
      <g id="Group_23290" data-name="Group 23290" transform="translate(20.263 9.723)">
        <path id="Path_7084" data-name="Path 7084" d="M330.22,118.922l-.565-.206.185-.51a.393.393,0,0,0-.738-.268l-.19.525a1.474,1.474,0,0,0-.792,2.83l.323.118a.689.689,0,0,1-.468,1.3l-1.094-.4a.393.393,0,1,0-.269.737l.565.206-.185.51a.393.393,0,1,0,.738.267l.19-.524a1.475,1.475,0,0,0,.793-2.83l-.323-.118a.689.689,0,0,1,.468-1.3l1.094.4a.393.393,0,0,0,.27-.737Z" transform="translate(-326.353 -117.68)" fill="#07242e" stroke="#07242e" stroke-width="0.4"/>
      </g>
    </g>
    <g id="Group_23294" data-name="Group 23294" transform="translate(0 0.856)">
      <path id="Path_7085" data-name="Path 7085" d="M40,52.568a2.465,2.465,0,0,0-1.023-2.007A2.465,2.465,0,0,0,40,48.554a2.5,2.5,0,0,0-1.084-2.216,2.542,2.542,0,0,0-1.5-4.577h-9.46a2.484,2.484,0,0,0-2.412,2.022,5.325,5.325,0,0,0-3.972,1.145.46.46,0,0,0-.112.6.421.421,0,0,0,.622.108,4.494,4.494,0,0,1,2.843-1.009,4.833,4.833,0,1,1-4.649,4.829,4.931,4.931,0,0,1,.485-2.15.457.457,0,0,0-.148-.579A.422.422,0,0,0,20,46.9a5.823,5.823,0,0,0-.58,2.552,5.757,5.757,0,0,0,2.606,4.85H15.62V34.078l2.437,4.068a.425.425,0,0,0,.364.209H35.039V40a.427.427,0,1,0,.855,0V38.355H38.68a.443.443,0,0,0,.379-.669L35.831,32.3a.425.425,0,0,0-.364-.209H27.445a5.869,5.869,0,0,0,.245-1.684A5.6,5.6,0,0,0,22.222,24.7a5.612,5.612,0,0,0-5.466,5.7A5.874,5.874,0,0,0,17,32.088l-11.313,0-2.036-4.5a7.09,7.09,0,0,0,2.462-7.371L7.9,19.35a6.649,6.649,0,0,0,7.056,2.792l1.358,3a.422.422,0,0,0,.6.194.459.459,0,0,0,.163-.58l-3.828-8.468a.425.425,0,0,0-.569-.213L.61,21.888a.444.444,0,0,0-.206.582l4.345,9.613H3.657a.425.425,0,0,0-.364.209L.065,37.686a.443.443,0,0,0,.38.669h11.52a.425.425,0,0,0,.364-.209l2.437-4.071V54.3H4.084V40.569a.448.448,0,0,0-.385-.456.432.432,0,0,0-.469.437V54.742a.433.433,0,0,0,.427.439H37.615A2.432,2.432,0,0,0,40,52.568ZM22.221,25.576A4.733,4.733,0,0,1,26.836,30.4a4.981,4.981,0,0,1-.29,1.684H23.695a1.507,1.507,0,0,0,.126-.6,1.457,1.457,0,0,0-1.43-1.48h-.335a.69.69,0,0,1,0-1.379h1.135a.4.4,0,0,0,0-.79h-.583V27.3a.385.385,0,1,0-.769,0v.56a1.483,1.483,0,0,0,.217,2.941h.335a.676.676,0,0,1,.66.69.7.7,0,0,1-.338.6H17.9A4.986,4.986,0,0,1,17.61,30.4a4.742,4.742,0,0,1,4.611-4.824Zm13.006,7.39,2.7,4.511H18.659l-2.7-4.511ZM12.66,17.061l1.93,4.269a5.815,5.815,0,0,1-5.9-2.359ZM1.358,22.5l3.97-1.91a6.2,6.2,0,0,1-2.041,6.178ZM11.725,37.477H1.193l2.7-4.515H14.428Zm17.533,8.464a5.51,5.51,0,0,0-2.877-1.991,1.622,1.622,0,0,1,1.573-1.312h9.515a1.652,1.652,0,0,1,0,3.3ZM37.615,54.3H27.938c-.037,0-.073,0-.11,0a5.757,5.757,0,0,0,2.6-4.845,5.84,5.84,0,0,0-.624-2.634h7.73a1.652,1.652,0,0,1,0,3.3H34.179a.444.444,0,0,0-.444.4.435.435,0,0,0,.425.482h3.455a1.548,1.548,0,0,1,1.526,1.568A1.571,1.571,0,0,1,37.615,54.3Z" transform="translate(0 -16.037)" fill="#07242e" stroke="#07242e" stroke-width="0.4"/>
      <g id="Group_23292" data-name="Group 23292" transform="translate(31.485 33.987)">
        <circle id="Ellipse_1462" data-name="Ellipse 1462" cx="0.567" cy="0.567" r="0.567" fill="#07242e" stroke="#07242e" stroke-width="0.4"/>
      </g>
      <g id="Group_23293" data-name="Group 23293" transform="translate(23.276 29.974)">
        <path id="Path_7086" data-name="Path 7086" d="M276.142,361.284a1.47,1.47,0,0,0-1.467-1.471h-.345a.686.686,0,0,1,0-1.371H275.5a.393.393,0,1,0,0-.785h-.6v-.538a.393.393,0,0,0-.785,0v.556a1.47,1.47,0,0,0,.22,2.923h.345a.686.686,0,0,1,0,1.371h-1.168a.393.393,0,0,0,0,.785h.6v.538a.393.393,0,1,0,.785,0v-.556A1.47,1.47,0,0,0,276.142,361.284Z" transform="translate(-272.864 -356.726)" fill="#07242e" stroke="#07242e" stroke-width="0.4"/>
      </g>
    </g>
  </g>
</svg>
