<svg id="Group_23436" data-name="Group 23436" xmlns="http://www.w3.org/2000/svg" xmlns:xlink="http://www.w3.org/1999/xlink" width="58" height="58" viewBox="0 0 58 58">
  <defs>
    <linearGradient id="linear-gradient" x1="0.5" x2="0.5" y2="1" gradientUnits="objectBoundingBox">
      <stop offset="0" stop-color="#f4e9d2"/>
      <stop offset="1" stop-color="#fbfbfb" stop-opacity="0"/>
    </linearGradient>
  </defs>
  <rect id="icons8-consultation-100" width="58" height="58" fill="#07242e" opacity="0"/>
  <circle id="Ellipse_1474" data-name="Ellipse 1474" cx="19" cy="19" r="19" transform="translate(10)" fill="url(#linear-gradient)"/>
  <g id="intermediary" transform="translate(9 7.012)">
    <path id="Subtraction_4" data-name="Subtraction 4" d="M1.439,24h0L0,23.212c.6-3.961,3.19-5.133,5.795-5.993.125-.042.389-.125.695-.221l.155-.049.3-.1c.514-.161.889-.279,1.056-.333V13.94a7.007,7.007,0,0,1-2.37-4.77s0-2.741,0-2.773A6.281,6.281,0,0,1,6.6,2.482,3.046,3.046,0,0,1,8.536,1.3,4.482,4.482,0,0,1,11.9,0a7.081,7.081,0,0,1,2.325.409c2.574.9,4.237,2.938,4.237,5.2V9.17a7.019,7.019,0,0,1-2.373,4.77v2.576c.2.067.659.212,1.1.352l.18.056c.285.089.553.173.66.208a11.8,11.8,0,0,1,3.734,1.773A6.18,6.18,0,0,1,24,22.686l-1.408.771a5.008,5.008,0,0,0-1.585-3.175,9.138,9.138,0,0,0-3.2-1.591l-1.446,3.882a.776.776,0,0,1-.35.409c-.14.025-.282.055-.424.088a.755.755,0,0,1-.387-.148L12.045,20.54,8.891,22.922a.739.739,0,0,1-.449.151.723.723,0,0,1-.213-.029.778.778,0,0,1-.5-.469L6.279,18.691a9.081,9.081,0,0,0-3.192,1.591A5.224,5.224,0,0,0,1.439,24Zm7.189-6.058h0c-.179.061-.361.12-.536.177l-.141.046-.065.02-.15.049,1.059,2.831,1.976-1.494L8.628,17.942Zm6.832,0h0l-2.139,1.628L15.3,21.062l1.053-2.831-.058-.017-.08-.026c-.26-.083-.5-.161-.752-.246Zm-5.936-2.88v1.626L12.045,18.6l2.52-1.916V15.062a6.8,6.8,0,0,1-.84.4,4.645,4.645,0,0,1-1.68.339,4.7,4.7,0,0,1-1.681-.339A6.407,6.407,0,0,1,9.524,15.062Zm.707-7.825a1.4,1.4,0,0,0-.77.233,9.122,9.122,0,0,0-1.245.861l-.029.024-.029.023c-.184.148-.491.4-1,.787,0,1.79,1.782,4.094,3.739,4.834a3.2,3.2,0,0,0,1.152.245A3.238,3.238,0,0,0,13.2,14c1.959-.743,3.742-3.046,3.742-4.832V9.13H16.3a8.944,8.944,0,0,1-4.086-1.189l-.02-.01A4.958,4.958,0,0,0,10.231,7.237Zm-.014-1.559a6.1,6.1,0,0,1,2.634.856l.01,0A7.51,7.51,0,0,0,16.3,7.574h.643V5.61c0-1.93-1.726-3.215-3.2-3.729a5.672,5.672,0,0,0-1.846-.328,2.886,2.886,0,0,0-2.36.949.752.752,0,0,1-.535.3c-1.255.113-1.875,1.314-1.841,3.569,0,.045,0,.083,0,.111v.727l.028-.024.008-.005c.026-.022.051-.043.077-.062A10.777,10.777,0,0,1,8.66,6.147,2.841,2.841,0,0,1,10.217,5.678Z" transform="translate(8)" fill="#07242e"/>
    <path id="Path_7176" data-name="Path 7176" d="M39.959,229.877l-4.375-11.436a.586.586,0,0,0-.742-.343l-4.609,1.645a.588.588,0,0,0-.348.768l.4,1.016-3.145,1.494-5.162-.97a3.718,3.718,0,0,0-2.9.667l-.923.685-.611-.44a3.734,3.734,0,0,0-3.227-.547l-1.981.59-2.6-1.552.373-.943a.588.588,0,0,0-.348-.768L5.154,218.1a.586.586,0,0,0-.744.343L.037,229.877a.585.585,0,0,0,.312.747l4.375,1.886a.586.586,0,0,0,.777-.323l.441-1.115,3.627,2.045a1.841,1.841,0,0,0,1.516,2.889h.046a1.841,1.841,0,0,0,1.836,1.677h.048a1.838,1.838,0,0,0,1.834,1.679h.046a1.842,1.842,0,0,0,3.138,1.139l.7-.7.942.7a2.064,2.064,0,0,0,2.7-.2l.066-.067a2.071,2.071,0,0,0,.563-1.1,2.063,2.063,0,0,0,2.017-.524l.048-.048a2.053,2.053,0,0,0,.589-1.22,2.05,2.05,0,0,0,2.04-.52l.033-.033a2.032,2.032,0,0,0,.584-1.181,2.06,2.06,0,0,0,2.466-2.542l3.405-1.668.312.788a.584.584,0,0,0,.777.323l4.375-1.886a.585.585,0,0,0,.309-.745ZM4.633,231.195l-3.3-1.424L5.3,219.4l.973.346L4.4,225.074a.587.587,0,1,0,1.106.391l1.87-5.326,1.426.509Zm6.927,3.443a.671.671,0,0,1-.951-.947l1.25-1.25a.672.672,0,0,1,1.146.475.664.664,0,0,1-.2.474Zm1.986,1.576c-.035.034-.066.071-.1.108l-.006-.007a.671.671,0,1,1-.949-.949l1.147-1.147c.034-.034.067-.07.1-.107l.005.005a.671.671,0,0,1,.949.949Zm1.775,1.776a.671.671,0,0,1-.948-.947l1.25-1.25a.671.671,0,1,1,.948.947Zm3.131.427-1.25,1.25a.671.671,0,0,1-.949-.949L17.4,237.57c.034-.034.067-.07.1-.107l.005.005a.671.671,0,0,1,.949.949Zm10.966-4.189a.88.88,0,0,1-1.194.054l-.457-.381a.588.588,0,0,0-.114-.123l-1.054-.847a.586.586,0,0,0-.735.912l.909.734a.626.626,0,0,0,.086.1.885.885,0,0,1,.039,1.288l-.033.033a.883.883,0,0,1-1.142.094l-.905-.649-.009-.007-.342-.245a.586.586,0,0,0-.682.953l.348.249a.886.886,0,0,1,.1,1.343l-.048.048a.886.886,0,0,1-1.212.038l-.977-.86a.586.586,0,1,0-.775.875l.332.294a.886.886,0,0,1,.046,1.286l-.066.067a.889.889,0,0,1-1.163.088l-.844-.63a1.844,1.844,0,0,0-1.552-2.838h-.046a1.842,1.842,0,0,0-1.835-1.678h-.048a1.837,1.837,0,0,0-1.88-1.669,1.825,1.825,0,0,0-.532-1.139,1.844,1.844,0,0,0-2.606,0l-.63.63-4.023-2.266L9.3,222.564l2.652,1.586a.586.586,0,0,0,.469.059l2.228-.664a2.555,2.555,0,0,1,2.209.373l.308.222-3.132,2.325a1.865,1.865,0,0,0-.014,2.984,2.7,2.7,0,0,0,3.047.134l2.459-1.548a4.081,4.081,0,0,0,1.748,1.823,4.836,4.836,0,0,0,3.891.042l4.141,2.983a.887.887,0,0,1,.109,1.346Zm.753-2.17-4.57-3.29a.587.587,0,0,0-.555-.07,3.931,3.931,0,0,1-3.223.124,3.136,3.136,0,0,1-1.446-1.8.586.586,0,0,0-.879-.352l-3.053,1.916a1.52,1.52,0,0,1-1.719-.078.691.691,0,0,1,.005-1.107l5.042-3.744a2.545,2.545,0,0,1,1.982-.456l5.35,1.005a.581.581,0,0,0,.359-.046l3.247-1.543,3.037,7.687Zm5.191-.864-4.168-10.551,1.427-.509,1.87,5.326a.587.587,0,1,0,1.106-.391l-1.875-5.332.973-.346,3.966,10.375Z" transform="translate(0.002 -197.064)" fill="#07242e"/>
  </g>
</svg>
