<svg id="Group_23431" data-name="Group 23431" xmlns="http://www.w3.org/2000/svg" xmlns:xlink="http://www.w3.org/1999/xlink" width="58" height="58" viewBox="0 0 58 58">
  <defs>
    <linearGradient id="linear-gradient" x1="0.5" x2="0.5" y2="1" gradientUnits="objectBoundingBox">
      <stop offset="0" stop-color="#f4e9d2"/>
      <stop offset="1" stop-color="#fbfbfb" stop-opacity="0"/>
    </linearGradient>
  </defs>
  <rect id="icons8-consultation-100" width="58" height="58" fill="#fff" opacity="0"/>
  <circle id="Ellipse_1472" data-name="Ellipse 1472" cx="19" cy="19" r="19" fill="url(#linear-gradient)"/>
  <g id="contract" transform="translate(9 9)">
    <path id="Path_5635" data-name="Path 5635" d="M216.033,97.5a2,2,0,0,0-3.671-.481l-.334.581a.667.667,0,0,0-.908.241l-1.7,2.89-.581-.334a.667.667,0,1,0-.667,1.155l.581.334-5.674,9.832-1.4,3.745-.667,1.248a2,2,0,0,0,.107,2.163l-1.5,1.842-.42-1.054a1.335,1.335,0,0,0-2.383-.187l-.24.407-.227-2.67a1.335,1.335,0,0,0-2.6-.314l-1.642,4.926a.667.667,0,0,0,.42.841.578.578,0,0,0,.207.053.667.667,0,0,0,.634-.454l1.635-4.926.234,2.71a1.335,1.335,0,0,0,2.476.574l.247-.407.414,1.048a1.335,1.335,0,0,0,2.283.34l1.555-1.969a2.056,2.056,0,0,0,.527.067,2,2,0,0,0,1.742-.988l.667-1.115,2.543-3.09,5.734-9.952.581.334a.669.669,0,0,1,.247.915l-2.67,4.626a.663.663,0,1,0,1.128.694l2.67-4.626a2,2,0,0,0-.734-2.737l-.581-.334,1.669-2.89a.668.668,0,0,0-.24-.908l.334-.581A2,2,0,0,0,216.033,97.5Zm-2.516.187a.667.667,0,0,1,.407-.314.7.7,0,0,1,.507.067.668.668,0,0,1,.314.407.7.7,0,0,1-.067.507l-.334.581-1.162-.667Zm-9.1,18.636-.334-.194-.988-.574.948-2.536,2.1,1.215Zm-2,1.929a.667.667,0,0,1-.2-.874l.334-.58,1.161.667-.334.574a.667.667,0,0,1-.961.213Zm4.492-5.113-2.309-1.335,5.34-9.251,2.309,1.335Zm6.007-10.406-2.309-1.335,1.335-2.309,2.309,1.335Zm0,0" transform="translate(-176.106 -88.06)" fill="#07242e"/>
    <path id="Path_5636" data-name="Path 5636" d="M72.229,356.757l-2.363,2.356L68.451,357.7a.668.668,0,1,0-.941.948l1.415,1.415a1.346,1.346,0,0,0,1.889,0L73.17,357.7a.668.668,0,0,0-.941-.941Zm0,0" transform="translate(-61.696 -326.887)" fill="#07242e"/>
    <path id="Path_5637" data-name="Path 5637" d="M32,317.715a5.674,5.674,0,0,0,11.347,0,.667.667,0,1,0-1.335,0,4.339,4.339,0,1,1-1.736-3.471.668.668,0,0,0,.8-1.068A5.674,5.674,0,0,0,32,317.715Zm0,0" transform="translate(-29.33 -286.058)" fill="#07242e"/>
    <path id="Path_5638" data-name="Path 5638" d="M90.022,49.374a.667.667,0,0,0,0-1.335H72.667a.668.668,0,0,0-.667.667v2.67a.667.667,0,0,0,.667.667H90.022a.667.667,0,0,0,0-1.335H73.335V49.374Zm0,0" transform="translate(-65.993 -44.034)" fill="#07242e"/>
    <path id="Path_5639" data-name="Path 5639" d="M96.667,112.039a.667.667,0,0,0,0,1.335h13.35a.667.667,0,0,0,0-1.335Zm0,0" transform="translate(-88.008 -102.706)" fill="#07242e"/>
    <path id="Path_5640" data-name="Path 5640" d="M143.352,168.039H128.667a.667.667,0,0,0,0,1.335h14.684a.667.667,0,0,0,0-1.335Zm0,0" transform="translate(-117.345 -154.04)" fill="#07242e"/>
    <path id="Path_5641" data-name="Path 5641" d="M70.684,216.707a.668.668,0,0,0-.667-.667H56.667a.667.667,0,1,0,0,1.335h13.35A.667.667,0,0,0,70.684,216.707Zm0,0" transform="translate(-51.328 -198.04)" fill="#07242e"/>
    <path id="Path_5642" data-name="Path 5642" d="M253.34,216.039h-4.672a.667.667,0,1,0,0,1.335h4.672a.667.667,0,0,0,0-1.335Zm0,0" transform="translate(-227.342 -198.04)" fill="#07242e"/>
    <path id="Path_5643" data-name="Path 5643" d="M63.342,257.374a.667.667,0,0,0,0-1.335H56.667a.667.667,0,0,0,0,1.335Zm0,0" transform="translate(-51.328 -234.707)" fill="#07242e"/>
    <path id="Path_5644" data-name="Path 5644" d="M168.667,257.374h4.672a.667.667,0,0,0,0-1.335h-4.672a.667.667,0,0,0,0,1.335Zm0,0" transform="translate(-154.006 -234.707)" fill="#07242e"/>
    <path id="Path_5645" data-name="Path 5645" d="M29.982,30.706a.667.667,0,0,0-.666.667v6.667a.666.666,0,0,1-.666.667H2a.666.666,0,0,1-.666-.667v-36A.667.667,0,0,1,2,1.372H28.65a.667.667,0,0,1,.666.667v12.52a.666.666,0,1,0,1.333,0V2.039a2,2,0,0,0-2-2H2a2,2,0,0,0-2,2v36a2,2,0,0,0,2,2H28.65a2,2,0,0,0,2-2V31.372A.667.667,0,0,0,29.982,30.706Zm0,0" transform="translate(0 -0.039)" fill="#07242e"/>
  </g>
</svg>
