<svg id="Group_23424" data-name="Group 23424" xmlns="http://www.w3.org/2000/svg" xmlns:xlink="http://www.w3.org/1999/xlink" width="58" height="58" viewBox="0 0 58 58">
  <defs>
    <linearGradient id="linear-gradient" x1="0.5" x2="0.5" y2="1" gradientUnits="objectBoundingBox">
      <stop offset="0" stop-color="#f4e9d2"/>
      <stop offset="1" stop-color="#fbfbfb" stop-opacity="0"/>
    </linearGradient>
  </defs>
  <rect id="icons8-consultation-100" width="58" height="58" fill="#fafbfd" opacity="0"/>
  <circle id="Ellipse_1467" data-name="Ellipse 1467" cx="19" cy="19" r="19" transform="translate(0.002 0.38)" fill="url(#linear-gradient)"/>
  <g id="market-analysis" transform="translate(9 9.003)">
    <g id="Group_23283" data-name="Group 23283">
      <path id="Path_7074" data-name="Path 7074" d="M86.456,290.631h-1.5V279.148a.6.6,0,0,0-1.2,0v11.483H80.75V274.444h3.006v1.97a.6.6,0,0,0,1.2,0V274.17a.909.909,0,0,0-.918-.9H80.471a.909.909,0,0,0-.918.9v16.46h-1.01v-9.079a.909.909,0,0,0-.918-.9H74.062a.909.909,0,0,0-.918.9v9.079H72.135V277.54a.909.909,0,0,0-.918-.9H67.653a.909.909,0,0,0-.918.9v13.091h-1.01v-3.125a.6.6,0,0,0-1.2,0v3.125H61.524V274.316H64.53v10.456a.6.6,0,0,0,1.2,0v-10.73a.909.909,0,0,0-.918-.9H61.245a.909.909,0,0,0-.918.9v16.588H59.318V281.45a.909.909,0,0,0-.918-.9H54.836a.909.909,0,0,0-.918.9v9.181h-1.5a.586.586,0,1,0,0,1.172h34.04a.586.586,0,1,0,0-1.172Zm-28.335,0H55.115v-8.907h3.006Zm12.818,0H67.933V277.813h3.006Zm6.409,0H74.341v-8.806h3.006Z" transform="translate(-48.136 -251.807)" fill="#07242e"/>
      <path id="Path_7075" data-name="Path 7075" d="M14.093,82.67a5.346,5.346,0,0,0,1.172,3.338l-.547.519a2.72,2.72,0,0,0-1.474-.431,2.644,2.644,0,1,0,2.7,2.643,2.588,2.588,0,0,0-.392-1.37l.546-.517a5.623,5.623,0,0,0,7.557-.417l6.352,4.8a2.583,2.583,0,0,0-.25,1.108,2.7,2.7,0,0,0,5.394,0,2.589,2.589,0,0,0-.439-1.443l2.745-2.779a2.722,2.722,0,0,0,1.4.384,2.644,2.644,0,1,0-2.7-2.643A2.589,2.589,0,0,0,36.6,87.3L33.852,90.08a2.736,2.736,0,0,0-3.117.222l-6.351-4.8a5.342,5.342,0,0,0,.4-4.905.6.6,0,0,0-.78-.319.582.582,0,0,0-.326.765,4.188,4.188,0,0,1-.249,3.739l-1.335-1.008a2.583,2.583,0,0,0,.25-1.109,2.7,2.7,0,0,0-5.394,0,2.588,2.588,0,0,0,.392,1.37L16.13,85.188a4.187,4.187,0,0,1-.518-4.13h.328a.97.97,0,0,0,.979-.959v-.755a4.418,4.418,0,0,1,5.214-.183.605.605,0,0,0,.832-.146.578.578,0,0,0-.149-.816,5.64,5.64,0,0,0-5.9-.269V76.226a.97.97,0,0,0-.979-.959H5.671a.97.97,0,0,0-.979.959V80.1a.97.97,0,0,0,.979.959h8.674a5.306,5.306,0,0,0-.251,1.611Zm-.849,7.54a1.472,1.472,0,1,1,1.5-1.471A1.488,1.488,0,0,1,13.245,90.21Zm25.611-5.823a1.472,1.472,0,1,1-1.5,1.471A1.488,1.488,0,0,1,38.856,84.387Zm-6.4,6.48a1.472,1.472,0,1,1-1.5,1.471A1.488,1.488,0,0,1,32.453,90.867ZM19.647,81.2a1.472,1.472,0,1,1-1.5,1.471A1.488,1.488,0,0,1,19.647,81.2Zm-1.474,3.683a2.734,2.734,0,0,0,3.191-.176L22.7,85.714a4.413,4.413,0,0,1-5.738.316ZM5.888,79.887V76.439h9.835v3.448Z" transform="translate(-4.692 -69.388)" fill="#07242e"/>
      <path id="Path_7076" data-name="Path 7076" d="M32.761,104.837h-1.41a.586.586,0,1,0,0,1.172h1.41a.586.586,0,1,0,0-1.172Z" transform="translate(-28.728 -96.648)" fill="#07242e"/>
      <path id="Path_7077" data-name="Path 7077" d="M76.325,104.837h-3.5a.586.586,0,1,0,0,1.172h3.5a.586.586,0,1,0,0-1.172Z" transform="translate(-66.965 -96.648)" fill="#07242e"/>
      <path id="Path_7078" data-name="Path 7078" d="M364.006,11.4q.01.022.023.042l.759,1.293a.586.586,0,0,0,1.011,0l.759-1.293c.008-.014.016-.028.022-.042a5.8,5.8,0,0,0,4.486-5.627,5.772,5.772,0,1,0-7.059,5.627ZM360.7,5.531a4.632,4.632,0,0,1,4.376-4.355,4.6,4.6,0,0,1,4.819,4.6,4.623,4.623,0,0,1-3.624,4.5,1.057,1.057,0,0,0-.747.621l-.23.391-.23-.391a1.059,1.059,0,0,0-.749-.622A4.586,4.586,0,0,1,360.7,5.531Z" transform="translate(-331.065 0)" fill="#07242e"/>
      <path id="Path_7079" data-name="Path 7079" d="M406.142,29.048h1.192a.493.493,0,0,1,0,.985h-2.1a.586.586,0,1,0,0,1.172h.918v.521a.586.586,0,1,0,1.172,0V31.2h.01a1.664,1.664,0,0,0,0-3.329h-1.192a.493.493,0,1,1,0-.985h2.1a.586.586,0,1,0,0-1.172h-.918V25.2a.586.586,0,1,0-1.172,0v.521h-.01a1.664,1.664,0,1,0,0,3.329Z" transform="translate(-372.511 -22.689)" fill="#07242e"/>
    </g>
  </g>
</svg>
