<svg id="Group_8985" data-name="Group 8985" xmlns="http://www.w3.org/2000/svg" xmlns:xlink="http://www.w3.org/1999/xlink" width="58" height="58" viewBox="0 0 58 58">
  <defs>
    <linearGradient id="linear-gradient" x1="-0.081" y1="-0.054" x2="0.5" y2="1" gradientUnits="objectBoundingBox">
      <stop offset="0" stop-color="#fff"/>
      <stop offset="1" stop-color="#fafbfd" stop-opacity="0"/>
    </linearGradient>
  </defs>
  <rect id="icons8-consultation-100" width="58" height="58" fill="#fff" opacity="0"/>
  <circle id="Ellipse_1465" data-name="Ellipse 1465" cx="19" cy="19" r="19" fill="url(#linear-gradient)"/>
  <g id="Group_14794" data-name="Group 14794" transform="translate(8.925 8.765)">
    <g id="Group_14789" data-name="Group 14789" transform="translate(13.864 0)">
      <g id="Group_79" data-name="Group 79" transform="translate(0)">
        <g id="Group_78" data-name="Group 78">
          <path id="Path_17" data-name="Path 17" d="M170.451,117.506l-6.252-2.657a1.17,1.17,0,0,1-.727-1.07v-1.642a8.581,8.581,0,0,0,3.45-6.826V103a2.12,2.12,0,0,0,1.15-1.864v-.224a8.943,8.943,0,0,0-9.125-8.727h-2.3a8.943,8.943,0,0,0-9.126,8.727v2.035a2.114,2.114,0,0,0,1.15,1.909v.454a8.58,8.58,0,0,0,3.45,6.826v1.642c0,.462-.727,1.07-.727,1.07l-1.469,1.232,1.469,1.179.769-.486c1.478,1.284,4.558,4.359,4.558,4.359V131.32a1.077,1.077,0,0,0,2.152,0V121.133l4.558-4.359,6.146,2.612a3.516,3.516,0,0,1,1.1.741l-3.434,3.285a4.207,4.207,0,0,0-1.325,3.061v4.848a1.077,1.077,0,0,0,2.152,0v-4.848a2.207,2.207,0,0,1,.7-1.605l2.881-2.755a3.222,3.222,0,0,1,.022.354v8.854a1.077,1.077,0,0,0,2.152,0v-8.854A5.429,5.429,0,0,0,170.451,117.506ZM157.8,119.252l-4-3.825a3.117,3.117,0,0,0,.476-1.648v-.419a9.5,9.5,0,0,0,7.048,0v.419a3.116,3.116,0,0,0,.476,1.648Zm0-7.272a6.834,6.834,0,0,1-6.974-6.669v-.463a6.4,6.4,0,0,0,1.954-1.213,1,1,0,0,0,.061-1.454,1.111,1.111,0,0,0-1.52-.058,3.905,3.905,0,0,1-1.6.912l-.029.005a.2.2,0,0,1-.018-.093v-2.035a6.834,6.834,0,0,1,6.974-6.669h2.3a6.834,6.834,0,0,1,6.974,6.669v.224a.067.067,0,0,1-.048.067c-6.443,1.217-9.674-1.077-10.764-2.119a1.111,1.111,0,0,0-1.521,0,1,1,0,0,0,0,1.455c3.341,3.2,8.216,3.253,11.184,2.912v1.859A6.834,6.834,0,0,1,157.8,111.98Z" transform="translate(-147.521 -92.184)" fill="#07242e"/>
        </g>
      </g>
    </g>
    <g id="Group_14790" data-name="Group 14790" transform="translate(0 20.124)">
      <path id="Icon_awesome-whatsapp" data-name="Icon awesome-whatsapp" d="M11.37,11.1c-.228-.116-1.362-.673-1.574-.748s-.365-.116-.519.116-.594.748-.731.905-.27.174-.5.058A6.271,6.271,0,0,1,4.912,8.695c-.237-.407.237-.378.677-1.258a.427.427,0,0,0-.021-.4c-.058-.116-.519-1.25-.71-1.711s-.378-.386-.519-.395S4.052,4.92,3.9,4.92a.853.853,0,0,0-.615.287,2.589,2.589,0,0,0-.806,1.923,4.513,4.513,0,0,0,.939,2.384,10.3,10.3,0,0,0,3.937,3.48,4.508,4.508,0,0,0,2.766.577,2.36,2.36,0,0,0,1.553-1.1,1.927,1.927,0,0,0,.133-1.1C11.752,11.274,11.6,11.216,11.37,11.1Z" transform="translate(2.967 0.753)" fill="#07242e"/>
      <path id="Icon_awesome-whatsapp-2" data-name="Icon awesome-whatsapp" d="M3,5.162a9.934,9.934,0,0,1,15.63,11.984L20.04,22.29l-5.265-1.382a9.9,9.9,0,0,1-4.746,1.208h0A10.026,10.026,0,0,1,0,12.185,9.97,9.97,0,0,1,3,5.162Zm7.023,15.281a8.239,8.239,0,0,0,4.2-1.15l.3-.179,3.122.819-.832-3.046.2-.313A8.27,8.27,0,1,0,1.677,12.185,8.346,8.346,0,0,0,10.025,20.443Z" transform="translate(0 -2.25)" fill="#07242e"/>
    </g>
  </g>
</svg>
