<svg id="Group_23430" data-name="Group 23430" xmlns="http://www.w3.org/2000/svg" xmlns:xlink="http://www.w3.org/1999/xlink" width="58" height="58" viewBox="0 0 58 58">
  <defs>
    <linearGradient id="linear-gradient" x1="0.5" x2="0.5" y2="1" gradientUnits="objectBoundingBox">
      <stop offset="0" stop-color="#f4e9d2"/>
      <stop offset="1" stop-color="#fbfbfb" stop-opacity="0"/>
    </linearGradient>
  </defs>
  <rect id="icons8-consultation-100" width="58" height="58" fill="#fff" opacity="0"/>
  <circle id="Ellipse_1470" data-name="Ellipse 1470" cx="19" cy="19" r="19" fill="url(#linear-gradient)"/>
  <path id="agreement" d="M7.16,14.441A.542.542,0,0,1,7.7,13.9H24a.541.541,0,1,1,0,1.081H7.7a.542.542,0,0,1-.544-.541Zm8.9,4.018H7.7a.541.541,0,1,0,0,1.081h8.353a.541.541,0,1,0,0-1.081Zm0,4.558H7.7a.541.541,0,1,0,0,1.081h8.353a.541.541,0,1,0,0-1.081Zm0,4.558H7.7a.541.541,0,1,0,0,1.081h8.353a.541.541,0,1,0,0-1.081Zm25.408-.383a1.3,1.3,0,0,1-.735.679l-1.7.626a1.288,1.288,0,0,1-1.332-.26,1.794,1.794,0,0,1-.439,1.022,1.371,1.371,0,0,1-1.313.429,1.723,1.723,0,0,1-.205.734,1.76,1.76,0,0,1-1.883.889,1.656,1.656,0,0,1-.46,1.065v1.543a3.535,3.535,0,0,1-3.425,3.518A3.546,3.546,0,0,1,26.57,40H5.131a3.538,3.538,0,0,1-3.545-3.523V6.08A3.535,3.535,0,0,1,5.012,2.563,3.562,3.562,0,0,1,8.419,0H29.858A3.538,3.538,0,0,1,33.4,3.523V20.345l.213.088a3.089,3.089,0,0,0,1.151.336,1.284,1.284,0,0,1,.086-.815,1.3,1.3,0,0,1,.735-.679l1.7-.626a1.316,1.316,0,0,1,1.686.768L41.5,26.2a1.288,1.288,0,0,1-.038,1ZM33.2,21.43a3.218,3.218,0,0,0-3.556.144,6.82,6.82,0,0,0-.955.808c-.193.194-.392.388-.585.577-.394.385-.861.84-1.112,1.151.743.77,1.518.536,2.739.079.994-.372,2.119-.794,3.115-.039.274.155.677.353,1.1.562a16.679,16.679,0,0,1,2.894,1.652l-1.7-4.558a1.79,1.79,0,0,1-.387.046A4.175,4.175,0,0,1,33.2,21.43ZM6.164,2.557H26.57A3.538,3.538,0,0,1,30.115,6.08V20.109a3.738,3.738,0,0,1,2.2-.126V3.523a2.453,2.453,0,0,0-2.457-2.442H8.419A2.474,2.474,0,0,0,6.164,2.557ZM18.79,8.775l2.934-1.966a.547.547,0,0,1,.608,0l2.623,1.757V3.638H18.79Zm10.238,27.7V35.154a1.452,1.452,0,0,1-.343.043,1.625,1.625,0,0,1-.76-.195,1.957,1.957,0,0,1-.87-.966l-.033.01a1.7,1.7,0,0,1-1.3-.126,1.585,1.585,0,0,1-.7-.7,1.76,1.76,0,0,1-.237.09,1.7,1.7,0,0,1-1.3-.126,1.618,1.618,0,0,1-.813-.967,1.733,1.733,0,0,1-.073-.71,1.7,1.7,0,0,1-.73-.2,1.617,1.617,0,0,1-.812-.967,1.7,1.7,0,0,1,.115-1.321l.2-.363a1.251,1.251,0,0,1-.747-.013L18.908,28.1a1.3,1.3,0,0,1-.845-1.641L20.3,19.576a1.3,1.3,0,0,1,.651-.759,1.312,1.312,0,0,1,1-.081l1.722.552a1.3,1.3,0,0,1,.863.913,5.475,5.475,0,0,0,1.241-.152,4.622,4.622,0,0,1,3.255.246V6.08A2.453,2.453,0,0,0,26.57,3.638h-.527V9.583a.54.54,0,0,1-.289.477.547.547,0,0,1-.559-.029L22.028,7.909l-3.241,2.171a.546.546,0,0,1-.3.092h-.237a.542.542,0,0,1-.544-.541V3.638H5.131A2.453,2.453,0,0,0,2.674,6.08v30.4a2.453,2.453,0,0,0,2.457,2.442H26.57a2.453,2.453,0,0,0,2.457-2.442Zm1.609-4.084a1.675,1.675,0,0,1-.09.968l.055.029a.386.386,0,0,0,.556-.172.484.484,0,0,0-.208-.657ZM30.1,34.347l-.042-.022-.013.022Zm-1.754-1.708h0l-.28.521a.721.721,0,0,0,.374.888c.1.056.42.223.709-.313l.2-.379h0c.386-.717.274-.82-.137-1.039a.584.584,0,0,0-.462-.016A.743.743,0,0,0,28.345,32.639Zm-.9-1.922a.617.617,0,0,0-.83.251h0l-.632,1.174h0a.624.624,0,0,0-.037.483.56.56,0,0,0,.275.335.622.622,0,0,0,.48.051.609.609,0,0,0,.364-.295l.037-.068v0l.277-.515v0h0l.316-.588a.609.609,0,0,0-.252-.826ZM25.861,29.7a.606.606,0,0,0-.3-.361.616.616,0,0,0-.83.25h0l-.554,1.029-.425.79a.625.625,0,0,0-.037.484.559.559,0,0,0,.275.335.62.62,0,0,0,.844-.243l.19-.354h0l.631-1.172h0l.156-.291a.6.6,0,0,0,.045-.464Zm-2.2-1.768a.614.614,0,0,0-.44-.031.608.608,0,0,0-.364.295l-.233.432h0l-.487.9a.624.624,0,0,0-.037.484.56.56,0,0,0,.276.335.619.619,0,0,0,.843-.243l0,0,.553-1.027h0l.166-.307c.062-.115.25-.464-.278-.839Zm-.184-7.34a.225.225,0,0,0-.144-.279l-1.722-.552a.215.215,0,0,0-.067-.011.23.23,0,0,0-.1.025.222.222,0,0,0-.111.129L19.1,26.79a.225.225,0,0,0,.144.28l1.722.552a.225.225,0,0,0,.282-.143l.389-1.2c.014-.048.026-.1.041-.144.005-.017.014-.031.021-.047ZM32.315,33.92v-.991l-.012,0a1.574,1.574,0,0,1-.182.788,1.469,1.469,0,0,1-1.307.806,1.557,1.557,0,0,1-.7-.17v1.994a2.452,2.452,0,0,0,2.2-2.429ZM36.5,27.554a10.634,10.634,0,0,0-3.041-1.873c-.479-.235-.893-.438-1.2-.614a.579.579,0,0,1-.065-.044c-.5-.391-1.119-.188-2.091.177-1.216.455-2.882,1.077-4.229-.723a.539.539,0,0,1-.067-.528,6.984,6.984,0,0,1,1.524-1.762c.19-.185.385-.375.574-.566q.232-.233.466-.437a3.7,3.7,0,0,0-2.393-.076,6.116,6.116,0,0,1-1.583.166l-1.727,5.318a3.069,3.069,0,0,0-.089.41,1.726,1.726,0,0,1,.321-.133A1.694,1.694,0,0,1,24.2,27a.538.538,0,0,1,.07.045,1.862,1.862,0,0,1,.808,1.16,1.705,1.705,0,0,1,1,.189,1.7,1.7,0,0,1,.87,1.189,1.693,1.693,0,0,1,1.819,1.133.545.545,0,0,1,.7-.169l1.8.963a.539.539,0,0,1,.091.038h0l.45.24a.656.656,0,0,0,.5.048.648.648,0,0,0,.12-1.191h0a.525.525,0,0,1-.051-.034L30.3,29.5a.538.538,0,0,1-.223-.731.545.545,0,0,1,.736-.222L32.95,29.68a.537.537,0,0,1,.051.034l.886.471a.67.67,0,0,0,.9-.272.659.659,0,0,0-.244-.876l-2.937-1.584a.539.539,0,0,1-.218-.733.547.547,0,0,1,.738-.217L35,28.053c.009,0,.018.006.027.011l.893.475c.358.19.491.047.541-.007a.873.873,0,0,0,.043-.977Zm3.979-.982L37.95,19.793a.221.221,0,0,0-.117-.124.232.232,0,0,0-.095-.021.219.219,0,0,0-.076.014l-1.7.626a.224.224,0,0,0-.132.286l2.534,6.779a.222.222,0,0,0,.117.124.228.228,0,0,0,.171.007l1.7-.626a.224.224,0,0,0,.132-.286Z" transform="translate(7.414 9)" fill="#07242e"/>
</svg>
