<svg id="Group_23426" data-name="Group 23426" xmlns="http://www.w3.org/2000/svg" xmlns:xlink="http://www.w3.org/1999/xlink" width="58" height="58" viewBox="0 0 58 58">
  <defs>
    <linearGradient id="linear-gradient" x1="0.5" x2="0.5" y2="1" gradientUnits="objectBoundingBox">
      <stop offset="0" stop-color="#f4e9d2"/>
      <stop offset="1" stop-color="#fbfbfb" stop-opacity="0"/>
    </linearGradient>
    <clipPath id="clip-path">
      <rect id="Rectangle_27858" data-name="Rectangle 27858" width="40" height="40" transform="translate(9 9)" fill="#07242e"/>
    </clipPath>
  </defs>
  <rect id="icons8-consultation-100" width="58" height="58" fill="#fff" opacity="0"/>
  <circle id="Ellipse_1469" data-name="Ellipse 1469" cx="19" cy="19" r="19" fill="url(#linear-gradient)"/>
  <g id="Mask_Group_15" data-name="Mask Group 15" clip-path="url(#clip-path)">
    <g id="merge" transform="translate(9 9)">
      <path id="Path_7455" data-name="Path 7455" d="M26.88,18.747H13.135l-.009,0A3.129,3.129,0,0,0,10,21.869h0v15s0,0,0,0,0,0,0,0A3.129,3.129,0,0,0,13.125,40H26.863l.013,0A3.129,3.129,0,0,0,30,36.876h0s0,0,0-.007v-15s0-.009,0-.013a3.129,3.129,0,0,0-3.119-3.11Zm0,15H13.122a1.877,1.877,0,0,1-1.872-1.875V29.355A3.092,3.092,0,0,0,13.125,30H26.863l.013,0a3.1,3.1,0,0,0,1.876-.642v2.513s0,0,0,.006A1.877,1.877,0,0,1,26.885,33.748ZM13.125,24.995H26.863l.013,0a3.1,3.1,0,0,0,1.876-.642v2.513s0,0,0,.006a1.877,1.877,0,0,1-1.865,1.874H13.122a1.877,1.877,0,0,1-1.872-1.875V24.355A3.1,3.1,0,0,0,13.125,24.995Zm-.007-5H26.875a1.874,1.874,0,0,1,.01,3.749H13.122a1.875,1.875,0,0,1,0-3.749ZM26.885,38.749H13.122a1.877,1.877,0,0,1-1.872-1.875s0,0,0,0,0,0,0,0V34.356A3.092,3.092,0,0,0,13.125,35H26.863l.013,0a3.1,3.1,0,0,0,1.876-.642v2.511h0s0,0,0,.007a1.878,1.878,0,0,1-1.866,1.874Z" fill="#07242e"/>
      <path id="Path_7456" data-name="Path 7456" d="M13.1,16.249c.009,0,.016,0,.024,0a2.5,2.5,0,0,0,2.5-2.5h0s0,0,0-.007V2.5s0-.008,0-.013A2.5,2.5,0,0,0,13.12,0H5.63a2.5,2.5,0,0,0-2.5,2.5V13.744s0,0,0,0,0,0,0,0a2.5,2.5,0,0,0,2.5,2.5l.009,0Zm.041-5c-.006,0-.011,0-.016,0h-7.5A1.251,1.251,0,0,1,4.38,10V8.4a2.469,2.469,0,0,0,1.25.348l.009,0H13.1c.009,0,.016.005.024.005A2.478,2.478,0,0,0,14.374,8.4V10s0,0,0,.006a1.253,1.253,0,0,1-1.236,1.249ZM5.63,5,5.64,5H13.1c.009,0,.016.005.024.005a2.478,2.478,0,0,0,1.253-.349V6.246s0,0,0,.006A1.252,1.252,0,0,1,13.137,7.5c-.006,0-.011,0-.016,0h-7.5A1.251,1.251,0,0,1,4.38,6.25v-1.6A2.469,2.469,0,0,0,5.63,5Zm0-3.749h7.5a1.25,1.25,0,0,1,.011,2.5c-.006,0-.011,0-.016,0H5.626a1.249,1.249,0,0,1,0-2.5ZM4.38,13.75s0,0,0,0,0,0,0,0V12.152a2.469,2.469,0,0,0,1.25.348l.009,0H13.1c.009,0,.016.005.024.005a2.478,2.478,0,0,0,1.253-.349v1.589h0s0,0,0,.007A1.252,1.252,0,0,1,13.137,15c-.006,0-.011,0-.016,0h-7.5A1.251,1.251,0,0,1,4.38,13.75Z" fill="#07242e"/>
      <path id="Path_7457" data-name="Path 7457" d="M34.369,0h-7.49a2.5,2.5,0,0,0-2.5,2.5V13.744s0,0,0,0,0,0,0,0a2.5,2.5,0,0,0,2.5,2.5l.009,0h7.457c.009,0,.016,0,.024,0a2.5,2.5,0,0,0,2.5-2.5h0s0,0,0-.007V2.5s0-.008,0-.013A2.5,2.5,0,0,0,34.369,0Zm.016,11.251c-.006,0-.011,0-.016,0H26.875A1.251,1.251,0,0,1,25.629,10V8.4a2.47,2.47,0,0,0,1.25.348l.009,0h7.457c.009,0,.016.005.024.005A2.478,2.478,0,0,0,35.622,8.4V10s0,0,0,.006a1.254,1.254,0,0,1-1.236,1.249ZM26.878,5l.009,0h7.457c.009,0,.016.005.024.005a2.478,2.478,0,0,0,1.253-.349V6.246s0,0,0,.006A1.252,1.252,0,0,1,34.385,7.5c-.006,0-.011,0-.016,0H26.875A1.251,1.251,0,0,1,25.629,6.25v-1.6A2.465,2.465,0,0,0,26.878,5Zm0-3.749h7.5a1.25,1.25,0,0,1,.011,2.5c-.006,0-.011,0-.016,0H26.874a1.249,1.249,0,0,1,0-2.5ZM34.385,15c-.006,0-.011,0-.016,0H26.875a1.251,1.251,0,0,1-1.246-1.249s0,0,0,0,0,0,0,0V12.152a2.47,2.47,0,0,0,1.25.348l.009,0h7.457c.009,0,.016.005.024.005a2.478,2.478,0,0,0,1.253-.349v1.589h0s0,0,0,.007A1.254,1.254,0,0,1,34.385,15Z" fill="#07242e"/>
      <path id="Path_7458" data-name="Path 7458" d="M23.124,8.753a.625.625,0,0,0,0-1.25H16.877a.625.625,0,1,0,0,1.25h2.5v6.608l-.806-.806a.625.625,0,0,0-.884.884l1.872,1.872a.627.627,0,0,0,.885,0l1.872-1.872a.625.625,0,0,0-.884-.884l-.806.806V8.753Z" fill="#07242e"/>
    </g>
  </g>
</svg>
