<svg id="Group_23420" data-name="Group 23420" xmlns="http://www.w3.org/2000/svg" xmlns:xlink="http://www.w3.org/1999/xlink" width="58" height="58" viewBox="0 0 58 58">
  <defs>
    <linearGradient id="linear-gradient" x1="0.5" x2="0.5" y2="1" gradientUnits="objectBoundingBox">
      <stop offset="0" stop-color="#f4e9d2"/>
      <stop offset="1" stop-color="#fbfbfb" stop-opacity="0"/>
    </linearGradient>
  </defs>
  <rect id="icons8-consultation-100" width="58" height="58" fill="#fff" opacity="0"/>
  <circle id="Ellipse_1466" data-name="Ellipse 1466" cx="19" cy="19" r="19" transform="translate(10 5)" fill="url(#linear-gradient)"/>
  <path id="team" d="M40.012,16.779h-1.45L36.4,17.916a3.208,3.208,0,0,0-.769-.316l-2.719-.68v-.309a4.532,4.532,0,0,0,1.937-3.7V11.779A4.637,4.637,0,0,0,30.47,7.1c-.123,0-.243,0-.365.007l.7-1.65L27.393,2.041,25.379,3.352a10.916,10.916,0,0,0-2.416-1L22.465,0H17.547l-.5,2.351a10.9,10.9,0,0,0-2.416,1L12.619,2.042,9.2,5.456,9.9,7.108c-.026,0-.052-.006-.078-.007a4.519,4.519,0,0,0-4.657,4.515v1.291A4.53,4.53,0,0,0,7.1,16.61v.31l-1.773.443L2.111,15.488H0V28.861l6.349,2.116H7.585l.154-.541L9.686,31.6a2.009,2.009,0,0,0,1.938,1.947,2.009,2.009,0,0,0,1.936,1.936A2.009,2.009,0,0,0,15.5,37.423a2.007,2.007,0,0,0,3.138,1.594l.572.5a1.965,1.965,0,0,0,1.3.49h.119a1.965,1.965,0,0,0,1.961-1.939,1.963,1.963,0,0,0,1.936-1.936A1.963,1.963,0,0,0,26.457,34.2a1.984,1.984,0,0,0,1.939-1.98,1.89,1.89,0,0,0-.01-.193l11.626-5.813Zm-6.454-5v1.128A3.239,3.239,0,0,1,31.943,15.7l-.323.187,0,2.042,3.224.805-7.1,3.735V20.731a3.211,3.211,0,0,0-.924-2.249l2.215-.553V15.885l-.322-.186A3.236,3.236,0,0,1,27.1,12.907V11.616a3.227,3.227,0,0,1,3.327-3.225A3.337,3.337,0,0,1,33.558,11.779ZM20.979,21.962l-2.921-.934a7.97,7.97,0,0,0-4.135-.188l-.37.082v-.191a1.935,1.935,0,0,1,1.466-1.879l3.7-.924V15.885l-.322-.186a3.236,3.236,0,0,1-1.614-2.791V11.616a3.227,3.227,0,0,1,3.327-3.225,3.337,3.337,0,0,1,3.127,3.387v1.128A3.239,3.239,0,0,1,21.617,15.7l-.323.187,0,2.042,3.7.924a1.935,1.935,0,0,1,1.466,1.879v2.418l-.159.084h-.4L21.937,22.1A4.068,4.068,0,0,0,20.979,21.962ZM13.7,9.659a7.094,7.094,0,0,1,12.591-.052,4.488,4.488,0,0,0-.474,2.009v1.291a4.53,4.53,0,0,0,1.936,3.7v.31l-2.581.646-2.582-.646v-.309a4.532,4.532,0,0,0,1.937-3.7V11.779A4.637,4.637,0,0,0,20.145,7.1a4.518,4.518,0,0,0-4.656,4.516v1.291a4.53,4.53,0,0,0,1.936,3.7v.31l-2.581.646-2.582-.646v-.309a4.532,4.532,0,0,0,1.937-3.7V11.779A4.757,4.757,0,0,0,13.7,9.659Zm-2.968-3.9,2.062-2.062,1.815,1.181.347-.213A9.63,9.63,0,0,1,17.747,3.5l.4-.1.449-2.117h2.826l.448,2.117.4.095a9.64,9.64,0,0,1,2.794,1.159l.347.213L27.22,3.693l2.059,2.06-.732,1.714a4.511,4.511,0,0,0-1.362.906c-.026.026-.049.054-.075.08a8.381,8.381,0,0,0-14.234.039,4.552,4.552,0,0,0-1.424-1.009ZM8.39,17.928V15.885L8.068,15.7a3.236,3.236,0,0,1-1.614-2.791V11.616A3.227,3.227,0,0,1,9.78,8.391a3.337,3.337,0,0,1,3.127,3.387v1.128A3.239,3.239,0,0,1,11.292,15.7l-.323.187,0,2.042,2.214.553a3.211,3.211,0,0,0-.924,2.249v.478l-2.013.447.052-.183.025-1.193L6.922,18.3Zm-7.1-1.149h.47L6.4,19.486,4.061,28.854l-2.77-.924ZM6.558,29.686l-1.27-.423,2.275-9.1,1.472.858v.184l-2.423,8.48Zm4.413,1.858a.728.728,0,0,1,.212-.512L12.317,29.9a.724.724,0,0,1,1.023,1.023l-1.134,1.134a.724.724,0,0,1-1.235-.512Zm1.936,1.936a.728.728,0,0,1,.212-.512l1.134-1.134a.724.724,0,0,1,1.023,1.023l-1.134,1.134a.724.724,0,0,1-1.235-.512Zm1.936,1.936a.728.728,0,0,1,.212-.512l1.134-1.134a.724.724,0,0,1,1.023,1.023l-1.134,1.134a.724.724,0,0,1-1.235-.512Zm2.66,2.66a.724.724,0,0,1-.512-1.235l1.134-1.134a.724.724,0,0,1,1.023,1.023l-1.134,1.134A.728.728,0,0,1,17.5,38.076Zm3.121.645H20.5a.669.669,0,0,1-.445-.169l-.483-.426.485-.485a2.007,2.007,0,0,0,.406-.6l.587.488a.673.673,0,0,1-.431,1.19Zm5.787-5.808H26.3a.692.692,0,0,1-.444-.161l-3.5-2.916-.827.992,3.4,2.832a.674.674,0,0,1-.432,1.19h-.141a.673.673,0,0,1-.43-.156l-3.505-2.921-.827.992,3.4,2.832a.673.673,0,0,1-.431,1.189,1.066,1.066,0,0,1-.679-.246l-1.44-1.2a2.008,2.008,0,0,0-1.733-1.128,2.009,2.009,0,0,0-1.936-1.936,2.009,2.009,0,0,0-1.936-1.936A2.009,2.009,0,0,0,11.4,28.985L10.27,30.12a1.989,1.989,0,0,0-.181.221l-1.982-1.19,1.738-6.082L14.2,22.1a6.648,6.648,0,0,1,3.462.157l.951.3-3.223,1.611A2.151,2.151,0,0,0,14.2,26.106v.128a2.161,2.161,0,0,0,3.274,1.853l2.4-1.441a1.332,1.332,0,0,1,1.548.149L26.875,31.7a.695.695,0,0,1-.464,1.211Zm12.31-7.5L27.849,30.852c-.035-.037-.072-.073-.111-.108l-5.452-4.907a2.6,2.6,0,0,0-3.076-.3l-2.4,1.442a.87.87,0,0,1-1.318-.747v-.128a.866.866,0,0,1,.481-.779l3.6-1.8a2.8,2.8,0,0,1,2.011-.187L25.637,24.5l.982.025,12.1-6.37Zm0,0" transform="translate(8.994 8.994)" fill="#07242e"/>
</svg>
