<svg id="Group_23442" data-name="Group 23442" xmlns="http://www.w3.org/2000/svg" xmlns:xlink="http://www.w3.org/1999/xlink" width="58" height="58" viewBox="0 0 58 58">
  <defs>
    <linearGradient id="linear-gradient" x1="0.5" x2="0.5" y2="1" gradientUnits="objectBoundingBox">
      <stop offset="0" stop-color="#f4e9d2"/>
      <stop offset="1" stop-color="#fbfbfb" stop-opacity="0"/>
    </linearGradient>
  </defs>
  <rect id="icons8-consultation-100" width="58" height="58" fill="#fff" opacity="0"/>
  <circle id="Ellipse_1480" data-name="Ellipse 1480" cx="19" cy="19" r="19" transform="translate(10 0.204)" fill="url(#linear-gradient)"/>
  <path id="attorney" d="M54.569,38.513l3.223,8.47H51.346Zm19.98,8.47H68.1l3.223-8.47Zm-3.223,4.175a3.526,3.526,0,0,1-3.459-2.846h6.918A3.526,3.526,0,0,1,71.326,51.158Zm-16.757,0a3.526,3.526,0,0,1-3.459-2.846h6.918A3.526,3.526,0,0,1,54.569,51.158Zm0,1.329a4.854,4.854,0,0,0,4.856-4.84.666.666,0,0,0-.044-.236h0L55.536,37.3h6.745V56.518H59.649a.665.665,0,1,0,0,1.33h6.6a.665.665,0,1,0,0-1.33H63.615V37.3H70.36L66.513,47.411h0a.666.666,0,0,0-.044.236,4.856,4.856,0,0,0,9.712,0,.666.666,0,0,0-.044-.236h0L71.95,36.4a.667.667,0,0,0-.624-.429H54.569a.668.668,0,0,0-.624.429L49.757,47.411h0a.666.666,0,0,0-.044.236A4.853,4.853,0,0,0,54.569,52.487Zm5.853,21.625a.534.534,0,0,1-.535.533h-8.71a.534.534,0,0,1-.535-.533V72.03a.534.534,0,0,1,.535-.532h8.71a.534.534,0,0,1,.535.532ZM45.2,63.738l5.427,4.221a1.739,1.739,0,0,1,.57.765l.561,1.445h6.8l-2.418-6.492-5.107-4.063a1.314,1.314,0,1,0-1.643,2.051L53.084,64.6a.666.666,0,1,1-.832,1.039L48.558,62.7a2.644,2.644,0,0,1-.61-3.44L45.9,49.832a.417.417,0,0,0-.149-.25c-.7-.6-1.414.02-1.471,1.022a.427.427,0,0,0,0,.052L45.022,63.4A.428.428,0,0,0,45.2,63.738ZM59.98,70.171,57.325,63.04a.671.671,0,0,0-.209-.288l-5.251-4.178a2.66,2.66,0,0,0-2.773-.329l-1.885-8.694a1.753,1.753,0,0,0-.578-.973c-1.489-1.291-3.552-.256-3.677,1.949a1.7,1.7,0,0,0,0,.206l.739,12.743a1.743,1.743,0,0,0,.688,1.308l5.427,4.221a.415.415,0,0,1,.147.2l.442,1.138a1.863,1.863,0,0,0-1.085,1.689v2.081a1.867,1.867,0,0,0,1.868,1.862h8.71a1.867,1.867,0,0,0,1.869-1.862V72.03A1.867,1.867,0,0,0,59.98,70.171ZM81.613,50.657a.393.393,0,0,0,0-.052c-.058-1.009-.777-1.625-1.471-1.023a.417.417,0,0,0-.149.25l-2.046,9.432a2.644,2.644,0,0,1-.61,3.44l-3.694,2.939a.666.666,0,1,1-.832-1.039l3.694-2.939a1.314,1.314,0,1,0-1.643-2.051l-5.107,4.063-2.418,6.492h6.8l.561-1.445a1.74,1.74,0,0,1,.57-.765L80.7,63.738a.428.428,0,0,0,.177-.337Zm-6.36,23.454a.534.534,0,0,1-.535.533H66.007a.534.534,0,0,1-.535-.533V72.03a.534.534,0,0,1,.535-.532h8.711a.534.534,0,0,1,.535.532Zm7.692-23.584c-.127-2.206-2.188-3.239-3.677-1.949a1.751,1.751,0,0,0-.578.973L76.8,58.244a2.662,2.662,0,0,0-2.773.33L68.78,62.752a.669.669,0,0,0-.209.288l-2.655,7.131a1.868,1.868,0,0,0-1.776,1.86v2.081a1.867,1.867,0,0,0,1.868,1.862h8.711a1.867,1.867,0,0,0,1.868-1.862V72.031A1.862,1.862,0,0,0,75.5,70.342l.442-1.138a.415.415,0,0,1,.147-.2l5.427-4.221a1.743,1.743,0,0,0,.688-1.308l.739-12.743a1.748,1.748,0,0,0,0-.206Z" transform="translate(-33.948 -26.974)" fill="#07242e" fill-rule="evenodd"/>
</svg>
