<svg id="Group_23425" data-name="Group 23425" xmlns="http://www.w3.org/2000/svg" xmlns:xlink="http://www.w3.org/1999/xlink" width="58" height="58" viewBox="0 0 58 58">
  <defs>
    <linearGradient id="linear-gradient" x1="0.5" x2="0.5" y2="1" gradientUnits="objectBoundingBox">
      <stop offset="0" stop-color="#f4e9d2"/>
      <stop offset="1" stop-color="#fbfbfb" stop-opacity="0"/>
    </linearGradient>
  </defs>
  <rect id="icons8-consultation-100" width="58" height="58" fill="#fff" opacity="0"/>
  <circle id="Ellipse_1475" data-name="Ellipse 1475" cx="19" cy="19" r="19" transform="translate(10)" fill="url(#linear-gradient)"/>
  <g id="Group_23308" data-name="Group 23308" transform="translate(9 8)">
    <g id="deal" transform="translate(0 18.366)">
      <path id="Path_7166" data-name="Path 7166" d="M39.959,229.877l-4.375-11.436a.586.586,0,0,0-.742-.343l-4.609,1.645a.588.588,0,0,0-.348.768l.4,1.016-3.145,1.494-5.162-.97a3.718,3.718,0,0,0-2.9.667l-.923.685-.611-.44a3.734,3.734,0,0,0-3.227-.547l-1.981.59-2.6-1.552.373-.943a.588.588,0,0,0-.348-.768L5.154,218.1a.586.586,0,0,0-.744.343L.037,229.877a.585.585,0,0,0,.312.747l4.375,1.886a.586.586,0,0,0,.777-.323l.441-1.115,3.627,2.045a1.841,1.841,0,0,0,1.516,2.889h.046a1.841,1.841,0,0,0,1.836,1.677h.048a1.838,1.838,0,0,0,1.834,1.679h.046a1.842,1.842,0,0,0,3.138,1.139l.7-.7.942.7a2.064,2.064,0,0,0,2.7-.2l.066-.067a2.071,2.071,0,0,0,.563-1.1,2.063,2.063,0,0,0,2.017-.524l.048-.048a2.053,2.053,0,0,0,.589-1.22,2.05,2.05,0,0,0,2.04-.52l.033-.033a2.032,2.032,0,0,0,.584-1.181,2.06,2.06,0,0,0,2.466-2.542l3.405-1.668.312.788a.584.584,0,0,0,.777.323l4.375-1.886a.585.585,0,0,0,.309-.745ZM4.633,231.195l-3.3-1.424L5.3,219.4l.973.346L4.4,225.074a.587.587,0,1,0,1.106.391l1.87-5.326,1.426.509Zm6.927,3.443a.671.671,0,0,1-.951-.947l1.25-1.25a.672.672,0,0,1,1.146.475.664.664,0,0,1-.2.474Zm1.986,1.576c-.035.034-.066.071-.1.108l-.006-.007a.671.671,0,1,1-.949-.949l1.147-1.147c.034-.034.067-.07.1-.107l.005.005a.671.671,0,0,1,.949.949Zm1.775,1.776a.671.671,0,0,1-.948-.947l1.25-1.25a.671.671,0,1,1,.948.947Zm3.131.427-1.25,1.25a.671.671,0,0,1-.949-.949L17.4,237.57c.034-.034.067-.07.1-.107l.005.005a.671.671,0,0,1,.949.949Zm10.966-4.189a.88.88,0,0,1-1.194.054l-.457-.381a.588.588,0,0,0-.114-.123l-1.054-.847a.586.586,0,0,0-.735.912l.909.734a.626.626,0,0,0,.086.1.885.885,0,0,1,.039,1.288l-.033.033a.883.883,0,0,1-1.142.094l-.905-.649-.009-.007-.342-.245a.586.586,0,0,0-.682.953l.348.249a.886.886,0,0,1,.1,1.343l-.048.048a.886.886,0,0,1-1.212.038l-.977-.86a.586.586,0,1,0-.775.875l.332.294a.886.886,0,0,1,.046,1.286l-.066.067a.889.889,0,0,1-1.163.088l-.844-.63a1.844,1.844,0,0,0-1.552-2.838h-.046a1.842,1.842,0,0,0-1.835-1.678h-.048a1.837,1.837,0,0,0-1.88-1.669,1.825,1.825,0,0,0-.532-1.139,1.844,1.844,0,0,0-2.606,0l-.63.63-4.023-2.266L9.3,222.564l2.652,1.586a.586.586,0,0,0,.469.059l2.228-.664a2.555,2.555,0,0,1,2.209.373l.308.222-3.132,2.325a1.865,1.865,0,0,0-.014,2.984,2.7,2.7,0,0,0,3.047.134l2.459-1.548a4.081,4.081,0,0,0,1.748,1.823,4.836,4.836,0,0,0,3.891.042l4.141,2.983a.887.887,0,0,1,.109,1.346Zm.753-2.17-4.57-3.29a.587.587,0,0,0-.555-.07,3.931,3.931,0,0,1-3.223.124,3.136,3.136,0,0,1-1.446-1.8.586.586,0,0,0-.879-.352l-3.053,1.916a1.52,1.52,0,0,1-1.719-.078.691.691,0,0,1,.005-1.107l5.042-3.744a2.545,2.545,0,0,1,1.982-.456l5.35,1.005a.581.581,0,0,0,.359-.046l3.247-1.543,3.037,7.687Zm5.191-.864-4.168-10.551,1.427-.509,1.87,5.326a.587.587,0,1,0,1.106-.391l-1.875-5.332.973-.346,3.966,10.375Z" transform="translate(0.002 -218.064)" fill="#07242e"/>
    </g>
    <g id="Group_23307" data-name="Group 23307" transform="translate(4)">
      <path id="Path_7167" data-name="Path 7167" d="M147.683,18.366A9.183,9.183,0,1,0,138.5,9.183,9.183,9.183,0,0,0,147.683,18.366Zm0-17.194a8.011,8.011,0,1,1-8.011,8.011A8.011,8.011,0,0,1,147.683,1.172Z" transform="translate(-131.474 0)" fill="#07242e"/>
      <path id="Path_7168" data-name="Path 7168" d="M175.338,43.677a6.838,6.838,0,1,0-6.838-6.838,6.838,6.838,0,0,0,6.838,6.838Zm0-12.5a5.666,5.666,0,1,1-5.666,5.666A5.666,5.666,0,0,1,175.338,31.172Z" transform="translate(-159.129 -27.655)" fill="#07242e"/>
      <path id="Path_7169" data-name="Path 7169" d="M406.94,110.586a.586.586,0,0,0,.586.586h3.248a.586.586,0,1,0,0-1.172h-3.248a.586.586,0,0,0-.586.586Z" transform="translate(-378.941 -101.407)" fill="#07242e"/>
      <path id="Path_7170" data-name="Path 7170" d="M391.891,52.578a.586.586,0,0,0,.3-.078l2.435-1.431a.588.588,0,0,0-.593-1.016l-2.436,1.433a.586.586,0,0,0,.3,1.094Z" transform="translate(-364.524 -46.066)" fill="#07242e"/>
      <path id="Path_7171" data-name="Path 7171" d="M391.648,152.758l2.436,1.433a.588.588,0,0,0,.593-1.016l-2.435-1.43a.586.586,0,1,0-.594,1.011Z" transform="translate(-364.578 -139.817)" fill="#07242e"/>
      <path id="Path_7172" data-name="Path 7172" d="M49.086,111.172h3.248a.586.586,0,1,0,0-1.172H49.086a.586.586,0,1,0,0,1.172Z" transform="translate(-48.5 -101.407)" fill="#07242e"/>
      <path id="Path_7173" data-name="Path 7173" d="M74.739,51.068l2.435,1.43a.586.586,0,1,0,.594-1.011l-2.436-1.436a.588.588,0,0,0-.593,1.016Z" transform="translate(-72.419 -46.066)" fill="#07242e"/>
      <path id="Path_7174" data-name="Path 7174" d="M77.174,151.8l-2.435,1.428a.588.588,0,0,0,.593,1.016l2.436-1.431a.586.586,0,1,0-.594-1.011Z" transform="translate(-72.419 -139.872)" fill="#07242e"/>
      <path id="Path_7175" data-name="Path 7175" d="M210.865,87.772a.587.587,0,0,0,.86,0l4.012-4.3a.587.587,0,1,0-.86-.8l-3.583,3.839-1.812-1.941a.587.587,0,1,0-.86.8Z" transform="translate(-195.971 -76.042)" fill="#07242e"/>
    </g>
  </g>
</svg>
