<svg id="vuesax_linear_security-user" data-name="vuesax/linear/security-user" xmlns="http://www.w3.org/2000/svg" xmlns:xlink="http://www.w3.org/1999/xlink" width="48" height="48" viewBox="0 0 48 48">
  <defs>
    <clipPath id="clip-path">
      <rect id="Rectangle_27833" data-name="Rectangle 27833" width="38" height="38" fill="#dee2f0"/>
    </clipPath>
    <linearGradient id="linear-gradient" x1="0.5" x2="0.5" y2="1" gradientUnits="objectBoundingBox">
      <stop offset="0" stop-color="#dee2f0"/>
      <stop offset="1" stop-color="#fbfbfb"/>
    </linearGradient>
    <linearGradient id="linear-gradient-2" x1="0.5" x2="0.5" y2="1" gradientUnits="objectBoundingBox">
      <stop offset="0" stop-color="#07242e"/>
      <stop offset="1" stop-color="#596c73"/>
    </linearGradient>
    <linearGradient id="linear-gradient-5" x1="0.5" x2="0.5" y2="1" gradientUnits="objectBoundingBox">
      <stop offset="0" stop-color="#f6ebd3"/>
      <stop offset="1" stop-color="#edd8a7"/>
    </linearGradient>
    <linearGradient id="linear-gradient-6" x1="0.5" x2="0.5" y2="1" gradientUnits="objectBoundingBox">
      <stop offset="0" stop-color="#dee2f0"/>
      <stop offset="1" stop-color="#fbfbfb" stop-opacity="0"/>
    </linearGradient>
  </defs>
  <g id="security-user">
    <path id="Vector" d="M0,0H48V48H0Z" fill="none" opacity="0"/>
  </g>
  <g id="Mask_Group_9" data-name="Mask Group 9" transform="translate(5 5)" clip-path="url(#clip-path)">
    <g id="commitment" transform="translate(3.563 0)">
      <g id="Group_23363" data-name="Group 23363" transform="translate(0 17.107)">
        <path id="Path_7342" data-name="Path 7342" d="M25.271,34.4l.813.447a1.408,1.408,0,1,0,1.357-2.467,1.4,1.4,0,0,0,1.941-1.844l.211-.088-9.531-7.587c-2.719-1.834-4.613.529-6.482-.523L11.1,21.2a.842.842,0,0,0-1.113.406L7.332,27.261a.84.84,0,0,0,.415,1.124c.883.4,2.237,1.007,2.515,1.115.847.329.568,1.653,1.032,2.257.714.93.83,1.608,1.438,1.957L21.588,38.8a1.4,1.4,0,0,0,1.912-.555,1.419,1.419,0,0,0-.553-1.915l.967.538A1.408,1.408,0,0,0,25.271,34.4Z" transform="translate(-4.83 -18.373)" fill="#fdd5a6" fill-rule="evenodd"/>
        <path id="Path_7343" data-name="Path 7343" d="M20.346,23.089l-.284-.226c-2.719-1.834-4.613.529-6.482-.523L11.1,21.2a.842.842,0,0,0-1.113.406L9.4,22.854a2.137,2.137,0,0,1,2.054.349c3.7,2.22,4.975-.185,7.88.842q.175-.166.343-.335c.212-.214.434-.423.665-.621Z" transform="translate(-4.83 -18.373)" fill="#fdce97" fill-rule="evenodd"/>
        <path id="Path_7344" data-name="Path 7344" d="M20.436,38.139l1.152.662a1.4,1.4,0,0,0,1.884-.507l-2.4-1.367Zm6.519-6.029.486.272a1.408,1.408,0,0,0,1.86-.468l-4.555-2.589a.669.669,0,0,0-.656,1.166c.967.554,2.89,1.633,2.865,1.619ZM24.8,34.141l-3.123-1.774a.669.669,0,1,1,.656-1.166l5.608,3.189a1.413,1.413,0,0,1-1.854.459Zm-4.331.719a.669.669,0,0,1,.859-.99l4.454,2.523a1.41,1.41,0,0,1-1.865.476l-.875-.485-2.185-1.247a.953.953,0,0,1-.388-.276Z" transform="translate(-4.83 -18.373)" fill="#fdce97" fill-rule="evenodd"/>
        <path id="Path_7345" data-name="Path 7345" d="M9.029,18.907,4.906,28.236a.9.9,0,0,0,.458,1.183l1.8.794a.9.9,0,0,0,1.183-.458l4.123-9.329a.9.9,0,0,0-.458-1.183l-1.8-.794a.9.9,0,0,0-1.183.458Z" transform="translate(-4.83 -18.373)" fill-rule="evenodd" fill="url(#linear-gradient)"/>
        <path id="Path_7346" data-name="Path 7346" d="M7.607,29.43a.9.9,0,0,1-1.179.459l.731.323a.9.9,0,0,0,1.183-.458l4.123-9.329a.9.9,0,0,0-.374-1.14Z" transform="translate(-4.83 -18.373)" fill="#dee2f0" fill-rule="evenodd"/>
        <path id="Path_7347" data-name="Path 7347" d="M10.389,19.931a.61.61,0,1,1-.638.581A.61.61,0,0,1,10.389,19.931Z" transform="translate(-4.83 -18.373)" fill-rule="evenodd" fill="url(#linear-gradient-2)"/>
        <path id="Path_7348" data-name="Path 7348" d="M19.006,35.247a1.456,1.456,0,0,1,1.762-.31,1.435,1.435,0,0,1,.481.416,1.457,1.457,0,0,1,.114,1.546l-.857,1.6a1.45,1.45,0,0,1-2.705-.938A1.449,1.449,0,0,1,15.189,36.5a1.45,1.45,0,1,1-2.56-1.361l.27-.505a1.45,1.45,0,0,1-2.254-1.756l.894-1.671a1.45,1.45,0,0,1,2.6,1.285,1.449,1.449,0,0,1,2.386,1.426,1.45,1.45,0,0,1,2.483,1.328Z" transform="translate(-4.83 -18.373)" fill="#d6b4a8" fill-rule="evenodd"/>
        <path id="Path_7349" data-name="Path 7349" d="M12.9,34.635a1.456,1.456,0,0,1-1.659.206,1.435,1.435,0,0,1-.325-.238c.445.02.644-.331.846-.687l1.519-2.672a.827.827,0,0,0,.037-.714,1.448,1.448,0,0,1,.82,1.962Zm2.29,1.867,1.334-2.584a1.448,1.448,0,0,0-.94-1.732.817.817,0,0,1,.034.556l-2.009,3.891a.877.877,0,0,1-.585.34,1.449,1.449,0,0,0,2.166-.471Zm5.416-1.639a1.456,1.456,0,0,1,.163.074,1.435,1.435,0,0,1,.481.416,1.457,1.457,0,0,1,.114,1.546l-.857,1.6a1.454,1.454,0,0,1-1.962.595l-.023-.013a.507.507,0,0,0,.288-.221L20.6,35.4a.673.673,0,0,0,.008-.536Zm-2.8,2.7a1.449,1.449,0,0,1-2,.351,1.2,1.2,0,0,0,.6-.568l1.667-3.229a.6.6,0,0,0-.006-.6,1.448,1.448,0,0,1,.945,1.734Z" transform="translate(-4.83 -18.373)" fill="#cca393" fill-rule="evenodd"/>
        <path id="Path_7350" data-name="Path 7350" d="M23.93,27.14,28.8,29.915a1.439,1.439,0,0,1,.584.623l2.747-1.146a.841.841,0,0,0,.46-1.079L30.3,22.4a.84.84,0,0,0-1.18-.437l-1.644.88c-1.963,1.021-3.853-2.415-7.408.023a8.932,8.932,0,0,0-1.289,1.092,17.106,17.106,0,0,1-3.553,2.682.168.168,0,0,0-.048.249c2.82,3.629,6.252-1.172,8.755.254Z" transform="translate(-4.83 -18.373)" fill="#d6b4a8" fill-rule="evenodd"/>
        <path id="Path_7351" data-name="Path 7351" d="M27.706,29.292l1.093.623a1.439,1.439,0,0,1,.584.623l2.747-1.146a.841.841,0,0,0,.46-1.078l-.673-1.735a1.134,1.134,0,0,1-.664,1.268Zm-12.15-1.97c2.743,2.775,5.982-1.546,8.373-.183-3.786-2.565-5.2.815-8.373.183Z" transform="translate(-4.83 -18.373)" fill="#cca393" fill-rule="evenodd"/>
        <path id="Path_7352" data-name="Path 7352" d="M31.957,19.57l3.687,9.51a.9.9,0,0,1-.512,1.16l-1.831.71a.9.9,0,0,1-1.16-.512l-3.687-9.51a.9.9,0,0,1,.512-1.16l1.831-.71a.9.9,0,0,1,1.16.512Z" transform="translate(-4.83 -18.373)" fill-rule="evenodd" fill="url(#linear-gradient)"/>
        <path id="Path_7353" data-name="Path 7353" d="M28.817,19.842a.9.9,0,0,0-.363,1.086l3.687,9.51a.9.9,0,0,0,1.16.512l.679-.263h0a.9.9,0,0,1-1.16-.512Z" transform="translate(-4.83 -18.373)" fill="#dee2f0" fill-rule="evenodd"/>
        <circle id="Ellipse_1498" data-name="Ellipse 1498" cx="0.61" cy="0.61" r="0.61" transform="translate(24.985 2.3) rotate(-13.3)" fill="url(#linear-gradient-2)"/>
      </g>
      <g id="Group_23364" data-name="Group 23364" transform="translate(8.404)">
        <path id="Path_7354" data-name="Path 7354" d="M24.552,11.419l-3.239,2.686,1.737,4.033a.174.174,0,0,0,.308.023l1.121-1.807,2.083.427a.174.174,0,0,0,.2-.24Z" transform="translate(-13.234 -1.267)" fill="#fafbfd" fill-rule="evenodd"/>
        <path id="Path_7355" data-name="Path 7355" d="M24.552,11.419l-.428.355,2.053,4.767a.172.172,0,0,1-.01.159l.4.081a.174.174,0,0,0,.2-.24Zm-1.608,6.474,1.02-1.644.516.106-1.121,1.807a.174.174,0,0,1-.308-.023Z" transform="translate(-13.234 -1.267)" fill="#ddb669" fill-rule="evenodd"/>
        <path id="Path_7356" data-name="Path 7356" d="M19.773,13.9l-2.329,5a.174.174,0,0,1-.309.014l-1.069-1.839-2.095.366a.174.174,0,0,1-.188-.245l2.3-4.948Z" transform="translate(-13.234 -1.267)" fill="#fafbfd" fill-rule="evenodd"/>
        <path id="Path_7357" data-name="Path 7357" d="M19.773,13.9l-2.329,5a.174.174,0,0,1-.309.014l-1.069-1.839-2.1.366a.174.174,0,0,1-.188-.245l.142-.3,1.847-.323,1.069,1.839a.174.174,0,0,0,.309-.014L19.335,13.7Z" transform="translate(-13.234 -1.267)" fill="#ddb669" fill-rule="evenodd"/>
        <path id="Path_7358" data-name="Path 7358" d="M21.155,1.567c1.393,1.042,1.077.928,2.814,1.024A1.465,1.465,0,0,1,25.33,3.733a3.545,3.545,0,0,0,.684,1.829l.814.764a1.465,1.465,0,0,1,.309,1.75c-.785,1.552-.726,1.221-.52,2.949a1.465,1.465,0,0,1-.889,1.539c-1.6.685-1.342.469-2.294,1.925a1.465,1.465,0,0,1-1.67.608c-1.665-.5-1.329-.5-2.994,0a1.465,1.465,0,0,1-1.67-.608c-.952-1.456-.695-1.24-2.294-1.925a1.465,1.465,0,0,1-.889-1.539c.206-1.727.265-1.4-.52-2.949a1.465,1.465,0,0,1,.309-1.75c1.268-1.191,1.1-.9,1.5-2.593a1.465,1.465,0,0,1,1.361-1.142c1.737-.1,1.421.018,2.814-1.024a1.465,1.465,0,0,1,1.777,0Z" transform="translate(-13.234 -1.267)" fill-rule="evenodd" fill="url(#linear-gradient-5)"/>
        <path id="Path_7359" data-name="Path 7359" d="M21.155,1.567c1.393,1.042,1.077.928,2.814,1.024A1.465,1.465,0,0,1,25.33,3.733a3.545,3.545,0,0,0,.684,1.829l.814.764a1.465,1.465,0,0,1,.309,1.75c-.785,1.552-.726,1.221-.52,2.949a1.465,1.465,0,0,1-.889,1.539c-1.6.685-1.342.469-2.294,1.925a1.464,1.464,0,0,1-1.613.624,1.473,1.473,0,0,0,.852-.624c.952-1.456.695-1.24,2.294-1.925a1.465,1.465,0,0,0,.889-1.539c-.206-1.727-.265-1.4.52-2.949a1.465,1.465,0,0,0-.309-1.75l-.814-.764a3.545,3.545,0,0,1-.683-1.829,1.465,1.465,0,0,0-1.361-1.142c-1.737-.1-1.421.018-2.814-1.024a1.507,1.507,0,0,0-.508-.249,1.465,1.465,0,0,1,1.269.249Zm-1.269,13.2c-.539-.123-.747-.013-1.878.329l-.057.016a1.486,1.486,0,0,0,.818-.016C19.3,14.936,19.631,14.826,19.886,14.768Z" transform="translate(-13.234 -1.267)" fill="#ddb669" fill-rule="evenodd"/>
        <circle id="Ellipse_1499" data-name="Ellipse 1499" cx="4.15" cy="4.15" r="4.15" transform="translate(2.269 3.519) rotate(-9.208)" fill="#fafbfd"/>
        <path id="Path_7360" data-name="Path 7360" d="M20.267,4.065q.167,0,.332.013a4.15,4.15,0,0,0,0,8.274q-.164.013-.332.013a4.15,4.15,0,1,1,0-8.3Z" transform="translate(-13.234 -1.267)" fill-rule="evenodd" fill="url(#linear-gradient-6)"/>
        <path id="Path_7361" data-name="Path 7361" d="M17.577,8.8a.633.633,0,0,1,.9-.9l.882.882,2.728-2.476a.632.632,0,1,1,.851.935L19.784,10.1l0,0a.633.633,0,0,1-.9,0Z" transform="translate(-13.234 -1.267)" fill="#ddb669" fill-rule="evenodd"/>
      </g>
    </g>
  </g>
</svg>
