<svg id="vuesax_linear_security-user" data-name="vuesax/linear/security-user" xmlns="http://www.w3.org/2000/svg" xmlns:xlink="http://www.w3.org/1999/xlink" width="48" height="48" viewBox="0 0 48 48">
  <defs>
    <clipPath id="clip-path">
      <rect id="Rectangle_27831" data-name="Rectangle 27831" width="38" height="38" fill="#fff" stroke="#707070" stroke-width="1"/>
    </clipPath>
    <linearGradient id="linear-gradient" x1="0.5" y1="-0.704" x2="0.5" y2="1" gradientUnits="objectBoundingBox">
      <stop offset="0" stop-color="#dee2f0"/>
      <stop offset="1" stop-color="#fbfbfb"/>
    </linearGradient>
  </defs>
  <g id="security-user">
    <path id="Vector" d="M0,0H48V48H0Z" fill="none" opacity="0"/>
  </g>
  <g id="Mask_Group_2" data-name="Mask Group 2" transform="translate(5 5)" clip-path="url(#clip-path)">
    <g id="layer1" transform="translate(0 0)">
      <path id="path6806" d="M26.839,514.3,24.3,520l1.159.514,1.954-4.395,1.954,4.395L30.532,520,28,514.3Z" transform="translate(7.416 -487.96)" fill="#b59961"/>
      <path id="path6796" d="M22.4,526.251V512.32a.633.633,0,0,1,1.267,0v13.932Z" transform="translate(6.736 -488.895)" fill="#b59961"/>
      <path id="path11133" d="M20.567,509.827a8.228,8.228,0,0,1,8.233,8.232v8.864a.633.633,0,0,1-.636.636H1.567a.633.633,0,0,1-.636-.636v-8.864a8.228,8.228,0,0,1,8.233-8.232Z" transform="translate(-0.931 -489.56)" fill="#07242e"/>
      <path id="path11037" d="M13.2,494.893a7.613,7.613,0,0,0-7.6,7.6,13.309,13.309,0,0,0,.471,3.324H20.331A13.293,13.293,0,0,0,20.8,502.5a7.609,7.609,0,0,0-7.6-7.6Z" transform="translate(0.736 -494.893)" fill="#0a3544"/>
      <path id="path11141" d="M12.366,511.692l-4.433,3.167,4.433,10.766L16.8,514.859Z" transform="translate(1.569 -488.893)" fill="url(#linear-gradient)"/>
      <path id="path11098" d="M10.683,513.561l-1.317,7.913,2.489,3.484,2.487-3.483-1.317-7.914Z" transform="translate(2.081 -488.226)" fill="#ff6b6b"/>
      <path id="path11061" d="M8.4,506.561v6.964H16v-6.964Z" transform="translate(1.736 -490.726)" fill="#fdce97"/>
      <path id="path11080" d="M9.6,512.237s-.368.589-.173.88l1.262,1.9a.634.634,0,0,0,.528.286h1.267a.634.634,0,0,0,.529-.286l1.267-1.9c.194-.292-.178-.88-.178-.88Z" transform="translate(2.083 -488.699)" fill="#e86262"/>
      <path id="path11070" d="M8.847,508.893a.633.633,0,0,0-.444.187l-1.267,1.267,1.449,6.026,4.432-3.165a.633.633,0,0,0,.037-1l-3.8-3.17a.632.632,0,0,0-.411-.145Z" transform="translate(1.284 -489.893)" fill="#dee2f0"/>
      <path id="path6778" d="M4.2,524.562v-5.71a.633.633,0,1,1,1.267,0v5.71Z" transform="translate(0.236 -486.563)" fill="#07242e"/>
      <path id="path11074" d="M15.154,508.893a.634.634,0,0,0-.393.145l-3.8,3.17a.633.633,0,0,0,.037,1l4.432,3.165,1.449-6.026-1.267-1.267a.633.633,0,0,0-.458-.187Z" transform="translate(2.569 -489.893)" fill="#dee2f0"/>
      <path id="path11046" d="M16,502.354a2.005,2.005,0,0,0-1.065.367v4.707a3.148,3.148,0,0,0,3.168-3.164v-.024a1.984,1.984,0,0,0-1.5-1.823,2.016,2.016,0,0,0-.6-.063Z" transform="translate(4.069 -492.229)" fill="#fdce97"/>
      <path id="path11127" d="M7.833,509.826a8.3,8.3,0,0,0-2.2.294.633.633,0,0,0-.456.5l-.5,2.9a.633.633,0,0,0,.176.557L6.5,515.72l-.547,2.186a.633.633,0,0,0,.116.544l6.966,8.866a.633.633,0,0,0,1.1-.578L9.071,510.272a.633.633,0,0,0-.6-.447Z" transform="translate(0.403 -489.56)" fill="#384f57"/>
      <path id="path11143" d="M18.53,524.562v-5.71a.633.633,0,1,0-1.267,0v5.71Z" transform="translate(4.901 -486.563)" fill="#07242e"/>
      <path id="path6800" d="M19.374,514.3,16.84,520l1.159.514,1.954-4.4,1.954,4.4L23.062,520l-2.534-5.7Z" transform="translate(4.75 -487.96)" fill="#b59961"/>
      <path id="path6802" d="M24.865,513.092a6.961,6.961,0,0,0-3.025.687,4.551,4.551,0,0,1-2.038.58,2.534,2.534,0,0,1-1.145-.248,1.05,1.05,0,0,1-.309-.2.635.635,0,0,0-.9.9,2.853,2.853,0,0,0,.641.435,3.828,3.828,0,0,0,1.711.383,5.837,5.837,0,0,0,2.553-.687,5.737,5.737,0,0,1,5.026,0,5.837,5.837,0,0,0,2.553.687,3.8,3.8,0,0,0,1.706-.383,2.846,2.846,0,0,0,.64-.435.633.633,0,1,0-.893-.9,1.147,1.147,0,0,1-.313.2,2.508,2.508,0,0,1-1.141.248,4.551,4.551,0,0,1-2.038-.58,6.984,6.984,0,0,0-3.029-.687Z" transform="translate(4.902 -488.393)" fill="#ddb669"/>
      <path id="path6808" d="M20.706,523.226h6.335a.633.633,0,0,0,0-1.267H20.674a.634.634,0,1,0,.033,1.267Z" transform="translate(5.895 -485.227)" fill="#ddb669"/>
      <path id="path11055" d="M7.237,502.354a2.005,2.005,0,0,1,1.065.367v4.707a3.148,3.148,0,0,1-3.168-3.164v-.024a1.984,1.984,0,0,1,1.5-1.823,2.016,2.016,0,0,1,.6-.063Z" transform="translate(0.57 -492.229)" fill="#fdce97"/>
      <path id="path10375-2" d="M13.968,500.026a2.822,2.822,0,0,1-2.532,1.9H8.9a1.915,1.915,0,0,0-1.9,1.9v2.533a5.7,5.7,0,0,0,11.4,0v-2.533a1.915,1.915,0,0,0-1.9-1.9,2.822,2.822,0,0,1-2.531-1.9Z" transform="translate(1.235 -493.06)" fill="#fdd5a6"/>
      <path id="path11123" d="M16.431,509.826a.633.633,0,0,0-.6.444l-5.068,16.47a.633.633,0,0,0,1.1.575l6.966-8.864a.633.633,0,0,0,.117-.547l-.547-2.183,1.65-1.65a.633.633,0,0,0,.173-.556l-.5-2.894a.633.633,0,0,0-.453-.5,8.306,8.306,0,0,0-2.2-.295Z" transform="translate(2.569 -489.56)" fill="#384f57"/>
      <g id="Group_23318" data-name="Group 23318" transform="translate(21.534 31.664)">
        <path id="path11170" d="M17.434,518.225a.633.633,0,0,0-.636.636,3.732,3.732,0,0,0,.383,1.547,3.019,3.019,0,0,0,2.786,1.618,3.011,3.011,0,0,0,2.782-1.618,3.746,3.746,0,0,0,.383-1.547.633.633,0,0,0-.636-.636Z" transform="translate(-16.799 -518.225)" fill="#ddb669"/>
        <path id="path11178" d="M24.9,518.225a.633.633,0,0,0-.631.636,3.732,3.732,0,0,0,.383,1.547,3.2,3.2,0,0,0,5.563,0,3.746,3.746,0,0,0,.383-1.547.633.633,0,0,0-.631-.636Z" transform="translate(-14.131 -518.225)" fill="#ddb669"/>
      </g>
    </g>
  </g>
</svg>
