<svg id="vuesax_linear_security-user" data-name="vuesax/linear/security-user" xmlns="http://www.w3.org/2000/svg" xmlns:xlink="http://www.w3.org/1999/xlink" width="48" height="48" viewBox="0 0 48 48">
  <defs>
    <clipPath id="clip-path">
      <rect id="Rectangle_27833" data-name="Rectangle 27833" width="38" height="38" fill="#dee2f0"/>
    </clipPath>
    <linearGradient id="linear-gradient" x1="0.5" x2="0.5" y2="1" gradientUnits="objectBoundingBox">
      <stop offset="0" stop-color="#07242e"/>
      <stop offset="1" stop-color="#596c73"/>
    </linearGradient>
    <linearGradient id="linear-gradient-2" x1="0" y1="0.018" x2="0.672" xlink:href="#linear-gradient"/>
    <linearGradient id="linear-gradient-3" x1="1" y1="0.5" x2="0" y2="0.5" gradientUnits="objectBoundingBox">
      <stop offset="0" stop-color="#dee2f0"/>
      <stop offset="0.9" stop-color="#f8f8fa" stop-opacity="0.102"/>
      <stop offset="1" stop-color="#fbfbfb" stop-opacity="0"/>
    </linearGradient>
    <linearGradient id="linear-gradient-4" x1="1" y1="1" x2="-0.011" y2="1" gradientUnits="objectBoundingBox">
      <stop offset="0" stop-color="#dee2f0"/>
      <stop offset="1" stop-color="#fbfbfb" stop-opacity="0"/>
    </linearGradient>
    <linearGradient id="linear-gradient-7" x1="0.5" x2="0.5" y2="1" gradientUnits="objectBoundingBox">
      <stop offset="0" stop-color="#f6ebd3"/>
      <stop offset="1" stop-color="#edd8a7"/>
    </linearGradient>
  </defs>
  <g id="security-user">
    <path id="Vector" d="M0,0H48V48H0Z" fill="none" opacity="0"/>
  </g>
  <g id="Mask_Group_4" data-name="Mask Group 4" transform="translate(5 5)" clip-path="url(#clip-path)">
    <g id="smartphone" transform="translate(0.816 0)">
      <path id="Path_7222" data-name="Path 7222" d="M31.492,33.029A18.183,18.183,0,1,0,19,38a18.369,18.369,0,0,0,2.323-.147Z" transform="translate(-0.816 0)" fill="#faf1dc"/>
      <path id="Path_7223" data-name="Path 7223" d="M29.453,27.132a5.236,5.236,0,0,1-.166-1.8l.3-2.8a9.681,9.681,0,0,0-.9-5.093c-2.007-4.083-1.547-4.379-1.609-8.432a1.5,1.5,0,0,0-3,0c0,16.479.031,15.27-.071,15.753v2.158a3.3,3.3,0,0,1-3.3,3.3H12.5a11.643,11.643,0,0,0,4.986,3.957l.037.016c1.546.653,3.273,1.956,3.561,3.573l.028.115a18.123,18.123,0,0,0,10.529-4.995Z" transform="translate(-0.816 0)" fill="#f9ba8f"/>
      <path id="Path_7224" data-name="Path 7224" d="M6.937,7.561,6.48,7.139A1.744,1.744,0,1,0,4.109,9.7l2.828,2.62Z" transform="translate(-0.816 0)" fill="#f9ba8f"/>
      <path id="Path_7225" data-name="Path 7225" d="M5.037,8.386A1.745,1.745,0,0,1,4.5,6.87a1.727,1.727,0,0,0-.482.363A1.75,1.75,0,0,0,4.109,9.7l2.828,2.62V10.147Z" transform="translate(-0.816 0)" fill="#fcad6d"/>
      <g id="Group_23339" data-name="Group 23339" transform="translate(17.818 27.49)">
        <path id="Path_7226" data-name="Path 7226" d="M29.589,27.49a8.836,8.836,0,0,1-10.955,7.268,4.9,4.9,0,0,1,2.454,3l.028.115a18.123,18.123,0,0,0,10.529-4.995Z" transform="translate(-18.635 -27.49)" fill="#fd995b"/>
      </g>
      <g id="Group_23340" data-name="Group 23340" transform="translate(6.055 0)">
        <path id="Path_7227" data-name="Path 7227" d="M21.495,30.287H9.454A2.585,2.585,0,0,1,6.872,27.7V2.582A2.585,2.585,0,0,1,9.454,0H21.495a2.585,2.585,0,0,1,2.582,2.582V27.7a2.585,2.585,0,0,1-2.582,2.582Z" transform="translate(-6.872)" fill="url(#linear-gradient)"/>
      </g>
      <path id="Path_7228" data-name="Path 7228" d="M9.454,30.287A2.585,2.585,0,0,1,6.872,27.7V2.582A2.585,2.585,0,0,1,9.454,0h3.59a1.084,1.084,0,0,0,.133,1.607,1.654,1.654,0,0,0-1.2,1.722V25.705a1.774,1.774,0,0,0,1.338,1.65.765.765,0,0,0,0,1.081v.892a.7.7,0,0,0-.285.958Z" transform="translate(-0.816)" fill="url(#linear-gradient-2)"/>
      <g id="Group_23341" data-name="Group 23341" transform="translate(12.052 0.958)">
        <path id="Path_7229" data-name="Path 7229" d="M13.572,1.85h-.258a.446.446,0,0,1,0-.893h.258a.446.446,0,1,1,0,.893Z" transform="translate(-12.868 -0.958)" fill="#596c73"/>
      </g>
      <g id="Group_23342" data-name="Group 23342" transform="translate(13.833 0.958)">
        <path id="Path_7230" data-name="Path 7230" d="M17.573,1.85H15.1a.446.446,0,1,1,0-.893h2.478a.446.446,0,1,1,0,.893Z" transform="translate(-14.649 -0.958)" fill="#596c73"/>
      </g>
      <path id="Path_7231" data-name="Path 7231" d="M21.495,1.607h-1.81a.611.611,0,0,0-.611.611.716.716,0,0,1-.714.714H12.589a.716.716,0,0,1-.714-.714.611.611,0,0,0-.611-.611H9.454a.976.976,0,0,0-.976.976V27.7a.976.976,0,0,0,.976.976H21.495a.976.976,0,0,0,.976-.976V2.582A.976.976,0,0,0,21.495,1.607Z" transform="translate(-0.816 0)" fill="#fafbfd"/>
      <path id="Path_7232" data-name="Path 7232" d="M13.176,28.68c-.186-.8.743-.988.743-.988s.591-5.174,0-5.764a.777.777,0,0,1,0-1.148s.645-5.119,0-5.764a.723.723,0,0,1,0-1.148V8.1a1.3,1.3,0,0,1-.548-1.78V4.67a1.22,1.22,0,0,1-.057-1.738h-.726a.716.716,0,0,1-.714-.714.611.611,0,0,0-.611-.611H9.454a.976.976,0,0,0-.976.976V27.7a.976.976,0,0,0,.976.976h3.722Z" transform="translate(-0.816 0)" fill="#fff"/>
      <g id="Group_23343" data-name="Group 23343" transform="translate(10.201 4.67)">
        <path id="Path_7233" data-name="Path 7233" d="M11.844,6.323H19.1a.827.827,0,0,0,0-1.653h-7.26a.827.827,0,1,0,0,1.653Z" transform="translate(-11.018 -4.67)" fill="url(#linear-gradient-3)"/>
      </g>
      <path id="Path_7234" data-name="Path 7234" d="M11.844,4.67h1.527V6.323H11.844a.827.827,0,0,1,0-1.653Z" transform="translate(-0.816 0)" fill="#dee2f0"/>
      <g id="Group_23387" data-name="Group 23387" transform="translate(8.817 8.103)">
        <path id="Path_7235" data-name="Path 7235" d="M20.572,13.867H10.377a.746.746,0,0,1-.744-.744V8.846a.746.746,0,0,1,.744-.744H20.572a.746.746,0,0,1,.744.744v4.277A.746.746,0,0,1,20.572,13.867Z" transform="translate(-9.634 -8.103)" fill="url(#linear-gradient-4)"/>
        <path id="Path_7241" data-name="Path 7241" d="M13.176,13.124V8.846a.746.746,0,0,1,.744-.744H10.377a.746.746,0,0,0-.744.744v4.277a.746.746,0,0,0,.744.744h3.542A.746.746,0,0,1,13.176,13.124Z" transform="translate(-9.634 -8.103)" fill="#dee2f0"/>
        <g id="Group_23345" data-name="Group 23345" transform="translate(1.901 1.278)">
          <path id="Path_7244" data-name="Path 7244" d="M15.072,10.494H12.091a.557.557,0,0,1,0-1.113h2.981a.557.557,0,0,1,0,1.113Z" transform="translate(-11.535 -9.38)" fill="#07242e"/>
        </g>
        <g id="Group_23346" data-name="Group 23346" transform="translate(1.901 3.374)">
          <path id="Path_7245" data-name="Path 7245" d="M18.858,12.59H12.091a.557.557,0,0,1,0-1.113h6.766a.557.557,0,0,1,0,1.113Z" transform="translate(-11.535 -11.476)" fill="#b5bdd9"/>
        </g>
        <g id="Group_23347" data-name="Group 23347" transform="translate(6.787 1.278)">
          <path id="Path_7246" data-name="Path 7246" d="M17.4,10.494h-.421a.557.557,0,0,1,0-1.113H17.4a.557.557,0,0,1,0,1.113Z" transform="translate(-16.421 -9.38)" fill="#b5bdd9"/>
        </g>
      </g>
      <g id="Group_23388" data-name="Group 23388" transform="translate(8.817 14.867)">
        <path id="Path_7235-2" data-name="Path 7235" d="M20.572,13.867H10.377a.746.746,0,0,1-.744-.744V8.846a.746.746,0,0,1,.744-.744H20.572a.746.746,0,0,1,.744.744v4.277A.746.746,0,0,1,20.572,13.867Z" transform="translate(-9.634 -8.103)" fill="url(#linear-gradient-4)"/>
        <path id="Path_7241-2" data-name="Path 7241" d="M13.176,13.124V8.846a.746.746,0,0,1,.744-.744H10.377a.746.746,0,0,0-.744.744v4.277a.746.746,0,0,0,.744.744h3.542A.746.746,0,0,1,13.176,13.124Z" transform="translate(-9.634 -8.103)" fill="#dee2f0"/>
        <g id="Group_23345-2" data-name="Group 23345" transform="translate(1.901 1.278)">
          <path id="Path_7244-2" data-name="Path 7244" d="M15.072,10.494H12.091a.557.557,0,0,1,0-1.113h2.981a.557.557,0,0,1,0,1.113Z" transform="translate(-11.535 -9.38)" fill="#07242e"/>
        </g>
        <g id="Group_23346-2" data-name="Group 23346" transform="translate(1.901 3.374)">
          <path id="Path_7245-2" data-name="Path 7245" d="M18.858,12.59H12.091a.557.557,0,0,1,0-1.113h6.766a.557.557,0,0,1,0,1.113Z" transform="translate(-11.535 -11.476)" fill="#b5bdd9"/>
        </g>
        <g id="Group_23347-2" data-name="Group 23347" transform="translate(6.787 1.278)">
          <path id="Path_7246-2" data-name="Path 7246" d="M17.4,10.494h-.421a.557.557,0,0,1,0-1.113H17.4a.557.557,0,0,1,0,1.113Z" transform="translate(-16.421 -9.38)" fill="#b5bdd9"/>
        </g>
      </g>
      <g id="Group_23389" data-name="Group 23389" transform="translate(8.817 21.632)">
        <path id="Path_7235-3" data-name="Path 7235" d="M20.572,13.867H10.377a.746.746,0,0,1-.744-.744V8.846a.746.746,0,0,1,.744-.744H20.572a.746.746,0,0,1,.744.744v4.277A.746.746,0,0,1,20.572,13.867Z" transform="translate(-9.634 -8.103)" fill="url(#linear-gradient-4)"/>
        <path id="Path_7241-3" data-name="Path 7241" d="M13.176,13.124V8.846a.746.746,0,0,1,.744-.744H10.377a.746.746,0,0,0-.744.744v4.277a.746.746,0,0,0,.744.744h3.542A.746.746,0,0,1,13.176,13.124Z" transform="translate(-9.634 -8.103)" fill="#dee2f0"/>
        <g id="Group_23345-3" data-name="Group 23345" transform="translate(1.901 1.278)">
          <path id="Path_7244-3" data-name="Path 7244" d="M15.072,10.494H12.091a.557.557,0,0,1,0-1.113h2.981a.557.557,0,0,1,0,1.113Z" transform="translate(-11.535 -9.38)" fill="#07242e"/>
        </g>
        <g id="Group_23346-3" data-name="Group 23346" transform="translate(1.901 3.374)">
          <path id="Path_7245-3" data-name="Path 7245" d="M18.858,12.59H12.091a.557.557,0,0,1,0-1.113h6.766a.557.557,0,0,1,0,1.113Z" transform="translate(-11.535 -11.476)" fill="#b5bdd9"/>
        </g>
        <g id="Group_23347-3" data-name="Group 23347" transform="translate(6.787 1.278)">
          <path id="Path_7246-3" data-name="Path 7246" d="M17.4,10.494h-.421a.557.557,0,0,1,0-1.113H17.4a.557.557,0,0,1,0,1.113Z" transform="translate(-16.421 -9.38)" fill="#b5bdd9"/>
        </g>
      </g>
      <path id="Path_7253" data-name="Path 7253" d="M9.475,16.762a1.528,1.528,0,0,1-2.16.082l-2.56-2.372a1.529,1.529,0,1,1,2.078-2.242L9.393,14.6a1.528,1.528,0,0,1,.082,2.16Z" transform="translate(-0.816 0)" fill="#f9ba8f"/>
      <path id="Path_7254" data-name="Path 7254" d="M8.369,15.766l-2.56-2.372a1.528,1.528,0,0,1-.439-1.509,1.526,1.526,0,0,0-.614,2.588l2.56,2.372a1.528,1.528,0,0,0,2.517-.733,1.526,1.526,0,0,1-1.464-.345Z" transform="translate(-0.816 0)" fill="#fcad6d"/>
      <g id="Group_23354" data-name="Group 23354" transform="translate(3.449 20.16)">
        <path id="Path_7255" data-name="Path 7255" d="M9.475,25.1a1.528,1.528,0,0,1-2.16.082L4.755,22.81a1.529,1.529,0,0,1,2.078-2.242l2.56,2.372a1.528,1.528,0,0,1,.082,2.16Z" transform="translate(-4.265 -20.16)" fill="#f9ba8f"/>
      </g>
      <path id="Path_7256" data-name="Path 7256" d="M8.369,24.1l-2.56-2.372a1.528,1.528,0,0,1-.439-1.509,1.526,1.526,0,0,0-.614,2.588l2.56,2.372a1.528,1.528,0,0,0,2.517-.733A1.526,1.526,0,0,1,8.369,24.1Z" transform="translate(-0.816 0)" fill="#fcad6d"/>
      <path id="Path_7257" data-name="Path 7257" d="M9.475,20.931a1.528,1.528,0,0,1-2.16.082l-2.56-2.372A1.529,1.529,0,1,1,6.833,16.4l2.56,2.372a1.528,1.528,0,0,1,.082,2.16Z" transform="translate(-0.816 0)" fill="#f9ba8f"/>
      <path id="Path_7258" data-name="Path 7258" d="M8.369,19.935l-2.56-2.372a1.528,1.528,0,0,1-.439-1.509,1.526,1.526,0,0,0-.614,2.588l2.56,2.372a1.528,1.528,0,0,0,2.517-.733A1.526,1.526,0,0,1,8.369,19.935Z" transform="translate(-0.816 0)" fill="#fcad6d"/>
      <path id="Path_7259" data-name="Path 7259" d="M31.325,6.449a5.22,5.22,0,0,0-1.166,5.028c1.336,3.693,3.464,6.827,2.474,12.286-.449,2.477,1.024,3.515,2.768,3.91A18.191,18.191,0,0,0,31.325,6.449Z" transform="translate(-0.816 0)" fill="url(#linear-gradient-7)"/>
    </g>
  </g>
</svg>
