<svg width="16" height="16" viewBox="0 0 16 16" fill="none" xmlns="http://www.w3.org/2000/svg">
<path d="M5.3335 14.8802C5.14683 14.8802 4.95349 14.8336 4.78015 14.7403C4.40015 14.5403 4.16683 14.1402 4.16683 13.7136V12.767C2.1535 12.5603 0.833496 11.0802 0.833496 8.96025V4.96029C0.833496 2.66695 2.3735 1.12695 4.66683 1.12695H11.3335C13.6268 1.12695 15.1668 2.66695 15.1668 4.96029V8.96025C15.1668 11.2536 13.6268 12.7936 11.3335 12.7936H8.82015L5.98014 14.687C5.78681 14.8136 5.56016 14.8802 5.3335 14.8802ZM4.66683 2.12028C2.94683 2.12028 1.8335 3.23361 1.8335 4.95361V8.95365C1.8335 10.6737 2.94683 11.787 4.66683 11.787C4.94016 11.787 5.16683 12.0137 5.16683 12.287V13.707C5.16683 13.7937 5.22017 13.8336 5.2535 13.8536C5.28683 13.8736 5.35351 13.8936 5.42684 13.847L8.39351 11.8737C8.47351 11.8203 8.5735 11.787 8.6735 11.787H11.3402C13.0602 11.787 14.1735 10.6737 14.1735 8.95365V4.95361C14.1735 3.23361 13.0602 2.12028 11.3402 2.12028H4.66683Z" fill="#173039"/>
<path d="M7.99972 8.07422C7.72638 8.07422 7.49972 7.84755 7.49972 7.57422V7.43424C7.49972 6.66091 8.06637 6.2809 8.2797 6.13424C8.52637 5.96757 8.60636 5.85424 8.60636 5.68091C8.60636 5.34757 8.33305 5.07422 7.99972 5.07422C7.66638 5.07422 7.39307 5.34757 7.39307 5.68091C7.39307 5.95424 7.1664 6.18091 6.89307 6.18091C6.61973 6.18091 6.39307 5.95424 6.39307 5.68091C6.39307 4.79424 7.11305 4.07422 7.99972 4.07422C8.88638 4.07422 9.60636 4.79424 9.60636 5.68091C9.60636 6.44091 9.04639 6.8209 8.83972 6.9609C8.57972 7.13423 8.49972 7.24758 8.49972 7.43424V7.57422C8.49972 7.85422 8.27305 8.07422 7.99972 8.07422Z" fill="#173039"/>
<path d="M8 9.73242C7.72 9.73242 7.5 9.50576 7.5 9.23242C7.5 8.95909 7.72667 8.73242 8 8.73242C8.27333 8.73242 8.5 8.95909 8.5 9.23242C8.5 9.50576 8.28 9.73242 8 9.73242Z" fill="#173039"/>
</svg>
