<svg width="17" height="16" viewBox="0 0 17 16" fill="none" xmlns="http://www.w3.org/2000/svg">
<path d="M8.16374 15.1673C4.2104 15.1673 0.99707 11.954 0.99707 8.00065C0.99707 4.04732 4.2104 0.833984 8.16374 0.833984C12.1171 0.833984 15.3304 4.04732 15.3304 8.00065C15.3304 11.954 12.1171 15.1673 8.16374 15.1673ZM8.16374 1.83398C4.76374 1.83398 1.99707 4.60065 1.99707 8.00065C1.99707 11.4007 4.76374 14.1673 8.16374 14.1673C11.5637 14.1673 14.3304 11.4007 14.3304 8.00065C14.3304 4.60065 11.5637 1.83398 8.16374 1.83398Z" fill="#173039"/>
<path d="M8.16357 9.16732C7.89024 9.16732 7.66357 8.94065 7.66357 8.66732V5.33398C7.66357 5.06065 7.89024 4.83398 8.16357 4.83398C8.43691 4.83398 8.66357 5.06065 8.66357 5.33398V8.66732C8.66357 8.94065 8.43691 9.16732 8.16357 9.16732Z" fill="#173039"/>
<path d="M8.16374 11.3339C8.07707 11.3339 7.9904 11.3139 7.9104 11.2806C7.8304 11.2472 7.75707 11.2006 7.6904 11.1406C7.6304 11.0739 7.58374 11.0072 7.5504 10.9206C7.51707 10.8406 7.49707 10.7539 7.49707 10.6672C7.49707 10.5806 7.51707 10.4939 7.5504 10.4139C7.58374 10.3339 7.6304 10.2606 7.6904 10.1939C7.75707 10.1339 7.8304 10.0872 7.9104 10.0539C8.0704 9.98724 8.25707 9.98724 8.41707 10.0539C8.49707 10.0872 8.5704 10.1339 8.63707 10.1939C8.69707 10.2606 8.74374 10.3339 8.77707 10.4139C8.8104 10.4939 8.8304 10.5806 8.8304 10.6672C8.8304 10.7539 8.8104 10.8406 8.77707 10.9206C8.74374 11.0072 8.69707 11.0739 8.63707 11.1406C8.5704 11.2006 8.49707 11.2472 8.41707 11.2806C8.33707 11.3139 8.2504 11.3339 8.16374 11.3339Z" fill="#173039"/>
</svg>
