<svg width="16" height="16" viewBox="0 0 16 16" fill="none" xmlns="http://www.w3.org/2000/svg">
<path d="M11.6335 15.1673C10.8802 15.1673 10.0868 14.9873 9.26683 14.6407C8.46683 14.3007 7.66016 13.834 6.8735 13.2673C6.0935 12.694 5.34016 12.054 4.62683 11.354C3.92016 10.6407 3.28016 9.88732 2.7135 9.11399C2.14016 8.31398 1.68016 7.51398 1.3535 6.74065C1.00683 5.91398 0.833496 5.11398 0.833496 4.36065C0.833496 3.84065 0.926829 3.34732 1.10683 2.88732C1.2935 2.41398 1.5935 1.97398 2.00016 1.59398C2.5135 1.08732 3.10016 0.833984 3.72683 0.833984C3.98683 0.833984 4.2535 0.893984 4.48016 1.00065C4.74016 1.12065 4.96016 1.30065 5.12016 1.54065L6.66683 3.72065C6.80683 3.91398 6.9135 4.10065 6.98683 4.28732C7.0735 4.48732 7.12016 4.68732 7.12016 4.88065C7.12016 5.13398 7.04683 5.38065 6.90683 5.61398C6.80683 5.79398 6.6535 5.98732 6.46016 6.18065L6.00683 6.65398C6.0135 6.67398 6.02016 6.68732 6.02683 6.70065C6.10683 6.84065 6.26683 7.08065 6.5735 7.44065C6.90016 7.81398 7.20683 8.15398 7.5135 8.46732C7.90683 8.85398 8.2335 9.16065 8.54016 9.41398C8.92016 9.73398 9.16683 9.89398 9.3135 9.96732L9.30016 10.0007L9.78683 9.52065C9.9935 9.31398 10.1935 9.16065 10.3868 9.06065C10.7535 8.83398 11.2202 8.79398 11.6868 8.98732C11.8602 9.06065 12.0468 9.16065 12.2468 9.30065L14.4602 10.874C14.7068 11.0407 14.8868 11.254 14.9935 11.5073C15.0935 11.7607 15.1402 11.994 15.1402 12.2273C15.1402 12.5473 15.0668 12.8673 14.9268 13.1673C14.7868 13.4673 14.6135 13.7273 14.3935 13.9673C14.0135 14.3873 13.6002 14.6873 13.1202 14.8807C12.6602 15.0673 12.1602 15.1673 11.6335 15.1673ZM3.72683 1.83398C3.36016 1.83398 3.02016 1.99398 2.6935 2.31398C2.38683 2.60065 2.1735 2.91398 2.04016 3.25398C1.90016 3.60065 1.8335 3.96732 1.8335 4.36065C1.8335 4.98065 1.98016 5.65399 2.2735 6.34732C2.5735 7.05398 2.9935 7.78732 3.52683 8.52065C4.06016 9.25398 4.66683 9.96732 5.3335 10.6407C6.00016 11.3007 6.72016 11.914 7.46016 12.454C8.18016 12.9807 8.92016 13.4073 9.6535 13.714C10.7935 14.2007 11.8602 14.314 12.7402 13.9473C13.0802 13.8073 13.3802 13.594 13.6535 13.2873C13.8068 13.1207 13.9268 12.9407 14.0268 12.7273C14.1068 12.5607 14.1468 12.3873 14.1468 12.214C14.1468 12.1073 14.1268 12.0007 14.0735 11.8807C14.0535 11.8407 14.0135 11.7673 13.8868 11.6807L11.6735 10.1073C11.5402 10.014 11.4202 9.94732 11.3068 9.90065C11.1602 9.84065 11.1002 9.78065 10.8735 9.92065C10.7402 9.98732 10.6202 10.0873 10.4868 10.2207L9.98016 10.7207C9.72016 10.974 9.32016 11.034 9.0135 10.9207L8.8335 10.8407C8.56016 10.694 8.24016 10.4673 7.88683 10.1673C7.56683 9.89398 7.22016 9.57398 6.80016 9.16065C6.4735 8.82732 6.14683 8.47398 5.80683 8.08065C5.4935 7.71398 5.26683 7.40065 5.12683 7.14065L5.04683 6.94065C5.00683 6.78732 4.9935 6.70065 4.9935 6.60732C4.9935 6.36732 5.08016 6.15398 5.24683 5.98732L5.74683 5.46732C5.88016 5.33398 5.98016 5.20732 6.04683 5.09398C6.10016 5.00732 6.12016 4.93398 6.12016 4.86732C6.12016 4.81398 6.10016 4.73398 6.06683 4.65398C6.02016 4.54732 5.94683 4.42732 5.8535 4.30065L4.30683 2.11398C4.24016 2.02065 4.16016 1.95398 4.06016 1.90732C3.9535 1.86065 3.84016 1.83398 3.72683 1.83398ZM9.30016 10.0073L9.1935 10.4607L9.3735 9.99398C9.34016 9.98732 9.3135 9.99399 9.30016 10.0073Z" fill="#173039"/>
</svg>
