<svg width="16" height="16" viewBox="0 0 16 16" fill="none" xmlns="http://www.w3.org/2000/svg">
<path d="M11.6 13.3327H4.4C3.12 13.3327 2.5 12.6793 2.5 11.346V10.6527C2.5 9.31935 3.12 8.66602 4.4 8.66602H11.6C12.88 8.66602 13.5 9.31935 13.5 10.6527V11.346C13.5 12.6793 12.88 13.3327 11.6 13.3327ZM4.4 9.66602C3.72667 9.66602 3.5 9.80602 3.5 10.6527V11.346C3.5 12.1927 3.72667 12.3327 4.4 12.3327H11.6C12.2733 12.3327 12.5 12.1927 12.5 11.346V10.6527C12.5 9.80602 12.2733 9.66602 11.6 9.66602H4.4Z" fill="#173039"/>
<path d="M10.2668 7.66667H5.7335C4.4535 7.66667 3.8335 7.01333 3.8335 5.68V4.98667C3.8335 3.64667 4.4535 3 5.7335 3H10.2668C11.5468 3 12.1668 3.65333 12.1668 4.98667V5.68C12.1668 7.01333 11.5468 7.66667 10.2668 7.66667ZM5.7335 4C5.06016 4 4.8335 4.14 4.8335 4.98667V5.68C4.8335 6.52667 5.06016 6.66667 5.7335 6.66667H10.2668C10.9402 6.66667 11.1668 6.52667 11.1668 5.68V4.98667C11.1668 4.14 10.9402 4 10.2668 4H5.7335Z" fill="#173039"/>
<path d="M8 15.1664C7.72667 15.1664 7.5 14.9397 7.5 14.6664V13.0664C7.5 12.7931 7.72667 12.5664 8 12.5664C8.27333 12.5664 8.5 12.7931 8.5 13.0664V14.6664C8.5 14.9397 8.27333 15.1664 8 15.1664Z" fill="#173039"/>
<path d="M8 9.16732C7.72667 9.16732 7.5 8.94065 7.5 8.66732V7.33398C7.5 7.06065 7.72667 6.83398 8 6.83398C8.27333 6.83398 8.5 7.06065 8.5 7.33398V8.66732C8.5 8.94065 8.27333 9.16732 8 9.16732Z" fill="#292D32"/>
<path d="M8 3.62732C7.72667 3.62732 7.5 3.40065 7.5 3.12732V1.33398C7.5 1.06065 7.72667 0.833984 8 0.833984C8.27333 0.833984 8.5 1.05398 8.5 1.33398V3.12732C8.5 3.40732 8.27333 3.62732 8 3.62732Z" fill="#292D32"/>
</svg>
