<svg width="16" height="16" viewBox="0 0 16 16" fill="none" xmlns="http://www.w3.org/2000/svg">
<path d="M8.00006 15.1659C7.84006 15.1659 7.68007 15.1459 7.52673 15.0992C4.06673 14.1459 1.56006 10.9125 1.56006 7.40588V4.4792C1.56006 3.73254 2.10006 2.9259 2.7934 2.63924L6.50673 1.11922C7.4734 0.725885 8.53339 0.725885 9.49339 1.11922L13.2067 2.63924C13.9001 2.9259 14.4401 3.73254 14.4401 4.4792V7.40588C14.4401 10.9059 11.9267 14.1392 8.47339 15.0992C8.32006 15.1459 8.16006 15.1659 8.00006 15.1659ZM8.00006 1.83256C7.62006 1.83256 7.24672 1.9059 6.88672 2.05257L3.1734 3.57255C2.8534 3.70588 2.56006 4.13921 2.56006 4.48588V7.41255C2.56006 10.4726 4.76006 13.2992 7.7934 14.1392C7.92673 14.1792 8.07339 14.1792 8.20673 14.1392C11.2401 13.2992 13.4401 10.4726 13.4401 7.41255V4.48588C13.4401 4.13921 13.1467 3.70588 12.8267 3.57255L9.1134 2.05257C8.7534 1.9059 8.38006 1.83256 8.00006 1.83256Z" fill="#173039"/>
<path d="M7.99984 8.83268C6.9865 8.83268 6.1665 8.01268 6.1665 6.99935C6.1665 5.98602 6.9865 5.16602 7.99984 5.16602C9.01317 5.16602 9.83317 5.98602 9.83317 6.99935C9.83317 8.01268 9.01317 8.83268 7.99984 8.83268ZM7.99984 6.16602C7.53984 6.16602 7.1665 6.53935 7.1665 6.99935C7.1665 7.45935 7.53984 7.83268 7.99984 7.83268C8.45984 7.83268 8.83317 7.45935 8.83317 6.99935C8.83317 6.53935 8.45984 6.16602 7.99984 6.16602Z" fill="#173039"/>
<path d="M8 10.834C7.72667 10.834 7.5 10.6073 7.5 10.334V8.33398C7.5 8.06065 7.72667 7.83398 8 7.83398C8.27333 7.83398 8.5 8.06065 8.5 8.33398V10.334C8.5 10.6073 8.27333 10.834 8 10.834Z" fill="#173039"/>
</svg>
