<svg width="120" height="120" viewBox="0 0 120 120" fill="none" xmlns="http://www.w3.org/2000/svg">
<rect width="120" height="120" rx="16" fill="url(#paint0_linear_4693_80166)"/>
<g clip-path="url(#clip0_4693_80166)">
<path d="M59.9974 33.5391C52.8167 33.5391 51.9137 33.5721 49.0924 33.6978C46.271 33.8301 44.3493 34.2733 42.6658 34.9282C40.8998 35.5925 39.3003 36.6344 37.9789 37.9811C36.633 39.3031 35.5912 40.9025 34.926 42.6679C34.2711 44.3482 33.8246 46.2732 33.6956 49.0846C33.5699 51.9126 33.5369 52.8123 33.5369 60.0029C33.5369 67.187 33.5699 68.0866 33.6956 70.908C33.8279 73.726 34.2711 75.6477 34.926 77.3313C35.6041 79.071 36.5071 80.5462 37.9789 82.0181C39.4475 83.49 40.9227 84.3962 42.6624 85.071C44.3493 85.7259 46.2677 86.1724 49.0857 86.3014C51.9104 86.4271 52.8101 86.4601 59.9974 86.4601C67.1848 86.4601 68.0811 86.4271 70.9058 86.3014C73.7205 86.1691 75.6488 85.7259 77.3324 85.071C79.0972 84.4064 80.6956 83.3645 82.0159 82.0181C83.4878 80.5462 84.3907 79.071 85.0688 77.3313C85.7204 75.6477 86.1669 73.726 86.2992 70.908C86.4249 68.0866 86.458 67.187 86.458 59.9996C86.458 52.8123 86.4249 51.9126 86.2992 49.0879C86.1669 46.2732 85.7204 44.3482 85.0688 42.6679C84.4037 40.9025 83.3619 39.3031 82.0159 37.9811C80.695 36.6339 79.0953 35.5919 77.3291 34.9282C75.6422 34.2733 73.7172 33.8268 70.9025 33.6978C68.0778 33.5721 67.1814 33.5391 59.9908 33.5391H60.0007H59.9974ZM57.6259 38.3086H60.0007C67.0657 38.3086 67.9025 38.3317 70.6908 38.4607C73.2707 38.5765 74.6731 39.0098 75.6058 39.3703C76.8395 39.8499 77.7227 40.4254 78.6488 41.3515C79.5749 42.2777 80.1471 43.1575 80.6267 44.3945C80.9905 45.3239 81.4205 46.7263 81.5363 49.3062C81.6653 52.0945 81.6917 52.9313 81.6917 59.993C81.6917 67.0546 81.6653 67.8948 81.5363 70.683C81.4205 73.263 80.9872 74.6621 80.6267 75.5948C80.2025 76.7437 79.5254 77.7825 78.6455 78.6344C77.7194 79.5606 76.8395 80.1328 75.6025 80.6124C74.6764 80.9762 73.274 81.4062 70.6908 81.5253C67.9025 81.6509 67.0657 81.6807 60.0007 81.6807C52.9358 81.6807 52.0956 81.6509 49.3073 81.5253C46.7274 81.4062 45.3283 80.9762 44.3956 80.6124C43.2462 80.1887 42.2064 79.5129 41.3526 78.6344C40.472 77.7812 39.7939 76.7414 39.3681 75.5915C39.0076 74.6621 38.5743 73.2596 38.4585 70.6797C38.3328 67.8915 38.3064 67.0546 38.3064 59.9864C38.3064 52.9214 38.3328 52.0879 38.4585 49.2996C38.5776 46.7197 39.0076 45.3173 39.3714 44.3846C39.851 43.1509 40.4265 42.2677 41.3526 41.3416C42.2788 40.4155 43.1586 39.8433 44.3956 39.3637C45.3283 38.9999 46.7274 38.5699 49.3073 38.4508C51.7483 38.3383 52.6943 38.3053 57.6259 38.302V38.3086ZM74.124 42.701C73.707 42.701 73.2941 42.7832 72.9089 42.9427C72.5237 43.1023 72.1736 43.3362 71.8788 43.631C71.5839 43.9259 71.35 44.2759 71.1905 44.6612C71.0309 45.0464 70.9488 45.4593 70.9488 45.8763C70.9488 46.2933 71.0309 46.7062 71.1905 47.0914C71.35 47.4767 71.5839 47.8267 71.8788 48.1215C72.1736 48.4164 72.5237 48.6503 72.9089 48.8099C73.2941 48.9694 73.707 49.0516 74.124 49.0516C74.9662 49.0516 75.7738 48.717 76.3693 48.1215C76.9648 47.5261 77.2993 46.7184 77.2993 45.8763C77.2993 45.0342 76.9648 44.2265 76.3693 43.631C75.7738 43.0356 74.9662 42.701 74.124 42.701ZM60.0007 46.4121C58.1983 46.384 56.4083 46.7147 54.735 47.385C53.0616 48.0553 51.5384 49.0518 50.2538 50.3164C48.9693 51.5811 47.9491 53.0887 47.2528 54.7514C46.5565 56.414 46.1979 58.1986 46.1979 60.0013C46.1979 61.8039 46.5565 63.5885 47.2528 65.2512C47.9491 66.9139 48.9693 68.4214 50.2538 69.6861C51.5384 70.9507 53.0616 71.9472 54.735 72.6175C56.4083 73.2878 58.1983 73.6185 60.0007 73.5904C63.5681 73.5347 66.9705 72.0786 69.4735 69.5362C71.9766 66.9937 73.3795 63.569 73.3795 60.0013C73.3795 56.4335 71.9766 53.0088 69.4735 50.4664C66.9705 47.924 63.5681 46.4678 60.0007 46.4121ZM60.0007 51.1783C62.3403 51.1783 64.584 52.1077 66.2383 53.762C67.8926 55.4163 68.822 57.6601 68.822 59.9996C68.822 62.3392 67.8926 64.5829 66.2383 66.2372C64.584 67.8915 62.3403 68.8209 60.0007 68.8209C57.6612 68.8209 55.4174 67.8915 53.7631 66.2372C52.1088 64.5829 51.1794 62.3392 51.1794 59.9996C51.1794 57.6601 52.1088 55.4163 53.7631 53.762C55.4174 52.1077 57.6612 51.1783 60.0007 51.1783Z" fill="white"/>
</g>
<defs>
<linearGradient id="paint0_linear_4693_80166" x1="-5.45455" y1="72.5" x2="123.157" y2="72.0348" gradientUnits="userSpaceOnUse">
<stop stop-color="#F5E9CF"/>
<stop offset="1" stop-color="#EDD9A7"/>
</linearGradient>
<clipPath id="clip0_4693_80166">
<rect width="52.9231" height="52.9221" fill="white" transform="translate(33.5386 33.5391)"/>
</clipPath>
</defs>
</svg>
