<svg width="120" height="120" viewBox="0 0 120 120" fill="none" xmlns="http://www.w3.org/2000/svg">
<rect width="120" height="120" rx="16" fill="url(#paint0_linear_4693_80179)"/>
<rect x="23.5969" y="23" width="74" height="74" rx="14.9194" stroke="white" stroke-opacity="0.2" stroke-width="0.596774"/>
<path d="M81.5833 32.25C83.2188 32.25 84.7873 32.8997 85.9438 34.0562C87.1003 35.2126 87.75 36.7812 87.75 38.4167V81.5833C87.75 83.2188 87.1003 84.7873 85.9438 85.9438C84.7873 87.1003 83.2188 87.75 81.5833 87.75H38.4167C36.7812 87.75 35.2126 87.1003 34.0562 85.9438C32.8997 84.7873 32.25 83.2188 32.25 81.5833V38.4167C32.25 36.7812 32.8997 35.2126 34.0562 34.0562C35.2126 32.8997 36.7812 32.25 38.4167 32.25H81.5833ZM80.0417 80.0417V63.7C80.0417 61.0341 78.9827 58.4775 77.0976 56.5924C75.2126 54.7073 72.6559 53.6483 69.99 53.6483C67.3692 53.6483 64.3167 55.2517 62.8367 57.6567V54.2342H54.2342V80.0417H62.8367V64.8408C62.8367 62.4667 64.7483 60.5242 67.1225 60.5242C68.2673 60.5242 69.3653 60.979 70.1748 61.7885C70.9844 62.598 71.4392 63.696 71.4392 64.8408V80.0417H80.0417ZM44.2133 49.3933C45.5872 49.3933 46.9047 48.8476 47.8761 47.8761C48.8476 46.9047 49.3933 45.5872 49.3933 44.2133C49.3933 41.3458 47.0808 39.0025 44.2133 39.0025C42.8313 39.0025 41.5059 39.5515 40.5287 40.5287C39.5515 41.5059 39.0025 42.8313 39.0025 44.2133C39.0025 47.0808 41.3458 49.3933 44.2133 49.3933ZM48.4992 80.0417V54.2342H39.9583V80.0417H48.4992Z" fill="white"/>
<defs>
<linearGradient id="paint0_linear_4693_80179" x1="-5.45455" y1="72.5" x2="123.157" y2="72.0348" gradientUnits="userSpaceOnUse">
<stop stop-color="#F5E9CF"/>
<stop offset="1" stop-color="#EDD9A7"/>
</linearGradient>
</defs>
</svg>
