<svg width="209" height="49" viewBox="0 0 209 49" fill="none" xmlns="http://www.w3.org/2000/svg">
<path d="M161.651 26.3453H161.661C162.766 26.6206 163.897 26.8073 165.032 26.9056C166.807 27.058 168.596 27.0384 170.371 26.8417C171.147 26.7582 171.919 26.65 172.695 26.5173C175.025 26.1339 177.326 25.5588 179.562 24.8068C179.577 24.8068 180.884 24.3595 182.462 23.6468C183.44 23.2093 184.394 22.7079 185.308 22.1525C185.721 21.9116 186.104 21.6216 186.458 21.2972C186.871 20.8647 187.176 20.3437 187.358 19.7735C187.402 19.6604 187.437 19.5425 187.476 19.4294C187.884 17.6992 187.255 16.8194 187.255 16.8194C186.743 15.6888 183.421 15.7282 183.421 15.7282C179.646 15.6495 180.014 13.5457 180.014 13.5457C181.125 11.5698 182.737 9.91825 184.694 8.75823C185.136 8.4928 185.775 8.11924 186.321 8.2667C186.611 8.36992 186.857 8.57145 187.009 8.83688L187.81 7.60805C188.061 7.22957 188.041 6.73802 187.756 6.38412C187.756 6.38412 187.756 6.38413 187.751 6.37921C187.471 6.02039 187.063 5.77953 186.611 5.71072C186.434 5.68614 186.257 5.71073 186.095 5.7648C184.792 6.15311 182.31 8.54196 182.31 8.54196C177.508 13.6293 179.361 16.667 179.361 16.667C180.408 18.638 183.902 18.2743 183.902 18.2743C185.844 18.3431 186.473 18.756 186.675 19.0264C186.714 19.0853 186.743 19.1542 186.763 19.2181C186.763 19.2181 186.763 19.2476 186.763 19.2525C186.763 19.2525 186.734 19.2819 186.719 19.2967L186.704 19.3065C184.807 20.4518 182.796 21.4005 180.707 22.1427C177.709 23.2191 174.603 23.9614 171.442 24.3497C171.29 24.3693 171.132 24.389 170.98 24.4037C170.041 24.507 169.107 24.5708 168.168 24.5856C167.303 24.6003 166.443 24.5758 165.573 24.507C162.211 24.2415 158.908 23.4747 155.777 22.2312C155.566 22.1476 155.448 22.1378 155.389 22.2066C155.325 22.2803 155.389 22.3934 155.408 22.4179L155.418 22.4278L161.651 26.3305V26.3453Z" fill="#173039"/>
<path d="M201.829 27.9827C201.829 27.9827 201.519 28.0908 200.993 29.128C200.993 29.128 200.231 30.7795 199.111 31.4431C199.111 31.4431 197.302 32.4655 196.039 31.217C195.645 30.75 195.532 30.1061 195.739 29.536C195.739 29.536 195.916 28.9805 195.375 29.241C195.375 29.241 194.648 29.6195 193.896 29.998C193.065 30.3912 192.21 30.7353 191.34 31.0253C191.089 30.3175 190.71 29.6589 190.214 29.0887C187.442 26.1395 185.598 30.1897 185.598 30.1897C184.802 32.3426 185.898 33.3503 186.346 33.655C186.346 33.655 187.687 34.3677 190.184 33.7041C190.352 33.6599 190.533 33.6009 190.725 33.537C190.853 33.8565 190.941 34.1908 191 34.5348C190.922 34.6233 190.843 34.7167 190.764 34.8052C187.968 37.9264 185.815 39.0225 185.815 39.0225C180.831 42.1684 178.496 39.8729 178.496 39.8729C177.119 38.6883 177.252 36.0438 177.508 34.3481C177.803 34.1367 178.083 33.9057 178.348 33.655C178.348 33.655 182.359 29.8653 183.632 28.6659C183.632 28.6659 186.768 25.7118 189.246 25.5939C189.246 25.5939 191.969 25.2252 193.266 27.4715C193.266 27.4715 193.905 25.7167 193.586 25.2252C191.541 22.0892 187.456 23.8588 187.456 23.8588C185.176 24.6403 181.622 28.199 181.622 28.199C180.467 29.418 177.582 31.915 177.582 31.915C177.582 31.915 175.345 33.8074 173.949 33.3453C173.949 33.3453 171.324 33.0996 172.578 29.1034C172.774 28.5037 173.025 27.9237 173.34 27.3732C173.605 26.9603 173.497 26.9308 173.34 26.9849C173.177 27.0439 173.045 27.1569 172.956 27.3044C172.145 28.6463 171.742 30.1848 171.781 31.7479C172.022 34.4562 174.082 35.2967 174.082 35.2967C174.996 35.6949 176.107 35.2378 176.962 34.7069C175.802 38.8751 177.321 41.1705 177.321 41.1705C179.164 44.0116 182.703 42.8024 182.703 42.8024C186.414 41.6228 189.457 38.3344 189.457 38.3344C190.057 37.8232 190.578 37.2334 191.015 36.5796C191.777 35.395 191.767 34.5693 191.767 34.5693C191.846 34.0974 191.875 33.6157 191.851 33.1389C192.839 32.7555 193.802 32.318 194.741 31.8167C194.741 31.8167 194.854 31.7429 194.815 31.9936C194.815 31.9936 194.741 34.0925 196.741 34.3874C197.892 34.5594 199.032 34.0482 199.671 33.0848C199.671 33.0848 200.271 32.1706 200.536 31.6594C200.885 32.6326 201.735 33.3453 202.763 33.5076C205.515 33.9696 205.796 30.7156 205.796 30.7156C206.09 28.4054 204.867 27.1274 204.867 27.1274L204.311 29.6588C204.601 29.9931 204.862 30.3421 205.102 30.7107C205.102 30.7107 204.508 31.1826 202.841 30.8041C202.453 30.6763 202.104 30.4551 201.824 30.1602C201.824 30.1602 201.372 29.7227 201.824 28.8183C201.824 28.8183 202.271 27.7025 201.834 27.9778L201.829 27.9827ZM186.812 30.6616C186.812 30.6616 188.002 29.6146 189.521 31.4873C189.339 31.5168 189.157 31.5414 188.98 31.5562C188.98 31.5562 186.016 31.8265 186.812 30.6665V30.6616Z" fill="#173039"/>
<path d="M195.242 17.6519C194.461 18.34 190.877 20.8615 189.162 22.0609C188.601 22.4492 189.098 22.2526 189.098 22.2526L192.027 20.7141C194.598 19.4017 196.835 17.5191 198.56 15.2089C198.702 15.0369 198.835 14.8501 198.958 14.6633C199.307 14.8943 199.597 15.204 199.803 15.5678C200.339 14.5896 200.138 14.393 200.138 14.393C199.936 14.1472 199.705 13.926 199.445 13.7343C199.671 13.2182 199.823 12.6726 199.902 12.1123C199.769 10.0921 198.496 10.7753 198.496 10.7753C197.724 11.1243 197.184 11.8321 197.056 12.6628C197.189 13.4787 198.363 14.2603 198.363 14.2603C198.422 14.2947 198.481 14.3291 198.535 14.3684C197.41 15.8774 195.247 17.6519 195.247 17.6519H195.242ZM198.825 13.2526C197.483 12.2401 197.754 12.0139 197.754 12.0139C199.327 10.7753 199.096 13.4148 199.096 13.4148C199.096 13.4247 199.086 13.4394 199.081 13.4492C198.929 13.3313 198.825 13.2526 198.825 13.2526Z" fill="#173039"/>
<path d="M182.728 32.4166C182.728 32.4166 181.41 34.8005 181.106 35.5722C181.106 35.5722 180.398 37.6858 182.285 37.8579C183.519 37.8382 184.502 36.8306 184.482 35.6017C184.482 35.5722 184.482 35.5378 184.482 35.5083C184.482 35.5083 184.581 34.4515 182.757 33.498C182.757 33.498 183.401 31.9496 182.723 32.4215L182.728 32.4166ZM184.045 35.877C184.045 35.877 183.067 37.1845 181.818 36.4472C181.818 36.4472 181.346 36.1768 182.157 34.599L182.31 34.3188L182.256 34.4614C182.256 34.4614 183.809 35.3707 184.045 35.8721V35.877Z" fill="#173039"/>
<path d="M170.026 16.4459C170.026 16.4459 168.709 18.8298 168.404 19.6015C168.404 19.6015 167.697 21.7151 169.584 21.8872C170.818 21.8675 171.801 20.8598 171.781 19.631C171.781 19.6015 171.781 19.5671 171.781 19.5376C171.781 19.5376 171.88 18.4808 170.056 17.5273C170.056 17.5273 170.7 15.9789 170.022 16.4508L170.026 16.4459ZM171.344 19.9063C171.344 19.9063 170.366 21.2138 169.117 20.4765C169.117 20.4765 168.645 20.2061 169.456 18.6283L169.609 18.3481L169.555 18.4907C169.555 18.4907 171.108 19.4 171.344 19.9014V19.9063Z" fill="#173039"/>
<path d="M175.92 21.2394C178.457 14.3875 172.258 11.3203 172.258 11.3203L172.185 13.1242C177.336 16.5895 175.63 20.9544 175.63 20.9544C175.448 21.7457 175.92 21.2394 175.92 21.2394Z" fill="#173039"/>
<path d="M193.129 9.954C191.541 8.60228 190.834 12.3527 190.834 12.3527C190.701 13.38 190.45 15.1888 190.45 15.1888C189.379 10.4504 187.324 10.4111 187.324 10.4111C186.493 10.5389 186.68 12.2249 186.68 12.2249C186.808 12.3822 188.16 13.3652 188.16 13.3652C188.361 13.4783 188.361 13.0064 188.361 13.0064C189.403 14.078 190.185 17.2631 190.185 17.2631C190.819 16.7863 191.104 13.7781 191.104 13.7781C191.507 9.53619 193.399 12.161 193.399 12.161C193.665 11.8759 193.684 10.5832 193.684 10.5832C193.532 10.3472 193.345 10.1359 193.129 9.954Z" fill="#173039"/>
<path d="M159.97 0V19.1256H160.579V0.604591H208.396V48.1604H160.579V30.6717H159.97V48.765H209V0H159.97Z" fill="#173039"/>
<path d="M198.924 22.0246L200.261 20.6877L198.757 19.1836L197.252 20.6877L198.589 22.0246L197.252 23.3616L198.589 24.6986L197.252 26.0356L198.757 27.5397L200.261 26.0356L198.924 24.6986L200.261 23.3616L198.924 22.0246Z" fill="#173039"/>
<path d="M5.53955 31.1351C5.30362 30.9434 5.02836 30.7763 4.69903 30.6485C4.37462 30.5158 4.01089 30.4126 3.60783 30.329C3.43088 30.2995 3.26376 30.2602 3.10155 30.216C2.93935 30.1668 2.7968 30.1127 2.67392 30.0439C2.55104 29.9751 2.45272 29.9014 2.3839 29.808C2.31509 29.7146 2.28068 29.6114 2.28068 29.4934C2.28068 29.3558 2.32493 29.2378 2.40849 29.1395C2.49205 29.0412 2.61493 28.9675 2.77714 28.9134C2.93934 28.8642 3.12612 28.8348 3.33748 28.8348C3.65206 28.8348 3.95189 28.9085 4.2419 29.0559C4.5319 29.2034 4.7875 29.4197 5.01361 29.7146L6.17363 28.5841C5.90329 28.1663 5.53956 27.8418 5.08243 27.601C4.6253 27.3651 4.02563 27.2422 3.2785 27.2422C2.7673 27.2422 2.29052 27.3405 1.85305 27.5371C1.41559 27.7337 1.06169 28.009 0.796259 28.3579C0.530831 28.7069 0.398118 29.1198 0.398118 29.5868C0.398118 29.9161 0.447271 30.2111 0.550493 30.4716C0.653714 30.7321 0.806081 30.9631 1.01744 31.1646C1.22388 31.3661 1.48441 31.5382 1.79407 31.6807C2.10374 31.8233 2.47238 31.9363 2.8951 32.0248C3.04748 32.0543 3.19985 32.0887 3.35222 32.1231C3.49968 32.1575 3.63733 32.2067 3.76512 32.2607C3.89292 32.3148 4.00105 32.3738 4.09444 32.4426C4.18783 32.5065 4.26648 32.5851 4.32054 32.6736C4.37461 32.7621 4.40411 32.8604 4.40411 32.9685C4.40411 33.1062 4.35987 33.2241 4.26648 33.3225C4.17309 33.4208 4.0502 33.4945 3.89291 33.5485C3.73562 33.5977 3.55868 33.6272 3.36206 33.6272C2.97375 33.6272 2.60018 33.5436 2.23153 33.3765C1.86779 33.2094 1.50406 32.8801 1.14524 32.3885L0.00488281 33.6714C0.378448 34.163 0.825749 34.5414 1.34677 34.8069C1.8678 35.0723 2.51171 35.205 3.26867 35.205C3.8536 35.205 4.3697 35.1067 4.82682 34.9101C5.27903 34.7135 5.63294 34.4284 5.88854 34.0548C6.14413 33.6813 6.27193 33.234 6.27193 32.708C6.27193 32.3738 6.20804 32.074 6.08024 31.8134C5.95244 31.5529 5.77057 31.3268 5.53955 31.1351Z" fill="#173039"/>
<path d="M12.0968 29.4243C11.7969 29.2474 11.4283 29.154 10.9908 29.154C10.6713 29.154 10.3617 29.2179 10.0717 29.3506C9.78166 29.4833 9.53098 29.6554 9.31962 29.8716C9.29013 29.9011 9.27537 29.9355 9.2508 29.965V26.9863H7.50586V35.0966H9.27046V31.6313C9.27046 31.4839 9.29504 31.3512 9.34911 31.2381C9.39826 31.1201 9.4769 31.0169 9.57521 30.9235C9.67352 30.8301 9.78658 30.7613 9.91929 30.7171C10.052 30.6679 10.1945 30.6433 10.3469 30.6433C10.5435 30.6384 10.7107 30.6679 10.8385 30.7416C10.9712 30.8154 11.0695 30.9284 11.1334 31.0808C11.1973 31.2332 11.2317 31.4298 11.2317 31.6608V35.0917H12.9963V31.5281C12.9963 31.0071 12.9226 30.5745 12.7702 30.2157C12.6227 29.8618 12.3966 29.5964 12.0968 29.4145V29.4243Z" fill="#173039"/>
<path d="M19.8872 32.6473L18.7616 30.0766H17.7294L16.6578 32.667L15.6895 29.2754H13.8364L15.7436 35.0952H17.0511L18.2356 32.1705L19.4301 35.0952H20.7228L22.7086 29.2754H20.8555L19.8872 32.6473Z" fill="#173039"/>
<path d="M27.0491 29.1573C26.7492 29.1573 26.4641 29.231 26.1889 29.3785C25.9136 29.526 25.6777 29.7226 25.4811 29.9684C25.4221 30.0421 25.3828 30.1207 25.3336 30.1945L25.2943 29.2753H23.6182V35.095H25.3926V32.1901C25.3926 32.0131 25.4221 31.8558 25.4762 31.7182C25.5302 31.5806 25.6089 31.4577 25.7072 31.3545C25.8055 31.2513 25.9235 31.1726 26.0562 31.1185C26.1889 31.0645 26.3413 31.035 26.4986 31.035C26.646 31.035 26.7836 31.0497 26.9213 31.0841C27.054 31.1185 27.1621 31.1529 27.2457 31.1972L27.7175 29.2556C27.6291 29.2212 27.5308 29.1917 27.4177 29.1721C27.3047 29.1524 27.1818 29.1426 27.0491 29.1426V29.1573Z" fill="#173039"/>
<path d="M32.0481 29.3735C31.6893 29.2261 31.2666 29.1523 30.7751 29.1523C30.2393 29.1523 29.7478 29.2556 29.2956 29.4571C28.8433 29.6636 28.4403 29.9437 28.0913 30.3025L29.1432 31.32C29.3496 31.0792 29.561 30.9071 29.7871 30.799C30.0083 30.6909 30.2639 30.6417 30.549 30.6417C30.8341 30.6417 31.07 30.7154 31.2322 30.858C31.3944 31.0005 31.478 31.2217 31.478 31.5215V31.6543H30.6129C30.1803 31.6543 29.8018 31.6936 29.4774 31.7673C29.153 31.8459 28.8827 31.959 28.6664 32.1065C28.4501 32.2539 28.2879 32.4456 28.1798 32.6717C28.0716 32.8978 28.0176 33.1633 28.0176 33.4631C28.0176 33.8121 28.1011 34.1217 28.2732 34.3773C28.4452 34.6379 28.6811 34.8394 28.9761 34.9869C29.271 35.1343 29.6003 35.208 29.969 35.208C30.2442 35.208 30.5096 35.154 30.7652 35.0459C31.0159 34.9377 31.2519 34.7853 31.4681 34.5985C31.4731 34.5936 31.478 34.5887 31.4829 34.5838V35.1048H33.1836V31.1922C33.1836 30.7302 33.0853 30.3517 32.8887 30.0519C32.6921 29.752 32.4119 29.5308 32.058 29.3834L32.0481 29.3735ZM31.3846 33.5516C31.2469 33.6695 31.0946 33.758 30.9225 33.8219C30.7505 33.8858 30.5686 33.9153 30.3819 33.9153C30.2491 33.9153 30.1361 33.8957 30.0378 33.8514C29.9395 33.8072 29.8608 33.7433 29.8018 33.6646C29.7428 33.586 29.7134 33.4877 29.7134 33.3795C29.7134 33.2763 29.733 33.1879 29.7723 33.1141C29.8117 33.0404 29.8707 32.9765 29.9542 32.9224C30.0329 32.8684 30.1312 32.829 30.2491 32.7995C30.3671 32.775 30.4998 32.7602 30.6571 32.7602H31.478V33.4533C31.4485 33.4877 31.419 33.5221 31.3846 33.5516Z" fill="#173039"/>
<path d="M39.1308 27.4238H38.251V35.0967H40.1286V32.1622H43.1221V30.5942H40.1286V29.0803H43.5595V27.4238H40.1286H39.1308Z" fill="#173039"/>
<path d="M49.0353 29.5465C48.5635 29.286 48.0228 29.1582 47.4182 29.1582C46.8136 29.1582 46.2828 29.286 45.806 29.5465C45.3292 29.807 44.9605 30.1659 44.6902 30.623C44.4198 31.0801 44.2822 31.606 44.2822 32.1959C44.2822 32.7857 44.4149 33.292 44.6902 33.7491C44.9605 34.2063 45.3341 34.5651 45.806 34.8256C46.2828 35.0861 46.8185 35.2139 47.4182 35.2139C48.0179 35.2139 48.5635 35.0861 49.0353 34.8256C49.5072 34.5651 49.8759 34.2063 50.1462 33.7491C50.4166 33.292 50.5542 32.7759 50.5542 32.1959C50.5542 31.6159 50.4166 31.0801 50.1462 30.623C49.8759 30.1659 49.5072 29.807 49.0353 29.5465ZM48.593 32.9578C48.475 33.1839 48.3177 33.3657 48.1162 33.4935C47.9147 33.6262 47.6836 33.6902 47.4182 33.6902C47.1528 33.6902 46.9316 33.6262 46.7251 33.4935C46.5187 33.3608 46.3614 33.1839 46.2434 32.9578C46.1255 32.7317 46.0665 32.4761 46.0665 32.191C46.0665 31.8911 46.1255 31.6306 46.2434 31.3996C46.3614 31.1686 46.5187 30.9916 46.7251 30.8638C46.9316 30.7311 47.1577 30.6672 47.4182 30.6672C47.6787 30.6672 47.9147 30.7311 48.1162 30.8589C48.3177 30.9867 48.475 31.1637 48.593 31.3947C48.7109 31.6257 48.765 31.8911 48.7552 32.191C48.7601 32.4761 48.706 32.7317 48.593 32.9578Z" fill="#173039"/>
<path d="M55.1355 29.1573C54.8356 29.1573 54.5506 29.231 54.2753 29.3785C54 29.526 53.7641 29.7226 53.5675 29.9684C53.5085 30.0421 53.4692 30.1207 53.42 30.1945L53.3807 29.2753H51.7046V35.095H53.479V32.1901C53.479 32.0131 53.5085 31.8558 53.5626 31.7182C53.6167 31.5806 53.6953 31.4577 53.7936 31.3545C53.8919 31.2513 54.0099 31.1726 54.1426 31.1185C54.2753 31.0645 54.4277 31.035 54.585 31.035C54.7324 31.035 54.8701 31.0497 55.0077 31.0841C55.1404 31.1185 55.2485 31.1529 55.3321 31.1972L55.804 29.2556C55.7155 29.2212 55.6172 29.1917 55.5041 29.1721C55.3911 29.1524 55.2682 29.1426 55.1355 29.1426V29.1573Z" fill="#173039"/>
<path d="M62.2527 27.4238H60.375V35.0967H65.6737V33.4451H62.2527V27.4238Z" fill="#173039"/>
<path d="M71.2331 29.988C70.9824 29.7274 70.6924 29.521 70.3581 29.3735C70.0239 29.2261 69.6503 29.1523 69.2374 29.1523C68.8049 29.1523 68.4117 29.2261 68.0479 29.3785C67.6842 29.5259 67.3696 29.7373 67.1042 30.0076C66.8388 30.278 66.6323 30.6024 66.4849 30.9759C66.3374 31.3544 66.2637 31.7673 66.2637 32.2195C66.2637 32.7946 66.3915 33.3107 66.652 33.758C66.9125 34.2053 67.2811 34.5592 67.7579 34.8148C68.2347 35.0704 68.8 35.1982 69.439 35.1982C69.7093 35.1982 69.9797 35.1687 70.2451 35.1048C70.5105 35.0409 70.771 34.9475 71.0266 34.8197C71.2822 34.6919 71.5231 34.5347 71.7492 34.343L70.9283 33.1829C70.7022 33.3599 70.4908 33.4828 70.2942 33.5565C70.0976 33.6302 69.8764 33.6646 69.6356 33.6646C69.2768 33.6646 68.9671 33.6007 68.7115 33.468C68.451 33.3353 68.2544 33.1485 68.1217 32.9077C68.0627 32.8044 68.0234 32.6865 67.9889 32.5685H71.9753L71.9851 32.0868C71.99 31.6641 71.931 31.2709 71.7983 30.912C71.6656 30.5532 71.4788 30.2436 71.2282 29.9781L71.2331 29.988ZM68.0725 31.2905C68.1757 31.0792 68.3281 30.917 68.5296 30.8039C68.7312 30.6909 68.9769 30.6319 69.2719 30.6319C69.4685 30.6319 69.6454 30.6712 69.8027 30.7547C69.96 30.8334 70.0878 30.9415 70.1861 31.0792C70.2844 31.2168 70.3434 31.3741 70.3581 31.5559V31.5756H67.984C68.0086 31.4724 68.0332 31.3741 68.0774 31.2905H68.0725Z" fill="#173039"/>
<path d="M77.1657 29.8857C77.1116 29.8316 77.0575 29.7775 76.9936 29.7235C76.856 29.6153 76.7036 29.517 76.5316 29.4286C76.3595 29.3401 76.1728 29.2713 75.9712 29.227C75.7697 29.1779 75.5633 29.1582 75.3519 29.1582C74.8407 29.1582 74.3787 29.286 73.9707 29.5416C73.5627 29.7972 73.2383 30.1511 73.0024 30.6033C72.7664 31.0555 72.6436 31.5766 72.6436 32.1615C72.6436 32.7464 72.7615 33.233 73.0024 33.6705C73.2383 34.103 73.5676 34.4471 73.9854 34.688C74.4032 34.9337 74.8751 35.0566 75.4011 35.0566C75.7206 35.0566 76.0302 34.9976 76.3202 34.8797C76.6102 34.7617 76.8609 34.6044 77.0624 34.4078C77.0772 34.393 77.087 34.3783 77.1018 34.3636V34.6683C77.1018 34.9976 77.0428 35.2729 76.9297 35.4892C76.8167 35.7103 76.6446 35.8725 76.4087 35.9807C76.1728 36.0888 75.8729 36.1429 75.4994 36.1429C75.1799 36.1429 74.8702 36.0986 74.5704 36.0053C74.2705 35.9119 74.01 35.789 73.7741 35.6268L73.1597 36.8753C73.4497 37.0965 73.8331 37.2734 74.3049 37.4061C74.7768 37.5389 75.2438 37.6077 75.7156 37.6077C76.2121 37.6077 76.6545 37.5389 77.0428 37.4061C77.4311 37.2685 77.7604 37.0768 78.0357 36.8212C78.3109 36.5656 78.5174 36.251 78.6599 35.8775C78.8025 35.5039 78.8762 35.0812 78.8762 34.6044V29.2664H77.2001L77.1706 29.8759L77.1657 29.8857ZM76.9789 32.9725C76.8658 33.1986 76.7036 33.3756 76.4972 33.4984C76.2907 33.6213 76.0401 33.6852 75.755 33.6852C75.4846 33.6852 75.2487 33.6213 75.0422 33.4984C74.8358 33.3756 74.6785 33.1986 74.5655 32.9725C74.4524 32.7464 74.3934 32.481 74.3934 32.1713C74.3934 31.8616 74.4524 31.5962 74.5655 31.3701C74.6785 31.144 74.8358 30.9671 75.0422 30.8393C75.2487 30.7115 75.4846 30.6476 75.755 30.6476C76.0401 30.6476 76.2858 30.7115 76.4972 30.8393C76.7036 30.9671 76.8658 31.144 76.9789 31.3701C77.0919 31.5962 77.1509 31.8666 77.1509 32.1811C77.1509 32.4957 77.0919 32.7415 76.9789 32.9725Z" fill="#173039"/>
<path d="M84.0672 29.3735C83.7084 29.2261 83.2857 29.1523 82.7941 29.1523C82.2584 29.1523 81.7668 29.2556 81.3146 29.4571C80.8624 29.6636 80.4593 29.9437 80.1103 30.3025L81.1622 31.32C81.3687 31.0792 81.58 30.9071 81.8061 30.799C82.0273 30.6909 82.2829 30.6417 82.568 30.6417C82.8531 30.6417 83.089 30.7154 83.2513 30.858C83.4135 31.0005 83.497 31.2217 83.497 31.5215V31.6543H82.6319C82.1994 31.6543 81.8209 31.6936 81.4965 31.7673C81.1721 31.8459 80.9017 31.959 80.6854 32.1065C80.4692 32.2539 80.307 32.4456 80.1988 32.6717C80.0907 32.8978 80.0366 33.1633 80.0366 33.4631C80.0366 33.8121 80.1202 34.1217 80.2922 34.3773C80.4642 34.6379 80.6953 34.8394 80.9951 34.9869C81.29 35.1343 81.6194 35.208 81.988 35.208C82.2682 35.208 82.5287 35.154 82.7843 35.0459C83.035 34.9377 83.2709 34.7853 83.4872 34.5985C83.4921 34.5936 83.497 34.5887 83.5019 34.5838V35.1048H85.2026V31.1922C85.2026 30.7302 85.1043 30.3517 84.9077 30.0519C84.7111 29.752 84.4309 29.5308 84.077 29.3834L84.0672 29.3735ZM83.4036 33.5516C83.266 33.6695 83.1136 33.758 82.9416 33.8219C82.7695 33.8858 82.5877 33.9153 82.4009 33.9153C82.2682 33.9153 82.1551 33.8957 82.0568 33.8514C81.9585 33.8072 81.8799 33.7433 81.8209 33.6646C81.7619 33.586 81.7324 33.4877 81.7324 33.3795C81.7324 33.2763 81.7521 33.1879 81.7914 33.1141C81.8307 33.0404 81.8897 32.9765 81.9733 32.9224C82.0519 32.8684 82.1502 32.829 82.2682 32.7995C82.3862 32.775 82.5189 32.7602 82.6712 32.7602H83.4921V33.4533C83.4626 33.4877 83.4331 33.5221 83.3987 33.5516H83.4036Z" fill="#173039"/>
<path d="M88.3676 26.9863H86.603V35.0966H88.3676V26.9863Z" fill="#173039"/>
<path d="M98.4297 31.1351C98.1938 30.9434 97.9185 30.7763 97.5892 30.6485C97.2648 30.5158 96.901 30.4126 96.498 30.329C96.321 30.2995 96.1539 30.2602 95.9917 30.216C95.8295 30.1668 95.687 30.1127 95.5641 30.0439C95.4412 29.9751 95.3429 29.9014 95.2741 29.808C95.2052 29.7146 95.1708 29.6114 95.1708 29.4934C95.1708 29.3558 95.2151 29.2378 95.2986 29.1395C95.3822 29.0412 95.5051 28.9675 95.6673 28.9134C95.8295 28.8642 96.0163 28.8348 96.2276 28.8348C96.5422 28.8348 96.8421 28.9085 97.1321 29.0559C97.4221 29.2034 97.6776 29.4197 97.9037 29.7146L99.0638 28.5841C98.7934 28.1663 98.4297 27.8418 97.9726 27.601C97.5154 27.3651 96.9158 27.2422 96.1686 27.2422C95.6575 27.2422 95.1807 27.3405 94.7432 27.5371C94.3057 27.7337 93.9518 28.009 93.6864 28.3579C93.421 28.7069 93.2883 29.1198 93.2883 29.5868C93.2883 29.9161 93.3374 30.2111 93.4406 30.4716C93.5439 30.7321 93.6962 30.9631 93.9076 31.1646C94.1141 31.3661 94.3745 31.5382 94.6842 31.6807C94.9939 31.8233 95.3625 31.9363 95.7852 32.0248C95.9376 32.0543 96.09 32.0887 96.2424 32.1231C96.3948 32.1575 96.5275 32.2067 96.6553 32.2607C96.7831 32.3148 96.8912 32.3738 96.9846 32.4426C97.078 32.5065 97.1566 32.5851 97.2107 32.6736C97.2648 32.7621 97.2942 32.8604 97.2942 32.9685C97.2942 33.1062 97.25 33.2241 97.1566 33.3225C97.0632 33.4208 96.9404 33.4945 96.7831 33.5485C96.6258 33.5977 96.4488 33.6272 96.2522 33.6272C95.8639 33.6272 95.4903 33.5436 95.1217 33.3765C94.7579 33.2094 94.3942 32.8801 94.0354 32.3885L92.895 33.6714C93.2686 34.163 93.7159 34.5414 94.2369 34.8069C94.758 35.0723 95.4018 35.205 96.1588 35.205C96.7437 35.205 97.2599 35.1067 97.717 34.9101C98.1692 34.7135 98.5231 34.4284 98.7787 34.0548C99.0343 33.6813 99.1621 33.234 99.1621 32.708C99.1621 32.3738 99.0982 32.074 98.9704 31.8134C98.8426 31.5529 98.6607 31.3268 98.4297 31.1351Z" fill="#173039"/>
<path d="M104.952 29.988C104.702 29.7274 104.412 29.521 104.077 29.3735C103.743 29.2261 103.37 29.1523 102.957 29.1523C102.524 29.1523 102.131 29.2261 101.767 29.3785C101.403 29.5259 101.089 29.7373 100.823 30.0076C100.558 30.278 100.352 30.6024 100.204 30.9759C100.057 31.3544 99.9829 31.7673 99.9829 32.2195C99.9829 32.7946 100.111 33.3107 100.371 33.758C100.632 34.2053 101 34.5592 101.477 34.8148C101.954 35.0704 102.519 35.1982 103.158 35.1982C103.429 35.1982 103.699 35.1687 103.964 35.1048C104.23 35.0409 104.49 34.9475 104.746 34.8197C105.001 34.6919 105.242 34.5347 105.468 34.343L104.648 33.1829C104.421 33.3599 104.21 33.4828 104.013 33.5565C103.817 33.6302 103.596 33.6646 103.355 33.6646C102.996 33.6646 102.686 33.6007 102.431 33.468C102.17 33.3353 101.974 33.1485 101.841 32.9077C101.782 32.8044 101.743 32.6865 101.708 32.5685H105.695L105.704 32.0868C105.709 31.6641 105.65 31.2709 105.518 30.912C105.385 30.5532 105.198 30.2436 104.947 29.9781L104.952 29.988ZM101.797 31.2905C101.9 31.0792 102.052 30.917 102.254 30.8039C102.455 30.6909 102.701 30.6319 102.996 30.6319C103.193 30.6319 103.37 30.6712 103.527 30.7547C103.684 30.8334 103.812 30.9415 103.91 31.0792C104.009 31.2168 104.068 31.3741 104.082 31.5559V31.5756H101.708C101.733 31.4724 101.757 31.3741 101.802 31.2905H101.797Z" fill="#173039"/>
<path d="M110.261 29.1582C109.961 29.1582 109.676 29.232 109.401 29.3794C109.126 29.5269 108.89 29.7235 108.693 29.9693C108.634 30.043 108.595 30.1217 108.546 30.2003L108.506 29.2811H106.83V35.1009H108.605V32.1959C108.605 32.019 108.634 31.8617 108.688 31.7241C108.742 31.5864 108.821 31.4636 108.919 31.3603C109.017 31.2571 109.135 31.1784 109.268 31.1244C109.401 31.0703 109.553 31.0408 109.71 31.0408C109.858 31.0408 109.996 31.0556 110.133 31.09C110.266 31.1244 110.374 31.1588 110.458 31.203L110.929 29.2615C110.841 29.2271 110.743 29.1976 110.63 29.1779C110.517 29.1583 110.394 29.1484 110.261 29.1484V29.1582Z" fill="#173039"/>
<path d="M114.925 32.9816L113.682 29.2754H111.74L114.173 35.0952H115.555L118.12 29.2754H116.194L114.925 32.9816Z" fill="#173039"/>
<path d="M120.893 29.2754H119.128V35.0952H120.893V29.2754Z" fill="#173039"/>
<path d="M124.535 30.8835C124.746 30.7557 124.992 30.6918 125.267 30.6918C125.449 30.6918 125.626 30.7213 125.793 30.7803C125.96 30.8393 126.113 30.9179 126.255 31.0211C126.393 31.1244 126.511 31.2374 126.604 31.3603L127.558 30.2003C127.307 29.8808 126.968 29.6252 126.531 29.4384C126.098 29.2516 125.616 29.1582 125.1 29.1582C124.54 29.1582 124.034 29.2909 123.581 29.5515C123.134 29.8169 122.78 30.1757 122.525 30.6328C122.269 31.0899 122.141 31.611 122.141 32.1959C122.141 32.7808 122.269 33.2773 122.525 33.7344C122.78 34.1915 123.134 34.5503 123.581 34.8158C124.029 35.0812 124.535 35.209 125.1 35.209C125.597 35.209 126.068 35.1156 126.516 34.9288C126.963 34.742 127.307 34.4963 127.558 34.1866L126.604 33.0266C126.486 33.1593 126.363 33.2723 126.226 33.3657C126.088 33.4591 125.941 33.5329 125.783 33.5869C125.621 33.6361 125.449 33.6656 125.257 33.6656C124.992 33.6656 124.756 33.6017 124.545 33.469C124.333 33.3362 124.166 33.1593 124.048 32.9381C123.925 32.7169 123.866 32.4662 123.866 32.1861C123.866 31.9059 123.925 31.6454 124.043 31.4193C124.161 31.1932 124.324 31.0162 124.535 30.8884V30.8835Z" fill="#173039"/>
<path d="M133.088 29.988C132.837 29.7274 132.547 29.521 132.213 29.3735C131.878 29.2261 131.505 29.1523 131.092 29.1523C130.659 29.1523 130.266 29.2261 129.902 29.3785C129.539 29.5259 129.224 29.7373 128.959 30.0076C128.693 30.278 128.487 30.6024 128.339 30.9759C128.192 31.3544 128.118 31.7673 128.118 32.2195C128.118 32.7946 128.246 33.3107 128.506 33.758C128.767 34.2053 129.136 34.5592 129.612 34.8148C130.089 35.0704 130.654 35.1982 131.293 35.1982C131.564 35.1982 131.834 35.1687 132.1 35.1048C132.365 35.0409 132.626 34.9475 132.881 34.8197C133.137 34.6919 133.378 34.5347 133.604 34.343L132.783 33.1829C132.557 33.3599 132.345 33.4828 132.149 33.5565C131.952 33.6302 131.731 33.6646 131.49 33.6646C131.131 33.6646 130.822 33.6007 130.566 33.468C130.305 33.3353 130.109 33.1485 129.976 32.9077C129.917 32.8044 129.878 32.6865 129.843 32.5685H133.83L133.84 32.0868C133.845 31.6641 133.786 31.2709 133.653 30.912C133.52 30.5532 133.333 30.2436 133.083 29.9781L133.088 29.988ZM129.927 31.2905C130.03 31.0792 130.183 30.917 130.384 30.8039C130.586 30.6909 130.831 30.6319 131.126 30.6319C131.323 30.6319 131.5 30.6712 131.657 30.7547C131.815 30.8334 131.942 30.9415 132.041 31.0792C132.139 31.2168 132.198 31.3741 132.213 31.5559V31.5756H129.839C129.863 31.4724 129.888 31.3741 129.932 31.2905H129.927Z" fill="#173039"/>
<path d="M139.251 32.7563C139.197 32.5941 139.108 32.4466 138.981 32.3237C138.833 32.1615 138.637 32.0239 138.396 31.901C138.15 31.7781 137.855 31.6749 137.511 31.5766C137.241 31.5029 137.024 31.439 136.857 31.38C136.695 31.321 136.577 31.2719 136.513 31.2375C136.439 31.1883 136.385 31.1293 136.341 31.0654C136.302 31.0015 136.282 30.9327 136.282 30.8491C136.282 30.7852 136.297 30.7213 136.326 30.6673C136.356 30.6132 136.395 30.564 136.454 30.5247C136.508 30.4854 136.577 30.4559 136.661 30.4363C136.744 30.4166 136.842 30.4068 136.951 30.4068C137.098 30.4068 137.255 30.4363 137.423 30.5002C137.59 30.5641 137.757 30.6427 137.929 30.741C138.096 30.8393 138.243 30.9524 138.366 31.0752L139.3 30.0332C139.104 29.8513 138.877 29.694 138.627 29.5613C138.376 29.4286 138.106 29.3254 137.816 29.2566C137.526 29.1828 137.221 29.1484 136.901 29.1484C136.494 29.1484 136.11 29.2221 135.761 29.3745C135.412 29.522 135.127 29.7334 134.911 30.0037C134.695 30.274 134.586 30.5886 134.586 30.9474C134.586 31.1834 134.626 31.3947 134.699 31.5815C134.778 31.7732 134.886 31.9403 135.034 32.0878C135.196 32.25 135.402 32.3925 135.653 32.5154C135.904 32.6383 136.204 32.7465 136.548 32.8349C136.788 32.8939 136.985 32.948 137.137 33.007C137.29 33.061 137.398 33.1053 137.457 33.1446C137.58 33.2183 137.644 33.3265 137.644 33.4739C137.644 33.5477 137.629 33.6116 137.599 33.6656C137.57 33.7197 137.531 33.7688 137.472 33.8082C137.418 33.8475 137.354 33.877 137.28 33.9016C137.206 33.9212 137.123 33.936 137.029 33.936C136.774 33.936 136.503 33.8819 136.218 33.7787C135.933 33.6705 135.678 33.5083 135.451 33.2822L134.375 34.2014C134.636 34.516 134.989 34.7617 135.427 34.9436C135.864 35.1206 136.361 35.2139 136.916 35.2139C137.383 35.2139 137.801 35.1304 138.16 34.9682C138.524 34.806 138.809 34.5749 139.015 34.2899C139.222 33.9999 139.33 33.6705 139.33 33.297C139.33 33.1053 139.3 32.9283 139.246 32.7661L139.251 32.7563Z" fill="#173039"/>
<path d="M121.134 27.2216L119.983 26.0469L118.877 27.2216L120.037 28.3817L121.134 27.2216Z" fill="#173039"/>
<path d="M9.50155 21.5691L8.50866 20.5664L7.42236 21.7264L8.57256 22.9012L9.51138 21.8886L10.5043 22.9012L11.6004 21.7264L10.4502 20.5664L9.50155 21.5691Z" fill="#173039"/>
<path d="M16.9726 14.8104L15.3948 16.4227C15.6504 16.7422 15.8618 17.0617 16.0289 17.3762C16.196 17.6908 16.3091 17.9759 16.3681 18.2315H11.3348C11.1529 18.2315 10.9759 18.2217 10.8088 18.202C10.6564 18.1873 10.5188 18.1578 10.391 18.1283C10.4844 17.8629 10.5729 17.5925 10.6466 17.3123C10.7744 16.8503 10.9022 16.349 11.0349 15.8181L8.97539 16.5406C8.9803 16.6881 8.97539 16.87 8.96556 17.0813C8.95082 17.2976 8.93115 17.509 8.91149 17.7203C8.89182 17.9317 8.86234 18.0988 8.83285 18.2266H5.9967C5.66245 18.2266 5.4167 18.1725 5.26924 18.0546C5.12178 17.9415 5.04312 17.74 5.04312 17.4549V14.0879H3.27852V14.8842C2.9836 15.0021 2.69852 15.125 2.42818 15.243C1.93664 15.4642 1.509 15.705 1.14527 15.9557C0.781531 16.2064 0.501357 16.4866 0.299828 16.7962C0.0982995 17.101 0 17.4451 0 17.8285C0 18.2364 0.113044 18.5903 0.344064 18.8803C0.575085 19.1703 0.894588 19.3964 1.30256 19.5488C1.71053 19.7012 2.18241 19.7799 2.71818 19.7799C3.05242 19.7799 3.35224 19.7405 3.61276 19.657C3.71598 19.6275 3.81921 19.5881 3.92735 19.5439C4.03057 19.6176 4.13871 19.6865 4.27143 19.7504C4.5516 19.8782 4.92515 19.942 5.39703 19.942H9.54066C9.62914 19.7946 9.70778 19.6521 9.78643 19.5046C9.99779 19.6127 10.2386 19.711 10.5336 19.7946C10.8825 19.8929 11.3053 19.942 11.8115 19.942H17.3904C17.6608 19.1605 17.7935 18.4625 17.7886 17.8432C17.7886 17.2239 17.7001 16.6684 17.5428 16.172C17.3806 15.6755 17.1938 15.2184 16.9726 14.8006V14.8104ZM2.65428 18.0644C2.3102 18.0644 2.07919 18.0349 1.95139 17.971C1.8285 17.9071 1.7646 17.8284 1.7646 17.7351C1.7646 17.6564 1.80883 17.5581 1.89239 17.4451C1.97595 17.332 2.11359 17.2091 2.30529 17.0813C2.49699 16.9535 2.75258 16.8257 3.07699 16.6979C3.14089 16.6734 3.2097 16.6488 3.27852 16.6242V17.9513C3.27852 17.9513 3.27852 18.0005 3.27852 18.0202C3.16547 18.0349 3.06224 18.0447 2.96885 18.0496C2.83122 18.0546 2.72309 18.0595 2.64936 18.0595L2.65428 18.0644Z" fill="#173039"/>
<path d="M17.346 13.0409L16.1909 11.8711L15.085 13.0409L16.2499 14.2059L17.346 13.0409Z" fill="#173039"/>
<path d="M29.9739 13.0409L28.8237 11.8711L27.7178 13.0409L28.8778 14.2059L29.9739 13.0409Z" fill="#173039"/>
<path d="M29.6003 14.8105L28.0224 16.4228C28.278 16.7423 28.4894 17.0618 28.6565 17.3764C28.8236 17.6909 28.9367 17.976 28.9957 18.2316H23.8985C23.8935 18.1087 23.8788 17.9908 23.8591 17.8777C23.8395 17.7647 23.8247 17.6565 23.81 17.5533C23.7215 17.0913 23.574 16.6784 23.3725 16.3146C23.1661 15.9509 22.9007 15.6609 22.5762 15.4496C22.2518 15.2382 21.8488 15.1301 21.3769 15.1301C21.0476 15.1301 20.7379 15.2038 20.4528 15.3513C20.1628 15.4987 19.9072 15.7002 19.686 15.9607C19.4648 16.2213 19.2879 16.526 19.1601 16.875C19.0323 17.224 18.9684 17.6074 18.9684 18.0154C18.9684 18.3054 19.0126 18.5708 19.106 18.8116C19.1994 19.0476 19.3469 19.254 19.5484 19.4261C19.7548 19.5981 20.0203 19.7308 20.3496 19.8193C20.6789 19.9127 21.082 19.9569 21.5686 19.9569H22.0847C21.9372 20.183 21.7259 20.3649 21.4555 20.4927C21.1803 20.6254 20.8264 20.6893 20.3889 20.6893C20.1628 20.6893 19.9318 20.6696 19.6909 20.6352C19.455 20.6008 19.2191 20.5468 18.9831 20.4829L18.4326 21.6134C18.7816 21.9427 19.1601 22.1688 19.5681 22.2917C19.976 22.4146 20.3643 22.4785 20.7477 22.4785C21.1852 22.4785 21.5735 22.3998 21.9077 22.2474C22.242 22.0951 22.5369 21.8886 22.7778 21.638C23.0235 21.3873 23.2251 21.112 23.3823 20.822C23.5396 20.532 23.6625 20.242 23.751 19.9569H30.023C30.2933 19.1754 30.426 18.4774 30.4211 17.8581C30.4211 17.2387 30.3326 16.6833 30.1753 16.1869C30.0131 15.6904 29.8263 15.2333 29.6052 14.8155L29.6003 14.8105ZM21.4654 18.2267C21.2393 18.2267 21.0623 18.207 20.9345 18.1628C20.8067 18.1186 20.7182 18.0596 20.6642 17.9809C20.615 17.9023 20.5855 17.8187 20.5855 17.7253C20.5855 17.5484 20.6199 17.396 20.6838 17.2584C20.7477 17.1257 20.8313 17.0175 20.9345 16.9438C21.0377 16.8701 21.141 16.8357 21.254 16.8357C21.3916 16.8357 21.5244 16.8799 21.6472 16.9635C21.7701 17.047 21.8832 17.1699 21.9864 17.3272C22.0896 17.4845 22.1633 17.6713 22.2174 17.8826C22.2322 17.9318 22.242 17.9908 22.2518 18.0448C22.2567 18.1038 22.2666 18.1677 22.2715 18.2316H21.4605L21.4654 18.2267Z" fill="#173039"/>
<path d="M40.9201 12.7305L41.913 13.7332L43.0091 12.5732L41.8589 11.3984L40.9102 12.411L39.9173 11.3984L38.8311 12.5732L39.9812 13.7332L40.9201 12.7305Z" fill="#173039"/>
<path d="M45.2358 18.2269H43.1713C43.2942 18.045 43.3925 17.8681 43.4417 17.6862C43.5056 17.4699 43.535 17.2438 43.535 17.0128C43.535 16.713 43.4761 16.423 43.363 16.1477C43.25 15.8724 43.0828 15.6168 42.8666 15.3907C42.6454 15.1646 42.375 14.9828 42.0506 14.855C41.7262 14.7223 41.3477 14.6583 40.9152 14.6583C40.4826 14.6583 40.1189 14.7223 39.7896 14.855C39.4652 14.9877 39.1899 15.1646 38.9736 15.3907C38.7573 15.6168 38.5902 15.8675 38.4821 16.1477C38.3739 16.4279 38.3199 16.713 38.3199 17.0128C38.3199 17.2389 38.3494 17.4601 38.4084 17.6813C38.4575 17.8681 38.5509 18.0499 38.6738 18.2269H34.4073C34.2303 18.2269 34.0927 18.2122 33.9846 18.1827C33.8764 18.1532 33.7978 18.104 33.7388 18.0352C33.6798 17.9664 33.6405 17.873 33.6159 17.7599C33.5962 17.6469 33.5815 17.5093 33.5815 17.3471V11.832H31.8169V17.9811C31.8169 18.3301 31.8611 18.6299 31.9447 18.8806C32.0283 19.1313 32.1561 19.3328 32.3281 19.4901C32.5001 19.6474 32.7164 19.7605 32.9818 19.8342C33.2473 19.9079 33.5569 19.9423 33.9256 19.9423H38.8606C39.2341 19.9423 39.534 19.9374 39.765 19.9227C39.996 19.9079 40.1828 19.8883 40.3253 19.8637C40.4679 19.8391 40.5908 19.8096 40.694 19.7752C40.7972 19.7408 40.9004 19.7064 41.0135 19.672C41.2494 19.7605 41.4854 19.8195 41.7311 19.8588C41.9769 19.8932 42.2718 19.9178 42.6159 19.9276C42.96 19.9374 43.3925 19.9423 43.9086 19.9423H47.0102V11.832H45.2456V18.222L45.2358 18.2269ZM41.6181 17.6272C41.5591 17.7747 41.4706 17.9025 41.3526 18.0204C41.2347 18.1384 41.0872 18.2367 40.9152 18.3154C40.7481 18.2269 40.6055 18.1237 40.4875 18.0106C40.3696 17.8926 40.2811 17.7649 40.2221 17.6223C40.1631 17.4798 40.1336 17.3274 40.1336 17.1652C40.1336 17.0276 40.1631 16.8948 40.227 16.7769C40.2909 16.654 40.3794 16.5606 40.4974 16.4869C40.6153 16.4131 40.753 16.3787 40.9152 16.3787C41.0774 16.3787 41.2248 16.4131 41.3428 16.4869C41.4608 16.5606 41.5493 16.654 41.6132 16.772C41.6771 16.8899 41.7065 17.0226 41.7065 17.1652C41.7065 17.3274 41.6771 17.4798 41.6181 17.6272Z" fill="#173039"/>
<path d="M50.2788 11.8359H48.5142V19.9462H50.2788V11.8359Z" fill="#173039"/>
<path d="M59.5343 13.959L60.5272 14.9617L61.6233 13.7968L60.4731 12.627L59.5294 13.6395L58.5316 12.627L57.4502 13.7968L58.6004 14.9617L59.5343 13.959Z" fill="#173039"/>
<path d="M63.403 14.8096L61.8252 16.4218C62.0808 16.7413 62.2921 17.0608 62.4593 17.3754C62.6264 17.69 62.7394 17.9751 62.7984 18.2307H57.9863C57.6963 18.2307 57.4358 18.2012 57.2146 18.1422C56.9934 18.0832 56.8165 17.98 56.6936 17.8227C56.5707 17.6703 56.5068 17.4491 56.5068 17.164C56.5068 16.9822 56.5314 16.7757 56.5854 16.5447C56.6346 16.3137 56.7181 16.0335 56.8361 15.7042L55.5434 15.1242C55.2436 15.6649 55.0371 16.1416 54.9191 16.5594C54.8012 16.9772 54.7422 17.3459 54.7422 17.6654C54.7422 18.3879 54.9781 18.9483 55.45 19.3464C55.9219 19.7446 56.7034 19.9461 57.7995 19.9461H63.8208C64.0912 19.1646 64.2239 18.4666 64.2189 17.8472C64.2189 17.2279 64.1305 16.6725 63.9732 16.1761C63.811 15.6796 63.6242 15.2225 63.403 14.8047V14.8096Z" fill="#173039"/>
<path d="M74.5312 15.488C74.1822 15.2472 73.7595 15.1243 73.268 15.1243C72.9534 15.1243 72.6634 15.1784 72.3979 15.2816C72.1325 15.3897 71.8818 15.5421 71.6508 15.7436C71.4198 15.9452 71.2035 16.1909 70.9922 16.476C70.7857 16.766 70.5793 17.0904 70.3728 17.4591C70.2401 17.6852 70.132 17.8523 70.0435 17.9654C69.955 18.0735 69.8764 18.1472 69.8026 18.1816C69.7289 18.2161 69.6503 18.2308 69.5618 18.2308H68.2003C68.0233 18.2308 67.8857 18.216 67.7775 18.1865C67.6694 18.157 67.5907 18.1079 67.5318 18.0391C67.4728 17.9703 67.4335 17.8769 67.4089 17.7638C67.3892 17.6508 67.3745 17.5132 67.3745 17.351V11.8359H65.6099V17.985C65.6099 18.334 65.6541 18.6339 65.7377 18.8845C65.8212 19.1352 65.949 19.3367 66.1211 19.494C66.2931 19.6513 66.5094 19.7644 66.7748 19.8381C67.0353 19.9118 67.3499 19.9462 67.7185 19.9462H69.5618C69.8665 19.9462 70.1271 19.9266 70.3335 19.8823C70.5399 19.8381 70.7218 19.7595 70.8742 19.6513C70.9922 19.5678 71.1052 19.4498 71.2133 19.322C71.3805 19.4744 71.5623 19.612 71.7589 19.725C72.0342 19.8725 72.3291 19.9856 72.6437 20.0544C72.9583 20.1232 73.2778 20.1576 73.6022 20.1527C73.9266 20.1527 74.2461 20.1084 74.5607 20.0347C74.8753 19.9561 75.1653 19.8479 75.4356 19.7005C75.6027 19.0811 75.6765 18.4962 75.6617 17.9457C75.6421 17.4001 75.5388 16.9135 75.3422 16.4859C75.1505 16.0631 74.8753 15.7289 74.5263 15.488H74.5312ZM73.2532 18.3979C72.9927 18.334 72.7617 18.2554 72.5503 18.162C72.3635 18.0784 72.2013 17.9899 72.0588 17.8966C72.1669 17.7098 72.2603 17.5574 72.3488 17.4345C72.5159 17.1986 72.6634 17.0364 72.7813 16.9577C72.9042 16.8791 73.0074 16.8348 73.0959 16.8348C73.2434 16.8348 73.3712 16.884 73.4891 16.9823C73.6071 17.0806 73.7054 17.2133 73.789 17.3755C73.8725 17.5377 73.9414 17.7196 73.9905 17.9113C74.0397 18.103 74.0692 18.2996 74.079 18.4962C73.789 18.4913 73.5088 18.452 73.2532 18.393V18.3979Z" fill="#173039"/>
<path d="M89.056 12.7158L87.9058 11.541L86.7949 12.7158L87.9599 13.8758L89.056 12.7158Z" fill="#173039"/>
<path d="M100.971 18.2259H98.9208V11.8359H97.1563V18.2259H93.047C92.7914 18.2259 92.5801 18.221 92.4179 18.2062C92.2753 18.1915 92.1574 18.1767 92.064 18.1522C92.2262 18.0981 92.3736 18.0489 92.5014 18.0194L92.5358 16.5301C92.2213 16.5399 91.9263 16.4809 91.6462 16.3679C91.3709 16.2499 91.0907 16.1074 90.8155 15.9353C90.5353 15.7633 90.2502 15.5913 89.9602 15.4143C89.6702 15.2374 89.3556 15.0948 89.0214 14.9768C88.6871 14.8589 88.3234 14.7999 87.9302 14.7999C87.6303 14.7999 87.3256 14.8589 87.0208 14.9719C86.7161 15.085 86.4162 15.2865 86.1312 15.5716C85.8461 15.8567 85.5806 16.2597 85.33 16.7758L86.4605 17.3558C86.6718 17.0511 86.8734 16.8348 87.0651 16.707C87.2568 16.5842 87.4632 16.5203 87.6893 16.5203C87.8663 16.5203 88.0383 16.535 88.2103 16.5645C88.3824 16.594 88.5642 16.6382 88.7609 16.7021C88.9526 16.766 89.159 16.8447 89.3802 16.943C89.6014 17.0413 89.8422 17.1592 90.1126 17.2969C90.0929 17.3018 90.0634 17.3165 90.029 17.3362C89.9946 17.3559 89.9602 17.3755 89.9258 17.3952C89.8914 17.4148 89.8472 17.4443 89.7931 17.4738C89.567 17.6066 89.336 17.7196 89.1 17.813C88.8641 17.9064 88.5937 17.985 88.2792 18.0489C87.9646 18.1128 87.5812 18.157 87.129 18.1865C86.6768 18.216 86.1164 18.2308 85.4528 18.2308H82.4594C82.3119 18.2308 82.1891 18.221 82.0858 18.1964C81.9826 18.1767 81.8941 18.1325 81.8106 18.0637C81.7319 17.9998 81.6484 17.8965 81.5697 17.7589L79.638 14.2838L78.2912 16.0287L79.7855 18.2308H76.6396L76.9444 19.9512H79.7855C79.9624 19.9512 80.1541 19.9315 80.3655 19.8971C80.5768 19.8627 80.7636 19.7988 80.9307 19.7152C80.9701 19.6956 80.9897 19.6661 81.0241 19.6464C81.0831 19.6808 81.147 19.7201 81.206 19.7496C81.3928 19.8332 81.5894 19.8872 81.7909 19.9118C81.9482 19.9315 82.1301 19.9364 82.3119 19.9413V19.9512H85.3447C86.1115 19.9512 86.7751 19.9168 87.3403 19.843C87.9007 19.7693 88.3922 19.671 88.81 19.5481C89.2278 19.4252 89.5965 19.2876 89.916 19.1352C90.1863 19.0123 90.437 18.8845 90.6877 18.7567C90.8351 19.0074 90.9924 19.2237 91.1645 19.3908C91.3709 19.5923 91.6314 19.7349 91.9411 19.8234C92.2508 19.9118 92.6538 19.9561 93.1404 19.9561H102.745V11.8458H100.98V18.2357L100.971 18.2259Z" fill="#173039"/>
<path d="M115.358 19.3922C115.358 19.2104 115.333 19.0482 115.279 18.9105C115.23 18.7729 115.122 18.6402 114.965 18.5173C114.807 18.3944 114.566 18.2617 114.247 18.1241C113.824 17.9324 113.51 17.78 113.308 17.6669C113.107 17.5539 112.979 17.4507 112.925 17.3671C112.871 17.2835 112.841 17.1852 112.841 17.082C112.841 16.9345 112.925 16.792 113.092 16.6544C113.259 16.5167 113.505 16.4479 113.824 16.4479C114.05 16.4479 114.257 16.4725 114.439 16.5266C114.621 16.5758 114.788 16.6495 114.93 16.733L115.697 15.3174C115.545 15.1945 115.368 15.0864 115.166 14.9979C114.965 14.9094 114.748 14.8406 114.517 14.7964C114.286 14.7472 114.055 14.7227 113.819 14.7227C113.269 14.7227 112.787 14.8357 112.359 15.0569C111.937 15.2781 111.602 15.5927 111.362 15.9957C111.121 16.3988 110.998 16.8707 110.998 17.4114C110.998 17.662 111.047 17.8832 111.14 18.0749C111.234 18.2666 111.381 18.4436 111.578 18.6009C111.775 18.7582 112.025 18.9056 112.335 19.0433C112.772 19.235 113.087 19.3824 113.279 19.4905C113.47 19.5987 113.583 19.6822 113.628 19.7412C113.672 19.8002 113.692 19.8493 113.692 19.8838C113.692 19.9575 113.647 20.0411 113.559 20.1394C113.47 20.2377 113.333 20.336 113.136 20.4293C112.944 20.5227 112.684 20.6014 112.359 20.6604C112.035 20.7194 111.632 20.7489 111.16 20.7489C110.782 20.7489 110.452 20.7144 110.172 20.6456C109.892 20.5768 109.666 20.4736 109.484 20.3311C109.302 20.1934 109.164 20.0214 109.076 19.8199C108.988 19.6183 108.943 19.3922 108.943 19.1366C108.943 18.9253 108.968 18.709 109.017 18.4878C109.066 18.2666 109.13 18.0307 109.219 17.7751L107.705 17.3032C107.523 17.6817 107.39 18.0798 107.306 18.4878C107.223 18.8958 107.179 19.2497 107.179 19.5495C107.179 20.0705 107.267 20.5129 107.449 20.8816C107.626 21.2502 107.882 21.5501 108.216 21.786C108.55 22.0219 108.943 22.194 109.4 22.3021C109.858 22.4103 110.364 22.4643 110.919 22.4643C111.657 22.4643 112.286 22.3906 112.797 22.2431C113.313 22.0956 113.736 21.904 114.07 21.6631C114.404 21.4223 114.66 21.1618 114.842 20.8865C115.024 20.6063 115.151 20.336 115.225 20.0755C115.299 19.81 115.333 19.5839 115.333 19.3824L115.358 19.3922Z" fill="#173039"/>
<path d="M119.743 16.6045C119.502 16.1523 119.187 15.6559 118.799 15.125L117.398 16.8454C117.772 17.2927 118.066 17.6515 118.288 17.9267C118.509 18.202 118.661 18.433 118.755 18.6198C118.848 18.8066 118.892 18.9934 118.892 19.1851C118.892 19.5734 118.809 19.9027 118.646 20.1829C118.484 20.4581 118.248 20.6744 117.949 20.817C117.649 20.9644 117.29 21.0382 116.872 21.0382C116.695 21.0382 116.498 21.0234 116.282 20.9939C116.061 20.9644 115.83 20.9005 115.579 20.8071L115.029 21.9131C115.378 22.2277 115.746 22.4489 116.13 22.5717C116.513 22.6946 116.872 22.7585 117.196 22.7585C117.693 22.7585 118.125 22.675 118.494 22.5078C118.863 22.3407 119.172 22.1195 119.418 21.8443C119.669 21.569 119.866 21.2692 120.018 20.9448C120.165 20.6204 120.273 20.291 120.342 19.9617C120.406 19.6324 120.441 19.3325 120.441 19.0622C120.441 18.6739 120.382 18.2806 120.269 17.8825C120.155 17.4844 119.979 17.0567 119.738 16.6045H119.743Z" fill="#173039"/>
<path d="M134.985 14.5742L135.977 15.5867L137.074 14.412L135.923 13.252L134.975 14.2547L133.982 13.252L132.896 14.412L134.051 15.5867L134.985 14.5742Z" fill="#173039"/>
<path d="M136.076 12.5927L134.926 11.418L133.82 12.5927L134.99 13.7528L136.076 12.5927Z" fill="#173039"/>
<path d="M139.286 16.938C139.222 16.5251 139.123 16.1417 138.986 15.7878C138.848 15.4339 138.696 15.1046 138.524 14.7949L136.946 16.3973C137.157 16.6677 137.344 16.9577 137.511 17.2673C137.673 17.577 137.801 17.8965 137.89 18.2258H136.543C136.263 18.2258 136.012 18.2062 135.781 18.1668C135.609 18.1373 135.471 18.098 135.353 18.0587C135.452 17.8129 135.54 17.5426 135.619 17.2378C135.712 16.879 135.815 16.4465 135.924 15.9353L133.83 16.648C133.849 16.8594 133.864 17.0658 133.864 17.2673C133.864 17.4688 133.859 17.6507 133.849 17.8178C133.839 17.98 133.82 18.1177 133.8 18.2307H132.473C132.365 18.2307 132.266 18.2209 132.163 18.216C132.163 18.2111 132.168 18.2062 132.173 18.1963C132.286 17.9211 132.389 17.6016 132.488 17.2427C132.581 16.8839 132.679 16.4514 132.783 15.9402L130.708 16.6529C130.728 16.8643 130.743 17.0609 130.743 17.2427C130.743 17.4246 130.738 17.5966 130.728 17.7589C130.718 17.9211 130.699 18.0784 130.679 18.2307H126.457C126.452 18.1079 126.437 17.9899 126.417 17.8768C126.398 17.7638 126.383 17.6556 126.368 17.5524C126.28 17.0904 126.132 16.6775 125.931 16.3137C125.724 15.95 125.459 15.66 125.134 15.4487C124.81 15.2373 124.407 15.1292 123.935 15.1292C123.606 15.1292 123.296 15.2029 123.011 15.3504C122.721 15.4978 122.465 15.6993 122.244 15.9599C122.023 16.2204 121.846 16.5251 121.718 16.8741C121.59 17.2231 121.526 17.6065 121.526 18.0145C121.526 18.3045 121.571 18.5699 121.664 18.8107C121.758 19.0467 121.905 19.2531 122.107 19.4252C122.313 19.5972 122.578 19.7299 122.908 19.8184C123.237 19.9118 123.64 19.956 124.127 19.956H124.643C124.495 20.1821 124.284 20.364 124.014 20.4918C123.738 20.6245 123.384 20.6884 122.947 20.6884C122.721 20.6884 122.49 20.6687 122.249 20.6343C122.013 20.5999 121.777 20.5459 121.541 20.482L120.991 21.6125C121.34 21.9418 121.718 22.1679 122.126 22.2908C122.534 22.4137 122.922 22.4776 123.306 22.4776C123.743 22.4776 124.132 22.3989 124.466 22.2466C124.8 22.0942 125.095 21.8877 125.336 21.6371C125.582 21.3864 125.783 21.1111 125.94 20.8211C126.098 20.5311 126.221 20.2411 126.309 19.956H131.19C131.244 19.8725 131.293 19.7987 131.342 19.7201C131.436 19.7496 131.534 19.7791 131.642 19.8036C132.021 19.902 132.488 19.9511 133.033 19.9511H134.326C134.469 19.7348 134.591 19.5382 134.705 19.3514C134.763 19.3859 134.813 19.4202 134.877 19.4546C135.112 19.5923 135.402 19.7053 135.747 19.8036C136.096 19.902 136.518 19.9511 137.025 19.9511H138.922C139.133 19.3514 139.266 18.8058 139.315 18.3045C139.364 17.808 139.359 17.3509 139.3 16.938H139.286ZM124.019 18.2258C123.792 18.2258 123.616 18.2062 123.488 18.1619C123.36 18.1177 123.271 18.0587 123.217 17.98C123.168 17.9014 123.139 17.8178 123.139 17.7244C123.139 17.5475 123.173 17.3951 123.237 17.2575C123.301 17.1248 123.384 17.0166 123.488 16.9429C123.591 16.8692 123.694 16.8348 123.807 16.8348C123.945 16.8348 124.078 16.879 124.2 16.9626C124.323 17.0461 124.436 17.169 124.54 17.3263C124.643 17.4836 124.717 17.6704 124.771 17.8817C124.785 17.9309 124.795 17.9899 124.805 18.0439C124.81 18.1029 124.82 18.1668 124.825 18.2307H124.014L124.019 18.2258Z" fill="#173039"/>
<path d="M2.83609 12.4805L3.82898 13.4832L4.9251 12.3183L3.77492 11.1484L2.82626 12.161L1.83335 11.1484L0.74707 12.3183L1.89726 13.4832L2.83609 12.4805Z" fill="#173039"/>
</svg>
