<svg width="52" height="52" viewBox="0 0 52 52" fill="none" xmlns="http://www.w3.org/2000/svg">
<rect width="52" height="52" rx="26" fill="#F04438" fill-opacity="0.1"/>
<path d="M16.5 26C16.5 21.5217 16.5 19.2825 17.8912 17.8912C19.2825 16.5 21.5217 16.5 26 16.5C30.4783 16.5 32.7175 16.5 34.1088 17.8912C35.5 19.2825 35.5 21.5217 35.5 26C35.5 30.4783 35.5 32.7175 34.1088 34.1088C32.7175 35.5 30.4783 35.5 26 35.5C21.5217 35.5 19.2825 35.5 17.8912 34.1088C16.5 32.7175 16.5 30.4783 16.5 26Z" fill="#F04438"/>
<path d="M28.9994 29L23 23M23.0006 29L29 23" stroke="white" stroke-width="1.5" stroke-linecap="round" stroke-linejoin="round"/>
</svg>
