<svg xmlns="http://www.w3.org/2000/svg" width="59.008" height="37.76" viewBox="0 0 59.008 37.76">
  <g id="group_1_" data-name="group (1)" transform="translate(0 0)">
    <g id="Group_79" data-name="Group 79" transform="translate(16.63 0)">
      <g id="Group_78" data-name="Group 78" transform="translate(0 0)">
        <path id="Path_17" data-name="Path 17" d="M167.333,113.456l-5.023-2.232a.984.984,0,0,1-.584-.9v-1.379a7.32,7.32,0,0,0,2.772-5.735v-1.942a1.791,1.791,0,0,0,.924-1.565v-.188a7.34,7.34,0,0,0-7.331-7.331h-1.848a7.34,7.34,0,0,0-7.331,7.331v1.71a1.813,1.813,0,0,0,.69,1.452,1.686,1.686,0,0,0,.234.152v.382a7.32,7.32,0,0,0,2.772,5.735v1.379a.984.984,0,0,1-.584.9L147,113.456a4.564,4.564,0,0,0-2.708,4.167v11.456a.864.864,0,1,0,1.729,0V117.623a2.826,2.826,0,0,1,.018-.3l2.315,2.314a1.9,1.9,0,0,1,.559,1.349v8.091a.864.864,0,0,0,1.729,0v-8.091a3.612,3.612,0,0,0-1.065-2.571l-2.759-2.759a2.823,2.823,0,0,1,.886-.623l4.938-2.195L156.3,116.5v12.576a.864.864,0,1,0,1.729,0V116.5l3.662-3.662,4.938,2.195a2.822,2.822,0,0,1,.886.623l-2.759,2.759a3.612,3.612,0,0,0-1.065,2.571v8.091a.864.864,0,1,0,1.729,0v-8.091a1.9,1.9,0,0,1,.559-1.349l2.314-2.314a2.829,2.829,0,0,1,.017.3v11.456a.864.864,0,1,0,1.729,0V117.623A4.564,4.564,0,0,0,167.333,113.456Zm-10.167,1.467-3.213-3.213a2.707,2.707,0,0,0,.382-1.384v-.352a7.325,7.325,0,0,0,5.662,0v.352a2.707,2.707,0,0,0,.382,1.384Zm0-6.109a5.609,5.609,0,0,1-5.6-5.6v-.389a5.111,5.111,0,0,0,1.57-1.019.864.864,0,0,0-1.173-1.27,3.1,3.1,0,0,1-1.284.766l-.023,0a.176.176,0,0,1-.015-.078v-1.71a5.609,5.609,0,0,1,5.6-5.6h1.848a5.609,5.609,0,0,1,5.6,5.6V99.7a.056.056,0,0,1-.039.057c-5.176,1.022-7.772-.9-8.648-1.78a.864.864,0,0,0-1.222,1.222c2.684,2.684,6.6,2.733,8.986,2.446v1.562A5.609,5.609,0,0,1,157.167,108.814Z" transform="translate(-144.292 -92.184)" fill="#173039"/>
      </g>
    </g>
    <g id="Group_81" data-name="Group 81" transform="translate(0 4.619)">
      <g id="Group_80" data-name="Group 80" transform="translate(0 0)">
        <path id="Path_18" data-name="Path 18" d="M15.587,144.216v-1.848a6.406,6.406,0,0,0-2.938-5.382,3.636,3.636,0,1,0-6.94,0,6.406,6.406,0,0,0-2.937,5.382v1.848a6.4,6.4,0,0,0,2.772,5.272v1.9a.978.978,0,0,1-.544.88l-2.99,1.495A3.616,3.616,0,0,0,0,157.015v7.526a.864.864,0,0,0,1.729,0v-7.152L3.137,158.8a1.9,1.9,0,0,1,.559,1.349v4.4a.864.864,0,0,0,1.729,0v-4.4a3.612,3.612,0,0,0-1.065-2.571l-1.96-1.96-.029-.026a1.929,1.929,0,0,1,.413-.279l2.99-1.495a2.755,2.755,0,0,0,.429-.268l2.113,2.113v8.881a.864.864,0,0,0,1.729,0V155.66l2.113-2.113a2.743,2.743,0,0,0,.429.268l.824.412a.864.864,0,1,0,.773-1.546l-.824-.412a.978.978,0,0,1-.544-.879v-1.9A6.4,6.4,0,0,0,15.587,144.216ZM9.179,133.994a1.909,1.909,0,0,1,1.907,1.907,1.938,1.938,0,0,1-.03.341,6.407,6.407,0,0,0-3.751,0,1.9,1.9,0,0,1,1.874-2.247Zm0,3.7a4.684,4.684,0,0,1,4.679,4.679v.313a5.426,5.426,0,0,1-5.835-1.756.864.864,0,0,0-1.3-.093A5.655,5.655,0,0,1,4.5,142.248,4.683,4.683,0,0,1,9.179,137.689Zm0,16.39-2-2a2.737,2.737,0,0,0,.09-.694v-1.055a6.419,6.419,0,0,0,3.814,0v1.055a2.737,2.737,0,0,0,.09.694Zm0-5.185A4.684,4.684,0,0,1,4.5,144.216v-.179a6.931,6.931,0,0,0,2.778-1.384,7.8,7.8,0,0,0,1.6,1.167,6.875,6.875,0,0,0,3.3.853,7.243,7.243,0,0,0,1.666-.2A4.685,4.685,0,0,1,9.179,148.895Z" transform="translate(0 -132.265)" fill="#173039"/>
      </g>
    </g>
    <g id="Group_83" data-name="Group 83" transform="translate(41.574 6.467)">
      <g id="Group_82" data-name="Group 82">
        <path id="Path_19" data-name="Path 19" d="M376.151,166.1l-4.837-2.419a.978.978,0,0,1-.543-.879v-1.225a5.471,5.471,0,0,0,1.848-4.1v-.984h.059a.864.864,0,0,0,.864-.864v-1.848a5.49,5.49,0,0,0-5.484-5.484H366.21a5.49,5.49,0,0,0-5.484,5.484v1.848a.864.864,0,0,0,.864.864h.059v.985a5.471,5.471,0,0,0,1.848,4.1V162.8a.978.978,0,0,1-.544.879.864.864,0,1,0,.773,1.546,2.753,2.753,0,0,0,.429-.268l2.113,2.113v11.652a.864.864,0,0,0,1.729,0V167.074l2.113-2.113a2.741,2.741,0,0,0,.429.268l4.681,2.34-1.42,1.42a3.612,3.612,0,0,0-1.065,2.571v7.167a.864.864,0,0,0,1.729,0v-7.167a1.9,1.9,0,0,1,.559-1.349l1.345-1.345a1.926,1.926,0,0,1,.063.487v9.373a.864.864,0,1,0,1.729,0v-9.373A3.616,3.616,0,0,0,376.151,166.1Zm-13.7-11.513v-.806h0a3.759,3.759,0,0,1,3.755-3.755h1.848a3.759,3.759,0,0,1,3.755,3.755v.96a13.219,13.219,0,0,1-6.047-1.679.864.864,0,0,0-1.091.108A5.662,5.662,0,0,1,362.455,154.587Zm4.679,10.906-2-2a2.735,2.735,0,0,0,.09-.694v-.184a5.479,5.479,0,0,0,3.814,0v.184a2.73,2.73,0,0,0,.09.694Zm0-4.261a3.759,3.759,0,0,1-3.755-3.755v-1.394h0a7.314,7.314,0,0,0,2.029-1.238,15.357,15.357,0,0,0,5.481,1.558v1.073A3.759,3.759,0,0,1,367.134,161.232Z" transform="translate(-360.726 -148.298)" fill="#173039"/>
      </g>
    </g>
  </g>
</svg>
