<svg xmlns="http://www.w3.org/2000/svg" width="40.383" height="41.817" viewBox="0 0 40.383 41.817">
  <g id="Group_962" data-name="Group 962" transform="translate(0.025 0.025)">
    <path id="Path_2754" data-name="Path 2754" d="M348.3,317.107v-2.924a1.1,1.1,0,0,0-.415-.863l-4.8-3.821v-7.066a1.366,1.366,0,0,0-1.353-1.362l-1.227-.009V300.2l5.942-5.942a1.132,1.132,0,0,0,.255.029,1.15,1.15,0,1,0-1.149-1.151,1.214,1.214,0,0,0,.028.255l-5.978,5.979a1.094,1.094,0,0,0-.321.778v.885a19.224,19.224,0,0,1-2.139-.2V297.9l3.645-3.643a1.133,1.133,0,0,0,.254.029,1.15,1.15,0,1,0-1.149-1.151,1.239,1.239,0,0,0,.028.256l-3.679,3.679a1.1,1.1,0,0,0-.323.78V300.6a12.479,12.479,0,0,1-2.368-.8v-5.681a1.151,1.151,0,1,0-1.224,0v5a6.6,6.6,0,0,1-1.034-.829,8.845,8.845,0,0,1-.847-.98,1.969,1.969,0,0,0-1.59-.8h0a1.972,1.972,0,0,0-1.594.8,9.546,9.546,0,0,1-.856.984,7.059,7.059,0,0,1-1.293,1v-5.177a1.149,1.149,0,1,0-1.224,0v5.811a12.8,12.8,0,0,1-2.459.759v-2.828a1.1,1.1,0,0,0-.323-.78l-3.681-3.679a1.154,1.154,0,1,0-.865.865l3.643,3.645v2.982a20.488,20.488,0,0,1-2.138.163v-.9a1.09,1.09,0,0,0-.323-.778l-5.978-5.978a1.154,1.154,0,1,0-.865.865l5.942,5.942v.861l-.879.007a1.366,1.366,0,0,0-1.353,1.362v.818a.612.612,0,0,0,1.224,0v-.818a.137.137,0,0,1,.137-.138l1.66-.012a16.836,16.836,0,0,0,7.087-1.394.6.6,0,0,0,.1-.048,8.924,8.924,0,0,0,2.455-1.689,10.409,10.409,0,0,0,.968-1.116.764.764,0,0,1,.616-.308h0a.759.759,0,0,1,.609.308,10.373,10.373,0,0,0,.963,1.116c.927.927,3.722,3.087,9.64,3.132l1.66.012a.137.137,0,0,1,.137.138v9.111a14.984,14.984,0,0,1-1.519,6.554,14.547,14.547,0,0,1-.709,1.28.612.612,0,0,0,.2.843.6.6,0,0,0,.321.092.612.612,0,0,0,.521-.289c.279-.45.537-.916.767-1.388a16.012,16.012,0,0,0,1.046-2.758l1.318,1v8.643a1.149,1.149,0,1,0,1.224,0v-8.705a1.11,1.11,0,0,0-.437-.879l-1.8-1.36a16.121,16.121,0,0,0,.291-3.031v-.481l3.99,3.178v2.865a1.151,1.151,0,1,0,1.224,0Z" transform="translate(-308.501 -291.991)" fill="#173039" stroke="#173039" stroke-width="0.05"/>
    <path id="Path_2755" data-name="Path 2755" d="M339.548,328.247V322.5a1.1,1.1,0,0,0-.323-.778l-1.418-1.42a15.979,15.979,0,0,0,1.577-1.582.612.612,0,0,0-.926-.8,14.878,14.878,0,0,1-2.115,2.005l-5.457,4.235a2.942,2.942,0,0,1-1.794.615,2.9,2.9,0,0,1-1.792-.615l-5.457-4.235a14.9,14.9,0,0,1-5.766-11.772v-5.568a.612.612,0,0,0-1.224,0v3.244l-5.147,4.1a1.1,1.1,0,0,0-.417.863v2.924a1.149,1.149,0,0,0,.612,2.122,1.126,1.126,0,0,0,1.122-1.149,1.146,1.146,0,0,0-.51-.967v-2.87l4.34-3.456v.758a16.114,16.114,0,0,0,.248,2.8l-2.1,1.59a1.11,1.11,0,0,0-.437.879v8.705a1.148,1.148,0,0,0,.612,2.12,1.126,1.126,0,0,0,1.122-1.149,1.153,1.153,0,0,0-.51-.967v-8.647l1.606-1.215a16.087,16.087,0,0,0,1.106,2.976,16.254,16.254,0,0,0,3.7,4.894l-1.583,1.583a1.1,1.1,0,0,0-.323.778v5.744a1.151,1.151,0,1,0,1.224,0v-5.693l1.625-1.623,5.411,4.2a4.146,4.146,0,0,0,5.087,0l5.216-4.048,1.472,1.472v5.693a1.149,1.149,0,1,0,1.224,0Z" transform="translate(-308.751 -288.602)" fill="#173039" stroke="#173039" stroke-width="0.05"/>
    <circle id="Ellipse_17" data-name="Ellipse 17" cx="0.701" cy="0.701" r="0.701" transform="translate(19.64 33.798)" fill="#173039" stroke="#173039" stroke-width="0.05"/>
    <path id="Path_2756" data-name="Path 2756" d="M324.817,298.2a.7.7,0,1,0-.7.7A.7.7,0,0,0,324.817,298.2Z" transform="translate(-303.774 -290.122)" fill="#173039" stroke="#173039" stroke-width="0.05"/>
    <circle id="Ellipse_18" data-name="Ellipse 18" cx="0.701" cy="0.701" r="0.701" transform="translate(30.899 11.505)" fill="#173039" stroke="#173039" stroke-width="0.05"/>
    <circle id="Ellipse_19" data-name="Ellipse 19" cx="0.701" cy="0.701" r="0.701" transform="translate(8.297 11.505)" fill="#173039" stroke="#173039" stroke-width="0.05"/>
    <path id="Path_2757" data-name="Path 2757" d="M319.474,313.135a.611.611,0,0,0-.612.612v2.73a2.037,2.037,0,0,0,2.035,2.035h9.527a2.038,2.038,0,0,0,2.035-2.035v-6.207a2.037,2.037,0,0,0-1.259-1.881v-2.282a5.716,5.716,0,0,0-11.432,0v2.471a2.034,2.034,0,0,0-.905,1.692v.573a.612.612,0,0,0,1.224,0v-.573a.811.811,0,0,1,.81-.81h9.527a.811.811,0,0,1,.81.81v6.207a.811.811,0,0,1-.81.81H320.9a.811.811,0,0,1-.81-.81v-2.73a.612.612,0,0,0-.612-.612Zm6.009-11.519a4.5,4.5,0,0,1,4.493,4.491v2.128h-1.1v-2.128a3.395,3.395,0,1,0-6.79,0v2.128h-1.1v-2.128a4.5,4.5,0,0,1,4.491-4.491Zm2.171,6.62h-4.341v-2.128a2.171,2.171,0,1,1,4.341,0Z" transform="translate(-305.319 -289.14)" fill="#173039" stroke="#173039" stroke-width="0.05"/>
    <path id="Path_2758" data-name="Path 2758" d="M323.983,312.828h.7a.161.161,0,0,0,.161-.161v-1.212a.106.106,0,0,1,.062-.1,1.353,1.353,0,1,0-1.147,0,.108.108,0,0,1,.063.1v1.215a.161.161,0,0,0,.161.161Z" transform="translate(-303.921 -286.292)" fill="#173039" stroke="#173039" stroke-width="0.05"/>
  </g>
</svg>
