<svg xmlns="http://www.w3.org/2000/svg" width="42.368" height="41.988" viewBox="0 0 42.368 41.988">
  <g id="laborers" transform="translate(0.1 0.1)">
    <g id="Group_85" data-name="Group 85" transform="translate(0 0)">
      <g id="Group_84" data-name="Group 84">
        <path id="Path_25" data-name="Path 25" d="M42.165,42.019l-.021-.334L41.788,36.1a6.718,6.718,0,0,0-4.47-5.918l-8.357-2.954a2.18,2.18,0,0,0-1.562.046l-.077.035-2-.617v-1.66a8.556,8.556,0,0,0,3.772-6.27h.059a1.656,1.656,0,0,0,1.655-1.655V15.558a1.642,1.642,0,0,0-.1-.572,1.288,1.288,0,0,0,.674-1.135v-.866a1.282,1.282,0,0,0-1.034-1.263v-.246q0-.109,0-.217a8.17,8.17,0,0,0-.374-2.251.618.618,0,1,0-1.178.372,6.935,6.935,0,0,1,.317,1.911c0,.062,0,.124,0,.186v.842a.618.618,0,0,0,.618.618h.386c.01,0,.03.017.03.049v.866c0,.032-.02.049-.03.049H12.057c-.01,0-.03-.017-.03-.049v-.866c0-.032.02-.049.03-.049h.386a.618.618,0,0,0,.618-.618v-.842q0-.093,0-.186a6.871,6.871,0,0,1,5.584-6.57V6.993h0a2.065,2.065,0,0,0,.593,1.45l.014.015.015.015a2.063,2.063,0,0,0,1.448.593h.734A2.063,2.063,0,0,0,22.9,8.473l.015-.015.014-.015a2.065,2.065,0,0,0,.593-1.45h0V4.72A6.736,6.736,0,0,1,27.75,7.347a.618.618,0,0,0,.991-.738A7.957,7.957,0,0,0,23.3,3.439a2.074,2.074,0,0,0-1.846-1.133h-.731a2.074,2.074,0,0,0-1.846,1.133,7.922,7.922,0,0,0-4.8,2.412,8.108,8.108,0,0,0-2.242,5.407q0,.108,0,.217v.246a1.282,1.282,0,0,0-1.033,1.263v.866a1.288,1.288,0,0,0,.674,1.135,1.644,1.644,0,0,0-.1.572v1.551a1.656,1.656,0,0,0,1.655,1.655h.058a8.558,8.558,0,0,0,3.772,6.286v1.643l-2,.617a2.178,2.178,0,0,0-1.639-.081L4.85,30.182A6.718,6.718,0,0,0,.381,36.1l-.044.7a.618.618,0,0,0,1.233.078l.044-.7a5.484,5.484,0,0,1,3.648-4.831L7.4,30.591V42.859H1.949a.7.7,0,0,1-.466-.174.725.725,0,0,1-.053-.051.709.709,0,0,1-.193-.462q0-.037,0-.074l.173-2.721A.618.618,0,1,0,.177,39.3L0,42.019H0q0,.05,0,.1A1.961,1.961,0,0,0,.462,43.4q.032.038.067.075a1.951,1.951,0,0,0,1.42.615H40.22a1.951,1.951,0,0,0,1.42-.615,1.96,1.96,0,0,0,.528-1.359Q42.168,42.069,42.165,42.019ZM29.1,15.139h.053a.42.42,0,0,1,.419.419v1.551a.42.42,0,0,1-.419.419H29.1ZM19.882,4.38a.831.831,0,0,1,.028-.209s0-.007,0-.011a.838.838,0,0,1,.807-.619h.731a.838.838,0,0,1,.807.618s0,.007,0,.011a.831.831,0,0,1,.028.209V6.993a.836.836,0,0,1-.245.592h0l-.024.022a.833.833,0,0,1-.568.224h-.731a.833.833,0,0,1-.568-.224l-.024-.022h0a.837.837,0,0,1-.245-.592V4.38ZM13.069,17.528h-.053a.42.42,0,0,1-.419-.419V15.558a.42.42,0,0,1,.419-.419h.053Zm14.569,11,.2-.1.025-.01a.939.939,0,0,1,.687-.028l1.536.543L25.543,32.4a.974.974,0,0,1-1.126.04l-2.08-1.364ZM14.3,18.565V15.139h13.56v3.41a7.394,7.394,0,0,1-3.72,5.752l-.013.007q-.1.053-.2.1l-.033.016q-.209.1-.422.182l-.057.021q-.078.028-.156.053l-.06.019c-.069.021-.138.041-.207.058l-.081.02c-.4.1-.733.176-1.038.229a4.835,4.835,0,0,1-.837.082,6.734,6.734,0,0,1-1.587-.243l-.012,0-.039-.01-.256-.064c-.069-.017-.137-.037-.205-.058l-.059-.019-.028-.01-.126-.043-.059-.021-.009,0q-.21-.081-.418-.182l-.013-.006A7.4,7.4,0,0,1,14.3,18.565Zm-.685,9.828a.939.939,0,0,1,.712.039l5.5,2.645-2.081,1.364a.971.971,0,0,1-.534.16h0a.968.968,0,0,1-.591-.2l-4.542-3.466Zm6.847,14.466H8.635v-12.7l2.057-.727,5.184,3.956a2.223,2.223,0,0,0,1.341.453h0a2.2,2.2,0,0,0,1.212-.362l2.038-1.337ZM17.851,28.754,16.485,28.1l.843-.26a1.063,1.063,0,0,0,.754-1.021v-1.1q.192.079.387.143l.036.012.006,0,.087.028c.091.028.173.051.25.07.211.053.407.1.593.143l.162.036.019,0a6.735,6.735,0,0,0,1.414.174h.008a7.081,7.081,0,0,0,1.551-.2c.194-.043.4-.092.621-.147l.081-.02c.083-.021.166-.044.249-.069l.079-.025q.085-.027.171-.057l.092-.032q.1-.037.2-.077v1.118a1.063,1.063,0,0,0,.753,1.021l.843.26-4.6,2.212ZM33.534,42.859H21.7V32.138l2.038,1.337a2.209,2.209,0,0,0,2.553-.091l5.184-3.956,2.058.727v12.7Zm7.295-.342a.723.723,0,0,1-.09.117.705.705,0,0,1-.52.225H34.77V30.591l2.137.755a5.484,5.484,0,0,1,3.648,4.831l.376,5.92q0,.037,0,.074A.707.707,0,0,1,40.829,42.516Z" transform="translate(0 -2.306)" fill="#173039" stroke="#17303a" stroke-width="0.2"/>
        <path id="Path_26" data-name="Path 26" d="M302.687,411.165h-3.263a.835.835,0,0,0-.834.834v1.27a.835.835,0,0,0,.834.834h3.263a.835.835,0,0,0,.834-.834V412A.835.835,0,0,0,302.687,411.165Zm-.041,2.063h-3.181V412.04h3.181Z" transform="translate(-272.581 -375.127)" fill="#173039" stroke="#17303a" stroke-width="0.2"/>
      </g>
    </g>
  </g>
</svg>
