<svg xmlns="http://www.w3.org/2000/svg" width="41.121" height="41.121" viewBox="0 0 41.121 41.121">
  <g id="Loan-Real_Estate-Investment-Loan-Financial" data-name="Loan-Real Estate-Investment-Loan-Financial" transform="translate(0 0)">
    <path id="Path_2826" data-name="Path 2826" d="M42.92,7.684,37.437,2.2a.685.685,0,0,0-.485-.2H16.392a2.056,2.056,0,0,0-2.056,2.056V21.19H10.909a.685.685,0,0,0-.685.685v2.741a.685.685,0,0,0,.685.685h.685v1.371H4.056a.685.685,0,0,0-.685.685V30.1a.685.685,0,0,0,.685.685h.685V41.75H2v1.371H36.267V41.75H33.526V40.379h7.539a2.056,2.056,0,0,0,2.056-2.056V8.168a.685.685,0,0,0-.2-.484ZM37.638,4.34l3.143,3.143H38.323a.685.685,0,0,1-.685-.685ZM11.595,22.56H26.672v1.371H11.595Zm15.078,6.853V28.043h6.853v1.371ZM25.3,25.3V41.75H21.875V39.009h.685V37.638H15.707v1.371h.685V41.75H12.966V25.3ZM20.5,39.009V41.75H17.763V39.009ZM4.741,28.043h6.853v1.371H4.741Zm1.371,2.741h5.483V41.75H6.112ZM26.672,41.75V30.784h5.483V41.75Zm14.392-2.741H33.526V30.784h.685A.685.685,0,0,0,34.9,30.1V27.358a.685.685,0,0,0-.685-.685H26.672V25.3h.685a.685.685,0,0,0,.685-.685V21.875a.685.685,0,0,0-.685-.685H15.707V4.056a.685.685,0,0,1,.685-.685H36.267V6.8a2.056,2.056,0,0,0,2.056,2.056H41.75v29.47A.685.685,0,0,1,41.065,39.009Z" transform="translate(-2 -2)"/>
    <path id="Path_2827" data-name="Path 2827" d="M20,38h1.371v1.371H20Z" transform="translate(-7.664 -13.328)"/>
    <path id="Path_2828" data-name="Path 2828" d="M24,38h1.371v1.371H24Z" transform="translate(-8.922 -13.328)"/>
    <path id="Path_2829" data-name="Path 2829" d="M28,38h1.371v1.371H28Z" transform="translate(-10.181 -13.328)"/>
    <path id="Path_2830" data-name="Path 2830" d="M32,38h1.371v1.371H32Z" transform="translate(-11.44 -13.328)"/>
    <path id="Path_2831" data-name="Path 2831" d="M20,42h1.371v1.371H20Z" transform="translate(-7.664 -14.587)"/>
    <path id="Path_2832" data-name="Path 2832" d="M24,42h1.371v1.371H24Z" transform="translate(-8.922 -14.587)"/>
    <path id="Path_2833" data-name="Path 2833" d="M28,42h1.371v1.371H28Z" transform="translate(-10.181 -14.587)"/>
    <path id="Path_2834" data-name="Path 2834" d="M32,42h1.371v1.371H32Z" transform="translate(-11.44 -14.587)"/>
    <path id="Path_2835" data-name="Path 2835" d="M20,46h1.371v1.371H20Z" transform="translate(-7.664 -15.845)"/>
    <path id="Path_2836" data-name="Path 2836" d="M24,46h1.371v1.371H24Z" transform="translate(-8.922 -15.845)"/>
    <path id="Path_2837" data-name="Path 2837" d="M28,46h1.371v1.371H28Z" transform="translate(-10.181 -15.845)"/>
    <path id="Path_2838" data-name="Path 2838" d="M32,46h1.371v1.371H32Z" transform="translate(-11.44 -15.845)"/>
    <path id="Path_2839" data-name="Path 2839" d="M20,50h1.371v1.371H20Z" transform="translate(-7.664 -17.104)"/>
    <path id="Path_2840" data-name="Path 2840" d="M24,50h1.371v1.371H24Z" transform="translate(-8.922 -17.104)"/>
    <path id="Path_2841" data-name="Path 2841" d="M28,50h1.371v1.371H28Z" transform="translate(-10.181 -17.104)"/>
    <path id="Path_2842" data-name="Path 2842" d="M32,50h1.371v1.371H32Z" transform="translate(-11.44 -17.104)"/>
    <path id="Path_2843" data-name="Path 2843" d="M40,46h2.741v1.371H40Z" transform="translate(-13.957 -15.845)"/>
    <path id="Path_2844" data-name="Path 2844" d="M40,50h2.741v1.371H40Z" transform="translate(-13.957 -17.104)"/>
    <path id="Path_2845" data-name="Path 2845" d="M40,54h2.741v1.371H40Z" transform="translate(-13.957 -18.363)"/>
    <path id="Path_2846" data-name="Path 2846" d="M10,46h2.741v1.371H10Z" transform="translate(-4.517 -15.845)"/>
    <path id="Path_2847" data-name="Path 2847" d="M10,50h2.741v1.371H10Z" transform="translate(-4.517 -17.104)"/>
    <path id="Path_2848" data-name="Path 2848" d="M10,54h2.741v1.371H10Z" transform="translate(-4.517 -18.363)"/>
    <path id="Path_2849" data-name="Path 2849" d="M28.056,10.056h1.371a.685.685,0,0,1,.685.685h1.371a2.056,2.056,0,0,0-2.056-2.056V8H28.056v.685a2.056,2.056,0,0,0,0,4.112h1.371a.685.685,0,1,1,0,1.371H28.056a.685.685,0,0,1-.685-.685H26a2.056,2.056,0,0,0,2.056,2.056v.685h1.371v-.685a2.056,2.056,0,1,0,0-4.112H28.056a.685.685,0,1,1,0-1.371Z" transform="translate(-9.552 -3.888)"/>
    <path id="Path_2850" data-name="Path 2850" d="M38,17h6.853v1.371H38Z" transform="translate(-13.328 -6.72)"/>
    <path id="Path_2851" data-name="Path 2851" d="M38,13h1.371v1.371H38Z" transform="translate(-13.328 -5.462)"/>
    <path id="Path_2852" data-name="Path 2852" d="M42,13h1.371v1.371H42Z" transform="translate(-14.586 -5.462)"/>
    <path id="Path_2853" data-name="Path 2853" d="M46,13h1.371v1.371H46Z" transform="translate(-15.845 -5.462)"/>
    <path id="Path_2854" data-name="Path 2854" d="M44,23h8.224v1.371H44Z" transform="translate(-15.216 -8.608)"/>
    <path id="Path_2855" data-name="Path 2855" d="M44,27h8.224v1.371H44Z" transform="translate(-15.216 -9.867)"/>
    <path id="Path_2856" data-name="Path 2856" d="M44,31h8.224v1.371H44Z" transform="translate(-15.216 -11.125)"/>
  </g>
</svg>
