<svg xmlns="http://www.w3.org/2000/svg" width="42.378" height="41.363" viewBox="0 0 42.378 41.363">
  <g id="mortgage" transform="translate(0.05 0.051)">
    <path id="Path_2857" data-name="Path 2857" d="M3.816,42.476h22.4A3.9,3.9,0,0,0,30.035,38.5V13.433a.538.538,0,0,0-.16-.383L18.127,1.487a.539.539,0,0,0-.377-.155H3.816A3.9,3.9,0,0,0,0,5.3V38.5A3.9,3.9,0,0,0,3.816,42.476ZM28.651,13.353H19.662A1.7,1.7,0,0,1,18.014,11.6V2.884ZM1.075,5.3a2.826,2.826,0,0,1,2.741-2.9H16.939V11.6a2.78,2.78,0,0,0,2.723,2.827h9.3V38.5a2.826,2.826,0,0,1-2.741,2.9H3.816a2.826,2.826,0,0,1-2.741-2.9Zm0,0" transform="translate(0 -1.213)" stroke="#000" stroke-width="0.1"/>
    <path id="Path_2858" data-name="Path 2858" d="M240.936,309.981h1.417a.537.537,0,1,0,0-1.075h-1.417a.537.537,0,0,0,0,1.075Zm0,0" transform="translate(-218.866 -281.237)" stroke="#000" stroke-width="0.1"/>
    <path id="Path_2859" data-name="Path 2859" d="M165.207,309.444a.538.538,0,0,0,.537.537h4.149a.537.537,0,1,0,0-1.075h-4.149A.538.538,0,0,0,165.207,309.444Zm0,0" transform="translate(-150.409 -281.237)" stroke="#000" stroke-width="0.1"/>
    <path id="Path_2860" data-name="Path 2860" d="M61.537,309.981h6.747a.537.537,0,1,0,0-1.075H61.537a.537.537,0,1,0,0,1.075Zm0,0" transform="translate(-55.536 -281.237)" stroke="#000" stroke-width="0.1"/>
    <path id="Path_2861" data-name="Path 2861" d="M79.023,365.59H61.537a.537.537,0,1,0,0,1.075H79.023a.537.537,0,1,0,0-1.075Zm0,0" transform="translate(-55.536 -332.844)" stroke="#000" stroke-width="0.1"/>
    <path id="Path_2862" data-name="Path 2862" d="M377.664,4.061h-.271l.008-1.5a2.566,2.566,0,0,0-.749-1.85A2.388,2.388,0,0,0,374.935,0,2.5,2.5,0,0,0,372.5,2.54V4.054l-2.988-.02a.547.547,0,0,0-.382.156.539.539,0,0,0-.158.381v12.1a.537.537,0,1,0,1.075,0V5.112l1.645.011V34.873a.531.531,0,0,0,0,.057.058.058,0,0,0,0,.011c0,.015,0,.03.007.045s0,.009,0,.014.007.027.011.041l.006.015c0,.012.009.024.015.036l0,.007,2.717,5.852a.538.538,0,0,0,.975,0l2.717-5.852,0-.007c.005-.012.01-.024.015-.036s0-.01.005-.015.008-.027.012-.041l0-.013c0-.015.006-.03.007-.045s0-.008,0-.012a.52.52,0,0,0,0-.057V4.6A.538.538,0,0,0,377.664,4.061Zm-4.9,30.274V19.666h4.359V34.335Zm0-17.531h4.359v1.787h-4.359Zm.81-14.264a1.428,1.428,0,0,1,1.366-1.466h.009a1.324,1.324,0,0,1,.94.4,1.5,1.5,0,0,1,.435,1.083l-.008,1.507h-2.742Zm.064,2.6h3.486V15.729h-4.359V5.136Zm1.306,34.312-1.875-4.038h3.75Zm0,0" transform="translate(-335.923 0)" stroke="#000" stroke-width="0.1"/>
    <path id="Path_2863" data-name="Path 2863" d="M49.644,123.152h1.3v6.868a.538.538,0,0,0,.537.537h8.867a.538.538,0,0,0,.537-.537v-6.868h1.3a.538.538,0,0,0,.316-.972l-1.146-.834v-1.115a.537.537,0,0,0-1.075,0v.333l-4.049-2.948a.537.537,0,0,0-.633,0l-6.27,4.565a.538.538,0,0,0,.316.972Zm6.27-4.437,4.619,3.362h-.185a.537.537,0,0,0-.537.537v6.868H52.018v-6.868a.537.537,0,0,0-.537-.537H51.3Zm0,0" transform="translate(-44.708 -106.987)" stroke="#000" stroke-width="0.1"/>
  </g>
</svg>
