<svg xmlns="http://www.w3.org/2000/svg" width="40.986" height="40.986" viewBox="0 0 40.986 40.986">
  <path id="Path_20" data-name="Path 20" d="M35.506,12.656l2.1,4.209h3.053V9.641a9.814,9.814,0,0,0,1.235-1.7l.087-.152v-1.5H40.664V1H37.635L34.629,6.288h-17.1a4.61,4.61,0,0,0-3.305,1.4v-4.7A1.986,1.986,0,0,0,12.238,1H2.983A1.986,1.986,0,0,0,1,2.983v7.933A1.986,1.986,0,0,0,2.983,12.9h6.78A14.528,14.528,0,0,0,8.224,27.442h-2.6v5.288H1v1.493l2.682,4.828c-.181.161-.348.327-.505.483A2.8,2.8,0,0,1,1,40.663v1.322A4.093,4.093,0,0,0,4.112,40.47,2.805,2.805,0,0,1,6.29,39.341,2.805,2.805,0,0,1,8.467,40.47a4.093,4.093,0,0,0,3.112,1.516,4.092,4.092,0,0,0,3.111-1.516,2.662,2.662,0,0,1,4.352,0,4.093,4.093,0,0,0,3.112,1.516V40.663a2.8,2.8,0,0,1-2.177-1.128l-.128-.126A5.947,5.947,0,0,0,22,36.018a14.434,14.434,0,0,0,6.768-1.932V40a1.986,1.986,0,0,0,1.983,1.983H40A1.986,1.986,0,0,0,41.986,40V32.07A1.986,1.986,0,0,0,40,30.087h-6.78a14.53,14.53,0,0,0,0-17.188h.128A9.84,9.84,0,0,0,35.506,12.656Zm-2.155-1.08h-2.6V10.255h-7.68l.661,1.322H14.882a.661.661,0,0,1-.661-.661,3.3,3.3,0,0,1,.067-.661h5.883a1.986,1.986,0,0,0,1.983-1.983V7.611h18.4a8.49,8.49,0,0,1-1.046,1.322H33.644l1.249,2.5A8.505,8.505,0,0,1,33.351,11.577Zm1.333,9.255H26.767c-.019-1.228-.093-2.439-.216-3.608l1.143,2.286h3.053V15.543h2.547a13.182,13.182,0,0,1,1.389,5.288Zm-12.53,13.65V32.731H18.6l-1.983-3.966h8.132C24.113,31.737,23.142,33.82,22.154,34.482Zm-4.165-7.04a37.267,37.267,0,0,1-.449-5.288h7.908a36.6,36.6,0,0,1-.456,5.288ZM8.3,20.832a13.193,13.193,0,0,1,1.389-5.288h6.956a38.806,38.806,0,0,0-.432,5.288Zm9.679-5.288H25a37.276,37.276,0,0,1,.449,5.288H17.536A37.249,37.249,0,0,1,17.981,15.543ZM24.39,12.9l.661,1.322H18.229c.1-.459.2-.9.32-1.322Zm.817-1.322h4.219v6.611h-.914Zm1.569,10.577h7.908a13.189,13.189,0,0,1-1.389,5.288H26.336A38.957,38.957,0,0,0,26.776,22.154Zm12.565-6.611h-.914l-2.644-5.288h3.558ZM38.4,2.322h.937V6.288H36.15ZM17.526,7.611h3.305v.661a.661.661,0,0,1-.661.661H14.9A3.29,3.29,0,0,1,17.526,7.611ZM6.288,2.322H8.933V3.644H6.288ZM2.322,10.916V2.983a.661.661,0,0,1,.661-.661H4.966V4.966h5.288V2.322h1.983a.661.661,0,0,1,.661.661v7.933a.661.661,0,0,1-.661.661H2.983A.661.661,0,0,1,2.322,10.916ZM12.238,12.9a1.97,1.97,0,0,0,1.322-.516,1.967,1.967,0,0,0,1.322.516h2.3c-.108.426-.21.866-.3,1.322H10.465a13.193,13.193,0,0,1,.993-1.322ZM8.292,22.154h7.926a38.887,38.887,0,0,0,.434,5.288H9.69A13.228,13.228,0,0,1,8.292,22.154ZM6.95,28.764h8.185l1.983,3.966H14.882V30.087H8.272v2.644H6.95Zm6.611,3.966H9.594V31.409H13.56Zm7.272,1.322v.661a4.572,4.572,0,0,1-.05.661H3.152l-.734-1.322ZM18.79,38.54a3.586,3.586,0,0,0-1.924-.521,4.091,4.091,0,0,0-3.11,1.516,2.8,2.8,0,0,1-2.176,1.128A2.805,2.805,0,0,1,9.4,39.535,4.1,4.1,0,0,0,6.29,38.019a3.687,3.687,0,0,0-1.5.3l-.9-1.622H20.375A4.628,4.628,0,0,1,18.79,38.54Zm21.873-6.47V40a.661.661,0,0,1-.661.661H30.748A.661.661,0,0,1,30.087,40V32.07a.661.661,0,0,1,.661-.661h1.983v2.644h5.288V31.409H40A.661.661,0,0,1,40.664,32.07Zm-6.611-.661H36.7v1.322H34.053Zm-3.305-1.322a1.986,1.986,0,0,0-1.983,1.983v.456a13.088,13.088,0,0,1-4.782,1.945A15.409,15.409,0,0,0,26.1,28.764H32.52a13.192,13.192,0,0,1-.993,1.322ZM32.52,14.221H30.748V12.9h.78A13.084,13.084,0,0,1,32.52,14.221Z" transform="translate(-1 -1)" fill="#173039"/>
</svg>
