<svg xmlns="http://www.w3.org/2000/svg" width="203.777" height="54.369" viewBox="0 0 203.777 54.369">
  <g id="apple" transform="translate(-21.992 -13.799)">
    <g id="icon" transform="translate(21.992 13.799)">
      <path id="Fill-2" d="M32.289,25.02a10.827,10.827,0,0,1,5.138-9.067,11.136,11.136,0,0,0-8.714-4.718c-3.66-.386-7.22,2.2-9.084,2.2-1.9,0-4.785-2.149-7.875-2.1A11.579,11.579,0,0,0,2,17.3C-2.216,24.6.924,35.347,4.97,41.257,7,44.145,9.353,47.386,12.459,47.268c3.022-.118,4.164-1.931,7.808-1.931,3.627,0,4.685,1.931,7.841,1.864,3.257-.05,5.289-2.9,7.254-5.826a23.685,23.685,0,0,0,3.308-6.75,10.472,10.472,0,0,1-6.381-9.6" transform="translate(0.004 0.267)" fill="#173039"/>
      <path id="Fill-3" d="M25.881,7.623A10.653,10.653,0,0,0,28.316,0a10.8,10.8,0,0,0-7,3.627,10.215,10.215,0,0,0-2.5,7.338,8.948,8.948,0,0,0,7.069-3.341" transform="translate(0.451)" fill="#173039"/>
    </g>
    <g id="Group_805" data-name="Group 805" transform="translate(77.221 35.761)">
      <path id="Fill-4" d="M20.9,25.276H16.674l-2.317-7.287H6.3L4.1,25.276H-.016L7.959.476H12.9l8.009,24.8ZM13.668,14.933l-2.1-6.464c-.218-.672-.638-2.216-1.243-4.668h-.084C9.991,4.858,9.6,6.42,9.067,8.468L7,14.933Z" transform="translate(0.016 -0.123)" fill="#173039"/>
      <path id="Fill-5" d="M40.843,15.972a10.072,10.072,0,0,1-2.485,7.2,7.239,7.239,0,0,1-5.507,2.351,5.515,5.515,0,0,1-5.1-2.535v9.386H23.767V13.118c0-1.914-.05-3.862-.151-5.877h3.492l.218,2.838h.067a6.634,6.634,0,0,1,6.028-3.207,6.63,6.63,0,0,1,5.272,2.5,9.727,9.727,0,0,1,2.149,6.6Zm-4.047.134a7.3,7.3,0,0,0-1.175-4.3,4.07,4.07,0,0,0-3.459-1.763,4.22,4.22,0,0,0-2.67.974,4.5,4.5,0,0,0-1.562,2.552,5.437,5.437,0,0,0-.185,1.209v2.989a4.807,4.807,0,0,0,1.192,3.291A3.968,3.968,0,0,0,32.045,22.4a4.1,4.1,0,0,0,3.492-1.729A7.585,7.585,0,0,0,36.8,16.107Z" transform="translate(0.58 0.029)" fill="#173039"/>
      <path id="Fill-6" d="M60.917,15.972a10.072,10.072,0,0,1-2.485,7.2,7.239,7.239,0,0,1-5.507,2.351,5.515,5.515,0,0,1-5.1-2.535v9.386H43.841V13.118c0-1.914-.05-3.862-.151-5.877h3.492l.218,2.838h.067a7.052,7.052,0,0,1,11.3-.705,9.727,9.727,0,0,1,2.149,6.6Zm-4.047.134a7.3,7.3,0,0,0-1.175-4.3,4.07,4.07,0,0,0-3.459-1.763,4.22,4.22,0,0,0-2.67.974A4.587,4.587,0,0,0,48,13.571a5.436,5.436,0,0,0-.185,1.209v2.989a4.807,4.807,0,0,0,1.192,3.291A3.968,3.968,0,0,0,52.119,22.4a4.078,4.078,0,0,0,3.492-1.729A7.472,7.472,0,0,0,56.87,16.107Z" transform="translate(1.058 0.029)" fill="#173039"/>
      <path id="Fill-7" d="M83.342,18.332a6.64,6.64,0,0,1-2.2,5.155,9.763,9.763,0,0,1-6.75,2.166,11.811,11.811,0,0,1-6.414-1.545L68.9,20.8a11.153,11.153,0,0,0,5.742,1.545,5.408,5.408,0,0,0,3.492-1.007,3.291,3.291,0,0,0,1.259-2.7A3.5,3.5,0,0,0,78.372,16.1a9.588,9.588,0,0,0-3.425-1.914c-4.382-1.629-6.548-4-6.548-7.1a6.3,6.3,0,0,1,2.3-5,9.124,9.124,0,0,1,6.1-1.948,11.982,11.982,0,0,1,5.625,1.175L81.411,4.53a9.91,9.91,0,0,0-4.769-1.142,4.947,4.947,0,0,0-3.291,1.024,2.98,2.98,0,0,0-.991,2.25A3.015,3.015,0,0,0,73.5,9.081a12.81,12.81,0,0,0,3.61,1.914,12.1,12.1,0,0,1,4.7,3.022,6.283,6.283,0,0,1,1.528,4.315" transform="translate(1.637 -0.131)" fill="#173039"/>
      <path id="Fill-8" d="M96.095,10.325H91.712v8.681c0,2.2.772,3.308,2.317,3.308a7.37,7.37,0,0,0,1.763-.185l.118,3.022a9.215,9.215,0,0,1-3.09.437,4.755,4.755,0,0,1-3.677-1.444c-.89-.957-1.326-2.569-1.326-4.819V10.308h-2.6V7.336h2.6V4.062l3.9-1.175v4.45h4.382v2.989" transform="translate(2.048 -0.066)" fill="#173039"/>
      <path id="Fill-9" d="M115.5,16.039a9.822,9.822,0,0,1-2.351,6.767,8.415,8.415,0,0,1-6.548,2.72,8.058,8.058,0,0,1-6.28-2.6,9.453,9.453,0,0,1-2.334-6.582,9.753,9.753,0,0,1,2.4-6.8,8.38,8.38,0,0,1,6.5-2.653,8.171,8.171,0,0,1,6.33,2.619,9.333,9.333,0,0,1,2.284,6.532Zm-4.114.084a8.014,8.014,0,0,0-1.058-4.214,4.122,4.122,0,0,0-7.22,0,8.043,8.043,0,0,0-1.058,4.3,7.972,7.972,0,0,0,1.058,4.214,4.078,4.078,0,0,0,7.186-.034A8.136,8.136,0,0,0,111.389,16.123Z" transform="translate(2.352 0.03)" fill="#173039"/>
      <path id="Fill-10" d="M127.946,10.733a7.361,7.361,0,0,0-1.259-.1,3.749,3.749,0,0,0-3.241,1.578,5.99,5.99,0,0,0-.991,3.526v9.386h-3.979V12.866c0-2.065-.034-3.946-.118-5.625h3.459l.151,3.425h.118a6.1,6.1,0,0,1,1.981-2.838,4.833,4.833,0,0,1,2.871-.957,8.363,8.363,0,0,1,.991.067l.017,3.795" transform="translate(2.837 0.029)" fill="#173039"/>
      <path id="Fill-11" d="M145.445,15.335a9.083,9.083,0,0,1-.151,1.8H133.372a5.183,5.183,0,0,0,1.729,4.047,5.953,5.953,0,0,0,3.9,1.243,13.377,13.377,0,0,0,4.819-.84l.621,2.754a14.92,14.92,0,0,1-5.994,1.108,8.685,8.685,0,0,1-6.532-2.451,9.051,9.051,0,0,1-2.367-6.565,10.259,10.259,0,0,1,2.216-6.733,7.607,7.607,0,0,1,6.246-2.871,6.635,6.635,0,0,1,5.843,2.871,9.712,9.712,0,0,1,1.6,5.642Zm-3.795-1.024a5.353,5.353,0,0,0-.772-3.056,3.467,3.467,0,0,0-3.157-1.662,3.774,3.774,0,0,0-3.157,1.612,5.972,5.972,0,0,0-1.175,3.09Z" transform="translate(3.104 0.028)" fill="#173039"/>
    </g>
    <g id="Available-on-the" transform="translate(78.698 14.42)">
      <path id="Fill-12" d="M10.244,12.928H8.162L7.02,9.352H3.057L1.966,12.928H-.049L3.863.738H6.281ZM6.667,7.841,5.643,4.65c-.1-.319-.3-1.091-.621-2.3H4.988c-.134.521-.3,1.276-.588,2.3L3.393,7.841Z" transform="translate(0.049 -0.1)" fill="#173039"/>
      <path id="Fill-13" d="M19.778,4.051l-3.325,8.8h-1.9l-3.224-8.8h2.1L14.926,8.7c.252.772.47,1.511.638,2.216h.05c.151-.638.369-1.377.638-2.216L17.73,4.051h2.048" transform="translate(0.32 -0.021)" fill="#173039"/>
      <path id="Fill-14" d="M26.629,12.853l-.151-1.007h-.05a3.022,3.022,0,0,1-2.569,1.209,2.551,2.551,0,0,1-2.687-2.586c0-2.166,1.881-3.291,5.138-3.291V7.01c0-1.159-.621-1.729-1.83-1.729a4.1,4.1,0,0,0-2.3.655l-.4-1.276A5.645,5.645,0,0,1,24.8,3.9c2.3,0,3.459,1.209,3.459,3.644v3.241a11.7,11.7,0,0,0,.134,2.1l-1.763-.034ZM26.361,8.47c-2.166,0-3.257.521-3.257,1.78a1.245,1.245,0,0,0,1.343,1.377,1.868,1.868,0,0,0,1.914-1.8Z" transform="translate(0.555 -0.025)" fill="#173039"/>
      <path id="Fill-15" d="M32.368,2.695a1.144,1.144,0,0,1-1.159-1.175,1.193,1.193,0,0,1,2.384,0A1.142,1.142,0,0,1,32.368,2.695Zm-.94,1.444h1.948V12.92H31.427Z" transform="translate(0.794 -0.109)" fill="#173039"/>
      <path id="Fill-16" d="M36.72.115h1.948V12.926H36.72Z" transform="translate(0.925 -0.115)" fill="#173039"/>
      <path id="Fill-17" d="M46.851,12.853,46.7,11.846h-.05a3.022,3.022,0,0,1-2.569,1.209,2.551,2.551,0,0,1-2.687-2.586c0-2.166,1.881-3.291,5.138-3.291V7.01c0-1.159-.621-1.729-1.83-1.729a4.1,4.1,0,0,0-2.3.655L42,4.642a5.645,5.645,0,0,1,3.022-.756c2.3,0,3.459,1.209,3.459,3.644v3.241a13.881,13.881,0,0,0,.118,2.1H46.851v-.017Zm-.269-4.382c-2.166,0-3.257.521-3.257,1.78a1.245,1.245,0,0,0,1.343,1.377,1.868,1.868,0,0,0,1.914-1.8Z" transform="translate(1.037 -0.025)" fill="#173039"/>
      <path id="Fill-18" d="M56.162,13.144a2.991,2.991,0,0,1-2.77-1.562h-.034l-.118,1.36H51.578c.05-.705.067-1.494.067-2.368V.115H53.61V5.437h.034a3.02,3.02,0,0,1,2.8-1.461c2.116,0,3.593,1.813,3.593,4.45C60.041,11.146,58.4,13.144,56.162,13.144Zm-.4-7.64A2.242,2.242,0,0,0,53.61,7.839V9.383a2.147,2.147,0,0,0,2.116,2.2c1.461,0,2.334-1.192,2.334-3.09,0-1.78-.907-2.989-2.3-2.989Z" transform="translate(1.28 -0.115)" fill="#173039"/>
      <path id="Fill-19" d="M62.664.115h1.948V12.926H62.664Z" transform="translate(1.544 -0.115)" fill="#173039"/>
      <path id="Fill-20" d="M75.128,8.925h-5.86a2.523,2.523,0,0,0,2.77,2.6,6.6,6.6,0,0,0,2.368-.42l.3,1.36a7.121,7.121,0,0,1-2.938.537,4.08,4.08,0,0,1-4.382-4.433c0-2.687,1.662-4.718,4.164-4.718,2.233,0,3.66,1.662,3.66,4.181a3.4,3.4,0,0,1-.084.89Zm-1.78-1.394c0-1.36-.688-2.317-1.931-2.317a2.316,2.316,0,0,0-2.132,2.317Z" transform="translate(1.656 -0.026)" fill="#173039"/>
      <path id="Fill-21" d="M86.608,13.055a4.179,4.179,0,0,1-4.231-4.517c0-2.72,1.7-4.651,4.382-4.651,2.535,0,4.231,1.83,4.231,4.5C90.991,11.124,89.245,13.055,86.608,13.055Zm.084-7.741c-1.41,0-2.317,1.326-2.317,3.157,0,1.813.924,3.123,2.3,3.123s2.3-1.41,2.3-3.173c-.017-1.78-.907-3.106-2.284-3.106Z" transform="translate(2.014 -0.025)" fill="#173039"/>
      <path id="Fill-22" d="M101.219,12.853H99.272V7.8c0-1.562-.6-2.334-1.78-2.334a2.02,2.02,0,0,0-1.948,2.149v5.222H93.6V6.574c0-.772-.017-1.612-.067-2.519h1.713l.084,1.36h.05A3.161,3.161,0,0,1,98.163,3.87c1.847,0,3.056,1.41,3.056,3.711v5.272" transform="translate(2.279 -0.025)" fill="#173039"/>
      <path id="Fill-23" d="M113.645,5.579H111.5V9.844c0,1.091.386,1.629,1.142,1.629a4.273,4.273,0,0,0,.873-.084l.05,1.478a4.232,4.232,0,0,1-1.511.218c-1.545,0-2.451-.856-2.451-3.073V5.579h-1.276V4.118H109.6V2.506l1.914-.588V4.1h2.149V5.579" transform="translate(2.632 -0.072)" fill="#173039"/>
      <path id="Fill-24" d="M123.8,12.943h-1.948V7.923c0-1.578-.6-2.368-1.78-2.368a1.914,1.914,0,0,0-1.948,2.082v5.289h-1.948V.115h1.948V5.387h.034A2.954,2.954,0,0,1,120.8,3.96c1.864,0,3.006,1.444,3.006,3.744v5.239" transform="translate(2.819 -0.115)" fill="#173039"/>
      <path id="Fill-25" d="M133.545,8.925h-5.86a2.523,2.523,0,0,0,2.77,2.6,6.6,6.6,0,0,0,2.367-.42l.3,1.36a7.121,7.121,0,0,1-2.938.537A4.08,4.08,0,0,1,125.8,8.572c0-2.687,1.662-4.718,4.164-4.718,2.233,0,3.66,1.662,3.66,4.181a3.4,3.4,0,0,1-.084.89Zm-1.78-1.394c0-1.36-.688-2.317-1.931-2.317A2.3,2.3,0,0,0,127.7,7.531Z" transform="translate(3.048 -0.026)" fill="#173039"/>
    </g>
  </g>
</svg>
