<svg id="Group_966" data-name="Group 966" xmlns="http://www.w3.org/2000/svg" xmlns:xlink="http://www.w3.org/1999/xlink" width="665" height="637.019" viewBox="0 0 665 637.019">
  <defs>
    <clipPath id="clip-path">
      <rect id="Rectangle_761" data-name="Rectangle 761" width="665" height="637.019" fill="none"/>
    </clipPath>
    <clipPath id="clip-path-3">
      <rect id="Rectangle_737" data-name="Rectangle 737" width="125.042" height="37.058" fill="none"/>
    </clipPath>
    <clipPath id="clip-path-4">
      <rect id="Rectangle_738" data-name="Rectangle 738" width="125.04" height="37.058" fill="none"/>
    </clipPath>
    <clipPath id="clip-path-5">
      <rect id="Rectangle_739" data-name="Rectangle 739" width="166.582" height="145.092" fill="#438ca7"/>
    </clipPath>
    <clipPath id="clip-path-6">
      <rect id="Rectangle_740" data-name="Rectangle 740" width="119.704" height="87.672" fill="none"/>
    </clipPath>
    <clipPath id="clip-path-7">
      <rect id="Rectangle_741" data-name="Rectangle 741" width="87.636" height="47.627" fill="none"/>
    </clipPath>
    <clipPath id="clip-path-8">
      <rect id="Rectangle_742" data-name="Rectangle 742" width="284.748" height="164.951" fill="none"/>
    </clipPath>
    <clipPath id="clip-path-9">
      <rect id="Rectangle_743" data-name="Rectangle 743" width="262.693" height="147.17" fill="none"/>
    </clipPath>
    <clipPath id="clip-path-10">
      <rect id="Rectangle_744" data-name="Rectangle 744" width="264.067" height="152.459" fill="none"/>
    </clipPath>
    <clipPath id="clip-path-11">
      <rect id="Rectangle_745" data-name="Rectangle 745" width="79.301" height="44.724" fill="none"/>
    </clipPath>
    <clipPath id="clip-path-12">
      <rect id="Rectangle_746" data-name="Rectangle 746" width="38.012" height="31.68" fill="none"/>
    </clipPath>
    <clipPath id="clip-path-13">
      <rect id="Rectangle_747" data-name="Rectangle 747" width="17.368" height="16.588" fill="none"/>
    </clipPath>
    <clipPath id="clip-path-14">
      <path id="Path_2913" data-name="Path 2913" d="M126.267,263.454c3.533,6.555,3.3,13.535-.516,15.592s-9.774-1.589-13.3-8.144-3.3-13.533.516-15.592a4.933,4.933,0,0,1,2.362-.574c3.619,0,8.078,3.4,10.941,8.717" transform="translate(-109.942 -254.737)" fill="none"/>
    </clipPath>
    <linearGradient id="linear-gradient" x1="-9.626" y1="-3.64" x2="-9.538" y2="-3.64" gradientUnits="objectBoundingBox">
      <stop offset="0" stop-color="#d6dae6"/>
      <stop offset="0.045" stop-color="#cfd3e5"/>
      <stop offset="0.278" stop-color="#b4b8e3"/>
      <stop offset="0.395" stop-color="#999fc7"/>
      <stop offset="0.53" stop-color="#8289af"/>
      <stop offset="0.654" stop-color="#747ca1"/>
      <stop offset="0.758" stop-color="#70789c"/>
      <stop offset="0.853" stop-color="#767da2"/>
      <stop offset="0.986" stop-color="#888db2"/>
      <stop offset="1" stop-color="#8b90b5"/>
    </linearGradient>
    <clipPath id="clip-path-16">
      <rect id="Rectangle_750" data-name="Rectangle 750" width="95.783" height="71.476" fill="none"/>
    </clipPath>
    <clipPath id="clip-path-17">
      <rect id="Rectangle_751" data-name="Rectangle 751" width="14.196" height="20.718" fill="none"/>
    </clipPath>
    <clipPath id="clip-path-18">
      <rect id="Rectangle_753" data-name="Rectangle 753" width="115.557" height="77.474" fill="none"/>
    </clipPath>
    <clipPath id="clip-path-19">
      <path id="Path_2925" data-name="Path 2925" d="M196.7,338.212l-88.825-52.98s-.749-.412-1.061-.538a148.125,148.125,0,0,0-20.5-8.7l-.032-.02c-1.415-.48-2.128-.076-1.767,1.617s1.049,2.708,3.08,4.516l.034.02S100.77,293,109.255,298.636a11.2,11.2,0,0,0,1.441,1.047c.028.016.054.03.082.048v0l89.2,53.525Z" transform="translate(-84.418 -275.784)" fill="none"/>
    </clipPath>
    <radialGradient id="radial-gradient" cx="0.984" cy="0.464" r="0.35" gradientUnits="objectBoundingBox">
      <stop offset="0" stop-color="#daebf2"/>
      <stop offset="1" stop-color="#fff"/>
    </radialGradient>
    <clipPath id="clip-path-20">
      <rect id="Rectangle_755" data-name="Rectangle 755" width="51.329" height="34.68" fill="none"/>
    </clipPath>
    <clipPath id="clip-path-21">
      <path id="Path_2926" data-name="Path 2926" d="M165.86,304.177l-39.84-23.763s-.336-.184-.476-.242a66.378,66.378,0,0,0-9.195-3.9l-.016-.008c-.633-.216-.322,1.938.59,2.75l.01.006s5.9,4.882,9.708,7.408a4.755,4.755,0,0,0,.645.47l.036.022,40.008,24.009Z" transform="translate(-116.001 -276.246)" fill="none"/>
    </clipPath>
    <radialGradient id="radial-gradient-2" cx="0.982" cy="0.462" r="0.882" xlink:href="#radial-gradient"/>
    <clipPath id="clip-path-22">
      <rect id="Rectangle_756" data-name="Rectangle 756" width="86.764" height="51.829" fill="none"/>
    </clipPath>
    <clipPath id="clip-path-23">
      <rect id="Rectangle_757" data-name="Rectangle 757" width="39.714" height="20.747" fill="none"/>
    </clipPath>
    <clipPath id="clip-path-25">
      <rect id="Rectangle_759" data-name="Rectangle 759" width="28.291" height="23.68" fill="none"/>
    </clipPath>
  </defs>
  <g id="Group_964" data-name="Group 964" clip-path="url(#clip-path)">
    <g id="Group_931" data-name="Group 931">
      <g id="Group_930" data-name="Group 930" clip-path="url(#clip-path)">
        <path id="Path_2736" data-name="Path 2736" d="M224,191.256a1.5,1.5,0,0,0,1.5-1.451l.17-5.318a1.507,1.507,0,0,0-.032-.354L190.723,16.983a9.993,9.993,0,0,0-19.363-.691L137.048,139.973a1.5,1.5,0,0,0,2.89.8l34.3-123.663a7,7,0,0,1,13.547.5l34.874,166.965-.164,5.138a1.5,1.5,0,0,0,1.449,1.545l.05,0" transform="translate(165.564 9.08)" fill="#173039"/>
        <path id="Path_2737" data-name="Path 2737" d="M165.727,5.757,155.821,0l-16.5,6.845,9.906,5.755Z" transform="translate(220.865 -0.001)" fill="#71afc6"/>
        <path id="Path_2738" data-name="Path 2738" d="M208.069,9.181l-9.906-5.757a50.547,50.547,0,0,1-15.466,14.7c-4.95,2.858-9.91,4.133-14.223,3.421-6.249-1.023-13.481.707-20.9,4.992l9.906,5.755c7.418-4.283,14.65-6.013,20.9-4.99,4.311.711,9.271-.564,14.221-3.421a50.572,50.572,0,0,0,15.466-14.7" transform="translate(162.017 3.419)" fill="#438ca7"/>
        <path id="Path_2739" data-name="Path 2739" d="M262.619,20.747l-9.906-5.757L172.888,61.076l9.906,5.757Z" transform="translate(56.881 14.965)" fill="#71afc6"/>
        <path id="Path_2740" data-name="Path 2740" d="M139.316,78.923l.058,20.693,79.8-53.409c5.19-3,10.22-4.2,14.582-3.477,6.219,1.021,13.391-.829,20.526-4.948,7.882-4.55,15.755-11.886,22.336-21.245l9.61-13.657-16.5,6.845a50.571,50.571,0,0,1-15.466,14.7c-4.95,2.858-9.91,4.131-14.223,3.421-6.249-1.023-13.481.707-20.9,4.99Z" transform="translate(100.358 2.875)" fill="#2d5e70"/>
        <path id="Path_2741" data-name="Path 2741" d="M245.682,94.229c0,24.389-25.877,44.159-57.8,44.159s-57.8-19.77-57.8-44.159Z" transform="translate(159.354 94.078)" fill="#71afc6"/>
        <path id="Path_2742" data-name="Path 2742" d="M252.821,90.334H127.781v5.33c0,20.108,27.992,36.409,62.52,36.409s62.52-16.3,62.52-36.409c0-.168-.018-.334-.022-.5h.022Z" transform="translate(156.821 90.19)" fill="#a8cedc"/>
        <path id="Path_2743" data-name="Path 2743" d="M127.782,108.649c0,20.108,27.994,36.407,62.522,36.407s62.518-16.3,62.518-36.407S224.832,72.242,190.3,72.242s-62.522,16.3-62.522,36.407" transform="translate(156.818 72.127)" fill="#f5f5f5"/>
        <path id="Path_2744" data-name="Path 2744" d="M130.426,107.192c0,18.407,25.623,33.329,57.234,33.329s57.234-14.922,57.234-33.329S219.269,73.863,187.66,73.863s-57.234,14.922-57.234,33.329" transform="translate(159.462 73.745)" fill="#438ca7"/>
        <path id="Path_2745" data-name="Path 2745" d="M159.566,98.413a1,1,0,0,0,.943-.675,7.647,7.647,0,0,1,2.242-2.59,1,1,0,0,0-1.287-1.529,9.5,9.5,0,0,0-2.844,3.471,1,1,0,0,0,.62,1.269,1.031,1.031,0,0,0,.326.054m7.534-6.337a1,1,0,0,0,.472-.118c1.105-.594,2.29-1.159,3.525-1.683a1,1,0,0,0-.781-1.841c-1.289.548-2.53,1.139-3.687,1.763a1,1,0,0,0,.472,1.879m9.251-3.731a1,1,0,0,0,.284-.042c1.237-.364,2.516-.7,3.8-.983A1,1,0,1,0,180,85.37c-1.331.3-2.654.639-3.935,1.017a1,1,0,0,0,.284,1.958m9.768-2.046a.975.975,0,0,0,.132-.01q1.894-.249,3.919-.408a1,1,0,0,0,.919-1.073,1.03,1.03,0,0,0-1.071-.919q-2.083.159-4.029.42a1,1,0,0,0,.13,1.99m9.964-.643h.118a1,1,0,0,0,0-2,1.051,1.051,0,0,0-1.059,1,.952.952,0,0,0,.941,1" transform="translate(150.922 83.523)" fill="#2d5e70"/>
        <path id="Path_2746" data-name="Path 2746" d="M187.66,80.923c29.56,0,53.883,13.052,56.912,29.8a19.82,19.82,0,0,0,.322-3.531c0-18.405-25.626-33.327-57.234-33.327s-57.234,14.922-57.234,33.327a19.822,19.822,0,0,0,.322,3.531c3.03-16.747,27.352-29.8,56.913-29.8" transform="translate(159.462 73.745)" fill="#71afc6"/>
        <g id="Group_899" data-name="Group 899" transform="translate(284.6 181.281)" style="mix-blend-mode: color-dodge;isolation: isolate">
          <g id="Group_898" data-name="Group 898" transform="translate(0)">
            <g id="Group_897" data-name="Group 897" clip-path="url(#clip-path-3)">
              <path id="Path_2747" data-name="Path 2747" d="M190.3,126.469c-34.155,0-61.893-15.951-62.492-35.755-.006.216-.028.432-.028.649,0,20.108,27.992,36.409,62.52,36.409s62.52-16.3,62.52-36.409c0-.218-.022-.434-.028-.649-.6,19.8-28.337,35.755-62.492,35.755" transform="translate(-127.779 -90.712)" fill="#fff"/>
            </g>
          </g>
        </g>
        <path id="Path_2748" data-name="Path 2748" d="M144.526,104.169a1.5,1.5,0,0,0,.132-2.992l-1.341-.122a3.3,3.3,0,0,1-2.892-2.466L140.15,97.5a1.5,1.5,0,1,0-2.9.739l.276,1.089a6.306,6.306,0,0,0,5.526,4.714l1.343.12c.044,0,.092.006.136.006" transform="translate(244.798 96.217)" fill="#173039"/>
        <path id="Path_2749" data-name="Path 2749" d="M146.337,97.063a5.88,5.88,0,0,1,.272,1.847v8.145l-8.891,5.134-.376,2.924L135.1,113.7v-8.145a12.684,12.684,0,0,1,5.755-9.928,4.231,4.231,0,0,1,3.813-.534l0,0,.026.016a2.736,2.736,0,0,1,.608.368l1.9,1.153Zm-3.046,1.523-1.487.743-3.032,4.652-.4,3.116a2.45,2.45,0,0,0,2.48-.242,7.687,7.687,0,0,0,3.489-6.017,2.4,2.4,0,0,0-1.051-2.252" transform="translate(247.816 94.692)" fill="#a8cedc"/>
        <path id="Path_2750" data-name="Path 2750" d="M145.784,99.62v8.144l-11.511,6.647v-8.146a12.677,12.677,0,0,1,5.755-9.926c3.179-1.837,5.755-.368,5.755,3.281m-2.266,1.926c0-2.21-1.563-3.1-3.489-1.988a7.687,7.687,0,0,0-3.489,6.017c0,2.212,1.563,3.1,3.489,1.99a7.691,7.691,0,0,0,3.489-6.019" transform="translate(250.885 95.394)" fill="#71afc6"/>
        <path id="Path_2751" data-name="Path 2751" d="M186.331,191.254a1.5,1.5,0,0,0,1.5-1.451l.17-5.318a1.506,1.506,0,0,0-.032-.354L153.055,16.981a9.776,9.776,0,0,0-5.909-7.14,10.327,10.327,0,0,0-9.486.925,1.5,1.5,0,1,0,1.667,2.492,7.277,7.277,0,0,1,6.7-.637,6.723,6.723,0,0,1,4.1,4.984L185,184.569l-.164,5.138a1.5,1.5,0,0,0,1.449,1.545l.05,0" transform="translate(203.232 9.082)" fill="#173039"/>
        <path id="Path_2752" data-name="Path 2752" d="M189.262,73.48a5.879,5.879,0,0,1,.272,1.847v8.146l-8.891,5.134-.376,2.924-2.244-1.411V81.973a12.684,12.684,0,0,1,5.755-9.928,4.231,4.231,0,0,1,3.813-.534l0,0,.026.016a2.737,2.737,0,0,1,.608.368l1.9,1.153ZM186.216,75l-1.487.743L181.7,80.4l-.4,3.115a2.45,2.45,0,0,0,2.48-.242,7.687,7.687,0,0,0,3.489-6.017A2.4,2.4,0,0,0,186.216,75" transform="translate(119.109 71.147)" fill="#a8cedc"/>
        <path id="Path_2753" data-name="Path 2753" d="M188.709,76.035v8.146L177.2,90.827V82.682a12.684,12.684,0,0,1,5.755-9.928c3.177-1.835,5.755-.366,5.755,3.281m-2.266,1.928c0-2.212-1.563-3.1-3.489-1.988a7.687,7.687,0,0,0-3.489,6.017c0,2.21,1.563,3.1,3.489,1.99a7.694,7.694,0,0,0,3.489-6.019" transform="translate(122.179 71.849)" fill="#71afc6"/>
        <path id="Path_2754" data-name="Path 2754" d="M178.759,79.245a7.3,7.3,0,0,0,5.166-2.128l2.06-2.06a1.5,1.5,0,0,0-2.118-2.118L181.8,75a4.3,4.3,0,0,1-4.44,1.013,1.5,1.5,0,0,0-.991,2.83,7.219,7.219,0,0,0,2.386.4" transform="translate(128.117 72.383)" fill="#173039"/>
        <path id="Path_2755" data-name="Path 2755" d="M254.354,33.834l-4.6-2.742L223.113,77.239l4.6,2.742Z" transform="translate(-35.225 31.042)" fill="#438ca7"/>
        <path id="Path_2756" data-name="Path 2756" d="M236.33,32.464,209.688,78.611,236.5,93.9,263.161,47.74Z" transform="translate(-17.2 32.412)" fill="#173039"/>
        <path id="Path_2757" data-name="Path 2757" d="M250.854,45.889l-16.409-9.343L213.8,72.314l16.4,9.345Z" transform="translate(-13.102 36.488)" fill="#2672ab"/>
        <path id="Path_2758" data-name="Path 2758" d="M235.929,41.656l-1.485-.869L213.8,76.554l1.475.871Z" transform="translate(1.822 40.721)" fill="#084c94"/>
        <path id="Path_2759" data-name="Path 2759" d="M349.2,263.623a1.5,1.5,0,0,0,1.5-1.451l.172-5.316a1.531,1.531,0,0,0-.032-.356L315.92,89.35a9.993,9.993,0,0,0-19.363-.691L262.247,212.34a1.5,1.5,0,0,0,2.89.8l34.3-123.663a6.994,6.994,0,0,1,13.545.5l34.876,166.965-.166,5.136a1.5,1.5,0,0,0,1.451,1.549Z" transform="translate(-209.833 81.332)" fill="#173039"/>
        <path id="Path_2760" data-name="Path 2760" d="M226.6,22.452h0a11.7,11.7,0,0,1,11.7,11.7V69.986c0,3.763-5.24,6.815-11.7,6.815s-11.7-3.052-11.7-6.815c0-.032,0-.064,0-.094h0V34.155a11.7,11.7,0,0,1,11.7-11.7" transform="translate(-2.768 22.416)" fill="#2d5e70"/>
        <path id="Path_2761" data-name="Path 2761" d="M198.151,189.793h90.356v6.463c0,14.53-20.228,26.309-45.178,26.309s-45.178-11.779-45.178-26.309c0-.122.012-.242.016-.362h-.016Z" transform="translate(-19.492 189.49)" fill="#2d5e70"/>
        <path id="Path_2762" data-name="Path 2762" d="M288.506,203.028c0,14.53-20.224,26.309-45.176,26.309s-45.178-11.779-45.178-26.309,20.228-26.309,45.178-26.309,45.176,11.779,45.176,26.309" transform="translate(-19.493 176.437)" fill="#438ca7"/>
        <path id="Path_2763" data-name="Path 2763" d="M243.329,215.9c24.68,0,44.724-11.527,45.156-25.837.006.158.022.312.022.47,0,14.53-20.228,26.309-45.178,26.309s-45.178-11.779-45.178-26.309c0-.158.016-.312.02-.47.434,14.311,20.478,25.837,45.158,25.837" transform="translate(-19.492 189.763)" fill="#72b5e8"/>
        <path id="Path_2764" data-name="Path 2764" d="M220.746,176.463H250.51s14.882,23.213,14.882,23.3c0,9.572-13.325,17.332-29.764,17.332s-29.764-7.76-29.764-17.332c0-.082,14.882-23.3,14.882-23.3" transform="translate(-11.791 176.181)" fill="#2d5e70"/>
        <path id="Path_2765" data-name="Path 2765" d="M243.075,180.823c0,4.786-6.663,8.667-14.882,8.667s-14.882-3.881-14.882-8.667,6.663-8.667,14.882-8.667,14.882,3.881,14.882,8.667" transform="translate(-4.356 171.881)" fill="#438ca7"/>
        <path id="Path_2766" data-name="Path 2766" d="M228.193,185.065c8.129,0,14.732-3.8,14.876-8.511,0,.052.006.1.006.154,0,4.788-6.663,8.667-14.882,8.667s-14.882-3.879-14.882-8.667c0-.052.006-.1.006-.154.144,4.714,6.747,8.511,14.876,8.511" transform="translate(-4.356 176.272)" fill="#72b5e8"/>
        <path id="Path_2767" data-name="Path 2767" d="M214.907,55.283h23.387V296.616c0,3.761-5.236,6.809-11.695,6.809s-11.693-3.048-11.693-6.809c0-.032,0-.062,0-.094h0Z" transform="translate(-2.765 55.195)" fill="#2d5e70"/>
        <path id="Path_2768" data-name="Path 2768" d="M238.224,127.672c4.568,1.2,10.026-.016,15.484-3.169A49.129,49.129,0,0,0,267.9,111.519c6.225-8.223,13.441-14.836,20.861-19.119l85.248-49.219,9.908,5.757-85.25,49.219c-7.418,4.283-14.636,10.893-20.859,19.119a49.159,49.159,0,0,1-14.195,12.984c-5.46,3.151-10.913,4.369-15.484,3.169l-16.5,12.214-9.906-5.757Z" transform="translate(-162.001 43.113)" fill="#438ca7"/>
        <path id="Path_2769" data-name="Path 2769" d="M316.078,91.218l-16.5,12.214-9.906-5.757,16.5-12.214Z" transform="translate(-229.949 85.324)" fill="#71afc6"/>
        <path id="Path_2770" data-name="Path 2770" d="M221.72,111.519c6.225-8.223,13.441-14.836,20.861-19.119l85.248-49.219,9.906,5.757L252.487,98.158c-7.418,4.283-14.636,10.893-20.861,19.119Z" transform="translate(-115.821 43.113)" fill="#71afc6"/>
        <path id="Path_2771" data-name="Path 2771" d="M288.732,95.282c-7.418,4.283-14.636,10.9-20.859,19.119a49.159,49.159,0,0,1-14.195,12.984c-5.458,3.151-10.913,4.369-15.484,3.169l-16.5,12.214,9.67,2.526c6.6,1.751,14.488-.016,22.37-4.566A71.037,71.037,0,0,0,274.218,122a50.486,50.486,0,0,1,14.552-13.343l85.27-41.9-.058-20.693Z" transform="translate(-152.066 45.989)" fill="#2d5e70"/>
        <path id="Path_2772" data-name="Path 2772" d="M216.269,29.706a5.639,5.639,0,1,0,5.639-5.639,5.64,5.64,0,0,0-5.639,5.639" transform="translate(5.26 24.029)" fill="#71afc6"/>
        <path id="Path_2773" data-name="Path 2773" d="M370.882,166.6c0,24.388-25.877,44.159-57.8,44.159s-57.8-19.77-57.8-44.159Z" transform="translate(-216.045 166.329)" fill="#71afc6"/>
        <path id="Path_2774" data-name="Path 2774" d="M378.021,162.7H252.981v5.33c0,20.108,27.992,36.409,62.52,36.409s62.52-16.3,62.52-36.409c0-.168-.018-.334-.022-.5h.022Z" transform="translate(-218.579 162.441)" fill="#a8cedc"/>
        <path id="Path_2775" data-name="Path 2775" d="M252.982,181.015c0,20.108,27.994,36.407,62.52,36.407s62.52-16.3,62.52-36.407-27.99-36.407-62.52-36.407-62.52,16.3-62.52,36.407" transform="translate(-218.582 144.377)" fill="#f0f8ff"/>
        <path id="Path_2776" data-name="Path 2776" d="M255.626,179.558c0,18.407,25.626,33.329,57.234,33.329s57.234-14.922,57.234-33.329-25.625-33.329-57.234-33.329-57.234,14.922-57.234,33.329" transform="translate(-215.938 145.995)" fill="#438ca7"/>
        <path id="Path_2777" data-name="Path 2777" d="M284.766,170.781a1,1,0,0,0,.943-.675,7.665,7.665,0,0,1,2.242-2.592,1,1,0,1,0-1.287-1.527,9.562,9.562,0,0,0-2.844,3.471,1,1,0,0,0,.62,1.267.98.98,0,0,0,.326.056m7.534-6.339a1,1,0,0,0,.472-.12c1.107-.594,2.294-1.159,3.525-1.683a1,1,0,1,0-.781-1.837c-1.287.544-2.528,1.137-3.687,1.759a1,1,0,0,0,.472,1.88m9.251-3.731a1,1,0,0,0,.284-.042q1.8-.534,3.807-.987a1,1,0,0,0-.442-1.948q-2.065.468-3.933,1.019a1,1,0,0,0,.284,1.958m9.768-2.046a.977.977,0,0,0,.132-.008q1.894-.252,3.919-.41a1,1,0,0,0-.152-1.99q-2.08.159-4.029.418a1,1,0,0,0,.13,1.99m9.962-.644h.12a1,1,0,1,0,0-2,1.053,1.053,0,0,0-1.061,1,.952.952,0,0,0,.941,1" transform="translate(-224.478 155.774)" fill="#2d5e70"/>
        <path id="Path_2778" data-name="Path 2778" d="M312.86,153.29c29.56,0,53.883,13.052,56.912,29.8a19.82,19.82,0,0,0,.322-3.531c0-18.405-25.625-33.327-57.234-33.327s-57.234,14.922-57.234,33.327a19.818,19.818,0,0,0,.322,3.531c3.03-16.747,27.352-29.8,56.913-29.8" transform="translate(-215.938 145.996)" fill="#71afc6"/>
        <g id="Group_902" data-name="Group 902" transform="translate(34.402 325.9)" style="mix-blend-mode: color-dodge;isolation: isolate">
          <g id="Group_901" data-name="Group 901">
            <g id="Group_900" data-name="Group 900" clip-path="url(#clip-path-4)">
              <path id="Path_2779" data-name="Path 2779" d="M315.5,198.836c-34.155,0-61.893-15.951-62.492-35.757-.006.218-.028.434-.028.651,0,20.108,27.992,36.409,62.52,36.409s62.52-16.3,62.52-36.409c0-.218-.022-.434-.028-.651-.6,19.806-28.337,35.757-62.492,35.757" transform="translate(-252.981 -163.081)" fill="#fff"/>
            </g>
          </g>
        </g>
        <path id="Path_2780" data-name="Path 2780" d="M269.727,176.535a1.5,1.5,0,0,0,.132-2.992l-1.337-.122a3.3,3.3,0,0,1-2.9-2.468l-.276-1.087a1.5,1.5,0,1,0-2.9.741l.276,1.087a6.3,6.3,0,0,0,5.53,4.712l1.339.122c.044,0,.092.006.136.006" transform="translate(-130.602 168.469)" fill="#173039"/>
        <path id="Path_2781" data-name="Path 2781" d="M271.537,169.429a5.882,5.882,0,0,1,.272,1.847v8.146l-8.891,5.134-.376,2.924-2.244-1.411v-8.145a12.689,12.689,0,0,1,5.755-9.928,4.231,4.231,0,0,1,3.813-.534l0,0,.026.016a2.69,2.69,0,0,1,.607.368L272.4,169Zm-3.046,1.523-1.487.743-3.032,4.652-.4,3.116a2.45,2.45,0,0,0,2.48-.242,7.687,7.687,0,0,0,3.489-6.017,2.4,2.4,0,0,0-1.051-2.252" transform="translate(-127.584 166.942)" fill="#a8cedc"/>
        <path id="Path_2782" data-name="Path 2782" d="M270.984,171.985v8.145l-11.511,6.647v-8.146a12.684,12.684,0,0,1,5.755-9.928c3.179-1.835,5.755-.366,5.755,3.281m-2.266,1.928c0-2.212-1.563-3.1-3.489-1.988a7.687,7.687,0,0,0-3.489,6.017c0,2.212,1.563,3.1,3.489,1.99a7.691,7.691,0,0,0,3.489-6.019" transform="translate(-124.515 167.645)" fill="#71afc6"/>
        <path id="Path_2783" data-name="Path 2783" d="M311.53,263.621a1.5,1.5,0,0,0,1.5-1.451l.172-5.316a1.531,1.531,0,0,0-.032-.356L278.254,89.348a9.776,9.776,0,0,0-5.909-7.14,10.322,10.322,0,0,0-9.486.925,1.5,1.5,0,1,0,1.667,2.492,7.277,7.277,0,0,1,6.7-.637,6.718,6.718,0,0,1,4.1,4.984L310.2,256.936l-.166,5.136a1.5,1.5,0,0,0,1.451,1.549Z" transform="translate(-172.167 81.333)" fill="#173039"/>
        <path id="Path_2784" data-name="Path 2784" d="M314.462,145.846a5.878,5.878,0,0,1,.272,1.847v8.145l-8.891,5.134-.376,2.924-2.244-1.411v-8.146a12.684,12.684,0,0,1,5.755-9.928,4.234,4.234,0,0,1,3.815-.534l0,0,.026.016a2.738,2.738,0,0,1,.608.368l1.9,1.153Zm-3.046,1.523-1.487.743-3.032,4.652-.4,3.115a2.45,2.45,0,0,0,2.48-.242,7.687,7.687,0,0,0,3.489-6.017,2.4,2.4,0,0,0-1.051-2.252" transform="translate(-256.291 143.397)" fill="#a8cedc"/>
        <path id="Path_2785" data-name="Path 2785" d="M313.909,148.4v8.143L302.4,163.194v-8.146a12.677,12.677,0,0,1,5.755-9.926c3.178-1.837,5.755-.368,5.755,3.281m-2.266,1.926c0-2.21-1.563-3.1-3.489-1.988a7.687,7.687,0,0,0-3.489,6.017c0,2.212,1.563,3.1,3.489,1.99a7.691,7.691,0,0,0,3.489-6.019" transform="translate(-253.221 144.101)" fill="#71afc6"/>
        <path id="Path_2786" data-name="Path 2786" d="M303.957,151.611a7.322,7.322,0,0,0,5.168-2.126l2.058-2.06a1.5,1.5,0,0,0-2.118-2.12l-2.06,2.06a4.3,4.3,0,0,1-4.442,1.013,1.5,1.5,0,1,0-.987,2.83,7.2,7.2,0,0,0,2.382.4" transform="translate(-247.281 144.634)" fill="#173039"/>
        <path id="Path_2787" data-name="Path 2787" d="M249.48,36.709l-4.6-2.742L218.239,80.114l4.6,2.742Z" transform="translate(-20.608 33.913)" fill="#438ca7"/>
        <path id="Path_2788" data-name="Path 2788" d="M231.455,35.339,204.813,81.486,231.629,96.77l26.657-46.155Z" transform="translate(-2.583 35.283)" fill="#173039"/>
        <path id="Path_2789" data-name="Path 2789" d="M245.979,48.764,229.57,39.421,208.92,75.189l16.4,9.345Z" transform="translate(1.515 39.358)" fill="#71afc6"/>
        <path id="Path_2790" data-name="Path 2790" d="M231.054,44.531l-1.485-.869L208.92,79.429l1.475.871Z" transform="translate(16.439 43.592)" fill="#438ca7"/>
        <path id="Path_2791" data-name="Path 2791" d="M217.021,254.281v30.482A6.593,6.593,0,0,1,206.7,290.2l-88.265-67.23v-54.3a4.418,4.418,0,0,1,6.914-3.645l75.342,58.287a37.527,37.527,0,0,1,16.327,30.963" transform="translate(211.292 163.987)" fill="#438ca7"/>
        <path id="Path_2792" data-name="Path 2792" d="M135.888,330.056V299.574a37.524,37.524,0,0,0-16.327-30.963L44.22,210.324a4.349,4.349,0,0,0-4.307-.374l156.9-90.656a4.356,4.356,0,0,1,4.327.366l75.342,58.289a37.521,37.521,0,0,1,16.327,30.961v30.482a6.549,6.549,0,0,1-4.3,6.185L132.219,336.055l-.074-.066a6.521,6.521,0,0,0,3.743-5.933" transform="translate(292.425 118.695)" fill="#71afc6"/>
        <path id="Path_2793" data-name="Path 2793" d="M211.274,285.693V255.211a37.524,37.524,0,0,0-16.327-30.963l-75.342-58.287a4.331,4.331,0,0,0-2.784-.763,4.412,4.412,0,0,1,6.013-.975l75.342,58.287A37.524,37.524,0,0,1,214.5,253.473v30.482a6.572,6.572,0,0,1-5.212,6.447,6.477,6.477,0,0,0,1.982-4.708" transform="translate(217.039 163.182)" fill="#a8cedc"/>
        <path id="Path_2794" data-name="Path 2794" d="M133.016,224.442l-3.539-2.358.807,3.851Z" transform="translate(273.237 221.729)" fill="#03336e"/>
        <path id="Path_2795" data-name="Path 2795" d="M209.133,277.3V249.945c0-8.889-5.41-21.381-14.458-27.576l-62.392-56.753a3.853,3.853,0,0,0-3.815-.332l2.426-1.539a3.855,3.855,0,0,1,3.833.324l62.392,56.755c9.049,6.193,14.458,18.685,14.458,27.576v35.7l2.452-1.107,2.048,1.489-6.944,3.893-3.315-5.821a5.772,5.772,0,0,0,3.315-5.254" transform="translate(192.191 163.121)" fill="#2d5e70"/>
        <path id="Path_2796" data-name="Path 2796" d="M214.917,249.175V287.6l-71.2-38.971a27.079,27.079,0,0,1-11.773-22.338V168.074a3.913,3.913,0,0,1,6.123-3.229L200.458,221.6c9.049,6.2,14.458,18.685,14.458,27.576" transform="translate(186.408 163.892)" fill="#173039"/>
        <g id="Group_905" data-name="Group 905" transform="translate(414.395 300.16)" opacity="0.5">
          <g id="Group_904" data-name="Group 904">
            <g id="Group_903" data-name="Group 903" clip-path="url(#clip-path-5)">
              <path id="Path_2797" data-name="Path 2797" d="M42.045,233.83a41.759,41.759,0,0,1,18.181,34.478v26.984l146.535-84.85.332-.122a2.306,2.306,0,0,0,1.535-2.192V177.645A33.252,33.252,0,0,0,194.155,150.2Z" transform="translate(-42.045 -150.201)" fill="#438ca7"/>
            </g>
          </g>
        </g>
        <path id="Path_2798" data-name="Path 2798" d="M42.046,248.52v33.062l146.535-84.85.332-.124a2.306,2.306,0,0,0,1.535-2.192V163.934Z" transform="translate(390.528 163.672)" fill="#438ca7"/>
        <path id="Path_2799" data-name="Path 2799" d="M184.419,240.619l.332-.124a2.3,2.3,0,0,0,1.535-2.192V207.822a33.242,33.242,0,0,0-14.472-27.446l-75.34-58.289L94.4,120.911l1.916-1.1,4.319,2.448,75.342,58.287a33.244,33.244,0,0,1,14.472,27.446v30.482a2.3,2.3,0,0,1-1.535,2.192l-.332.124L42.045,325.638v-2.57Z" transform="translate(390.531 119.617)" fill="#a8cedc"/>
        <path id="Path_2800" data-name="Path 2800" d="M97.225,220.4,75.5,203.576l135.907-79.227,22.32,17.232a4.787,4.787,0,0,1-.29,8.09l-122.19,71.237a13.139,13.139,0,0,1-14.023-.506" transform="translate(278.305 124.15)" fill="#173039"/>
        <path id="Path_2801" data-name="Path 2801" d="M169.132,173.426v18.687l-119.7,69.508V242.7Z" transform="translate(397.089 173.149)" fill="#173039"/>
        <g id="Group_908" data-name="Group 908" transform="translate(446.517 347.099)" style="mix-blend-mode: multiply;isolation: isolate">
          <g id="Group_907" data-name="Group 907">
            <g id="Group_906" data-name="Group 906" clip-path="url(#clip-path-6)">
              <path id="Path_2802" data-name="Path 2802" d="M166.152,190.608V175.4l2.98-1.715v18.163L49.429,261.36v-2.968Z" transform="translate(-49.428 -173.688)" fill="#9d9eb3"/>
            </g>
          </g>
        </g>
        <path id="Path_2803" data-name="Path 2803" d="M116.022,175.93a6.28,6.28,0,0,0,6.135.29l9.984-5.727c1.725-.989,1.771-2.722.106-3.871a6.281,6.281,0,0,0-6.135-.29l-9.984,5.727c-1.725.989-1.771,2.722-.106,3.871" transform="translate(302.112 165.403)" fill="#173039"/>
        <path id="Path_2804" data-name="Path 2804" d="M125.847,181.567a6.28,6.28,0,0,0,6.135.29l9.984-5.727c1.723-.989,1.771-2.722.106-3.871a6.281,6.281,0,0,0-6.135-.29l-9.986,5.727c-1.723.989-1.769,2.722-.1,3.871" transform="translate(272.652 171.031)" fill="#173039"/>
        <path id="Path_2805" data-name="Path 2805" d="M116.127,171.436l9.984-5.727a6.281,6.281,0,0,1,6.135.29c1.667,1.149,1.619,2.882-.1,3.869l-9.984,5.729a6.289,6.289,0,0,1-6.137-.29c-1.665-1.149-1.617-2.882.106-3.871" transform="translate(302.113 164.781)" fill="#eb4680"/>
        <path id="Path_2806" data-name="Path 2806" d="M125.951,177.074l9.984-5.727a6.28,6.28,0,0,1,6.135.29c1.667,1.149,1.619,2.882-.1,3.869l-9.984,5.729a6.291,6.291,0,0,1-6.135-.29c-1.667-1.149-1.619-2.882.1-3.871" transform="translate(272.654 170.409)" fill="#2d5e70"/>
        <path id="Path_2807" data-name="Path 2807" d="M125.833,178.885a6.28,6.28,0,0,0,6.135.29l9.984-5.727a2.443,2.443,0,0,0,1.263-1.537,2.133,2.133,0,0,1-1.263,2.366l-9.984,5.729a6.291,6.291,0,0,1-6.135-.29,2.258,2.258,0,0,1-1.157-2.334,2.7,2.7,0,0,0,1.157,1.5" transform="translate(272.667 171.636)" fill="#71afc6"/>
        <path id="Path_2808" data-name="Path 2808" d="M116.007,173.248a6.28,6.28,0,0,0,6.135.29l9.984-5.727a2.443,2.443,0,0,0,1.263-1.537,2.136,2.136,0,0,1-1.263,2.368l-9.984,5.727a6.286,6.286,0,0,1-6.135-.29,2.258,2.258,0,0,1-1.157-2.334,2.7,2.7,0,0,0,1.157,1.5" transform="translate(302.126 166.008)" fill="#f76195"/>
        <path id="Path_2809" data-name="Path 2809" d="M28.345,192.535v7.712l3.249-1.982v-7.712Z" transform="translate(576.759 190.248)" fill="#a8cedc"/>
        <path id="Path_2810" data-name="Path 2810" d="M71.533,203.639v7.712L29.96,187.116V179.43Z" transform="translate(533.595 179.144)" fill="#71afc6"/>
        <path id="Path_2811" data-name="Path 2811" d="M28.346,180.433l41.573,24.209,3.225-1.982L31.527,178.425Z" transform="translate(535.21 178.14)" fill="#f5f5f5"/>
        <path id="Path_2812" data-name="Path 2812" d="M24.016,262.379v3.851L140.1,200.5v-3.851Z" transform="translate(476.908 196.332)" fill="#a8cedc"/>
        <path id="Path_2813" data-name="Path 2813" d="M135.8,245.167v3.851L82.089,217.7v-3.817Z" transform="translate(365.15 213.544)" fill="#71afc6"/>
        <path id="Path_2814" data-name="Path 2814" d="M24.015,246.742,77.73,278.023,193.785,212.29l-53.773-31.313Z" transform="translate(423.222 180.688)" fill="#f5f5f5"/>
        <path id="Path_2815" data-name="Path 2815" d="M87.15,226.549v7.712l3.249-1.982v-7.712Z" transform="translate(400.44 224.208)" fill="#a8cedc"/>
        <path id="Path_2816" data-name="Path 2816" d="M130.337,237.653v7.712L88.764,221.13v-7.686Z" transform="translate(357.276 213.104)" fill="#71afc6"/>
        <path id="Path_2817" data-name="Path 2817" d="M87.15,214.448l41.573,24.209,3.225-1.982L90.331,212.439Z" transform="translate(358.891 212.1)" fill="#f5f5f5"/>
        <path id="Path_2818" data-name="Path 2818" d="M84.7,173.436v61.193l134.514-76.167v-61.2Z" transform="translate(276.52 97.112)" fill="#a8cedc"/>
        <path id="Path_2819" data-name="Path 2819" d="M155.637,136.337V197.53l-3.643-1.948V134.426Z" transform="translate(205.618 134.212)" fill="#71afc6"/>
        <path id="Path_2820" data-name="Path 2820" d="M84.7,172.5l3.643,1.91L222.823,98.24l-3.709-1.948Z" transform="translate(272.911 96.138)" fill="#f5f5f5"/>
        <path id="Path_2821" data-name="Path 2821" d="M88.837,172.261v53.613l116.241-65.821V106.439Z" transform="translate(282.391 106.269)" fill="#fff"/>
        <path id="Path_2822" data-name="Path 2822" d="M105.611,307.087l109.816-63.4L109.814,180.742,0,244.143Z" transform="translate(449.574 180.453)" fill="#92b4d1"/>
        <path id="Path_2823" data-name="Path 2823" d="M105.465,304.453l109.816-63.4-105.348-60.4L.12,244.052Z" transform="translate(449.479 180.362)" fill="#fff"/>
        <path id="Path_2824" data-name="Path 2824" d="M84.219,212.027,86.2,213.17l-3.981,2.3-1.976-1.143Zm20.713-4.756L78.493,222.51l-1.978-1.141,26.439-15.24Zm-7.692,7.05,1.978,1.143L87.99,221.921l-1.976-1.141Zm12.2.13L89.323,226.037,87.346,224.9l20.112-11.589ZM57.594,227.368,78.531,215.31l1.978,1.143L59.572,228.511ZM68.313,231l15.993-9.233,1.978,1.141-15.993,9.235Zm56.966-35.522-18.643,10.809-1.976-1.141L123.3,194.335Zm-14.139,17.99-1.976-1.143,8.761-5.1,1.978,1.143Zm-1.421-13.855L87.9,212.185l-1.978-1.143,21.819-12.572ZM98.947,213.336l18.285-10.6,1.978,1.143-18.285,10.6Zm19.992-11.589,19.868-11.523,1.976,1.143L120.917,202.89Zm6.069-8.4,9.56-5.572,1.978,1.141-9.562,5.574ZM57.866,229.5l-7.084,4.089L48.8,232.444l7.086-4.091Zm86.857-35.518-23.114,13.4-1.976-1.143,23.114-13.4ZM76.787,223.5,55.02,236.033l-1.978-1.143,21.767-12.536Zm-8.2,9.628-9.327,5.356-1.978-1.141,9.327-5.356Zm17.744-5.35L63.5,240.928l-1.978-1.143,22.832-13.152Z" transform="translate(422.75 187.478)" fill="#2d5e70"/>
        <path id="Path_2825" data-name="Path 2825" d="M67.151,217.977l1.978,1.141-3.981,2.3-1.978-1.141Zm20.715-4.758L61.425,228.46l-1.976-1.143,26.439-15.24Zm-7.692,7.052,1.978,1.141-11.229,6.459-1.978-1.143Zm12.2.128L72.257,231.987l-1.978-1.143,20.114-11.587Zm-51.843,12.92L61.465,221.26l1.976,1.141L42.506,234.459Zm10.719,3.629,15.993-9.235,1.978,1.141-16,9.235Zm56.964-35.522L89.571,212.235l-1.978-1.143,18.643-10.809Zm7.954,10.09-27.1,15.693-1.978-1.143,27.1-15.691ZM87.359,228.194,67.247,239.781l-1.978-1.141L85.38,227.051Zm6.717-8.781L92.1,218.272l8.763-5.1,1.976,1.141Zm-1.421-13.853L70.836,218.132l-1.978-1.141,21.819-12.572ZM81.879,219.286l18.287-10.6,1.978,1.141-18.287,10.6ZM101.873,207.7l19.866-11.523,1.978,1.141-19.868,11.523Zm6.067-8.4,9.562-5.574,1.976,1.143-9.56,5.572ZM40.8,235.445l-7.084,4.091-1.978-1.143,7.084-4.089Zm77.072-24.914-1.978-1.141,14.323-8.321,1.978,1.141Zm9.784-10.6-23.114,13.4-1.978-1.141,23.114-13.4ZM65.54,240.766l-14.872,8.557-1.976-1.143,14.87-8.555Zm-5.819-11.321L37.954,241.981l-1.978-1.141L57.742,228.3Zm-8.2,9.628-9.327,5.356-1.978-1.143,9.327-5.356Zm17.744-5.35L46.429,246.876l-1.976-1.141,22.832-13.154ZM92.974,227.6l1.978,1.141L83.723,235.2l-1.976-1.141Zm12.2.13L85.056,239.314l-1.978-1.141,20.114-11.589ZM64.047,244.274l15.993-9.235,1.978,1.143-15.993,9.233Zm42.828-17.532L104.9,225.6l8.761-5.1,1.976,1.141Zm-12.194-.13,18.285-10.6,1.978,1.141L96.657,227.755Zm19.992-11.589L134.541,203.5l1.976,1.143-19.868,11.523Zm25.783-7.768-23.114,13.4-1.978-1.143,23.113-13.4ZM64.319,246.4l-9.327,5.356-1.978-1.141,9.327-5.356Zm17.744-5.35L59.231,254.2l-1.978-1.143,22.832-13.154Z" transform="translate(461.121 193.417)" fill="#2d5e70"/>
        <path id="Path_2826" data-name="Path 2826" d="M51.442,206.789l1.976,1.141-7.108,4.1-1.976-1.141Zm10.907.881L46.356,216.9l-1.978-1.141,15.993-9.235ZM26.634,221.111l15.993-9.235,1.978,1.143-15.993,9.233ZM45.8,224.77l16.823-9.712L64.6,216.2l-16.825,9.712Zm-18.895-1.533-4.382,2.532-1.978-1.143,4.382-2.53Zm17.744-5.35L26.76,228.216l-1.976-1.141,17.888-10.328Z" transform="translate(559.341 206.197)" fill="#2d5e70"/>
        <path id="Path_2827" data-name="Path 2827" d="M104.261,167.451a1,1,0,0,0,.61-1.793l-2.186-1.675a1,1,0,1,0-1.215,1.587l2.184,1.675a.991.991,0,0,0,.608.206m-6.944-5.32a1,1,0,0,0,.61-1.793l-3.173-2.432a1,1,0,1,0-1.215,1.587l3.171,2.432a1,1,0,0,0,.608.206m-7.932-6.077a1,1,0,0,0,.608-1.793l-3.171-2.43a1,1,0,1,0-1.215,1.587l3.171,2.43a1,1,0,0,0,.608.206m-7.932-6.077a1,1,0,0,0,.61-1.793l-3.173-2.43a1,1,0,0,0-1.217,1.587l3.173,2.43a1,1,0,0,0,.608.206M73.521,143.9a1,1,0,0,0,.608-1.791l-3.171-2.432a1,1,0,1,0-1.215,1.587l3.171,2.43a.991.991,0,0,0,.607.206m-7.932-6.077a1,1,0,0,0,.61-1.791L63.025,133.6a1,1,0,0,0-1.217,1.587l3.173,2.43a.991.991,0,0,0,.608.206m-7.932-6.075a1,1,0,0,0,.608-1.793l-3.171-2.432a1,1,0,1,0-1.215,1.587l3.171,2.43a.994.994,0,0,0,.608.208m-7.932-6.077a1,1,0,0,0,.61-1.793l-.2-.15v-2.764a1,1,0,0,0-2,0v3.749l.979.751a1,1,0,0,0,.608.206m-.588-9.7a1,1,0,0,0,1-1v-4a1,1,0,0,0-2,0v4a1,1,0,0,0,1,1" transform="translate(463.537 109.797)" fill="#71afc6"/>
        <path id="Path_2828" data-name="Path 2828" d="M221.057,341.347c.022,0,.044,0,.066,0,1.361-.088,2.728-.236,4.061-.444a1,1,0,0,0,.835-1.139,1.009,1.009,0,0,0-1.139-.835c-1.275.2-2.582.34-3.887.424a1,1,0,0,0,.064,2m-5.989-.016a1,1,0,0,0,.07-2,38.933,38.933,0,0,1-3.867-.47,1,1,0,0,0-.344,1.966c1.321.23,2.69.4,4.065.5.026,0,.05,0,.076,0m15.807-1.725a1.007,1.007,0,0,0,.284-.042c1.313-.39,2.61-.847,3.863-1.357a1,1,0,0,0-.753-1.85c-1.193.486-2.432.921-3.679,1.291a1,1,0,0,0,.286,1.958m-25.566-.276a1,1,0,0,0,.338-1.94,29.181,29.181,0,0,1-3.545-1.537,1,1,0,1,0-.917,1.776,31.453,31.453,0,0,0,3.787,1.643,1.045,1.045,0,0,0,.338.058M240,335.587a.982.982,0,0,0,.5-.134l3.461-2a1,1,0,0,0-1-1.729l-3.461,2a1,1,0,0,0,.5,1.862m-43.569-.8a1,1,0,0,0,.5-1.868l-3.471-1.98a1,1,0,0,0-.991,1.737l3.471,1.98a1.012,1.012,0,0,0,.5.132m52.218-4.2a.977.977,0,0,0,.5-.134l3.461-2a1,1,0,0,0-1-1.729l-3.461,2a1,1,0,0,0,.5,1.863m-60.9-.749a1,1,0,0,0,.5-1.867l-3.473-1.982a1,1,0,0,0-.991,1.739l3.473,1.98a1.009,1.009,0,0,0,.5.13m-8.679-4.952a1,1,0,0,0,.5-1.868l-3.471-1.98a1,1,0,1,0-.991,1.737l3.471,1.98a1.012,1.012,0,0,0,.5.132m-8.679-4.952a1,1,0,0,0,.5-1.867l-3.471-1.982a1,1,0,1,0-.991,1.737L169.9,319.8a1.009,1.009,0,0,0,.5.13m-8.679-4.952a1,1,0,0,0,.5-1.868l-3.471-1.98a1,1,0,1,0-.991,1.737l3.471,1.98a1.012,1.012,0,0,0,.5.132m-8.677-4.952a1,1,0,0,0,.5-1.868l-3.473-1.98a1,1,0,0,0-.991,1.739l3.473,1.98a1.009,1.009,0,0,0,.5.13m-8.679-4.952a1,1,0,0,0,.5-1.869l-3.471-1.98a1,1,0,0,0-.993,1.737l3.473,1.98a1.012,1.012,0,0,0,.5.132m-8.679-4.952a1,1,0,0,0,.5-1.866l-3.471-1.982a1,1,0,1,0-.991,1.737l3.471,1.982a1.01,1.01,0,0,0,.5.13" transform="translate(149.694 295.672)" fill="#cc9a28"/>
        <path id="Path_2829" data-name="Path 2829" d="M82.437,106.731a9.186,9.186,0,0,1-4.167,7.184,3.682,3.682,0,0,1-1.8.556c-1.3,0-2.106-1.063-2.106-2.778a9.186,9.186,0,0,1,4.167-7.184,3.682,3.682,0,0,1,1.8-.556c1.3,0,2.106,1.065,2.106,2.778" transform="translate(433.948 103.787)" fill="#71afc6"/>
        <path id="Path_2830" data-name="Path 2830" d="M138.008,311.96c0,1.821-2.534,3.3-5.657,3.3s-5.66-1.475-5.66-3.3,2.534-3.3,5.66-3.3,5.657,1.475,5.657,3.3" transform="translate(273.813 308.172)" fill="#cc9a28"/>
        <path id="Path_2831" data-name="Path 2831" d="M37.848,243.79c0,1.821-2.534,3.3-5.657,3.3s-5.659-1.475-5.659-3.3,2.534-3.3,5.659-3.3,5.657,1.475,5.657,3.3" transform="translate(574.132 240.111)" fill="#71afc6"/>
        <path id="Path_2832" data-name="Path 2832" d="M210.789,211.765c0,1.821-2.534,3.3-5.657,3.3s-5.66-1.475-5.66-3.3,2.534-3.3,5.66-3.3,5.657,1.475,5.657,3.3" transform="translate(55.586 208.137)" fill="#173039"/>
        <path id="Path_2833" data-name="Path 2833" d="M202.677,296.184l-7.124,4.748-4.748-8.072Z" transform="translate(81.019 292.393)" fill="#cc9a28"/>
        <path id="Path_2834" data-name="Path 2834" d="M254.39,208.36l-7.124,4.748-4.748-8.072Z" transform="translate(-74.037 204.709)" fill="#173039"/>
        <path id="Path_2835" data-name="Path 2835" d="M44.213,141.9l7.124-4.75,4.748,8.074Z" transform="translate(520.56 136.926)" fill="#71afc6"/>
        <path id="Path_2836" data-name="Path 2836" d="M83.911,271.19l-7.124-4.748-4.748,8.072Z" transform="translate(437.126 266.016)" fill="#71afc6"/>
        <path id="Path_2837" data-name="Path 2837" d="M30.678,294.509a.988.988,0,0,0,.5-.134l3.457-2a1,1,0,1,0-1-1.729l-3.457,2a1,1,0,0,0,.5,1.863m8.647-5a.977.977,0,0,0,.5-.134l3.461-2a1,1,0,1,0-1-1.729l-3.459,2a1,1,0,0,0,.5,1.863m8.653-5a1,1,0,0,0,.5-.134l3.457-2a1,1,0,1,0-1-1.729l-3.457,2a1,1,0,0,0,.5,1.862m8.647-5a.984.984,0,0,0,.5-.136l3.463-2a1,1,0,0,0-1-1.729l-3.459,2a1,1,0,0,0,.5,1.865m8.649-5a.979.979,0,0,0,.5-.136l3.463-2a1,1,0,0,0-1-1.729l-3.463,2a1,1,0,0,0,.5,1.865m8.653-5a1,1,0,0,0,.5-.136l3.457-2a1,1,0,1,0-1-1.729l-3.459,2A1,1,0,0,0,73.058,269a1.008,1.008,0,0,0,.869.5m8.649-5a1,1,0,0,0,.5-.136l3.461-2a1,1,0,1,0-1-1.729l-3.457,2a1,1,0,0,0,.5,1.865m8.651-5a.989.989,0,0,0,.5-.136l3.459-2a1,1,0,1,0-1-1.731l-3.461,2a1,1,0,0,0,.5,1.865m8.649-5a1,1,0,0,0,.5-.136l3.461-2a1,1,0,0,0-1-1.731l-3.461,2a1,1,0,0,0,.5,1.865m8.651-5a.992.992,0,0,0,.5-.134l3.459-2a1,1,0,0,0-1-1.731l-3.457,2a1,1,0,0,0,.5,1.865m8.647-5a.977.977,0,0,0,.5-.134l.685-.4a1,1,0,1,0-1-1.729l-.687.4a1,1,0,0,0,.5,1.865" transform="translate(486.834 241.708)" fill="#71afc6"/>
        <path id="Path_2838" data-name="Path 2838" d="M284.764,69.926c0-1.821,2.534-3.3,5.658-3.3s5.659,1.475,5.659,3.3-2.534,3.3-5.659,3.3-5.658-1.475-5.658-3.3" transform="translate(-200.154 66.525)" fill="#ffd70f"/>
        <path id="Path_2839" data-name="Path 2839" d="M244.7,46.715l7.124,4.748,4.748-8.074Z" transform="translate(-80.592 43.321)" fill="#ffd70f"/>
        <path id="Path_2840" data-name="Path 2840" d="M249.377,89.365a1,1,0,0,0,.5-.134l3.467-1.99a1,1,0,0,0-1-1.733l-3.467,1.99a1,1,0,0,0,.5,1.867m8.663-4.98a.993.993,0,0,0,.5-.132L262,82.26a1,1,0,0,0-1-1.733l-3.467,1.992a1,1,0,0,0,.5,1.865m8.665-4.978a.992.992,0,0,0,.5-.132l3.465-1.99a1,1,0,0,0-1-1.733l-3.465,1.99a1,1,0,0,0,.5,1.865m8.663-4.976a1,1,0,0,0,.5-.134l3.467-1.99a1,1,0,0,0-1-1.735l-3.467,1.992a1,1,0,0,0,.5,1.867m8.663-4.98a.993.993,0,0,0,.5-.132L288,67.326a1,1,0,0,0-1-1.733l-3.467,1.992a1,1,0,0,0,.5,1.864m8.663-4.978a.993.993,0,0,0,.5-.132l3.467-1.992a1,1,0,0,0-1-1.733L292.2,62.608a1,1,0,0,0,.5,1.865m8.665-4.978a.993.993,0,0,0,.5-.132l3.465-1.992a1,1,0,0,0-1-1.733l-3.463,1.99a1,1,0,0,0,.5,1.867m8.663-4.978a1,1,0,0,0,.5-.134l3.465-1.99a1,1,0,1,0-1-1.733l-3.465,1.99a1,1,0,0,0,.5,1.867m8.663-4.978a.993.993,0,0,0,.5-.132l3.465-1.992a1,1,0,1,0-1-1.733l-3.465,1.99a1,1,0,0,0,.5,1.867" transform="translate(-154.511 45.476)" fill="#ffd70f"/>
        <path id="Path_2841" data-name="Path 2841" d="M321.7,279.744c0-1.82,2.534-3.3,5.658-3.3s5.659,1.475,5.659,3.3-2.534,3.3-5.659,3.3-5.658-1.475-5.658-3.3" transform="translate(-310.9 276.007)" fill="#173039"/>
        <path id="Path_2842" data-name="Path 2842" d="M294.106,263.8l7.124,4.748,4.748-8.072Z" transform="translate(-228.72 260.06)" fill="#173039"/>
        <path id="Path_2843" data-name="Path 2843" d="M298.779,291.371a1.012,1.012,0,0,0,.5-.132l3.473-1.98a1,1,0,1,0-.993-1.737l-3.471,1.98a1,1,0,0,0,.5,1.869m8.679-4.954a1,1,0,0,0,.5-.13l3.471-1.98a1,1,0,1,0-.991-1.739l-3.471,1.982a1,1,0,0,0,.5,1.866m8.679-4.95a1.012,1.012,0,0,0,.5-.132l3.471-1.98a1,1,0,1,0-.991-1.737l-3.471,1.98a1,1,0,0,0,.5,1.869m8.679-4.952a1.008,1.008,0,0,0,.494-.13l3.473-1.982a1,1,0,0,0-.991-1.737l-3.473,1.982a1,1,0,0,0,.5,1.867m8.677-4.952a1.007,1.007,0,0,0,.5-.132l3.473-1.98a1,1,0,0,0-.991-1.737L333,269.694a1,1,0,0,0,.5,1.868m8.679-4.952a1.01,1.01,0,0,0,.5-.13l3.471-1.982a1,1,0,0,0,.374-1.363,1.011,1.011,0,0,0-1.365-.374l-3.471,1.982a1,1,0,0,0,.5,1.866" transform="translate(-276.729 262.215)" fill="#173039"/>
        <path id="Path_2844" data-name="Path 2844" d="M252.308,220.628h.012q2.017-.024,4.031-.12a1,1,0,0,0,.951-1.043.986.986,0,0,0-1.045-.951q-1.975.093-3.959.116a1,1,0,0,0,.01,2m-5.993-.08a1,1,0,0,0,.038-2q-1.978-.075-3.955-.224a1,1,0,0,0-.148,1.994q2.008.147,4.029.228Zm15.967-.476a.838.838,0,0,0,.1-.006q2.011-.2,4.007-.474a1,1,0,0,0,.855-1.123.987.987,0,0,0-1.123-.855q-1.963.267-3.937.464a1,1,0,0,0,.1,1.994m-25.921-.36a1,1,0,0,0,.124-1.99q-1.969-.252-3.913-.578a1,1,0,1,0-.33,1.97q1.981.33,3.991.59a.918.918,0,0,0,.128.008m35.805-1.085a1.076,1.076,0,0,0,.194-.018c1.327-.26,2.644-.54,3.947-.849a1,1,0,0,0,.741-1.2.983.983,0,0,0-1.2-.741q-1.916.45-3.871.829a1,1,0,0,0,.19,1.98m-45.639-.657a1,1,0,0,0,.222-1.972q-1.939-.447-3.835-.959a1,1,0,1,0-.524,1.928q1.93.528,3.915.977a.948.948,0,0,0,.222.026m55.342-1.739a1,1,0,0,0,.292-.044q1.945-.591,3.841-1.261a1,1,0,1,0-.663-1.884q-1.853.656-3.759,1.233a1,1,0,0,0,.29,1.956m-64.944-.993a1,1,0,0,0,.326-1.944q-1.88-.65-3.7-1.381a1,1,0,1,0-.745,1.853q1.861.749,3.791,1.417a.989.989,0,0,0,.326.056m-9.211-3.855a1,1,0,0,0,.448-1.892q-1.781-.887-3.471-1.865a1,1,0,0,0-1,1.733q1.742,1,3.575,1.918a1.007,1.007,0,0,0,.448.106" transform="translate(-27.728 207.162)" fill="#173039"/>
        <path id="Path_2845" data-name="Path 2845" d="M245.949,246.578h99.382v5.148c0,15.981-22.248,28.937-49.692,28.937s-49.69-12.956-49.69-28.937c0-.134.014-.266.018-.4h-.018Z" transform="translate(-171.836 246.184)" fill="#438ca7"/>
        <path id="Path_2846" data-name="Path 2846" d="M345.331,261.135c0,15.981-22.248,28.937-49.69,28.937s-49.692-12.956-49.692-28.937S268.2,232.2,295.641,232.2s49.69,12.956,49.69,28.937" transform="translate(-171.836 231.827)" fill="#a8cedc"/>
        <path id="Path_2847" data-name="Path 2847" d="M295.64,275.3c27.144,0,49.193-12.678,49.668-28.419.006.174.022.344.022.518,0,15.981-22.246,28.937-49.69,28.937s-49.69-12.956-49.69-28.937c0-.174.016-.344.022-.518.476,15.741,22.522,28.419,49.668,28.419" transform="translate(-171.837 246.485)" fill="#f5f5f5"/>
        <path id="Path_2848" data-name="Path 2848" d="M247.443,239.7h93.6v12.6c0,15.052-20.951,27.252-46.8,27.252s-46.8-12.2-46.8-27.252c0-.126.014-.25.016-.376h-.016Z" transform="translate(-170.529 239.32)" fill="#438ca7"/>
        <path id="Path_2849" data-name="Path 2849" d="M341.038,253.412c0,15.05-20.951,27.252-46.8,27.252s-46.8-12.2-46.8-27.252,20.951-27.252,46.8-27.252,46.8,12.2,46.8,27.252" transform="translate(-170.529 225.799)" fill="#a8cedc"/>
        <path id="Path_2850" data-name="Path 2850" d="M310.286,243.71c1.565,8.249-8.653,17.116-22.822,19.8s-26.92-1.826-28.485-10.076,8.653-17.116,22.822-19.8,26.92,1.825,28.485,10.076" transform="translate(-162.672 232.486)" fill="#71afc6" opacity="0.5"/>
        <path id="Path_2851" data-name="Path 2851" d="M294.238,266.751c25.568,0,46.331-11.939,46.779-26.765,0,.164.02.324.02.488,0,15.05-20.951,27.252-46.8,27.252s-46.795-12.2-46.795-27.252c0-.164.014-.324.02-.488.448,14.826,21.209,26.765,46.775,26.765" transform="translate(-170.527 239.603)" fill="#f5f5f5"/>
        <g id="Group_911" data-name="Group 911" transform="translate(3.419 489.853)" opacity="0.2" style="mix-blend-mode: multiply;isolation: isolate">
          <g id="Group_910" data-name="Group 910">
            <g id="Group_909" data-name="Group 909" clip-path="url(#clip-path-7)">
              <path id="Path_2852" data-name="Path 2852" d="M374.84,250.746l-9.674-5.624L287.2,290.134a19.319,19.319,0,0,0,19.366.028Z" transform="translate(-287.204 -245.123)" fill="#d1ebff"/>
            </g>
          </g>
        </g>
        <path id="Path_2853" data-name="Path 2853" d="M325.971,259.826a10.775,10.775,0,1,0,15.156,1.583,10.776,10.776,0,0,0-15.156-1.583" transform="translate(-321.984 257.009)" fill="#173039"/>
        <path id="Path_2854" data-name="Path 2854" d="M352.461,233.9l16.691,20.582-56.831,45.851,0,0c-.028.024-.052.048-.08.07-3.311,2.684-9.73.254-14.339-5.432s-5.661-12.466-2.352-15.15c.028-.022.058-.042.086-.064l0,0Z" transform="translate(-290.92 233.527)" fill="#2d5e70"/>
        <path id="Path_2855" data-name="Path 2855" d="M294.6,234.464c-3.309,2.684-2.256,9.466,2.352,15.15s11.029,8.116,14.339,5.432,2.256-9.466-2.352-15.15-11.029-8.116-14.338-5.432" transform="translate(-233.102 232.999)" fill="#71afc6"/>
        <path id="Path_2856" data-name="Path 2856" d="M304.019,228.979l9.928,12.242-16.155,13.1,0,0-.032.028c-1.984,1.609-5.8.164-8.543-3.217s-3.369-7.416-1.4-9.011l.036-.026.014-.014Z" transform="translate(-221.823 228.613)" fill="#173039"/>
        <path id="Path_2857" data-name="Path 2857" d="M262.072,258.789l39.922-31.942,4.8,6s.084.108.128.162c5.136,6.419.364,18.773-10.661,27.594S272.135,271.367,267,264.949c-.044-.054-.08-.112-.122-.166l-.008.006Z" transform="translate(-167.711 226.485)" fill="#438ca7"/>
        <path id="Path_2858" data-name="Path 2858" d="M306.493,228.777c5.136,6.419.364,18.775-10.661,27.6s-24.125,10.767-29.261,4.347-.364-18.775,10.66-27.6,24.127-10.765,29.263-4.347" transform="translate(-172.144 224.635)" fill="#71afc6"/>
        <path id="Path_2859" data-name="Path 2859" d="M293.443,254.352c10.905-8.725,15.685-20.9,10.817-27.38.058.068.12.132.176.2,5.136,6.421.364,18.775-10.659,27.6s-24.127,10.767-29.263,4.347c-.056-.068-.1-.144-.158-.214,5.252,6.171,18.182,4.177,29.087-4.548" transform="translate(-169.792 226.609)" fill="#fff"/>
        <path id="Path_2860" data-name="Path 2860" d="M267.205,250.8l31.081-24.868,3.737,4.668.1.126c4,5,.284,14.616-8.3,21.485s-18.783,8.381-22.782,3.383c-.034-.042-.062-.086-.1-.128l0,0Z" transform="translate(-172.715 225.573)" fill="#2d5e70"/>
        <path id="Path_2861" data-name="Path 2861" d="M301.79,227.437c4,5,.284,14.616-8.3,21.485s-18.783,8.381-22.782,3.383-.284-14.616,8.3-21.483,18.783-8.383,22.782-3.385" transform="translate(-176.168 224.132)" fill="#ffde17"/>
        <path id="Path_2862" data-name="Path 2862" d="M291.63,247.347c8.489-6.793,12.212-16.275,8.423-21.317.044.052.092.1.136.156,4,5,.282,14.618-8.3,21.485s-18.783,8.383-22.782,3.385c-.044-.054-.082-.112-.124-.168,4.089,4.8,14.157,3.251,22.646-3.541" transform="translate(-174.336 225.669)" fill="#fff"/>
        <path id="Path_2863" data-name="Path 2863" d="M268.177,240.045l34.812-27.854,4.185,5.23L323.6,237.956c4.48,5.6.318,16.371-9.295,24.063s-21.037,9.388-25.516,3.791c-.038-.048-.07-.1-.106-.146l-.006.006Z" transform="translate(-196.331 211.852)" fill="#438ca7"/>
        <path id="Path_2864" data-name="Path 2864" d="M315.078,213.874c4.478,5.6.318,16.371-9.3,24.063s-21.035,9.388-25.516,3.791-.316-16.371,9.3-24.063,21.037-9.388,25.516-3.791" transform="translate(-208.363 210.239)" fill="#71afc6"/>
        <path id="Path_2865" data-name="Path 2865" d="M303.7,236.175c9.508-7.608,13.677-18.227,9.432-23.875.05.058.1.114.154.174,4.478,5.6.316,16.373-9.3,24.063s-21.037,9.389-25.516,3.791c-.048-.06-.09-.126-.136-.188,4.578,5.382,15.853,3.643,25.362-3.965" transform="translate(-206.312 211.961)" fill="#f5f5f5"/>
        <path id="Path_2866" data-name="Path 2866" d="M279.951,234.873,311.032,210l3.737,4.67.1.126c4,5,.284,14.616-8.3,21.483s-18.783,8.383-22.782,3.385c-.034-.042-.062-.086-.1-.128l0,0Z" transform="translate(-210.933 209.668)" fill="#2d5e70"/>
        <path id="Path_2867" data-name="Path 2867" d="M314.535,211.507c4,5,.284,14.616-8.3,21.485s-18.783,8.381-22.782,3.385-.284-14.618,8.3-21.485,18.783-8.383,22.782-3.385" transform="translate(-214.383 208.228)" fill="#ffde17"/>
        <path id="Path_2868" data-name="Path 2868" d="M304.376,231.417c8.489-6.793,12.212-16.275,8.423-21.317.044.052.092.1.136.156,4,5,.282,14.618-8.3,21.485s-18.783,8.383-22.782,3.385c-.044-.056-.082-.112-.124-.168,4.089,4.8,14.157,3.251,22.646-3.541" transform="translate(-212.554 209.764)" fill="#fff"/>
        <path id="Path_2869" data-name="Path 2869" d="M279.95,236.445,319.872,204.5l4.8,6s.084.108.128.162c5.136,6.419.364,18.773-10.661,27.594s-24.125,10.767-29.261,4.348c-.044-.054-.08-.112-.122-.166l-.008,0Z" transform="translate(-221.316 204.176)" fill="#438ca7"/>
        <path id="Path_2870" data-name="Path 2870" d="M324.371,206.433c5.136,6.419.364,18.775-10.661,27.6s-24.125,10.767-29.261,4.346-.364-18.775,10.66-27.6,24.127-10.765,29.263-4.347" transform="translate(-225.75 202.326)" fill="#71afc6"/>
        <path id="Path_2871" data-name="Path 2871" d="M311.319,232.007c10.905-8.725,15.687-20.9,10.819-27.38.058.068.12.13.176.2,5.136,6.421.364,18.775-10.659,27.6s-24.127,10.767-29.263,4.347c-.056-.068-.1-.144-.158-.214,5.252,6.171,18.181,4.177,29.085-4.548" transform="translate(-223.398 204.3)" fill="#f5f5f5"/>
        <g id="Group_914" data-name="Group 914" transform="translate(200.618 456.708)" opacity="0.2">
          <g id="Group_913" data-name="Group 913">
            <g id="Group_912" data-name="Group 912" clip-path="url(#clip-path-8)">
              <path id="Path_2872" data-name="Path 2872" d="M270.949,390.987l99.357-57.944c6.415-3.7,5.611-10.172-1.8-14.448L218.6,232.074c-7.406-4.277-18.611-4.74-25.024-1.037L94.218,288.981c-6.413,3.7-5.61,10.172,1.8,14.448l149.91,86.521c7.406,4.277,18.609,4.74,25.024,1.037" transform="translate(-89.888 -228.536)" fill="#92b4d1"/>
            </g>
          </g>
        </g>
        <path id="Path_2873" data-name="Path 2873" d="M181.747,268.192c.062-1.872,1.543-3.795,4.153-5.394l12.21-7.476-2.594-.957c-5.763-2.124-6.469-6.543-1.159-9.9,5.41-3.417,14.638-4.432,20.484-2.278l2.942,1.085,12.21-7.476a25.972,25.972,0,0,1,9.962-3.251,25.621,25.621,0,0,1,11.685.943l10.709,4-65.068,39.844-10.709-4c-3.143-1.159-4.894-3.028-4.824-5.144m27.636-18.363c2.486-1.523,2.356-3.547-.288-4.52a12.1,12.1,0,0,0-9.289.989c-2.486,1.523-2.356,3.547.288,4.52a12.1,12.1,0,0,0,9.289-.989" transform="translate(39.452 231.916)" fill="#a8cff0"/>
        <path id="Path_2874" data-name="Path 2874" d="M270.75,389.837l99.408-57.986c6.379-3.683,5.58-10.116-1.787-14.369L218.825,231.169c-7.366-4.253-18.507-4.714-24.888-1.031L94.529,288.124c-6.379,3.683-5.578,10.116,1.787,14.37l149.546,86.311c7.366,4.253,18.509,4.714,24.888,1.031" transform="translate(110.233 227.288)" fill="#2d5e70"/>
        <path id="Path_2875" data-name="Path 2875" d="M270.75,388.813l9.458-5.517,89.951-52.469c6.379-3.683,5.58-10.116-1.787-14.369L218.825,230.145c-7.366-4.253-18.507-4.714-24.888-1.031L94.529,287.1c-6.379,3.683-5.578,10.116,1.787,14.371l149.546,86.311c7.366,4.253,18.509,4.714,24.888,1.031" transform="translate(110.233 226.266)" fill="#173039"/>
        <path id="Path_2876" data-name="Path 2876" d="M96.3,267.285,245.851,353.6c7.366,4.253,18.507,4.714,24.886,1.031l99.41-57.986c2.676-1.545,4.071-3.575,4.267-5.725.26,2.554-1.133,5.03-4.267,6.839l-99.41,57.988c-6.379,3.683-17.52,3.219-24.886-1.033L96.3,268.4c-4.277-2.468-6.323-5.669-6.053-8.645.268,2.644,2.308,5.37,6.053,7.532" transform="translate(110.244 259.338)" fill="#438ca7"/>
        <g id="Group_917" data-name="Group 917" transform="translate(210.6 459.398)" style="mix-blend-mode: multiply;isolation: isolate">
          <g id="Group_916" data-name="Group 916">
            <g id="Group_915" data-name="Group 915" clip-path="url(#clip-path-9)">
              <path id="Path_2877" data-name="Path 2877" d="M256.32,377.053l102.3-69.193-160.39-77.978L95.93,299.075Z" transform="translate(-95.931 -229.883)" fill="#d1ebff"/>
            </g>
          </g>
        </g>
        <path id="Path_2878" data-name="Path 2878" d="M257.287,375.99l102.3-69.193L199.2,228.819,96.9,298.012Z" transform="translate(111.77 228.454)" fill="#f0f8ff"/>
        <g id="Group_920" data-name="Group 920" transform="translate(214.171 456.4)" style="mix-blend-mode: multiply;isolation: isolate">
          <g id="Group_919" data-name="Group 919">
            <g id="Group_918" data-name="Group 918" clip-path="url(#clip-path-10)">
              <path id="Path_2879" data-name="Path 2879" d="M249.475,380.841l108.048-62.382L201.5,228.383,93.456,290.763Z" transform="translate(-93.455 -228.382)" fill="#d1ebff"/>
            </g>
          </g>
        </g>
        <path id="Path_2880" data-name="Path 2880" d="M249.305,378.817l106.958-61.753L201.817,227.894,94.857,289.646Z" transform="translate(119.175 227.53)" fill="#fff"/>
        <g id="Group_923" data-name="Group 923" transform="translate(221.771 465.265)" style="mix-blend-mode: multiply;isolation: isolate">
          <g id="Group_922" data-name="Group 922">
            <g id="Group_921" data-name="Group 921" clip-path="url(#clip-path-11)">
              <path id="Path_2881" data-name="Path 2881" d="M182.129,266.408c.184-2.12,1.733-4.131,4.341-5.635l12.2-7.044-2.422-1.4c-5.378-3.1-5.757-8.211-.444-11.393,5.412-3.239,14.321-3.291,19.776-.142l2.746,1.585,12.2-7.042a21.157,21.157,0,0,1,9.764-2.508,21.6,21.6,0,0,1,11.131,2.47l9.99,4.706L196.4,277.543l-9.992-4.708c-2.932-1.693-4.484-4.027-4.275-6.427m27.71-17.58c2.484-1.435,2.5-3.751.028-5.176a9.9,9.9,0,0,0-8.965.016c-2.484,1.433-2.5,3.751-.028,5.176a9.91,9.91,0,0,0,8.965-.016" transform="translate(-182.111 -232.819)" fill="#d1ebff"/>
            </g>
          </g>
        </g>
        <path id="Path_2882" data-name="Path 2882" d="M181.771,265.334c.184-2.12,1.733-4.131,4.341-5.636l12.2-7.044-2.422-1.4c-5.378-3.1-5.757-8.211-.444-11.393,5.412-3.239,14.321-3.291,19.776-.142l2.746,1.585,12.2-7.042a21.158,21.158,0,0,1,9.764-2.508,21.6,21.6,0,0,1,11.131,2.47l9.99,5.827-65.016,37.536-9.992-5.827c-2.932-1.693-4.484-4.027-4.275-6.427m27.71-17.58c2.484-1.433,2.5-3.751.028-5.176a9.9,9.9,0,0,0-8.965.016c-2.484,1.433-2.5,3.751-.028,5.176a9.91,9.91,0,0,0,8.965-.016" transform="translate(40.733 231.374)" fill="#a8cff0"/>
        <path id="Path_2883" data-name="Path 2883" d="M208.49,237.212a9.9,9.9,0,0,1,8.965-.016c1.451.837,2.038,1.982,1.777,3.076a3.442,3.442,0,0,0-1.777-2.074,9.91,9.91,0,0,0-8.965.016,3.5,3.5,0,0,0-1.8,2.1c-.262-1.1.336-2.256,1.8-3.1" transform="translate(32.787 235.754)" fill="#d1ebff"/>
        <path id="Path_2884" data-name="Path 2884" d="M217.383,243.733l2.422,1.4-.867.5-1.555-.9c-3.034-1.751-4.474-4.139-4.2-6.459.188,1.992,1.6,3.959,4.2,5.458" transform="translate(19.24 237.894)" fill="#d1ebff"/>
        <path id="Path_2885" data-name="Path 2885" d="M186.046,266.86l9.992,5.827,64.153-37.038.863.5-65.016,37.536-9.992-5.827c-2.932-1.693-4.484-4.027-4.277-6.427,0-.02.01-.042.012-.064.212,2.062,1.717,4.019,4.265,5.49" transform="translate(40.735 235.273)" fill="#72b5e8"/>
        <path id="Path_2886" data-name="Path 2886" d="M189.428,268.183l57-32.908-2.444-1.391-57,32.908Z" transform="translate(44.903 233.511)" fill="#d1ebff"/>
        <path id="Path_2887" data-name="Path 2887" d="M189.142,268.541l57-32.908-2.444-1.391-57,32.908Z" transform="translate(45.762 233.869)" fill="#72b5e8"/>
        <path id="Path_2888" data-name="Path 2888" d="M216.509,264.146l-2.632-1.519,5.3-3.058,2.632,1.519Zm-22.08,3.2,29.7-17.146,2.632,1.519-29.7,17.148Zm50.927-19.852-21.281,12.286-2.632-1.519,21.281-12.286ZM173.713,279.3l18.445-10.65,2.632,1.519-18.445,10.649Zm14.343-1.769,23.551-13.6,2.632,1.519-23.551,13.6Zm-13.979,4.6-5.518,3.185-2.632-1.521,5.518-3.185Zm70.917-37.472,9.426-5.444,2.632,1.521-9.426,5.442Zm-18.6,4.225,22.384-12.924,2.632,1.519L229.029,250.4Z" transform="translate(76.359 235.585)" fill="#cc9a28"/>
        <path id="Path_2889" data-name="Path 2889" d="M187.719,265.879l1.978,1.143-3.981,2.3-1.976-1.143Zm20.715-4.756L182,276.362l-1.978-1.141,26.439-15.24Zm-7.692,7.05,1.978,1.143-11.229,6.457-1.976-1.141Zm12.2.13-20.114,11.587-1.978-1.141L210.96,267.16ZM161.1,281.22l20.937-12.058,1.978,1.143-20.937,12.058Zm10.719,3.629,15.993-9.233,1.978,1.141-15.993,9.235Zm56.966-35.522-18.643,10.809L208.162,259,226.8,248.187Zm7.952,10.092-27.1,15.691-1.978-1.141,27.1-15.693ZM207.926,276.1l-20.112,11.589-1.978-1.143,20.114-11.587Zm6.717-8.779-1.976-1.143,8.761-5.1,1.978,1.143Zm-1.421-13.853L191.4,266.037l-1.978-1.141,21.819-12.574Zm-10.773,13.723,18.285-10.6,1.978,1.143-18.287,10.6ZM222.441,255.6l19.868-11.523,1.976,1.143-19.866,11.523Zm6.069-8.4,9.56-5.572,1.978,1.141-9.562,5.574Zm-67.142,36.147-7.084,4.089L152.3,286.3l7.086-4.091Zm77.072-24.914-1.978-1.143,14.323-8.321,1.978,1.143Zm9.784-10.6-23.113,13.4-1.976-1.143,23.113-13.4ZM186.108,288.67l-14.87,8.555-1.978-1.141,14.87-8.557Zm-5.819-11.323-21.767,12.538-1.978-1.141,21.767-12.538Zm-8.2,9.628-9.327,5.356-1.978-1.141,9.327-5.356Zm17.744-5.35L167,294.78l-1.978-1.143,22.832-13.151Z" transform="translate(107.871 241.244)" fill="#2d5e70"/>
        <path id="Path_2890" data-name="Path 2890" d="M177.8,272.888l1.978,1.143-3.981,2.3-1.976-1.143Zm20.715-4.756-26.441,15.24L170.1,282.23l26.439-15.24Zm-7.692,7.05,1.978,1.141-11.229,6.459-1.976-1.141Zm12.2.13L182.9,286.9l-1.978-1.141,20.114-11.589Zm-51.843,12.918,20.937-12.058,1.978,1.143-20.937,12.058Zm10.719,3.629,15.993-9.235,1.978,1.143L163.873,293Zm56.966-35.522-18.643,10.809-1.976-1.141L216.882,255.2Zm-14.139,17.99-1.976-1.143,8.761-5.1,1.976,1.141ZM203.3,260.472l-21.819,12.574L179.5,271.9l21.819-12.572ZM192.528,274.2l18.285-10.6,1.978,1.141L194.5,275.34Zm19.992-11.589,19.868-11.523,1.976,1.143L214.5,263.751Zm6.067-8.4,9.562-5.572,1.976,1.141-9.56,5.572Zm-67.14,36.147-7.084,4.089-1.978-1.141,7.084-4.091ZM238.3,254.84l-23.113,13.4-1.978-1.143,23.114-13.4Zm-67.936,29.516L148.6,296.894l-1.978-1.143,21.767-12.536Zm-8.2,9.628-9.327,5.356-1.978-1.141,9.327-5.356Zm17.744-5.35-22.832,13.153-1.978-1.143,22.832-13.152Z" transform="translate(142.156 248.242)" fill="#2d5e70"/>
        <path id="Path_2891" data-name="Path 2891" d="M160.732,278.837l1.978,1.141-3.981,2.3-1.978-1.141Zm20.713-4.756-26.439,15.24-1.976-1.141,26.439-15.242Zm-7.69,7.05,1.978,1.141L164.5,288.731l-1.976-1.143Zm12.2.128-20.114,11.589-1.978-1.143,20.114-11.587Zm-51.843,12.92,20.937-12.058,1.978,1.141-20.937,12.058Zm10.719,3.629,15.993-9.235,1.978,1.143-16,9.233Zm56.964-35.522L183.152,273.1l-1.976-1.143,18.641-10.807Zm7.954,10.09-27.1,15.693-1.978-1.141,27.1-15.693Zm-28.807,16.679-20.112,11.587-1.978-1.141,20.112-11.589Zm6.717-8.781-1.978-1.141,8.763-5.1,1.976,1.141Zm-1.421-13.853-21.819,12.574-1.978-1.143,21.819-12.572Zm-10.773,13.725,18.285-10.6,1.978,1.141-18.287,10.6Zm19.992-11.589,19.866-11.523,1.978,1.143L197.43,269.7Zm6.067-8.4,9.562-5.572,1.976,1.141L203.5,261.3ZM134.381,296.3,127.3,300.4l-1.978-1.141,7.084-4.091Zm77.072-24.912-1.978-1.143,14.323-8.321,1.978,1.141Zm9.784-10.6-23.113,13.4-1.978-1.141,23.114-13.4Zm-62.116,40.837-14.872,8.557-1.976-1.141,14.87-8.557ZM153.3,290.305l-21.767,12.538-1.978-1.143,21.767-12.538Zm-8.2,9.628-9.327,5.356-1.978-1.141,9.327-5.356Zm17.744-5.35L140.01,307.736l-1.976-1.141,22.832-13.154Zm23.711-6.127,1.978,1.143L177.3,296.057l-1.976-1.141Zm12.2.13-20.114,11.587-1.978-1.141,20.114-11.589Zm-41.123,16.547,15.993-9.233,1.978,1.141-15.993,9.235ZM200.456,287.6l-1.976-1.143,8.761-5.1,1.978,1.143Zm-12.194-.13,18.285-10.6,1.978,1.143-18.287,10.6Zm19.992-11.589,19.868-11.523L230.1,265.5l-19.866,11.523Zm25.783-7.768-23.114,13.4-1.978-1.143,23.116-13.4ZM157.9,307.26l-9.327,5.356-1.978-1.141,9.327-5.356Zm17.744-5.35-22.832,13.153-1.978-1.143,22.832-13.152Z" transform="translate(180.527 254.181)" fill="#2d5e70"/>
        <path id="Path_2892" data-name="Path 2892" d="M138.934,267.65l1.978,1.143-7.108,4.1-1.978-1.141Zm10.907.881-15.993,9.233-1.978-1.141,15.993-9.235Zm-35.715,13.441,15.993-9.233,1.978,1.141L116.1,283.115Zm19.167,3.659,16.823-9.712,1.978,1.141-16.823,9.714Z" transform="translate(284.837 266.961)" fill="#72b5e8"/>
        <path id="Path_2893" data-name="Path 2893" d="M147.4,287.5a.4.4,0,0,1,.466-.326l3.157.556-.334-.562c4.616-2.734,11.381-3.743,17.65-2.64,6.055,1.067,10.653,3.985,12,7.614l-.755.282c-1.249-3.363-5.612-6.085-11.387-7.1-6.019-1.059-12.488-.12-16.942,2.45l31.409,5.53a.4.4,0,0,1-.07.8.291.291,0,0,1-.07-.008l-34.8-6.127a.4.4,0,0,1-.326-.468m-4.025,7.232,12.486,2.2a.4.4,0,0,1-.068.8.44.44,0,0,1-.072-.006l-9.071-1.6c1.109,3.5,5.5,6.317,11.479,7.37,5.939,1.045,12.366.136,16.813-2.376l-15.522-2.66a.4.4,0,0,1,.136-.8l18.617,3.193a.4.4,0,0,1-.068.8.388.388,0,0,1-.068-.006l-2.94-.5.352.613a25.452,25.452,0,0,1-12.388,2.966,29.348,29.348,0,0,1-5.072-.438c-6.323-1.113-10.971-4.179-12.132-8l.633-.192-3.255-.576a.4.4,0,0,1,.14-.793m-2.918-4.448c3.153-5.859,12.334-9.794,22.846-9.794a39.785,39.785,0,0,1,6.888.6c7.744,1.363,13.683,4.894,15.889,9.444a8.49,8.49,0,0,1-.21,8.01c-3.154,5.857-12.334,9.794-22.846,9.794a39.968,39.968,0,0,1-6.888-.6c-7.744-1.365-13.685-4.894-15.889-9.444a8.49,8.49,0,0,1,.21-8.01m.514,7.658c2.094,4.319,7.816,7.684,15.306,9a39.144,39.144,0,0,0,6.749.582c10.064,0,19.167-3.853,22.136-9.371a7.714,7.714,0,0,0,.194-7.276c-2.092-4.317-7.814-7.682-15.3-9a38.963,38.963,0,0,0-6.749-.583c-10.064,0-19.167,3.853-22.136,9.371a7.714,7.714,0,0,0-.2,7.276m22.32-16.129a36.27,36.27,0,0,1,6.289.544c7.048,1.241,12.45,4.444,14.448,8.567a7.624,7.624,0,0,1-.19,7.192c-2.862,5.32-11.223,8.895-20.8,8.895a36.46,36.46,0,0,1-6.289-.544c-7.048-1.241-12.45-4.444-14.448-8.569a7.625,7.625,0,0,1,.19-7.192c2.862-5.32,11.221-8.893,20.8-8.893M142.66,297.718c1.942,4.009,7.234,7.128,14.157,8.347a36.038,36.038,0,0,0,6.219.538c9.289,0,17.7-3.569,20.446-8.681a7.236,7.236,0,0,0,.184-6.827c-1.944-4.007-7.236-7.128-14.157-8.347a36.067,36.067,0,0,0-6.219-.538c-9.289,0-17.7,3.571-20.448,8.683a7.232,7.232,0,0,0-.182,6.825" transform="translate(199.554 280.038)" fill="#cc9a28"/>
        <path id="Path_2894" data-name="Path 2894" d="M170.333,292.081a.491.491,0,0,0,.092-.973l-24.335-4.6a.478.478,0,0,0-.574.39.5.5,0,0,0,.39.576l24.335,4.6a.509.509,0,0,0,.092.008" transform="translate(203.392 286.043)" fill="#cc9a28"/>
        <path id="Path_2895" data-name="Path 2895" d="M164.8,289.848a.491.491,0,0,0,.092-.973l-17.714-3.345a.483.483,0,0,0-.576.39.5.5,0,0,0,.392.576l17.714,3.345a.508.508,0,0,0,.092.008" transform="translate(206.755 285.065)" fill="#cc9a28"/>
        <path id="Path_2896" data-name="Path 2896" d="M138.72,306.986a2.641,2.641,0,0,0,.372-.026.975.975,0,0,0,.817-.739c1.023-4.2-.436-8.811-4.458-14.083a6.871,6.871,0,0,1,1.9-2.256c.2-.154.943-.693,1.1-.811a7.917,7.917,0,0,0,1.439,3.105.974.974,0,0,0,.783.388l.2-.018a.985.985,0,0,0,.749-.735c.51-2.21,1.083-4.708.4-7.18a7.518,7.518,0,0,0-1.573-2.914l2.914.436a13.3,13.3,0,0,0,.831,10.9.98.98,0,0,0,.418.4,6.6,6.6,0,0,0,2.988.659,8.357,8.357,0,0,0,1.539-.144,18.715,18.715,0,0,0,2.1,7.936.971.971,0,0,0,.867.528,4.567,4.567,0,0,0,3.667-2.34,6.97,6.97,0,0,0,.613-3.313c.02-2.654-.01-5.324-.082-7.952A10.088,10.088,0,0,0,158.031,285a1.779,1.779,0,0,0,.228-.41,11.5,11.5,0,0,0,1.213-5.046,9.5,9.5,0,0,1,1.025-4.317l.254-.532-1.761-.841-.254.534a11.485,11.485,0,0,0-1.217,5.06c-.018.434-.036.857-.094,1.309a.977.977,0,0,0-.54-.248s-1.8-.206-1.809-.206a1.015,1.015,0,0,0-.755.264.952.952,0,0,0-.3.769q.141,2.338.236,4.694a7.237,7.237,0,0,1-.909.146,5.511,5.511,0,0,0-2.18.582,3.422,3.422,0,0,0-1.5,2.278,17.541,17.541,0,0,0-.48,2.928,6.674,6.674,0,0,1-1.583.194,4.973,4.973,0,0,1-1.837-.32,11.556,11.556,0,0,1-.154-10.082.989.989,0,0,0-.042-.859.972.972,0,0,0-.713-.494l-9.173-1.365a1.009,1.009,0,0,0-1.079.8.977.977,0,0,0,.785,1.121,6.012,6.012,0,0,1,4.74,4.159.96.96,0,0,0-.588-.232h-.008a.947.947,0,0,0-.973.707,6.692,6.692,0,0,0-.2.937,7.473,7.473,0,0,1-1.527,1.3c-.236.17-.466.338-.681.506a8.862,8.862,0,0,0-2.014,2.168q-.321-.384-.636-.747c-.749-.867-1.523-1.733-2.3-2.6-1.565-1.743-3.181-3.545-4.572-5.4a7.632,7.632,0,0,0-1.7-2.486,2.189,2.189,0,0,0-.875.3c-.236.258,4.76,7.846,5.7,8.887.767.857,1.535,1.711,2.276,2.568.378.44.771.907,1.165,1.395a9.693,9.693,0,0,0-.456,4.275c.32,2.888,1.677,5.53,2.986,8.086a3.509,3.509,0,0,0,2.994,2.2m-4.007-12.554c2.748,3.9,3.889,7.318,3.471,10.4a2.835,2.835,0,0,1-.719-.933c-1.235-2.412-2.5-4.89-2.784-7.412a8.112,8.112,0,0,1,.032-2.056m19.692-3.385q.054,2.866.032,5.707a5.293,5.293,0,0,1-.39,2.43,2.558,2.558,0,0,1-1.393,1.167,16.6,16.6,0,0,1-1.569-6.982,11.125,11.125,0,0,0,3.319-2.322m-.07-2.846a13.556,13.556,0,0,1-.951,1.1,10.949,10.949,0,0,1-2.132,1.776,15.219,15.219,0,0,1,.312-1.569c.154-.616.316-.907.6-1.073a3.956,3.956,0,0,1,1.413-.322c.248-.028.5-.06.753-.1Zm-13.953-1.353a10.345,10.345,0,0,1-.074,1.495,5.123,5.123,0,0,1-.048-1.185,2.371,2.371,0,0,0,.122-.31m15.671-4.472a4.627,4.627,0,0,1,.092,2.1c-.032-.7-.068-1.4-.108-2.1Z" transform="translate(256.348 273.415)" fill="#084c94"/>
        <path id="Path_2897" data-name="Path 2897" d="M197.179,279.006h56.833v8.767c0,9.139-12.722,16.549-28.415,16.549s-28.417-7.41-28.417-16.549c0-.076.008-.152.01-.228h-.01Z" transform="translate(16.946 278.56)" fill="#fc0"/>
        <path id="Path_2898" data-name="Path 2898" d="M254.011,287.331c0,9.139-12.722,16.549-28.417,16.549s-28.415-7.41-28.415-16.549,12.722-16.549,28.415-16.549,28.417,7.41,28.417,16.549" transform="translate(16.949 270.35)" fill="#ffde17"/>
        <path id="Path_2899" data-name="Path 2899" d="M225.6,295.43c15.524,0,28.132-7.25,28.4-16.251,0,.1.014.2.014.3,0,9.139-12.724,16.547-28.417,16.547s-28.417-7.408-28.417-16.547c0-.1.01-.2.014-.3.272,9,12.88,16.251,28.4,16.251" transform="translate(16.947 278.733)" fill="#fff"/>
        <path id="Path_2900" data-name="Path 2900" d="M203.86,265.91h30.13v25.626c0,4.844-6.745,8.773-15.064,8.773s-15.066-3.929-15.066-8.773c0-.042,0-.082.006-.122h-.006Z" transform="translate(23.616 265.485)" fill="#fc0"/>
        <path id="Path_2901" data-name="Path 2901" d="M200.49,273.141a21.8,21.8,0,1,0,21.8-21.8,21.8,21.8,0,0,0-21.8,21.8" transform="translate(20.253 250.941)" fill="#ffd70f"/>
        <path id="Path_2902" data-name="Path 2902" d="M224.7,251.5a21.758,21.758,0,0,0,13.485,40.857A21.783,21.783,0,1,1,224.7,251.5" transform="translate(14.335 251.094)" fill="#fc0"/>
        <path id="Path_2903" data-name="Path 2903" d="M203.5,263.044a8.842,8.842,0,1,0,8.843-8.843,8.843,8.843,0,0,0-8.843,8.843" transform="translate(37.132 253.795)" fill="#ffde17"/>
        <path id="Path_2904" data-name="Path 2904" d="M64.995,281.291l3.889-4.285,57.592-30.855-1.1-1.219,5.384-3.893,1.936,5.671.55,3.4Z" transform="translate(401.872 240.654)" fill="#3f92d1"/>
        <path id="Path_2905" data-name="Path 2905" d="M64.995,278.395h0a4.661,4.661,0,0,0,6.317,1.892l61.93-33.074s-3.853-3.3-3.893-3.273Z" transform="translate(401.871 243.55)" fill="#a8cff0"/>
        <path id="Path_2906" data-name="Path 2906" d="M65.822,279.224l64.355-34.454c.028-.016,1.835,1.519,2.978,2.49l.086-.046s-3.851-3.3-3.893-3.273L64.995,278.4a4.609,4.609,0,0,0,1.269,1.479,4.661,4.661,0,0,1-.442-.651" transform="translate(401.874 243.55)" fill="#d1ebff"/>
        <path id="Path_2907" data-name="Path 2907" d="M146.07,279.73c-1.765.951-7.278,2.32-8.227.556s3.02-6,4.782-6.948a3.631,3.631,0,1,1,3.445,6.393" transform="translate(241.844 272.465)" fill="#03336e"/>
        <path id="Path_2908" data-name="Path 2908" d="M157.393,284.961c9.347-4.914-3.147-28.989-13.359-23.084s-21.471,21.237-21.471,21.237a.1.1,0,0,0-.038.022c-1.367,1.573-1.621,3.615-.208,6.235s2.6,3.363,5.322,3.257c.016,0,.026-.014.038-.022s20.37-2.732,29.716-7.646" transform="translate(261.765 260.535)" fill="#a8cff0"/>
        <g id="Group_926" data-name="Group 926" transform="translate(384.438 521.495)" opacity="0.5">
          <g id="Group_925" data-name="Group 925" transform="translate(0)">
            <g id="Group_924" data-name="Group 924" clip-path="url(#clip-path-12)">
              <path id="Path_2909" data-name="Path 2909" d="M149.881,282.5c6.511-3.423,2.422-16.133-4.111-21.541,9.408-.464,18.755,19.558,10.322,23.993-9.347,4.914-29.716,7.646-29.716,7.646s-.022.022-.036.022c-2.49.1-3.7-.534-4.968-2.648,4.5-.669,20.522-3.273,28.509-7.472" transform="translate(-121.372 -260.956)" fill="#72b5e8"/>
            </g>
          </g>
        </g>
        <path id="Path_2910" data-name="Path 2910" d="M151.245,278.746l-12.79-23.735-23.909,12.774,0,0-.1.046c-3.817,2.056-4.047,9.039-.516,15.592s9.488,10.2,13.305,8.143c.032-.018.06-.038.092-.056l0,0Z" transform="translate(291.073 254.604)" fill="#eb4680"/>
        <g id="Group_929" data-name="Group 929" transform="translate(384.376 530.146)" opacity="0.5">
          <g id="Group_928" data-name="Group 928" transform="translate(0)">
            <g id="Group_927" data-name="Group 927" clip-path="url(#clip-path-13)">
              <path id="Path_2911" data-name="Path 2911" d="M133.519,278.59l.034-.028s6.795-6.773,14.063-13.277a19.186,19.186,0,0,0,1.485,5.985c-7.074,4.91-13.927,9.368-13.927,9.368a.08.08,0,0,1-.022.018c-2.1,1.287-2.83,1.485-3.281.913s.23-1.631,1.649-2.98" transform="translate(-131.733 -265.285)" fill="#d1ebff"/>
            </g>
          </g>
        </g>
        <path id="Path_2912" data-name="Path 2912" d="M113.46,278.486c.032-.018.062-.038.094-.056l0,0,23.909-12.772,6.211,2.452-23.909,12.772,0,0c-.032.018-.062.038-.094.056-2.3,1.241-5.384.394-8.241-1.9a4.845,4.845,0,0,0,2.03-.55" transform="translate(298.642 265.238)" fill="#d62d69"/>
      </g>
    </g>
    <g id="Group_933" data-name="Group 933" transform="translate(426.461 509.067)">
      <g id="Group_932" data-name="Group 932" transform="translate(0)" clip-path="url(#clip-path-14)">
        <rect id="Rectangle_749" data-name="Rectangle 749" width="22.627" height="27.722" transform="matrix(-0.998, -0.068, 0.068, -0.998, 19.762, 27.779)" fill="url(#linear-gradient)"/>
      </g>
    </g>
    <g id="Group_963" data-name="Group 963">
      <g id="Group_962" data-name="Group 962" clip-path="url(#clip-path)">
        <path id="Path_2914" data-name="Path 2914" d="M171.108,255.286l-12.79-23.735-87.444,47.12,0,0-.1.046c-3.817,2.056-4.047,9.037-.516,15.592s9.488,10.2,13.305,8.144c.032-.018.062-.038.094-.056l0,0Z" transform="translate(358.484 231.181)" fill="#a8cff0"/>
        <g id="Group_936" data-name="Group 936" transform="translate(433.809 462.732)" opacity="0.5">
          <g id="Group_935" data-name="Group 935" transform="translate(0)">
            <g id="Group_934" data-name="Group 934" clip-path="url(#clip-path-16)">
              <path id="Path_2915" data-name="Path 2915" d="M69.788,300c.034-.018.064-.038.094-.056l0,0,87.442-47.118-10.366-19.241,3.789-2.042,12.79,23.735L76.1,302.4l0,0c-.034.018-.064.038-.094.056-2.3,1.241-5.384.394-8.243-1.9a4.857,4.857,0,0,0,2.03-.55" transform="translate(-67.758 -231.551)" fill="#72b5e8"/>
            </g>
          </g>
        </g>
        <path id="Path_2916" data-name="Path 2916" d="M82.08,255.586c-3.817,2.056-9.774-1.589-13.305-8.143s-3.3-13.535.516-15.592,9.774,1.591,13.305,8.144,3.3,13.535-.516,15.591" transform="translate(447.464 230.908)" fill="#d1ebff"/>
        <path id="Path_2917" data-name="Path 2917" d="M67.8,243.426l0,0-.048.026c.016-.01.03-.022.046-.03" transform="translate(461.786 243.037)" fill="#a8cff0"/>
        <path id="Path_2918" data-name="Path 2918" d="M67.8,243.426l0,0-.048.026c.016-.01.03-.022.046-.03" transform="translate(461.786 243.037)" fill="#a8cff0"/>
        <path id="Path_2919" data-name="Path 2919" d="M71.634,247.156c-3.531-6.555-3.3-13.535.516-15.592.086-.046.176-.074.264-.114a4.689,4.689,0,0,0-1.257.446c-3.817,2.056-4.049,9.037-.516,15.592,3.453,6.407,9.219,10.02,13.042,8.257-3.775.807-8.883-2.716-12.048-8.589" transform="translate(445.157 231.081)" fill="#f0f8ff"/>
        <path id="Path_2920" data-name="Path 2920" d="M87.844,248.353l-10.851-20.14-13.577,7.518,0,0c-.026.014-.056.026-.082.04C60.1,237.52,59.9,243.443,62.9,249s8.052,8.655,11.289,6.91c.028-.014.052-.032.08-.048l0,0Z" transform="translate(455.709 227.848)" fill="#eb4680"/>
        <path id="Path_2921" data-name="Path 2921" d="M72.924,248.607c-3.237,1.745-8.293-1.349-11.289-6.91s-2.8-11.483.438-13.229,8.293,1.349,11.289,6.91,2.8,11.485-.438,13.229" transform="translate(470.589 227.616)" fill="#f76195"/>
        <path id="Path_2922" data-name="Path 2922" d="M66.2,228.234l.036-.02,0,0-.038.016" transform="translate(466.465 227.849)" fill="#eb4680"/>
        <path id="Path_2923" data-name="Path 2923" d="M66.2,228.234l.036-.02,0,0-.038.016" transform="translate(466.465 227.849)" fill="#eb4680"/>
        <g id="Group_939" data-name="Group 939" transform="translate(529.545 456.435)" opacity="0.5">
          <g id="Group_938" data-name="Group 938" transform="translate(0)">
            <g id="Group_937" data-name="Group 937" clip-path="url(#clip-path-17)">
              <path id="Path_2924" data-name="Path 2924" d="M63.8,241.058c-2.73-5.068-2.8-10.426-.344-12.658-.07.032-.144.054-.212.092-3.239,1.745-3.435,7.668-.438,13.227s8.052,8.657,11.289,6.91a4,4,0,0,0,.781-.57c-3.243,1.509-8.143-1.559-11.077-7" transform="translate(-60.679 -228.4)" fill="#fff"/>
            </g>
          </g>
        </g>
        <g id="Group_944" data-name="Group 944" transform="translate(380.741 551.127)" opacity="0.2" style="mix-blend-mode: multiply;isolation: isolate">
          <g id="Group_943" data-name="Group 943">
            <g id="Group_942" data-name="Group 942" clip-path="url(#clip-path-18)">
              <g id="Group_941" data-name="Group 941" transform="translate(-0.001 0)">
                <g id="Group_940" data-name="Group 940" clip-path="url(#clip-path-19)">
                  <rect id="Rectangle_752" data-name="Rectangle 752" width="137.916" height="135.614" transform="matrix(-0.737, -0.676, 0.676, -0.737, 62.595, 135.175)" fill="url(#radial-gradient)"/>
                </g>
              </g>
            </g>
          </g>
        </g>
        <g id="Group_949" data-name="Group 949" transform="translate(381.854 552.051)" style="mix-blend-mode: multiply;isolation: isolate">
          <g id="Group_948" data-name="Group 948" transform="translate(0)">
            <g id="Group_947" data-name="Group 947" clip-path="url(#clip-path-20)">
              <g id="Group_946" data-name="Group 946" transform="translate(-0.001 0.001)">
                <g id="Group_945" data-name="Group 945" clip-path="url(#clip-path-21)">
                  <rect id="Rectangle_754" data-name="Rectangle 754" width="61.623" height="60.61" transform="matrix(-0.737, -0.676, 0.676, -0.737, 27.721, 60.4)" fill="url(#radial-gradient-2)"/>
                </g>
              </g>
            </g>
          </g>
        </g>
        <g id="Group_952" data-name="Group 952" transform="translate(427.286 469.857)" opacity="0.5">
          <g id="Group_951" data-name="Group 951">
            <g id="Group_950" data-name="Group 950" clip-path="url(#clip-path-22)">
              <path id="Path_2927" data-name="Path 2927" d="M162.3,241.13,76.446,286.946a15.565,15.565,0,0,1-.863-6.231l85.428-45.6a19.284,19.284,0,0,0,1.289,6.013" transform="translate(-75.534 -235.116)" fill="#d1ebff"/>
            </g>
          </g>
        </g>
        <path id="Path_2928" data-name="Path 2928" d="M80.348,237.1l-11.974,6.389a14.137,14.137,0,0,1-1.069-5.528c.006-.182.044-.332.06-.5l11.615-6.2a16.876,16.876,0,0,0,1.369,5.841" transform="translate(450.162 230.885)" fill="#f76195"/>
        <path id="Path_2929" data-name="Path 2929" d="M142.316,264.565l-21.924,11.7a16.346,16.346,0,0,1-1-5.755c0-.154.04-.28.05-.428l21.723-11.595a18.591,18.591,0,0,0,1.147,6.079" transform="translate(284.095 258.073)" fill="#f76195"/>
        <g id="Group_955" data-name="Group 955" transform="translate(167.652 573.038)" opacity="0.2">
          <g id="Group_954" data-name="Group 954" transform="translate(0)">
            <g id="Group_953" data-name="Group 953" clip-path="url(#clip-path-23)">
              <path id="Path_2930" data-name="Path 2930" d="M266.727,306.347c2.638-1.523,2.652-3.995.03-5.508L245.08,288.323a14.733,14.733,0,0,0-13.307.024c-3.679,2.126-3.7,5.572-.042,7.684L251.1,307.21a1.626,1.626,0,0,0,1.475,0,.45.45,0,0,0,.006-.851l-19.366-11.179c-2.846-1.645-2.832-4.329.034-5.981a11.457,11.457,0,0,1,10.358-.018l21.677,12.514c1.813,1.047,1.8,2.754-.02,3.807a7.3,7.3,0,0,1-6.593.01l-20.759-11.984a.909.909,0,0,1,.008-1.721,3.3,3.3,0,0,1,2.98-.006l17.3,9.986a.1.1,0,0,1,0,.2.373.373,0,0,1-.338,0l-12.724-7.344a1.628,1.628,0,0,0-1.473,0c-.408.236-.412.617-.006.851l12.724,7.346a3.639,3.639,0,0,0,3.285-.006,1,1,0,0,0,.012-1.9l-17.3-9.986a6.561,6.561,0,0,0-5.927.01c-1.639.947-1.649,2.482-.018,3.423l20.759,11.986a10.564,10.564,0,0,0,9.54-.018" transform="translate(-229.001 -286.748)" fill="#92b4d1"/>
            </g>
          </g>
        </g>
        <path id="Path_2931" data-name="Path 2931" d="M266.727,306.069c2.638-1.523,2.652-3.995.03-5.508L245.08,288.045a14.734,14.734,0,0,0-13.307.024c-3.679,2.126-3.7,5.572-.042,7.684L251.1,306.932a1.626,1.626,0,0,0,1.475,0,.45.45,0,0,0,.006-.851L233.209,294.9c-2.251-1.3-2.713-3.252-1.18-5.059a4.923,4.923,0,0,1,1.214-.922,11.6,11.6,0,0,1,7.243-1.081A9.014,9.014,0,0,1,243.6,288.9l21.677,12.514c1.813,1.045,1.8,2.754-.02,3.8a7.292,7.292,0,0,1-6.593.012l-20.759-11.984a.909.909,0,0,1,.008-1.721,3.3,3.3,0,0,1,2.98-.006l17.3,9.986a.1.1,0,0,1,0,.2.373.373,0,0,1-.338,0l-12.724-7.344a1.627,1.627,0,0,0-1.473,0c-.408.236-.412.617-.006.851l12.724,7.346a3.638,3.638,0,0,0,3.285-.006,1,1,0,0,0,.012-1.9l-17.3-9.986a6.561,6.561,0,0,0-5.927.01c-1.639.947-1.649,2.482-.018,3.423l20.759,11.986a10.564,10.564,0,0,0,9.54-.018" transform="translate(-61.349 286.012)" fill="#173039"/>
        <path id="Path_2932" data-name="Path 2932" d="M234.821,288.9a3.3,3.3,0,0,1,2.98,0l17.3,9.986a.1.1,0,0,1,0,.194.377.377,0,0,1-.34,0l-12.722-7.346a1.455,1.455,0,0,0-.486-.114l-3.749-2.164a3.3,3.3,0,0,0-2.98,0,1.182,1.182,0,0,0-.528.588c-.164-.4-.012-.833.528-1.145" transform="translate(-58.255 288.08)" fill="#2d5e70"/>
        <path id="Path_2933" data-name="Path 2933" d="M249.509,298.534a3.643,3.643,0,0,1-3.287.006L233.5,291.193c-.33-.19-.376-.474-.166-.7a.67.67,0,0,0,.166.146l12.722,7.344a3.636,3.636,0,0,0,3.287-.006,1.274,1.274,0,0,0,.592-.676,1,1,0,0,1-.592,1.233" transform="translate(-51.197 290.028)" fill="#2d5e70"/>
        <path id="Path_2934" data-name="Path 2934" d="M232.181,288.038a11.474,11.474,0,0,1,10.36-.02l21.675,12.516a2.134,2.134,0,0,1,1.307,2.17,2.437,2.437,0,0,0-1.307-1.613l-21.675-12.516a11.468,11.468,0,0,0-10.36.02,3.794,3.794,0,0,0-2.112,2.724c-.132-1.177.552-2.382,2.112-3.281" transform="translate(-60.287 286.335)" fill="#2d5e70"/>
        <path id="Path_2935" data-name="Path 2935" d="M239.629,292.608l19.365,11.179a1.626,1.626,0,0,0,1.475,0,.66.66,0,0,0,.17-.148c.21.228.164.514-.17.705a1.626,1.626,0,0,1-1.475,0l-19.365-11.179c-1.948-1.125-2.82-2.626-2.686-4.107a4.752,4.752,0,0,0,2.686,3.549" transform="translate(-69.245 288.597)" fill="#2d5e70"/>
        <path id="Path_2936" data-name="Path 2936" d="M229.043,289.3a2.2,2.2,0,0,0,1.171,1.421l20.759,11.988a10.564,10.564,0,0,0,9.54-.018,3.5,3.5,0,0,0,1.94-2.488c.134,1.091-.494,2.21-1.94,3.046a10.558,10.558,0,0,1-9.54.016l-20.759-11.986a1.91,1.91,0,0,1-1.171-1.978" transform="translate(-55.137 288.835)" fill="#2d5e70"/>
        <g id="Group_958" data-name="Group 958" transform="translate(116.781 555.677)" opacity="0.2">
          <g id="Group_957" data-name="Group 957">
            <g id="Group_956" data-name="Group 956" clip-path="url(#clip-path-23)">
              <path id="Path_2937" data-name="Path 2937" d="M256.443,297.66c-2.638-1.523-2.652-3.995-.03-5.508l21.677-12.516a14.734,14.734,0,0,1,13.307.024c3.679,2.126,3.7,5.572.042,7.684l-19.365,11.179a1.632,1.632,0,0,1-1.475,0,.45.45,0,0,1,0-.851l19.365-11.179c2.846-1.645,2.832-4.329-.034-5.981a11.457,11.457,0,0,0-10.358-.018l-21.677,12.514c-1.812,1.045-1.8,2.754.02,3.8a7.292,7.292,0,0,0,6.593.012l20.759-11.984a.909.909,0,0,0-.008-1.721,3.3,3.3,0,0,0-2.98-.006l-17.3,9.986a.1.1,0,0,0,0,.2.373.373,0,0,0,.338,0l12.724-7.344a1.628,1.628,0,0,1,1.473,0c.41.236.412.617.006.851L266.8,294.149a3.638,3.638,0,0,1-3.285-.006,1,1,0,0,1-.012-1.9l17.3-9.986a6.561,6.561,0,0,1,5.927.01c1.639.947,1.649,2.482.018,3.423l-20.759,11.986a10.564,10.564,0,0,1-9.54-.018" transform="translate(-254.455 -278.06)" fill="#92b4d1"/>
            </g>
          </g>
        </g>
        <path id="Path_2938" data-name="Path 2938" d="M256.443,297.319c-2.638-1.523-2.652-3.995-.03-5.508L278.09,279.3a14.734,14.734,0,0,1,13.307.024c3.679,2.126,3.7,5.572.042,7.684l-19.365,11.179a1.632,1.632,0,0,1-1.475,0,.45.45,0,0,1,0-.851l19.365-11.181c2.846-1.643,2.832-4.327-.034-5.979a11.464,11.464,0,0,0-10.358-.02l-21.677,12.516c-1.812,1.045-1.8,2.754.02,3.8a7.292,7.292,0,0,0,6.593.012L285.264,284.5a.909.909,0,0,0-.008-1.721,3.3,3.3,0,0,0-2.98-.006l-17.3,9.986a.1.1,0,0,0,0,.2.373.373,0,0,0,.338,0l12.724-7.344a1.628,1.628,0,0,1,1.473,0c.41.236.412.617.006.851L266.8,293.808a3.638,3.638,0,0,1-3.285-.006,1,1,0,0,1-.012-1.9l17.3-9.986a6.555,6.555,0,0,1,5.927.01c1.639.947,1.649,2.482.018,3.423l-20.759,11.986a10.564,10.564,0,0,1-9.54-.018" transform="translate(-137.674 277.276)" fill="#438ca7"/>
        <path id="Path_2939" data-name="Path 2939" d="M256.845,291.815,278.522,279.3a11.47,11.47,0,0,1,10.358.02c1.547.893,2.232,2.084,2.118,3.249a3.776,3.776,0,0,0-2.118-2.754,11.464,11.464,0,0,0-10.358-.02l-21.677,12.516a2.421,2.421,0,0,0-1.311,1.645,2.146,2.146,0,0,1,1.311-2.14" transform="translate(-136.627 277.629)" fill="#71afc6"/>
        <path id="Path_2940" data-name="Path 2940" d="M278.968,280.676a3.3,3.3,0,0,0-2.98,0l-3.931,2.27a1.381,1.381,0,0,0-.3.07l-12.724,7.346a.373.373,0,0,1-.338,0,.1.1,0,0,1,0-.2l17.3-9.986a3.3,3.3,0,0,1,2.98,0,.908.908,0,0,1,.538,1.113,1.159,1.159,0,0,0-.538-.617" transform="translate(-131.386 279.376)" fill="#71afc6"/>
        <path id="Path_2941" data-name="Path 2941" d="M262.284,289.273a3.637,3.637,0,0,0,3.287.006l12.722-7.344a.708.708,0,0,0,.2-.176c.176.222.112.49-.2.671l-12.722,7.344a3.636,3.636,0,0,1-3.287-.006,1.009,1.009,0,0,1-.6-1.2,1.248,1.248,0,0,0,.6.706" transform="translate(-136.449 281.309)" fill="#71afc6"/>
        <path id="Path_2942" data-name="Path 2942" d="M254.567,294.9a.712.712,0,0,0,.206.18,1.625,1.625,0,0,0,1.475,0l19.365-11.179a4.73,4.73,0,0,0,2.69-3.581c.12,1.471-.755,2.96-2.69,4.077l-19.365,11.179a1.626,1.626,0,0,1-1.475,0c-.316-.184-.382-.454-.206-.676" transform="translate(-121.849 279.877)" fill="#71afc6"/>
        <path id="Path_2943" data-name="Path 2943" d="M259.532,293.984a10.564,10.564,0,0,0,9.54.018l20.759-11.986a2.2,2.2,0,0,0,1.177-1.453,1.923,1.923,0,0,1-1.177,1.948L269.072,294.5a10.564,10.564,0,0,1-9.54-.018c-1.433-.827-2.062-1.932-1.946-3.014a3.49,3.49,0,0,0,1.946,2.518" transform="translate(-140.763 280.115)" fill="#71afc6"/>
        <g id="Group_961" data-name="Group 961" transform="translate(99.866 557.171)" opacity="0.2">
          <g id="Group_960" data-name="Group 960" transform="translate(0)">
            <g id="Group_959" data-name="Group 959" clip-path="url(#clip-path-25)">
              <path id="Path_2944" data-name="Path 2944" d="M276.142,302.351c3.433.532,7.346-.52,8.725-2.342l11.389-15.058c1.92-2.542-.412-5.21-5.2-5.951s-10.248.725-12.17,3.265l-10.174,13.453c-.214.282.044.578.576.66a1.563,1.563,0,0,0,1.349-.362l10.174-13.453c1.5-1.976,5.745-3.117,9.472-2.542s5.544,2.654,4.049,4.632l-11.389,15.06c-.951,1.257-3.657,1.984-6.029,1.617s-3.527-1.689-2.576-2.948l10.907-14.423a3.158,3.158,0,0,1,2.726-.731c1.073.166,1.595.763,1.163,1.333l-9.087,12.016a.357.357,0,0,1-.31.082c-.122-.018-.182-.086-.132-.15l6.685-8.839c.212-.282-.046-.578-.578-.659a1.557,1.557,0,0,0-1.347.362l-6.685,8.839c-.474.628.1,1.287,1.285,1.469a3.481,3.481,0,0,0,3.006-.805l9.087-12.016c.857-1.133-.182-2.322-2.316-2.652s-4.564.324-5.422,1.455l-10.907,14.423c-1.377,1.823.3,3.735,3.729,4.267" transform="translate(-268.638 -278.808)" fill="#92b4d1"/>
            </g>
          </g>
        </g>
        <path id="Path_2945" data-name="Path 2945" d="M276.142,302.01c3.433.532,7.346-.52,8.725-2.342l11.389-15.058c1.92-2.542-.412-5.21-5.2-5.951s-10.248.725-12.17,3.265l-10.174,13.453c-.214.282.044.578.576.659a1.563,1.563,0,0,0,1.349-.362l10.174-13.453c1.5-1.978,5.745-3.118,9.472-2.542s5.544,2.654,4.049,4.632l-11.389,15.06c-.951,1.257-3.657,1.984-6.029,1.617s-3.527-1.689-2.576-2.948l10.907-14.422a3.158,3.158,0,0,1,2.726-.731c1.073.166,1.595.763,1.163,1.333l-9.087,12.016a.357.357,0,0,1-.31.082c-.122-.018-.182-.086-.132-.15l6.685-8.839c.212-.282-.046-.578-.578-.66a1.557,1.557,0,0,0-1.347.362l-6.685,8.839c-.474.627.1,1.287,1.285,1.469a3.481,3.481,0,0,0,3.006-.805l9.087-12.016c.857-1.133-.182-2.322-2.316-2.652s-4.564.324-5.422,1.455l-10.907,14.422c-1.377,1.823.3,3.735,3.729,4.267" transform="translate(-168.772 278.022)" fill="#173039"/>
        <path id="Path_2946" data-name="Path 2946" d="M280.518,282.664c.178.13.24.3.11.476l-6.287,8.311a.373.373,0,0,1-.266.058c-.122-.018-.182-.086-.132-.152Z" transform="translate(-163.11 282.213)" fill="#2d5e70"/>
        <path id="Path_2947" data-name="Path 2947" d="M272.789,295.544,283.7,281.122a3.156,3.156,0,0,1,2.726-.731c1.017.158,1.513.705,1.193,1.247a1.639,1.639,0,0,0-1.193-.628,3.156,3.156,0,0,0-2.726.732l-10.907,14.422a1.625,1.625,0,0,0-.276.57,1.357,1.357,0,0,1,.276-1.189" transform="translate(-167.222 279.9)" fill="#2d5e70"/>
        <path id="Path_2948" data-name="Path 2948" d="M269.875,295.012a1.022,1.022,0,0,0,.468.184,1.553,1.553,0,0,0,1.347-.362l10.174-13.453c1.5-1.976,5.745-3.117,9.474-2.542,3.03.47,4.76,1.932,4.512,3.525-.234-1.339-1.883-2.5-4.512-2.906-3.729-.576-7.978.566-9.474,2.542L271.69,295.453a1.559,1.559,0,0,1-1.347.362c-.532-.082-.789-.376-.578-.659Z" transform="translate(-169.825 278.244)" fill="#2d5e70"/>
        <path id="Path_2949" data-name="Path 2949" d="M284.94,282.042l-9.087,12.016a3.483,3.483,0,0,1-3.006.805c-1.1-.17-1.641-.755-1.331-1.341a1.749,1.749,0,0,0,1.331.721,3.483,3.483,0,0,0,3.006-.805l9.087-12.016a1.49,1.49,0,0,0,.242-.476,1.214,1.214,0,0,1-.242,1.1" transform="translate(-162.652 280.498)" fill="#2d5e70"/>
        <path id="Path_2950" data-name="Path 2950" d="M272.832,299.395c3.433.53,7.346-.52,8.725-2.34l11.389-15.06a3.044,3.044,0,0,0,.614-1.529,2.815,2.815,0,0,1-.614,2.148l-11.389,15.06c-1.379,1.821-5.292,2.87-8.725,2.34-2.81-.436-4.408-1.8-4.153-3.275.23,1.225,1.743,2.284,4.153,2.656" transform="translate(-165.462 280.018)" fill="#2d5e70"/>
      </g>
    </g>
  </g>
</svg>
