<svg xmlns="http://www.w3.org/2000/svg" width="71.995" height="79.238" viewBox="0 0 71.995 79.238">
  <path id="Intersection_1" data-name="Intersection 1" d="M-4138.214-1125.45c8.019-7.6,25.72-11.452,35.714-11.452,10.237,0,28.559,4.042,36.281,12.011A45.424,45.424,0,0,1-4102-1107.5,45.429,45.429,0,0,1-4138.214-1125.45Zm15.779-41.355a19.993,19.993,0,0,1,19.935-19.934,19.993,19.993,0,0,1,19.935,19.934,19.993,19.993,0,0,1-19.935,19.935A19.993,19.993,0,0,1-4122.435-1166.8Z" transform="translate(4138.214 1186.738)" fill="#cc9a28"/>
</svg>
