<svg xmlns="http://www.w3.org/2000/svg" width="82" height="82" viewBox="0 0 82 82">
  <g id="Group_884" data-name="Group 884" transform="translate(-1025 -6407)" opacity="0.5">
    <circle id="Ellipse_28" data-name="Ellipse 28" cx="41" cy="41" r="41" transform="translate(1025 6407)" fill="#173039"/>
    <g id="Intersection_2" data-name="Intersection 2" transform="translate(1033 6417)" fill="#fff">
      <path d="M 32.85241317749023 71.3828125 C 29.60395240783691 71.3828125 26.37090110778809 70.99970245361328 23.24306106567383 70.24413299560547 C 20.2039623260498 69.50999450683594 17.24692153930664 68.42053985595703 14.45406150817871 67.00603485107422 C 11.71070194244385 65.61660003662109 9.118661880493164 63.91029739379883 6.749941825866699 61.93452453613281 C 4.510075569152832 60.06623840332031 2.468181371688843 57.95572662353516 0.6751487851142883 55.65614700317383 C 4.77874231338501 51.95795822143555 11.0594596862793 49.62029647827148 15.66529178619385 48.30054473876953 C 21.3256721496582 46.67863464355469 27.58125114440918 45.7103271484375 32.39897155761719 45.7103271484375 C 37.36465072631836 45.7103271484375 43.78374099731445 46.72599792480469 49.57002258300781 48.42724609375 C 52.82941055297852 49.38555526733398 55.76460266113281 50.52046585083008 58.29405212402344 51.80045700073242 C 60.91755294799805 53.12803268432617 63.05111694335938 54.58791732788086 64.64315032958984 56.14397048950195 C 62.84615707397461 58.37771987915039 60.81081390380859 60.42583465576172 58.5880126953125 62.23654556274414 C 56.23704147338867 64.15166473388672 53.67217254638672 65.80450439453125 50.96465301513672 67.14913940429688 C 48.20796203613281 68.5181884765625 45.29354095458984 69.57228851318359 42.30234146118164 70.28212738037109 C 39.22471237182617 71.01249694824219 36.04530334472656 71.3828125 32.85241317749023 71.3828125 Z M 32.39897155761719 35.66805648803711 C 30.03594207763672 35.66805648803711 27.73922157287598 35.20135498046875 25.57260131835938 34.28093719482422 C 23.4803409576416 33.39208602905273 21.59882164001465 32.12077713012695 19.98033142089844 30.50231552124023 C 18.36183166503906 28.88383674621582 17.09048271179199 27.00232696533203 16.20162200927734 24.91006660461426 C 15.28115177154541 22.74341583251953 14.8144416809082 20.44663619995117 14.8144416809082 18.08352661132812 C 14.8144416809082 15.7206563949585 15.28115177154541 13.42407608032227 16.20162200927734 11.25758647918701 C 17.09048271179199 9.165446281433105 18.36183166503906 7.284046173095703 19.98033142089844 5.66563606262207 C 21.59883117675781 4.047216415405273 23.4803409576416 2.775936365127563 25.57260131835938 1.887116193771362 C 27.73923110961914 0.9666962623596191 30.03595161437988 0.5000062584877014 32.39897155761719 0.5000062584877014 C 34.76212310791016 0.5000062584877014 37.05894088745117 0.9666962623596191 39.22562026977539 1.887116193771362 C 41.31792068481445 2.775936365127563 43.1994514465332 4.047216415405273 44.81795120239258 5.66563606262207 C 46.43644332885742 7.284036159515381 47.70777130126953 9.165435791015625 48.59663009643555 11.25757598876953 C 49.51707077026367 13.4240665435791 49.98377227783203 15.72064590454102 49.98377227783203 18.08352661132812 C 49.98377227783203 20.44665718078613 49.51707077026367 22.74343681335449 48.59662246704102 24.91006660461426 C 47.70777130126953 27.0023365020752 46.43644332885742 28.88384628295898 44.81795120239258 30.50231552124023 C 43.1994514465332 32.12077713012695 41.31792068481445 33.39209747314453 39.22562026977539 34.28092575073242 C 37.05895233154297 35.20135498046875 34.76213073730469 35.66805648803711 32.39897155761719 35.66805648803711 Z" stroke="none"/>
      <path d="M 32.85241317749023 70.8828125 C 36.00647354125977 70.8828125 39.14704132080078 70.51703643798828 42.18689346313477 69.79564666748047 C 45.14113998413086 69.09456634521484 48.01958084106445 68.05348968505859 50.74225234985352 66.70131683349609 C 53.41656112670898 65.37318420410156 55.95000076293945 63.74058532714844 58.27222061157227 61.84888458251953 C 60.3489990234375 60.15712738037109 62.26026916503906 58.25539016723633 63.96319580078125 56.18732070922852 C 62.44668579101562 54.78408050537109 60.46808242797852 53.46095657348633 58.06830215454102 52.24658584594727 C 55.56594085693359 50.98030471801758 52.65925216674805 49.85668563842773 49.42898178100586 48.90693664550781 C 43.68594360351562 47.21840667724609 37.319580078125 46.2103271484375 32.39897155761719 46.2103271484375 C 27.62522125244141 46.2103271484375 21.4211311340332 47.17140579223633 15.80302143096924 48.78120803833008 C 12.64716148376465 49.68548583984375 9.784071922302246 50.75749588012695 7.293302059173584 51.96745681762695 C 4.916976928710938 53.121826171875 2.926176786422729 54.3813591003418 1.361736059188843 55.71906661987305 C 3.061479806900024 57.84723281860352 4.978387355804443 59.80576705932617 7.070201873779297 61.55056762695312 C 9.409961700439453 63.50216674804688 11.9702615737915 65.18758392333984 14.67998218536377 66.55998992919922 C 17.4383716583252 67.95703887939453 20.35891151428223 69.03304290771484 23.36047172546387 69.75811767578125 C 26.44990158081055 70.50441741943359 29.64345169067383 70.8828125 32.85241317749023 70.8828125 M 32.39897155761719 35.16805648803711 C 34.694580078125 35.16805648803711 36.92562103271484 34.71475601196289 39.03012084960938 33.82073593139648 C 41.0631103515625 32.95709609985352 42.89147186279297 31.72165679931641 44.46440124511719 30.14875602722168 C 46.03732299804688 28.57585716247559 47.27276992797852 26.74752616882324 48.13643264770508 24.71456718444824 C 49.03046035766602 22.61010551452637 49.48377227783203 20.37909698486328 49.48377227783203 18.08352661132812 C 49.48377227783203 15.7881965637207 49.03046035766602 13.55739593505859 48.13644027709961 11.45309638977051 C 47.27278137207031 9.420256614685059 46.03733062744141 7.592036247253418 44.46441268920898 6.019196033477783 C 42.89147186279297 4.446336269378662 41.0631103515625 3.210936307907104 39.03013229370117 2.347316265106201 C 36.92561340332031 1.453306198120117 34.69457244873047 1.000006198883057 32.39897155761719 1.000006198883057 C 30.10350227355957 1.000006198883057 27.87255096435547 1.453306198120117 25.76810264587402 2.347316265106201 C 23.73515129089355 3.210936307907104 21.90681266784668 4.446336269378662 20.33387184143066 6.019196033477783 C 18.76094245910645 7.59204626083374 17.52547264099121 9.420276641845703 16.66180229187012 11.45309638977051 C 15.76776218414307 13.55741596221924 15.3144416809082 15.78821659088135 15.3144416809082 18.08352661132812 C 15.3144416809082 20.37908554077148 15.76776218414307 22.61008644104004 16.66181182861328 24.71455574035645 C 17.52548217773438 26.74751663208008 18.76094245910645 28.57583618164062 20.33388137817383 30.14875602722168 C 21.90681266784668 31.72165679931641 23.73515129089355 32.95708465576172 25.76810264587402 33.82073593139648 C 27.8725414276123 34.71475601196289 30.10349273681641 35.16805648803711 32.39897155761719 35.16805648803711 M 32.85241317749023 71.8828125 C 19.45048141479492 71.8828125 7.540452003479004 65.49539947509766 1.82739256615605e-06 55.59924697875977 C 7.274601936340332 48.70619583129883 23.33259201049805 45.2103271484375 32.39897155761719 45.2103271484375 C 41.68592071533203 45.2103271484375 58.30668258666992 48.87744522094727 65.31168365478516 56.10674667358398 C 57.75436019897461 65.71253967285156 46.0230712890625 71.8828125 32.85241317749023 71.8828125 Z M 32.39897155761719 36.16805648803711 C 22.45251274108887 36.16805648803711 14.3144416809082 28.0303955078125 14.3144416809082 18.08352661132812 C 14.3144416809082 8.137666702270508 22.45251274108887 6.24999984211172e-06 32.39897155761719 6.24999984211172e-06 C 42.34598159790039 6.24999984211172e-06 50.48377227783203 8.137666702270508 50.48377227783203 18.08352661132812 C 50.48377227783203 28.0303955078125 42.34598159790039 36.16805648803711 32.39897155761719 36.16805648803711 Z" stroke="none" fill="#173039"/>
    </g>
  </g>
</svg>
