<svg id="Group_23524" data-name="Group 23524" xmlns="http://www.w3.org/2000/svg" width="28" height="28" viewBox="0 0 28 28">
  <rect id="Rectangle_27847" data-name="Rectangle 27847" width="28" height="28" fill="#fff" opacity="0"/>
  <g id="user" transform="translate(4 2)">
    <path id="Path_7396" data-name="Path 7396" d="M92.783,11.607a5.541,5.541,0,0,0,4.067-1.7,5.642,5.642,0,0,0,1.685-4.1A5.642,5.642,0,0,0,96.85,1.7a5.714,5.714,0,0,0-8.134,0,5.641,5.641,0,0,0-1.685,4.1,5.642,5.642,0,0,0,1.685,4.1A5.543,5.543,0,0,0,92.783,11.607ZM89.706,2.7a4.324,4.324,0,0,1,6.155,0,4.215,4.215,0,0,1,1.275,3.1,4.215,4.215,0,0,1-1.275,3.105,4.323,4.323,0,0,1-6.155,0A4.214,4.214,0,0,1,88.431,5.8,4.214,4.214,0,0,1,89.706,2.7Zm0,0" transform="translate(-82.935)" fill="#ddb669"/>
    <path id="Path_7397" data-name="Path 7397" d="M19.952,254.206a14.406,14.406,0,0,0-.194-1.523,12.047,12.047,0,0,0-.373-1.531,7.582,7.582,0,0,0-.626-1.428,5.379,5.379,0,0,0-.944-1.237,4.16,4.16,0,0,0-1.356-.857,4.665,4.665,0,0,0-1.731-.315,1.752,1.752,0,0,0-.938.4c-.281.184-.61.4-.978.633a5.587,5.587,0,0,1-1.265.56,4.888,4.888,0,0,1-3.094,0,5.57,5.57,0,0,1-1.264-.56c-.364-.234-.693-.447-.978-.634a1.75,1.75,0,0,0-.938-.4,4.659,4.659,0,0,0-1.731.315,4.156,4.156,0,0,0-1.356.857,5.38,5.38,0,0,0-.944,1.236,7.6,7.6,0,0,0-.626,1.428,12.076,12.076,0,0,0-.372,1.531,14.307,14.307,0,0,0-.194,1.523c-.032.46-.048.939-.048,1.423a4.012,4.012,0,0,0,1.182,3.027,4.243,4.243,0,0,0,3.046,1.117H15.771a4.243,4.243,0,0,0,3.046-1.117A4.011,4.011,0,0,0,20,255.629C20,255.144,19.984,254.665,19.952,254.206Zm-2.1,3.428a2.856,2.856,0,0,1-2.078.728H4.229a2.856,2.856,0,0,1-2.078-.728,2.62,2.62,0,0,1-.746-2c0-.452.015-.9.044-1.325a12.9,12.9,0,0,1,.176-1.371,10.651,10.651,0,0,1,.328-1.35,6.184,6.184,0,0,1,.51-1.161,3.988,3.988,0,0,1,.694-.914,2.759,2.759,0,0,1,.9-.564,3.218,3.218,0,0,1,1.106-.215c.049.026.137.076.279.17.289.189.622.4.99.641a6.942,6.942,0,0,0,1.588.713,6.285,6.285,0,0,0,3.958,0,6.951,6.951,0,0,0,1.589-.714c.377-.242.7-.452.989-.641.142-.093.23-.143.279-.17a3.22,3.22,0,0,1,1.107.215,2.763,2.763,0,0,1,.9.564,3.977,3.977,0,0,1,.694.914,6.163,6.163,0,0,1,.51,1.161,10.627,10.627,0,0,1,.328,1.35,13.014,13.014,0,0,1,.176,1.372h0c.03.426.045.872.045,1.325A2.62,2.62,0,0,1,17.849,257.633Zm0,0" transform="translate(0 -235.773)" fill="#ddb669"/>
  </g>
</svg>
